G75*
%MOIN*%
%OFA0B0*%
%FSLAX25Y25*%
%IPPOS*%
%LPD*%
%AMOC8*
5,1,8,0,0,1.08239X$1,22.5*
%
%ADD10C,0.00600*%
%ADD11C,0.00400*%
%ADD12R,0.02953X0.06693*%
%ADD13R,0.05709X0.02953*%
%ADD14C,0.03000*%
%ADD15R,0.03000X0.02000*%
%ADD16R,0.03000X0.04000*%
%ADD17R,0.03000X0.03000*%
%ADD18R,0.03000X0.07000*%
%ADD19C,0.00800*%
%ADD20C,0.01419*%
D10*
X0028941Y0027500D02*
X0038941Y0027500D01*
X0048941Y0027500D01*
X0058941Y0027500D01*
X0068941Y0027500D01*
X0078941Y0027500D01*
X0078941Y0037500D01*
X0068941Y0037500D01*
X0058941Y0037500D01*
X0048941Y0037500D01*
X0038941Y0037500D01*
X0028941Y0037500D01*
X0028941Y0027500D01*
X0038941Y0027500D02*
X0038941Y0037500D01*
X0048941Y0037500D02*
X0048941Y0027500D01*
X0058941Y0027500D02*
X0058941Y0037500D01*
X0068941Y0037500D02*
X0068941Y0027500D01*
X0059063Y0095227D02*
X0054792Y0095227D01*
X0050482Y0099497D02*
X0048347Y0099497D01*
X0048347Y0096294D02*
X0048347Y0102700D01*
X0052617Y0102700D01*
X0046172Y0102700D02*
X0041902Y0102700D01*
X0041902Y0096294D01*
X0046172Y0096294D01*
X0044037Y0099497D02*
X0041902Y0099497D01*
X0039726Y0099497D02*
X0039726Y0101632D01*
X0038659Y0102700D01*
X0035456Y0102700D01*
X0035456Y0096294D01*
X0035456Y0098429D02*
X0038659Y0098429D01*
X0039726Y0099497D01*
X0037591Y0098429D02*
X0039726Y0096294D01*
X0033281Y0095227D02*
X0029011Y0095227D01*
X0025768Y0098429D02*
X0026835Y0099497D01*
X0026835Y0101632D01*
X0025768Y0102700D01*
X0022565Y0102700D01*
X0022565Y0096294D01*
X0022565Y0098429D02*
X0025768Y0098429D01*
X0020390Y0096294D02*
X0016120Y0096294D01*
X0016120Y0102700D01*
X0020390Y0102700D01*
X0018255Y0099497D02*
X0016120Y0099497D01*
X0013944Y0099497D02*
X0012877Y0098429D01*
X0009674Y0098429D01*
X0009674Y0096294D02*
X0009674Y0102700D01*
X0012877Y0102700D01*
X0013944Y0101632D01*
X0013944Y0099497D01*
X0011809Y0098429D02*
X0013944Y0096294D01*
X0061238Y0096294D02*
X0064441Y0096294D01*
X0065508Y0097362D01*
X0065508Y0098429D01*
X0064441Y0099497D01*
X0061238Y0099497D01*
X0061238Y0096294D02*
X0061238Y0102700D01*
X0064441Y0102700D01*
X0065508Y0101632D01*
X0065508Y0100564D01*
X0064441Y0099497D01*
X0067683Y0101632D02*
X0068751Y0102700D01*
X0070886Y0102700D01*
X0071954Y0101632D01*
X0071954Y0097362D01*
X0070886Y0096294D01*
X0068751Y0096294D01*
X0067683Y0097362D01*
X0067683Y0101632D01*
X0074129Y0100564D02*
X0074129Y0096294D01*
X0074129Y0099497D02*
X0078399Y0099497D01*
X0078399Y0100564D02*
X0078399Y0096294D01*
X0080574Y0096294D02*
X0080574Y0102700D01*
X0083777Y0102700D01*
X0084845Y0101632D01*
X0084845Y0099497D01*
X0083777Y0098429D01*
X0080574Y0098429D01*
X0082710Y0098429D02*
X0084845Y0096294D01*
X0087020Y0096294D02*
X0090223Y0096294D01*
X0091290Y0097362D01*
X0091290Y0101632D01*
X0090223Y0102700D01*
X0087020Y0102700D01*
X0087020Y0096294D01*
X0093465Y0095227D02*
X0097736Y0095227D01*
X0099911Y0096294D02*
X0104181Y0096294D01*
X0102046Y0096294D02*
X0102046Y0102700D01*
X0099911Y0100564D01*
X0106356Y0097362D02*
X0107424Y0097362D01*
X0107424Y0096294D01*
X0106356Y0096294D01*
X0106356Y0097362D01*
X0109579Y0097362D02*
X0113850Y0101632D01*
X0113850Y0097362D01*
X0112782Y0096294D01*
X0110647Y0096294D01*
X0109579Y0097362D01*
X0109579Y0101632D01*
X0110647Y0102700D01*
X0112782Y0102700D01*
X0113850Y0101632D01*
X0078399Y0100564D02*
X0076264Y0102700D01*
X0074129Y0100564D01*
D11*
X0072150Y0076904D02*
X0072150Y0074002D01*
X0077346Y0074002D02*
X0077346Y0077002D01*
X0064846Y0077002D02*
X0064846Y0074002D01*
X0059650Y0074002D02*
X0059650Y0076904D01*
X0089699Y0048600D02*
X0097297Y0048600D01*
X0097297Y0042404D02*
X0089699Y0042404D01*
D12*
X0088275Y0045498D03*
X0098721Y0045506D03*
D13*
X0074753Y0072625D03*
X0074753Y0078325D03*
X0062253Y0078325D03*
X0062253Y0072625D03*
D14*
X0063941Y0025000D02*
X0063941Y0002500D01*
X0073941Y0002500D02*
X0073941Y0025000D01*
X0053941Y0025000D02*
X0053941Y0002500D01*
X0043941Y0002500D02*
X0043941Y0025000D01*
X0033941Y0025000D02*
X0033941Y0002500D01*
D15*
X0033941Y0026500D03*
X0043941Y0026500D03*
X0053941Y0026500D03*
X0063941Y0026500D03*
X0073941Y0026500D03*
D16*
X0073941Y0039500D03*
X0063941Y0039500D03*
X0053941Y0039500D03*
X0043941Y0039500D03*
X0033941Y0039500D03*
D17*
X0033941Y0050000D03*
X0043941Y0050000D03*
X0053941Y0050000D03*
X0063941Y0050000D03*
X0073941Y0050000D03*
D18*
X0073941Y0045000D03*
X0063941Y0045000D03*
X0053941Y0045000D03*
X0043941Y0045000D03*
X0033941Y0045000D03*
D19*
X0042258Y0069203D02*
X0042256Y0069269D01*
X0042251Y0069335D01*
X0042241Y0069401D01*
X0042228Y0069466D01*
X0042212Y0069530D01*
X0042192Y0069593D01*
X0042168Y0069655D01*
X0042141Y0069715D01*
X0042111Y0069774D01*
X0042077Y0069831D01*
X0042040Y0069886D01*
X0042000Y0069939D01*
X0041958Y0069990D01*
X0041912Y0070038D01*
X0041864Y0070084D01*
X0041813Y0070126D01*
X0041760Y0070166D01*
X0041705Y0070203D01*
X0041648Y0070237D01*
X0041589Y0070267D01*
X0041529Y0070294D01*
X0041467Y0070318D01*
X0041404Y0070338D01*
X0041340Y0070354D01*
X0041275Y0070367D01*
X0041209Y0070377D01*
X0041143Y0070382D01*
X0041077Y0070384D01*
X0041077Y0080620D01*
X0041143Y0080622D01*
X0041209Y0080627D01*
X0041275Y0080637D01*
X0041340Y0080650D01*
X0041404Y0080666D01*
X0041467Y0080686D01*
X0041529Y0080710D01*
X0041589Y0080737D01*
X0041648Y0080767D01*
X0041705Y0080801D01*
X0041760Y0080838D01*
X0041813Y0080878D01*
X0041864Y0080920D01*
X0041912Y0080966D01*
X0041958Y0081014D01*
X0042000Y0081065D01*
X0042040Y0081118D01*
X0042077Y0081173D01*
X0042111Y0081230D01*
X0042141Y0081289D01*
X0042168Y0081349D01*
X0042192Y0081411D01*
X0042212Y0081474D01*
X0042228Y0081538D01*
X0042241Y0081603D01*
X0042251Y0081669D01*
X0042256Y0081735D01*
X0042258Y0081801D01*
X0049738Y0081801D01*
X0049740Y0081735D01*
X0049745Y0081669D01*
X0049755Y0081603D01*
X0049768Y0081538D01*
X0049784Y0081474D01*
X0049804Y0081411D01*
X0049828Y0081349D01*
X0049855Y0081289D01*
X0049885Y0081230D01*
X0049919Y0081173D01*
X0049956Y0081118D01*
X0049996Y0081065D01*
X0050038Y0081014D01*
X0050084Y0080966D01*
X0050132Y0080920D01*
X0050183Y0080878D01*
X0050236Y0080838D01*
X0050291Y0080801D01*
X0050348Y0080767D01*
X0050407Y0080737D01*
X0050467Y0080710D01*
X0050529Y0080686D01*
X0050592Y0080666D01*
X0050656Y0080650D01*
X0050721Y0080637D01*
X0050787Y0080627D01*
X0050853Y0080622D01*
X0050919Y0080620D01*
X0050919Y0070384D01*
X0050853Y0070382D01*
X0050787Y0070377D01*
X0050721Y0070367D01*
X0050656Y0070354D01*
X0050592Y0070338D01*
X0050529Y0070318D01*
X0050467Y0070294D01*
X0050407Y0070267D01*
X0050348Y0070237D01*
X0050291Y0070203D01*
X0050236Y0070166D01*
X0050183Y0070126D01*
X0050132Y0070084D01*
X0050084Y0070038D01*
X0050038Y0069990D01*
X0049996Y0069939D01*
X0049956Y0069886D01*
X0049919Y0069831D01*
X0049885Y0069774D01*
X0049855Y0069715D01*
X0049828Y0069655D01*
X0049804Y0069593D01*
X0049784Y0069530D01*
X0049768Y0069466D01*
X0049755Y0069401D01*
X0049745Y0069335D01*
X0049740Y0069269D01*
X0049738Y0069203D01*
X0042258Y0069203D01*
D20*
X0041274Y0083376D03*
M02*
