G75*
%MOIN*%
%OFA0B0*%
%FSLAX25Y25*%
%IPPOS*%
%LPD*%
%AMOC8*
5,1,8,0,0,1.08239X$1,22.5*
%
%ADD10C,0.07000*%
%ADD11C,0.01000*%
%ADD12C,0.02781*%
D10*
X0033941Y0045000D03*
X0043941Y0045000D03*
X0053941Y0045000D03*
X0063941Y0045000D03*
X0073941Y0045000D03*
X0073941Y0055000D03*
X0063941Y0055000D03*
X0053941Y0055000D03*
X0043941Y0055000D03*
X0033941Y0055000D03*
D11*
X0006000Y0037502D02*
X0006000Y0107242D01*
X0119047Y0107242D01*
X0119047Y0037502D01*
X0006000Y0037502D01*
X0006000Y0037995D02*
X0119047Y0037995D01*
X0119047Y0038993D02*
X0006000Y0038993D01*
X0006000Y0039992D02*
X0041399Y0039992D01*
X0040769Y0040253D02*
X0042827Y0039400D01*
X0045055Y0039400D01*
X0047113Y0040253D01*
X0048688Y0041828D01*
X0048941Y0042438D01*
X0049193Y0041828D01*
X0050769Y0040253D01*
X0052827Y0039400D01*
X0055055Y0039400D01*
X0057113Y0040253D01*
X0058688Y0041828D01*
X0058941Y0042438D01*
X0059193Y0041828D01*
X0060769Y0040253D01*
X0062827Y0039400D01*
X0065055Y0039400D01*
X0067113Y0040253D01*
X0068688Y0041828D01*
X0068941Y0042438D01*
X0069193Y0041828D01*
X0070769Y0040253D01*
X0072827Y0039400D01*
X0075055Y0039400D01*
X0077113Y0040253D01*
X0078688Y0041828D01*
X0079541Y0043886D01*
X0079541Y0046114D01*
X0078688Y0048172D01*
X0077113Y0049747D01*
X0076503Y0050000D01*
X0077113Y0050253D01*
X0078688Y0051828D01*
X0079541Y0053886D01*
X0079541Y0056114D01*
X0078688Y0058172D01*
X0077113Y0059747D01*
X0075055Y0060600D01*
X0072827Y0060600D01*
X0070769Y0059747D01*
X0069193Y0058172D01*
X0068941Y0057562D01*
X0068688Y0058172D01*
X0067113Y0059747D01*
X0065055Y0060600D01*
X0062827Y0060600D01*
X0060769Y0059747D01*
X0059193Y0058172D01*
X0058941Y0057562D01*
X0058688Y0058172D01*
X0057113Y0059747D01*
X0055055Y0060600D01*
X0052827Y0060600D01*
X0050769Y0059747D01*
X0049193Y0058172D01*
X0048941Y0057562D01*
X0048688Y0058172D01*
X0047113Y0059747D01*
X0045055Y0060600D01*
X0042827Y0060600D01*
X0040769Y0059747D01*
X0039193Y0058172D01*
X0038619Y0056784D01*
X0038575Y0056919D01*
X0038217Y0057621D01*
X0037755Y0058257D01*
X0037198Y0058814D01*
X0036562Y0059276D01*
X0035860Y0059634D01*
X0035112Y0059877D01*
X0034441Y0059983D01*
X0034441Y0055500D01*
X0033441Y0055500D01*
X0033441Y0059983D01*
X0032770Y0059877D01*
X0032022Y0059634D01*
X0031320Y0059276D01*
X0030684Y0058814D01*
X0030127Y0058257D01*
X0029665Y0057621D01*
X0029307Y0056919D01*
X0029064Y0056171D01*
X0028958Y0055500D01*
X0033441Y0055500D01*
X0033441Y0054500D01*
X0034441Y0054500D01*
X0034441Y0050017D01*
X0035112Y0050123D01*
X0035860Y0050366D01*
X0036562Y0050724D01*
X0037198Y0051186D01*
X0037755Y0051743D01*
X0038217Y0052379D01*
X0038575Y0053081D01*
X0038619Y0053216D01*
X0039193Y0051828D01*
X0040769Y0050253D01*
X0041379Y0050000D01*
X0040769Y0049747D01*
X0039193Y0048172D01*
X0038619Y0046784D01*
X0038575Y0046919D01*
X0038217Y0047621D01*
X0037755Y0048257D01*
X0037198Y0048814D01*
X0036562Y0049276D01*
X0035860Y0049634D01*
X0035112Y0049877D01*
X0034441Y0049983D01*
X0034441Y0045500D01*
X0033441Y0045500D01*
X0033441Y0049983D01*
X0032770Y0049877D01*
X0032022Y0049634D01*
X0031320Y0049276D01*
X0030684Y0048814D01*
X0030127Y0048257D01*
X0029665Y0047621D01*
X0029307Y0046919D01*
X0029064Y0046171D01*
X0028958Y0045500D01*
X0033441Y0045500D01*
X0033441Y0044500D01*
X0034441Y0044500D01*
X0034441Y0040017D01*
X0035112Y0040123D01*
X0035860Y0040366D01*
X0036562Y0040724D01*
X0037198Y0041186D01*
X0037755Y0041743D01*
X0038217Y0042379D01*
X0038575Y0043081D01*
X0038619Y0043216D01*
X0039193Y0041828D01*
X0040769Y0040253D01*
X0040031Y0040990D02*
X0036928Y0040990D01*
X0037933Y0041989D02*
X0039127Y0041989D01*
X0038713Y0042987D02*
X0038527Y0042987D01*
X0034441Y0042987D02*
X0033441Y0042987D01*
X0033441Y0041989D02*
X0034441Y0041989D01*
X0034441Y0040990D02*
X0033441Y0040990D01*
X0033441Y0040017D02*
X0033441Y0044500D01*
X0028958Y0044500D01*
X0029064Y0043829D01*
X0029307Y0043081D01*
X0029665Y0042379D01*
X0030127Y0041743D01*
X0030684Y0041186D01*
X0031320Y0040724D01*
X0032022Y0040366D01*
X0032770Y0040123D01*
X0033441Y0040017D01*
X0030954Y0040990D02*
X0006000Y0040990D01*
X0006000Y0041989D02*
X0029949Y0041989D01*
X0029355Y0042987D02*
X0006000Y0042987D01*
X0006000Y0043986D02*
X0029039Y0043986D01*
X0029034Y0045983D02*
X0006000Y0045983D01*
X0006000Y0046981D02*
X0029339Y0046981D01*
X0029925Y0047980D02*
X0006000Y0047980D01*
X0006000Y0048978D02*
X0030910Y0048978D01*
X0032022Y0050366D02*
X0032770Y0050123D01*
X0033441Y0050017D01*
X0033441Y0054500D01*
X0028958Y0054500D01*
X0029064Y0053829D01*
X0029307Y0053081D01*
X0029665Y0052379D01*
X0030127Y0051743D01*
X0030684Y0051186D01*
X0031320Y0050724D01*
X0032022Y0050366D01*
X0030974Y0050975D02*
X0006000Y0050975D01*
X0006000Y0049977D02*
X0033400Y0049977D01*
X0033441Y0049977D02*
X0034441Y0049977D01*
X0034482Y0049977D02*
X0041322Y0049977D01*
X0040046Y0050975D02*
X0036908Y0050975D01*
X0037923Y0051974D02*
X0039133Y0051974D01*
X0038719Y0052972D02*
X0038519Y0052972D01*
X0034441Y0052972D02*
X0033441Y0052972D01*
X0033441Y0051974D02*
X0034441Y0051974D01*
X0034441Y0050975D02*
X0033441Y0050975D01*
X0033441Y0048978D02*
X0034441Y0048978D01*
X0034441Y0047980D02*
X0033441Y0047980D01*
X0033441Y0046981D02*
X0034441Y0046981D01*
X0034441Y0045983D02*
X0033441Y0045983D01*
X0033441Y0044984D02*
X0006000Y0044984D01*
X0006000Y0051974D02*
X0029959Y0051974D01*
X0029363Y0052972D02*
X0006000Y0052972D01*
X0006000Y0053971D02*
X0029042Y0053971D01*
X0029032Y0055968D02*
X0006000Y0055968D01*
X0006000Y0056966D02*
X0029331Y0056966D01*
X0029915Y0057965D02*
X0006000Y0057965D01*
X0006000Y0058963D02*
X0030889Y0058963D01*
X0033441Y0058963D02*
X0034441Y0058963D01*
X0034441Y0057965D02*
X0033441Y0057965D01*
X0033441Y0056966D02*
X0034441Y0056966D01*
X0034441Y0055968D02*
X0033441Y0055968D01*
X0033441Y0054969D02*
X0006000Y0054969D01*
X0006000Y0059962D02*
X0033306Y0059962D01*
X0033441Y0059962D02*
X0034441Y0059962D01*
X0034576Y0059962D02*
X0041286Y0059962D01*
X0039985Y0058963D02*
X0036992Y0058963D01*
X0037967Y0057965D02*
X0039108Y0057965D01*
X0038694Y0056966D02*
X0038551Y0056966D01*
X0034441Y0053971D02*
X0033441Y0053971D01*
X0036972Y0048978D02*
X0040000Y0048978D01*
X0039114Y0047980D02*
X0037956Y0047980D01*
X0038543Y0046981D02*
X0038700Y0046981D01*
X0034441Y0043986D02*
X0033441Y0043986D01*
X0046483Y0039992D02*
X0051399Y0039992D01*
X0050031Y0040990D02*
X0047851Y0040990D01*
X0048755Y0041989D02*
X0049127Y0041989D01*
X0048941Y0047562D02*
X0048688Y0048172D01*
X0047113Y0049747D01*
X0046503Y0050000D01*
X0047113Y0050253D01*
X0048688Y0051828D01*
X0048941Y0052438D01*
X0049193Y0051828D01*
X0050769Y0050253D01*
X0051379Y0050000D01*
X0050769Y0049747D01*
X0049193Y0048172D01*
X0048941Y0047562D01*
X0048768Y0047980D02*
X0049114Y0047980D01*
X0050000Y0048978D02*
X0047882Y0048978D01*
X0046560Y0049977D02*
X0051322Y0049977D01*
X0050046Y0050975D02*
X0047836Y0050975D01*
X0048749Y0051974D02*
X0049133Y0051974D01*
X0049108Y0057965D02*
X0048774Y0057965D01*
X0047897Y0058963D02*
X0049985Y0058963D01*
X0051286Y0059962D02*
X0046596Y0059962D01*
X0056596Y0059962D02*
X0061286Y0059962D01*
X0059985Y0058963D02*
X0057897Y0058963D01*
X0058774Y0057965D02*
X0059108Y0057965D01*
X0058941Y0052438D02*
X0059193Y0051828D01*
X0060769Y0050253D01*
X0061379Y0050000D01*
X0060769Y0049747D01*
X0059193Y0048172D01*
X0058941Y0047562D01*
X0058688Y0048172D01*
X0057113Y0049747D01*
X0056503Y0050000D01*
X0057113Y0050253D01*
X0058688Y0051828D01*
X0058941Y0052438D01*
X0058749Y0051974D02*
X0059133Y0051974D01*
X0060046Y0050975D02*
X0057836Y0050975D01*
X0056560Y0049977D02*
X0061322Y0049977D01*
X0060000Y0048978D02*
X0057882Y0048978D01*
X0058768Y0047980D02*
X0059114Y0047980D01*
X0059127Y0041989D02*
X0058755Y0041989D01*
X0057851Y0040990D02*
X0060031Y0040990D01*
X0061399Y0039992D02*
X0056483Y0039992D01*
X0066483Y0039992D02*
X0071399Y0039992D01*
X0070031Y0040990D02*
X0067851Y0040990D01*
X0068755Y0041989D02*
X0069127Y0041989D01*
X0068941Y0047562D02*
X0068688Y0048172D01*
X0067113Y0049747D01*
X0066503Y0050000D01*
X0067113Y0050253D01*
X0068688Y0051828D01*
X0068941Y0052438D01*
X0069193Y0051828D01*
X0070769Y0050253D01*
X0071379Y0050000D01*
X0070769Y0049747D01*
X0069193Y0048172D01*
X0068941Y0047562D01*
X0068768Y0047980D02*
X0069114Y0047980D01*
X0070000Y0048978D02*
X0067882Y0048978D01*
X0066560Y0049977D02*
X0071322Y0049977D01*
X0070046Y0050975D02*
X0067836Y0050975D01*
X0068749Y0051974D02*
X0069133Y0051974D01*
X0069108Y0057965D02*
X0068774Y0057965D01*
X0067897Y0058963D02*
X0069985Y0058963D01*
X0071286Y0059962D02*
X0066596Y0059962D01*
X0076596Y0059962D02*
X0119047Y0059962D01*
X0119047Y0060960D02*
X0006000Y0060960D01*
X0006000Y0061959D02*
X0119047Y0061959D01*
X0119047Y0062957D02*
X0006000Y0062957D01*
X0006000Y0063956D02*
X0119047Y0063956D01*
X0119047Y0064954D02*
X0006000Y0064954D01*
X0006000Y0065953D02*
X0119047Y0065953D01*
X0119047Y0066951D02*
X0006000Y0066951D01*
X0006000Y0067950D02*
X0119047Y0067950D01*
X0119047Y0068948D02*
X0006000Y0068948D01*
X0006000Y0069947D02*
X0119047Y0069947D01*
X0119047Y0070945D02*
X0006000Y0070945D01*
X0006000Y0071944D02*
X0119047Y0071944D01*
X0119047Y0072942D02*
X0006000Y0072942D01*
X0006000Y0073941D02*
X0119047Y0073941D01*
X0119047Y0074939D02*
X0006000Y0074939D01*
X0006000Y0075938D02*
X0119047Y0075938D01*
X0119047Y0076936D02*
X0006000Y0076936D01*
X0006000Y0077935D02*
X0119047Y0077935D01*
X0119047Y0078933D02*
X0006000Y0078933D01*
X0006000Y0079932D02*
X0119047Y0079932D01*
X0119047Y0080931D02*
X0006000Y0080931D01*
X0006000Y0081929D02*
X0119047Y0081929D01*
X0119047Y0082928D02*
X0006000Y0082928D01*
X0006000Y0083926D02*
X0119047Y0083926D01*
X0119047Y0084925D02*
X0006000Y0084925D01*
X0006000Y0085923D02*
X0119047Y0085923D01*
X0119047Y0086922D02*
X0006000Y0086922D01*
X0006000Y0087920D02*
X0119047Y0087920D01*
X0119047Y0088919D02*
X0006000Y0088919D01*
X0006000Y0089917D02*
X0119047Y0089917D01*
X0119047Y0090916D02*
X0006000Y0090916D01*
X0006000Y0091914D02*
X0119047Y0091914D01*
X0119047Y0092913D02*
X0006000Y0092913D01*
X0006000Y0093911D02*
X0119047Y0093911D01*
X0119047Y0094910D02*
X0006000Y0094910D01*
X0006000Y0095908D02*
X0119047Y0095908D01*
X0119047Y0096907D02*
X0006000Y0096907D01*
X0006000Y0097905D02*
X0119047Y0097905D01*
X0119047Y0098904D02*
X0006000Y0098904D01*
X0006000Y0099902D02*
X0119047Y0099902D01*
X0119047Y0100901D02*
X0006000Y0100901D01*
X0006000Y0101899D02*
X0119047Y0101899D01*
X0119047Y0102898D02*
X0006000Y0102898D01*
X0006000Y0103896D02*
X0119047Y0103896D01*
X0119047Y0104895D02*
X0006000Y0104895D01*
X0006000Y0105893D02*
X0119047Y0105893D01*
X0119047Y0106892D02*
X0006000Y0106892D01*
X0076560Y0049977D02*
X0119047Y0049977D01*
X0119047Y0050975D02*
X0077836Y0050975D01*
X0078749Y0051974D02*
X0119047Y0051974D01*
X0119047Y0052972D02*
X0079162Y0052972D01*
X0079541Y0053971D02*
X0119047Y0053971D01*
X0119047Y0054969D02*
X0079541Y0054969D01*
X0079541Y0055968D02*
X0119047Y0055968D01*
X0119047Y0056966D02*
X0079188Y0056966D01*
X0078774Y0057965D02*
X0119047Y0057965D01*
X0119047Y0058963D02*
X0077897Y0058963D01*
X0077882Y0048978D02*
X0119047Y0048978D01*
X0119047Y0047980D02*
X0078768Y0047980D01*
X0079182Y0046981D02*
X0119047Y0046981D01*
X0119047Y0045983D02*
X0079541Y0045983D01*
X0079541Y0044984D02*
X0119047Y0044984D01*
X0119047Y0043986D02*
X0079541Y0043986D01*
X0079169Y0042987D02*
X0119047Y0042987D01*
X0119047Y0041989D02*
X0078755Y0041989D01*
X0077851Y0040990D02*
X0119047Y0040990D01*
X0119047Y0039992D02*
X0076483Y0039992D01*
D12*
X0092051Y0056624D03*
X0092051Y0064498D03*
X0092051Y0072372D03*
X0092051Y0080246D03*
X0084177Y0088120D03*
X0076303Y0088120D03*
X0068429Y0088120D03*
X0060555Y0088120D03*
X0052681Y0088120D03*
X0044807Y0088120D03*
X0036933Y0088120D03*
X0036933Y0080246D03*
X0036933Y0072372D03*
X0032996Y0064498D03*
X0025122Y0064498D03*
X0025122Y0056624D03*
X0025122Y0048750D03*
X0025122Y0040876D03*
X0040870Y0064498D03*
X0056618Y0064498D03*
X0064492Y0064498D03*
X0072366Y0064498D03*
X0080240Y0064498D03*
X0099925Y0052687D03*
X0107799Y0048750D03*
X0107799Y0040876D03*
M02*
