G75*
%MOIN*%
%OFA0B0*%
%FSLAX25Y25*%
%IPPOS*%
%LPD*%
%AMOC8*
5,1,8,0,0,1.08239X$1,22.5*
%
%ADD10R,0.06299X0.07087*%
%ADD11R,0.05906X0.05118*%
%ADD12C,0.07000*%
%ADD13R,0.04331X0.03543*%
%ADD14C,0.01000*%
%ADD15C,0.02781*%
D10*
X0087986Y0045502D03*
X0099010Y0045502D03*
D11*
X0074748Y0071762D03*
X0074748Y0079242D03*
X0062248Y0079242D03*
X0062248Y0071762D03*
D12*
X0063941Y0055000D03*
X0073941Y0055000D03*
X0073941Y0045000D03*
X0063941Y0045000D03*
X0053941Y0045000D03*
X0043941Y0045000D03*
X0033941Y0045000D03*
X0033941Y0055000D03*
X0043941Y0055000D03*
X0053941Y0055000D03*
D13*
X0048951Y0070778D03*
X0043045Y0070778D03*
X0043045Y0080226D03*
X0048951Y0080226D03*
D14*
X0006000Y0107242D02*
X0006000Y0037502D01*
X0119047Y0037502D01*
X0119047Y0107242D01*
X0006000Y0107242D01*
X0006000Y0106892D02*
X0119047Y0106892D01*
X0119047Y0105893D02*
X0006000Y0105893D01*
X0006000Y0104895D02*
X0119047Y0104895D01*
X0119047Y0103896D02*
X0006000Y0103896D01*
X0006000Y0102898D02*
X0119047Y0102898D01*
X0119047Y0101899D02*
X0006000Y0101899D01*
X0006000Y0100901D02*
X0119047Y0100901D01*
X0119047Y0099902D02*
X0006000Y0099902D01*
X0006000Y0098904D02*
X0119047Y0098904D01*
X0119047Y0097905D02*
X0006000Y0097905D01*
X0006000Y0096907D02*
X0119047Y0096907D01*
X0119047Y0095908D02*
X0006000Y0095908D01*
X0006000Y0094910D02*
X0119047Y0094910D01*
X0119047Y0093911D02*
X0006000Y0093911D01*
X0006000Y0092913D02*
X0119047Y0092913D01*
X0119047Y0091914D02*
X0006000Y0091914D01*
X0006000Y0090916D02*
X0119047Y0090916D01*
X0119047Y0089917D02*
X0006000Y0089917D01*
X0006000Y0088919D02*
X0119047Y0088919D01*
X0119047Y0087920D02*
X0006000Y0087920D01*
X0006000Y0086922D02*
X0119047Y0086922D01*
X0119047Y0085923D02*
X0006000Y0085923D01*
X0006000Y0084925D02*
X0119047Y0084925D01*
X0119047Y0083926D02*
X0052158Y0083926D01*
X0051986Y0084098D02*
X0040010Y0084098D01*
X0038780Y0082868D01*
X0038780Y0077585D01*
X0040010Y0076355D01*
X0051986Y0076355D01*
X0052273Y0076642D01*
X0057195Y0076642D01*
X0057195Y0075813D01*
X0057975Y0075034D01*
X0057898Y0074900D01*
X0057795Y0074518D01*
X0057795Y0072262D01*
X0061748Y0072262D01*
X0061748Y0071262D01*
X0057795Y0071262D01*
X0057795Y0069005D01*
X0057898Y0068624D01*
X0058095Y0068282D01*
X0058374Y0068002D01*
X0058716Y0067805D01*
X0059098Y0067703D01*
X0061748Y0067703D01*
X0061748Y0071262D01*
X0062748Y0071262D01*
X0062748Y0072262D01*
X0066701Y0072262D01*
X0066701Y0074518D01*
X0066599Y0074900D01*
X0066521Y0075034D01*
X0067301Y0075813D01*
X0067301Y0076642D01*
X0069695Y0076642D01*
X0069695Y0075813D01*
X0070475Y0075034D01*
X0070398Y0074900D01*
X0070295Y0074518D01*
X0070295Y0072262D01*
X0074248Y0072262D01*
X0074248Y0071262D01*
X0070295Y0071262D01*
X0070295Y0069005D01*
X0070398Y0068624D01*
X0070595Y0068282D01*
X0070874Y0068002D01*
X0071216Y0067805D01*
X0071598Y0067703D01*
X0074248Y0067703D01*
X0074248Y0071262D01*
X0075248Y0071262D01*
X0075248Y0072262D01*
X0079201Y0072262D01*
X0079201Y0074518D01*
X0079099Y0074900D01*
X0079021Y0075034D01*
X0079801Y0075813D01*
X0079801Y0076652D01*
X0079921Y0076652D01*
X0084648Y0071925D01*
X0084648Y0051145D01*
X0083967Y0051145D01*
X0082737Y0049915D01*
X0082737Y0047600D01*
X0078925Y0047600D01*
X0078688Y0048172D01*
X0077113Y0049747D01*
X0076503Y0050000D01*
X0077113Y0050253D01*
X0078688Y0051828D01*
X0079541Y0053886D01*
X0079541Y0056114D01*
X0078688Y0058172D01*
X0077113Y0059747D01*
X0075055Y0060600D01*
X0072827Y0060600D01*
X0070769Y0059747D01*
X0069193Y0058172D01*
X0068941Y0057562D01*
X0068688Y0058172D01*
X0067113Y0059747D01*
X0065055Y0060600D01*
X0062827Y0060600D01*
X0060769Y0059747D01*
X0059193Y0058172D01*
X0058941Y0057562D01*
X0058688Y0058172D01*
X0057113Y0059747D01*
X0055055Y0060600D01*
X0052827Y0060600D01*
X0051551Y0060071D01*
X0051551Y0066906D01*
X0051986Y0066906D01*
X0053216Y0068136D01*
X0053216Y0073419D01*
X0051986Y0074649D01*
X0045916Y0074649D01*
X0045316Y0074049D01*
X0043431Y0074049D01*
X0043431Y0071163D01*
X0042659Y0071163D01*
X0042659Y0070392D01*
X0039380Y0070392D01*
X0039380Y0068808D01*
X0039482Y0068427D01*
X0039680Y0068085D01*
X0039959Y0067806D01*
X0040301Y0067608D01*
X0040682Y0067506D01*
X0042659Y0067506D01*
X0042659Y0070392D01*
X0043431Y0070392D01*
X0043431Y0067506D01*
X0045316Y0067506D01*
X0045916Y0066906D01*
X0046351Y0066906D01*
X0046351Y0060063D01*
X0045055Y0060600D01*
X0042827Y0060600D01*
X0040769Y0059747D01*
X0039193Y0058172D01*
X0038619Y0056784D01*
X0038575Y0056919D01*
X0038217Y0057621D01*
X0037755Y0058257D01*
X0037198Y0058814D01*
X0036562Y0059276D01*
X0035860Y0059634D01*
X0035112Y0059877D01*
X0034441Y0059983D01*
X0034441Y0055500D01*
X0033441Y0055500D01*
X0033441Y0059983D01*
X0032770Y0059877D01*
X0032022Y0059634D01*
X0031320Y0059276D01*
X0030684Y0058814D01*
X0030127Y0058257D01*
X0029665Y0057621D01*
X0029307Y0056919D01*
X0029064Y0056171D01*
X0028958Y0055500D01*
X0033441Y0055500D01*
X0033441Y0054500D01*
X0034441Y0054500D01*
X0034441Y0050017D01*
X0035112Y0050123D01*
X0035860Y0050366D01*
X0036562Y0050724D01*
X0037198Y0051186D01*
X0037755Y0051743D01*
X0038217Y0052379D01*
X0038575Y0053081D01*
X0038619Y0053216D01*
X0039193Y0051828D01*
X0040769Y0050253D01*
X0041379Y0050000D01*
X0040769Y0049747D01*
X0039193Y0048172D01*
X0038619Y0046784D01*
X0038575Y0046919D01*
X0038217Y0047621D01*
X0037755Y0048257D01*
X0037198Y0048814D01*
X0036562Y0049276D01*
X0035860Y0049634D01*
X0035112Y0049877D01*
X0034441Y0049983D01*
X0034441Y0045500D01*
X0033441Y0045500D01*
X0033441Y0049983D01*
X0032770Y0049877D01*
X0032022Y0049634D01*
X0031320Y0049276D01*
X0030684Y0048814D01*
X0030127Y0048257D01*
X0029665Y0047621D01*
X0029307Y0046919D01*
X0029064Y0046171D01*
X0028958Y0045500D01*
X0033441Y0045500D01*
X0033441Y0044500D01*
X0034441Y0044500D01*
X0034441Y0040017D01*
X0035112Y0040123D01*
X0035860Y0040366D01*
X0036562Y0040724D01*
X0037198Y0041186D01*
X0037755Y0041743D01*
X0038217Y0042379D01*
X0038575Y0043081D01*
X0038619Y0043216D01*
X0039193Y0041828D01*
X0040769Y0040253D01*
X0042827Y0039400D01*
X0045055Y0039400D01*
X0047113Y0040253D01*
X0048688Y0041828D01*
X0048941Y0042438D01*
X0049193Y0041828D01*
X0050769Y0040253D01*
X0052827Y0039400D01*
X0055055Y0039400D01*
X0057113Y0040253D01*
X0058688Y0041828D01*
X0058925Y0042400D01*
X0058957Y0042400D01*
X0059193Y0041828D01*
X0060769Y0040253D01*
X0062827Y0039400D01*
X0065055Y0039400D01*
X0067113Y0040253D01*
X0068688Y0041828D01*
X0068925Y0042400D01*
X0068957Y0042400D01*
X0069193Y0041828D01*
X0070769Y0040253D01*
X0072827Y0039400D01*
X0075055Y0039400D01*
X0077113Y0040253D01*
X0078688Y0041828D01*
X0078925Y0042400D01*
X0082737Y0042400D01*
X0082737Y0041089D01*
X0083967Y0039859D01*
X0092006Y0039859D01*
X0093236Y0041089D01*
X0093236Y0049915D01*
X0092006Y0051145D01*
X0089848Y0051145D01*
X0089848Y0073519D01*
X0089452Y0074475D01*
X0088721Y0075206D01*
X0082471Y0081456D01*
X0081515Y0081852D01*
X0079801Y0081852D01*
X0079801Y0082671D01*
X0078571Y0083901D01*
X0070925Y0083901D01*
X0069695Y0082671D01*
X0069695Y0081842D01*
X0067301Y0081842D01*
X0067301Y0082671D01*
X0066071Y0083901D01*
X0058425Y0083901D01*
X0057195Y0082671D01*
X0057195Y0081842D01*
X0053216Y0081842D01*
X0053216Y0082868D01*
X0051986Y0084098D01*
X0053156Y0082928D02*
X0057452Y0082928D01*
X0057195Y0081929D02*
X0053216Y0081929D01*
X0049935Y0079242D02*
X0062248Y0079242D01*
X0074748Y0079242D01*
X0074758Y0079252D01*
X0080998Y0079252D01*
X0087248Y0073002D01*
X0087248Y0045000D01*
X0073941Y0045000D01*
X0063941Y0045000D01*
X0053941Y0045000D01*
X0057851Y0040990D02*
X0060031Y0040990D01*
X0059127Y0041989D02*
X0058755Y0041989D01*
X0056483Y0039992D02*
X0061399Y0039992D01*
X0066483Y0039992D02*
X0071399Y0039992D01*
X0070031Y0040990D02*
X0067851Y0040990D01*
X0068755Y0041989D02*
X0069127Y0041989D01*
X0068957Y0047600D02*
X0068925Y0047600D01*
X0068688Y0048172D01*
X0067113Y0049747D01*
X0066503Y0050000D01*
X0067113Y0050253D01*
X0068688Y0051828D01*
X0068941Y0052438D01*
X0069193Y0051828D01*
X0070769Y0050253D01*
X0071379Y0050000D01*
X0070769Y0049747D01*
X0069193Y0048172D01*
X0068957Y0047600D01*
X0069114Y0047980D02*
X0068768Y0047980D01*
X0067882Y0048978D02*
X0070000Y0048978D01*
X0071322Y0049977D02*
X0066560Y0049977D01*
X0067836Y0050975D02*
X0070046Y0050975D01*
X0069133Y0051974D02*
X0068749Y0051974D01*
X0061379Y0050000D02*
X0060769Y0049747D01*
X0059193Y0048172D01*
X0058957Y0047600D01*
X0058925Y0047600D01*
X0058688Y0048172D01*
X0057113Y0049747D01*
X0056503Y0050000D01*
X0057113Y0050253D01*
X0058688Y0051828D01*
X0058941Y0052438D01*
X0059193Y0051828D01*
X0060769Y0050253D01*
X0061379Y0050000D01*
X0061322Y0049977D02*
X0056560Y0049977D01*
X0057836Y0050975D02*
X0060046Y0050975D01*
X0059133Y0051974D02*
X0058749Y0051974D01*
X0057882Y0048978D02*
X0060000Y0048978D01*
X0059114Y0047980D02*
X0058768Y0047980D01*
X0050031Y0040990D02*
X0047851Y0040990D01*
X0048755Y0041989D02*
X0049127Y0041989D01*
X0051399Y0039992D02*
X0046483Y0039992D01*
X0041399Y0039992D02*
X0006000Y0039992D01*
X0006000Y0040990D02*
X0030954Y0040990D01*
X0030684Y0041186D02*
X0031320Y0040724D01*
X0032022Y0040366D01*
X0032770Y0040123D01*
X0033441Y0040017D01*
X0033441Y0044500D01*
X0028958Y0044500D01*
X0029064Y0043829D01*
X0029307Y0043081D01*
X0029665Y0042379D01*
X0030127Y0041743D01*
X0030684Y0041186D01*
X0029949Y0041989D02*
X0006000Y0041989D01*
X0006000Y0042987D02*
X0029355Y0042987D01*
X0029039Y0043986D02*
X0006000Y0043986D01*
X0006000Y0044984D02*
X0033441Y0044984D01*
X0033441Y0043986D02*
X0034441Y0043986D01*
X0034441Y0042987D02*
X0033441Y0042987D01*
X0033441Y0041989D02*
X0034441Y0041989D01*
X0034441Y0040990D02*
X0033441Y0040990D01*
X0036928Y0040990D02*
X0040031Y0040990D01*
X0039127Y0041989D02*
X0037933Y0041989D01*
X0038527Y0042987D02*
X0038713Y0042987D01*
X0034441Y0045983D02*
X0033441Y0045983D01*
X0033441Y0046981D02*
X0034441Y0046981D01*
X0034441Y0047980D02*
X0033441Y0047980D01*
X0033441Y0048978D02*
X0034441Y0048978D01*
X0034441Y0049977D02*
X0033441Y0049977D01*
X0033441Y0050017D02*
X0033441Y0054500D01*
X0028958Y0054500D01*
X0029064Y0053829D01*
X0029307Y0053081D01*
X0029665Y0052379D01*
X0030127Y0051743D01*
X0030684Y0051186D01*
X0031320Y0050724D01*
X0032022Y0050366D01*
X0032770Y0050123D01*
X0033441Y0050017D01*
X0033400Y0049977D02*
X0006000Y0049977D01*
X0006000Y0050975D02*
X0030974Y0050975D01*
X0029959Y0051974D02*
X0006000Y0051974D01*
X0006000Y0052972D02*
X0029363Y0052972D01*
X0029042Y0053971D02*
X0006000Y0053971D01*
X0006000Y0054969D02*
X0033441Y0054969D01*
X0033441Y0053971D02*
X0034441Y0053971D01*
X0034441Y0052972D02*
X0033441Y0052972D01*
X0033441Y0051974D02*
X0034441Y0051974D01*
X0034441Y0050975D02*
X0033441Y0050975D01*
X0034482Y0049977D02*
X0041322Y0049977D01*
X0040046Y0050975D02*
X0036908Y0050975D01*
X0037923Y0051974D02*
X0039133Y0051974D01*
X0038719Y0052972D02*
X0038519Y0052972D01*
X0040000Y0048978D02*
X0036972Y0048978D01*
X0037956Y0047980D02*
X0039114Y0047980D01*
X0038700Y0046981D02*
X0038543Y0046981D01*
X0043941Y0045000D02*
X0048951Y0050010D01*
X0048951Y0070778D01*
X0053216Y0070945D02*
X0057795Y0070945D01*
X0057795Y0069947D02*
X0053216Y0069947D01*
X0053216Y0068948D02*
X0057811Y0068948D01*
X0058465Y0067950D02*
X0053030Y0067950D01*
X0052031Y0066951D02*
X0084648Y0066951D01*
X0084648Y0065953D02*
X0051551Y0065953D01*
X0051551Y0064954D02*
X0084648Y0064954D01*
X0084648Y0063956D02*
X0051551Y0063956D01*
X0051551Y0062957D02*
X0084648Y0062957D01*
X0084648Y0061959D02*
X0051551Y0061959D01*
X0051551Y0060960D02*
X0084648Y0060960D01*
X0084648Y0059962D02*
X0076596Y0059962D01*
X0077897Y0058963D02*
X0084648Y0058963D01*
X0084648Y0057965D02*
X0078774Y0057965D01*
X0079188Y0056966D02*
X0084648Y0056966D01*
X0084648Y0055968D02*
X0079541Y0055968D01*
X0079541Y0054969D02*
X0084648Y0054969D01*
X0084648Y0053971D02*
X0079541Y0053971D01*
X0079162Y0052972D02*
X0084648Y0052972D01*
X0084648Y0051974D02*
X0078749Y0051974D01*
X0077836Y0050975D02*
X0083797Y0050975D01*
X0082798Y0049977D02*
X0076560Y0049977D01*
X0077882Y0048978D02*
X0082737Y0048978D01*
X0082737Y0047980D02*
X0078768Y0047980D01*
X0078755Y0041989D02*
X0082737Y0041989D01*
X0082835Y0040990D02*
X0077851Y0040990D01*
X0076483Y0039992D02*
X0083834Y0039992D01*
X0087248Y0045000D02*
X0087484Y0045000D01*
X0087986Y0045502D01*
X0093236Y0045983D02*
X0098510Y0045983D01*
X0098510Y0046002D02*
X0098510Y0045002D01*
X0099510Y0045002D01*
X0099510Y0046002D01*
X0103659Y0046002D01*
X0103659Y0049243D01*
X0103557Y0049624D01*
X0103360Y0049966D01*
X0103080Y0050246D01*
X0102738Y0050443D01*
X0102357Y0050545D01*
X0099510Y0050545D01*
X0099510Y0046002D01*
X0098510Y0046002D01*
X0098510Y0050545D01*
X0095663Y0050545D01*
X0095281Y0050443D01*
X0094939Y0050246D01*
X0094660Y0049966D01*
X0094462Y0049624D01*
X0094360Y0049243D01*
X0094360Y0046002D01*
X0098510Y0046002D01*
X0098510Y0046981D02*
X0099510Y0046981D01*
X0099510Y0045983D02*
X0119047Y0045983D01*
X0119047Y0046981D02*
X0103659Y0046981D01*
X0103659Y0047980D02*
X0119047Y0047980D01*
X0119047Y0048978D02*
X0103659Y0048978D01*
X0103349Y0049977D02*
X0119047Y0049977D01*
X0119047Y0050975D02*
X0092176Y0050975D01*
X0093174Y0049977D02*
X0094670Y0049977D01*
X0094360Y0048978D02*
X0093236Y0048978D01*
X0093236Y0047980D02*
X0094360Y0047980D01*
X0094360Y0046981D02*
X0093236Y0046981D01*
X0093236Y0044984D02*
X0094360Y0044984D01*
X0094360Y0045002D02*
X0094360Y0041761D01*
X0094462Y0041380D01*
X0094660Y0041038D01*
X0094939Y0040758D01*
X0095281Y0040561D01*
X0095663Y0040459D01*
X0098510Y0040459D01*
X0098510Y0045002D01*
X0094360Y0045002D01*
X0094360Y0043986D02*
X0093236Y0043986D01*
X0093236Y0042987D02*
X0094360Y0042987D01*
X0094360Y0041989D02*
X0093236Y0041989D01*
X0093137Y0040990D02*
X0094708Y0040990D01*
X0092139Y0039992D02*
X0119047Y0039992D01*
X0119047Y0040990D02*
X0103312Y0040990D01*
X0103360Y0041038D02*
X0103557Y0041380D01*
X0103659Y0041761D01*
X0103659Y0045002D01*
X0099510Y0045002D01*
X0099510Y0040459D01*
X0102357Y0040459D01*
X0102738Y0040561D01*
X0103080Y0040758D01*
X0103360Y0041038D01*
X0103659Y0041989D02*
X0119047Y0041989D01*
X0119047Y0042987D02*
X0103659Y0042987D01*
X0103659Y0043986D02*
X0119047Y0043986D01*
X0119047Y0044984D02*
X0103659Y0044984D01*
X0099510Y0044984D02*
X0098510Y0044984D01*
X0098510Y0043986D02*
X0099510Y0043986D01*
X0099510Y0042987D02*
X0098510Y0042987D01*
X0098510Y0041989D02*
X0099510Y0041989D01*
X0099510Y0040990D02*
X0098510Y0040990D01*
X0098510Y0047980D02*
X0099510Y0047980D01*
X0099510Y0048978D02*
X0098510Y0048978D01*
X0098510Y0049977D02*
X0099510Y0049977D01*
X0089848Y0051974D02*
X0119047Y0051974D01*
X0119047Y0052972D02*
X0089848Y0052972D01*
X0089848Y0053971D02*
X0119047Y0053971D01*
X0119047Y0054969D02*
X0089848Y0054969D01*
X0089848Y0055968D02*
X0119047Y0055968D01*
X0119047Y0056966D02*
X0089848Y0056966D01*
X0089848Y0057965D02*
X0119047Y0057965D01*
X0119047Y0058963D02*
X0089848Y0058963D01*
X0089848Y0059962D02*
X0119047Y0059962D01*
X0119047Y0060960D02*
X0089848Y0060960D01*
X0089848Y0061959D02*
X0119047Y0061959D01*
X0119047Y0062957D02*
X0089848Y0062957D01*
X0089848Y0063956D02*
X0119047Y0063956D01*
X0119047Y0064954D02*
X0089848Y0064954D01*
X0089848Y0065953D02*
X0119047Y0065953D01*
X0119047Y0066951D02*
X0089848Y0066951D01*
X0089848Y0067950D02*
X0119047Y0067950D01*
X0119047Y0068948D02*
X0089848Y0068948D01*
X0089848Y0069947D02*
X0119047Y0069947D01*
X0119047Y0070945D02*
X0089848Y0070945D01*
X0089848Y0071944D02*
X0119047Y0071944D01*
X0119047Y0072942D02*
X0089848Y0072942D01*
X0089673Y0073941D02*
X0119047Y0073941D01*
X0119047Y0074939D02*
X0088987Y0074939D01*
X0087989Y0075938D02*
X0119047Y0075938D01*
X0119047Y0076936D02*
X0086990Y0076936D01*
X0085992Y0077935D02*
X0119047Y0077935D01*
X0119047Y0078933D02*
X0084993Y0078933D01*
X0083995Y0079932D02*
X0119047Y0079932D01*
X0119047Y0080931D02*
X0082996Y0080931D01*
X0079801Y0081929D02*
X0119047Y0081929D01*
X0119047Y0082928D02*
X0079544Y0082928D01*
X0079801Y0075938D02*
X0080635Y0075938D01*
X0081634Y0074939D02*
X0079076Y0074939D01*
X0079201Y0073941D02*
X0082632Y0073941D01*
X0083631Y0072942D02*
X0079201Y0072942D01*
X0079201Y0071262D02*
X0079201Y0069005D01*
X0079099Y0068624D01*
X0078901Y0068282D01*
X0078622Y0068002D01*
X0078280Y0067805D01*
X0077898Y0067703D01*
X0075248Y0067703D01*
X0075248Y0071262D01*
X0079201Y0071262D01*
X0079201Y0070945D02*
X0084648Y0070945D01*
X0084648Y0069947D02*
X0079201Y0069947D01*
X0079186Y0068948D02*
X0084648Y0068948D01*
X0084648Y0067950D02*
X0078531Y0067950D01*
X0075248Y0067950D02*
X0074248Y0067950D01*
X0074248Y0068948D02*
X0075248Y0068948D01*
X0075248Y0069947D02*
X0074248Y0069947D01*
X0074248Y0070945D02*
X0075248Y0070945D01*
X0075248Y0071944D02*
X0084629Y0071944D01*
X0074248Y0071944D02*
X0062748Y0071944D01*
X0062748Y0071262D02*
X0066701Y0071262D01*
X0066701Y0069005D01*
X0066599Y0068624D01*
X0066401Y0068282D01*
X0066122Y0068002D01*
X0065780Y0067805D01*
X0065398Y0067703D01*
X0062748Y0067703D01*
X0062748Y0071262D01*
X0062748Y0070945D02*
X0061748Y0070945D01*
X0061748Y0069947D02*
X0062748Y0069947D01*
X0062748Y0068948D02*
X0061748Y0068948D01*
X0061748Y0067950D02*
X0062748Y0067950D01*
X0066031Y0067950D02*
X0070965Y0067950D01*
X0070311Y0068948D02*
X0066686Y0068948D01*
X0066701Y0069947D02*
X0070295Y0069947D01*
X0070295Y0070945D02*
X0066701Y0070945D01*
X0066701Y0072942D02*
X0070295Y0072942D01*
X0070295Y0073941D02*
X0066701Y0073941D01*
X0066576Y0074939D02*
X0070420Y0074939D01*
X0069695Y0075938D02*
X0067301Y0075938D01*
X0061748Y0071944D02*
X0053216Y0071944D01*
X0053216Y0072942D02*
X0057795Y0072942D01*
X0057795Y0073941D02*
X0052694Y0073941D01*
X0057195Y0075938D02*
X0006000Y0075938D01*
X0006000Y0076936D02*
X0039428Y0076936D01*
X0038780Y0077935D02*
X0006000Y0077935D01*
X0006000Y0078933D02*
X0038780Y0078933D01*
X0038780Y0079932D02*
X0006000Y0079932D01*
X0006000Y0080931D02*
X0038780Y0080931D01*
X0038780Y0081929D02*
X0006000Y0081929D01*
X0006000Y0082928D02*
X0038840Y0082928D01*
X0039838Y0083926D02*
X0006000Y0083926D01*
X0006000Y0074939D02*
X0057920Y0074939D01*
X0049935Y0079242D02*
X0048951Y0080226D01*
X0043431Y0073941D02*
X0042659Y0073941D01*
X0042659Y0074049D02*
X0040682Y0074049D01*
X0040301Y0073947D01*
X0039959Y0073749D01*
X0039680Y0073470D01*
X0039482Y0073128D01*
X0039380Y0072747D01*
X0039380Y0071163D01*
X0042659Y0071163D01*
X0042659Y0074049D01*
X0042659Y0072942D02*
X0043431Y0072942D01*
X0043431Y0071944D02*
X0042659Y0071944D01*
X0042659Y0070945D02*
X0006000Y0070945D01*
X0006000Y0069947D02*
X0039380Y0069947D01*
X0039380Y0068948D02*
X0006000Y0068948D01*
X0006000Y0067950D02*
X0039815Y0067950D01*
X0042659Y0067950D02*
X0043431Y0067950D01*
X0043431Y0068948D02*
X0042659Y0068948D01*
X0042659Y0069947D02*
X0043431Y0069947D01*
X0045870Y0066951D02*
X0006000Y0066951D01*
X0006000Y0065953D02*
X0046351Y0065953D01*
X0046351Y0064954D02*
X0006000Y0064954D01*
X0006000Y0063956D02*
X0046351Y0063956D01*
X0046351Y0062957D02*
X0006000Y0062957D01*
X0006000Y0061959D02*
X0046351Y0061959D01*
X0046351Y0060960D02*
X0006000Y0060960D01*
X0006000Y0059962D02*
X0033306Y0059962D01*
X0033441Y0059962D02*
X0034441Y0059962D01*
X0034576Y0059962D02*
X0041286Y0059962D01*
X0039985Y0058963D02*
X0036992Y0058963D01*
X0037967Y0057965D02*
X0039108Y0057965D01*
X0038694Y0056966D02*
X0038551Y0056966D01*
X0034441Y0056966D02*
X0033441Y0056966D01*
X0033441Y0055968D02*
X0034441Y0055968D01*
X0034441Y0057965D02*
X0033441Y0057965D01*
X0033441Y0058963D02*
X0034441Y0058963D01*
X0030889Y0058963D02*
X0006000Y0058963D01*
X0006000Y0057965D02*
X0029915Y0057965D01*
X0029331Y0056966D02*
X0006000Y0056966D01*
X0006000Y0055968D02*
X0029032Y0055968D01*
X0030910Y0048978D02*
X0006000Y0048978D01*
X0006000Y0047980D02*
X0029925Y0047980D01*
X0029339Y0046981D02*
X0006000Y0046981D01*
X0006000Y0045983D02*
X0029034Y0045983D01*
X0006000Y0038993D02*
X0119047Y0038993D01*
X0119047Y0037995D02*
X0006000Y0037995D01*
X0006000Y0071944D02*
X0039380Y0071944D01*
X0039432Y0072942D02*
X0006000Y0072942D01*
X0006000Y0073941D02*
X0040290Y0073941D01*
X0056596Y0059962D02*
X0061286Y0059962D01*
X0059985Y0058963D02*
X0057897Y0058963D01*
X0058774Y0057965D02*
X0059108Y0057965D01*
X0066596Y0059962D02*
X0071286Y0059962D01*
X0069985Y0058963D02*
X0067897Y0058963D01*
X0068774Y0057965D02*
X0069108Y0057965D01*
X0069695Y0081929D02*
X0067301Y0081929D01*
X0067044Y0082928D02*
X0069952Y0082928D01*
D15*
X0068429Y0088120D03*
X0060555Y0088120D03*
X0052681Y0088120D03*
X0044807Y0088120D03*
X0036933Y0088120D03*
X0036933Y0080246D03*
X0036933Y0072372D03*
X0032996Y0064498D03*
X0025122Y0064498D03*
X0025122Y0056624D03*
X0025122Y0048750D03*
X0025122Y0040876D03*
X0040870Y0064498D03*
X0056618Y0064498D03*
X0064492Y0064498D03*
X0072366Y0064498D03*
X0080240Y0064498D03*
X0092051Y0064498D03*
X0092051Y0056624D03*
X0099925Y0052687D03*
X0107799Y0048750D03*
X0107799Y0040876D03*
X0092051Y0072372D03*
X0092051Y0080246D03*
X0084177Y0088120D03*
X0076303Y0088120D03*
M02*
