%
M48
M72
T01C0.01181
T02C0.04000
%
T01
X25122Y40876
X25122Y48750
X25122Y56624
X25122Y64498
X32996Y64498
X40870Y64498
X36933Y72372
X36933Y80246
X36933Y88120
X44807Y88120
X52681Y88120
X60555Y88120
X68429Y88120
X76303Y88120
X84177Y88120
X92051Y80246
X92051Y72372
X92051Y64498
X92051Y56624
X99925Y52687
X107799Y48750
X107799Y40876
X80240Y64498
X72366Y64498
X64492Y64498
X56618Y64498
T02
X53941Y55000
X63941Y55000
X73941Y55000
X73941Y45000
X63941Y45000
X53941Y45000
X43941Y45000
X33941Y45000
X33941Y55000
X43941Y55000
M30
