G75*
%MOIN*%
%OFA0B0*%
%FSLAX25Y25*%
%IPPOS*%
%LPD*%
%AMOC8*
5,1,8,0,0,1.08239X$1,22.5*
%
%ADD10R,0.05118X0.05906*%
%ADD11R,0.07087X0.06299*%
%ADD12R,0.05906X0.05118*%
%ADD13R,0.03621X0.03621*%
%ADD14R,0.03621X0.03632*%
%ADD15R,0.03628X0.03621*%
%ADD16R,0.03632X0.03632*%
%ADD17C,0.00553*%
%ADD18R,0.20000X0.09000*%
D10*
X0065260Y0070502D03*
X0072740Y0070502D03*
X0082760Y0070502D03*
X0090240Y0070502D03*
X0100260Y0070502D03*
X0107740Y0070502D03*
X0117760Y0070502D03*
X0125240Y0070502D03*
X0135260Y0070502D03*
X0142740Y0070502D03*
X0050240Y0100502D03*
X0042760Y0100502D03*
D11*
X0079000Y0042490D03*
X0079000Y0053514D03*
D12*
X0091500Y0051742D03*
X0091500Y0044262D03*
X0144000Y0051762D03*
X0144000Y0059242D03*
X0136500Y0081762D03*
X0136500Y0089242D03*
X0119000Y0089242D03*
X0119000Y0081762D03*
X0101500Y0081762D03*
X0101500Y0089242D03*
X0066500Y0089242D03*
X0066500Y0081762D03*
D13*
X0044639Y0076446D03*
D14*
X0049251Y0076446D03*
D15*
X0044639Y0081056D03*
D16*
X0049251Y0081058D03*
D17*
X0053184Y0080955D02*
X0053184Y0080483D01*
X0053184Y0080955D02*
X0055938Y0080955D01*
X0055938Y0080483D01*
X0053184Y0080483D01*
X0053184Y0078986D02*
X0053184Y0078514D01*
X0053184Y0078986D02*
X0055938Y0078986D01*
X0055938Y0078514D01*
X0053184Y0078514D01*
X0053184Y0077017D02*
X0053184Y0076545D01*
X0053184Y0077017D02*
X0055938Y0077017D01*
X0055938Y0076545D01*
X0053184Y0076545D01*
X0053184Y0075049D02*
X0053184Y0074577D01*
X0053184Y0075049D02*
X0055938Y0075049D01*
X0055938Y0074577D01*
X0053184Y0074577D01*
X0051116Y0072509D02*
X0050644Y0072509D01*
X0051116Y0072509D02*
X0051116Y0069755D01*
X0050644Y0069755D01*
X0050644Y0072509D01*
X0050644Y0070307D02*
X0051116Y0070307D01*
X0051116Y0070859D02*
X0050644Y0070859D01*
X0050644Y0071411D02*
X0051116Y0071411D01*
X0051116Y0071963D02*
X0050644Y0071963D01*
X0049147Y0072509D02*
X0048675Y0072509D01*
X0049147Y0072509D02*
X0049147Y0069755D01*
X0048675Y0069755D01*
X0048675Y0072509D01*
X0048675Y0070307D02*
X0049147Y0070307D01*
X0049147Y0070859D02*
X0048675Y0070859D01*
X0048675Y0071411D02*
X0049147Y0071411D01*
X0049147Y0071963D02*
X0048675Y0071963D01*
X0047179Y0072509D02*
X0046707Y0072509D01*
X0047179Y0072509D02*
X0047179Y0069755D01*
X0046707Y0069755D01*
X0046707Y0072509D01*
X0046707Y0070307D02*
X0047179Y0070307D01*
X0047179Y0070859D02*
X0046707Y0070859D01*
X0046707Y0071411D02*
X0047179Y0071411D01*
X0047179Y0071963D02*
X0046707Y0071963D01*
X0045210Y0072509D02*
X0044738Y0072509D01*
X0045210Y0072509D02*
X0045210Y0069755D01*
X0044738Y0069755D01*
X0044738Y0072509D01*
X0044738Y0070307D02*
X0045210Y0070307D01*
X0045210Y0070859D02*
X0044738Y0070859D01*
X0044738Y0071411D02*
X0045210Y0071411D01*
X0045210Y0071963D02*
X0044738Y0071963D01*
X0043242Y0072509D02*
X0042770Y0072509D01*
X0043242Y0072509D02*
X0043242Y0069755D01*
X0042770Y0069755D01*
X0042770Y0072509D01*
X0042770Y0070307D02*
X0043242Y0070307D01*
X0043242Y0070859D02*
X0042770Y0070859D01*
X0042770Y0071411D02*
X0043242Y0071411D01*
X0043242Y0071963D02*
X0042770Y0071963D01*
X0040702Y0074577D02*
X0040702Y0075049D01*
X0040702Y0074577D02*
X0037948Y0074577D01*
X0037948Y0075049D01*
X0040702Y0075049D01*
X0040702Y0076545D02*
X0040702Y0077017D01*
X0040702Y0076545D02*
X0037948Y0076545D01*
X0037948Y0077017D01*
X0040702Y0077017D01*
X0040702Y0078514D02*
X0040702Y0078986D01*
X0040702Y0078514D02*
X0037948Y0078514D01*
X0037948Y0078986D01*
X0040702Y0078986D01*
X0040702Y0080483D02*
X0040702Y0080955D01*
X0040702Y0080483D02*
X0037948Y0080483D01*
X0037948Y0080955D01*
X0040702Y0080955D01*
X0040702Y0082451D02*
X0040702Y0082923D01*
X0040702Y0082451D02*
X0037948Y0082451D01*
X0037948Y0082923D01*
X0040702Y0082923D01*
X0042770Y0084991D02*
X0043242Y0084991D01*
X0042770Y0084991D02*
X0042770Y0087745D01*
X0043242Y0087745D01*
X0043242Y0084991D01*
X0043242Y0085543D02*
X0042770Y0085543D01*
X0042770Y0086095D02*
X0043242Y0086095D01*
X0043242Y0086647D02*
X0042770Y0086647D01*
X0042770Y0087199D02*
X0043242Y0087199D01*
X0044738Y0084991D02*
X0045210Y0084991D01*
X0044738Y0084991D02*
X0044738Y0087745D01*
X0045210Y0087745D01*
X0045210Y0084991D01*
X0045210Y0085543D02*
X0044738Y0085543D01*
X0044738Y0086095D02*
X0045210Y0086095D01*
X0045210Y0086647D02*
X0044738Y0086647D01*
X0044738Y0087199D02*
X0045210Y0087199D01*
X0046707Y0084991D02*
X0047179Y0084991D01*
X0046707Y0084991D02*
X0046707Y0087745D01*
X0047179Y0087745D01*
X0047179Y0084991D01*
X0047179Y0085543D02*
X0046707Y0085543D01*
X0046707Y0086095D02*
X0047179Y0086095D01*
X0047179Y0086647D02*
X0046707Y0086647D01*
X0046707Y0087199D02*
X0047179Y0087199D01*
X0048675Y0084991D02*
X0049147Y0084991D01*
X0048675Y0084991D02*
X0048675Y0087745D01*
X0049147Y0087745D01*
X0049147Y0084991D01*
X0049147Y0085543D02*
X0048675Y0085543D01*
X0048675Y0086095D02*
X0049147Y0086095D01*
X0049147Y0086647D02*
X0048675Y0086647D01*
X0048675Y0087199D02*
X0049147Y0087199D01*
X0050644Y0084991D02*
X0051116Y0084991D01*
X0050644Y0084991D02*
X0050644Y0087745D01*
X0051116Y0087745D01*
X0051116Y0084991D01*
X0051116Y0085543D02*
X0050644Y0085543D01*
X0050644Y0086095D02*
X0051116Y0086095D01*
X0051116Y0086647D02*
X0050644Y0086647D01*
X0050644Y0087199D02*
X0051116Y0087199D01*
X0053184Y0082923D02*
X0053184Y0082451D01*
X0053184Y0082923D02*
X0055938Y0082923D01*
X0055938Y0082451D01*
X0053184Y0082451D01*
D18*
X0164628Y0088650D03*
X0164628Y0071250D03*
X0164628Y0053850D03*
M02*
