G75*
%MOIN*%
%OFA0B0*%
%FSLAX25Y25*%
%IPPOS*%
%LPD*%
%AMOC8*
5,1,8,0,0,1.08239X$1,22.5*
%
%ADD10C,0.07000*%
%ADD11R,0.20000X0.09000*%
%ADD12C,0.01000*%
%ADD13C,0.02781*%
%ADD14C,0.02000*%
D10*
X0018193Y0045000D03*
X0028193Y0045000D03*
X0038193Y0045000D03*
X0048193Y0045000D03*
X0058193Y0045000D03*
X0058193Y0055000D03*
X0048193Y0055000D03*
X0038193Y0055000D03*
X0028193Y0055000D03*
X0018193Y0055000D03*
D11*
X0164628Y0053850D03*
X0164628Y0088650D03*
D12*
X0006000Y0130864D02*
X0006000Y0037502D01*
X0170228Y0037502D01*
X0170228Y0047850D01*
X0165128Y0047850D01*
X0165128Y0053350D01*
X0164128Y0053350D01*
X0153128Y0053350D01*
X0153128Y0049153D01*
X0153231Y0048771D01*
X0153428Y0048429D01*
X0153707Y0048150D01*
X0154049Y0047952D01*
X0154431Y0047850D01*
X0164128Y0047850D01*
X0164128Y0053350D01*
X0164128Y0054350D01*
X0153128Y0054350D01*
X0153128Y0058547D01*
X0153231Y0058929D01*
X0153428Y0059271D01*
X0153707Y0059550D01*
X0154049Y0059748D01*
X0154431Y0059850D01*
X0164128Y0059850D01*
X0164128Y0054350D01*
X0165128Y0054350D01*
X0165128Y0059850D01*
X0170228Y0059850D01*
X0170228Y0082650D01*
X0165128Y0082650D01*
X0165128Y0088150D01*
X0164128Y0088150D01*
X0153128Y0088150D01*
X0153128Y0083953D01*
X0153231Y0083571D01*
X0153428Y0083229D01*
X0153707Y0082950D01*
X0154049Y0082752D01*
X0154431Y0082650D01*
X0164128Y0082650D01*
X0164128Y0088150D01*
X0164128Y0089150D01*
X0153128Y0089150D01*
X0153128Y0093347D01*
X0153231Y0093729D01*
X0153428Y0094071D01*
X0153707Y0094350D01*
X0154049Y0094548D01*
X0154431Y0094650D01*
X0164128Y0094650D01*
X0164128Y0089150D01*
X0165128Y0089150D01*
X0165128Y0094650D01*
X0170228Y0094650D01*
X0170228Y0130864D01*
X0006000Y0130864D01*
X0006000Y0130856D02*
X0170228Y0130856D01*
X0170228Y0129858D02*
X0006000Y0129858D01*
X0006000Y0128859D02*
X0170228Y0128859D01*
X0170228Y0127861D02*
X0006000Y0127861D01*
X0006000Y0126862D02*
X0170228Y0126862D01*
X0170228Y0125864D02*
X0006000Y0125864D01*
X0006000Y0124865D02*
X0170228Y0124865D01*
X0170228Y0123866D02*
X0006000Y0123866D01*
X0006000Y0122868D02*
X0170228Y0122868D01*
X0170228Y0121869D02*
X0006000Y0121869D01*
X0006000Y0120871D02*
X0170228Y0120871D01*
X0170228Y0119872D02*
X0006000Y0119872D01*
X0006000Y0118874D02*
X0170228Y0118874D01*
X0170228Y0117875D02*
X0006000Y0117875D01*
X0006000Y0116877D02*
X0170228Y0116877D01*
X0170228Y0115878D02*
X0006000Y0115878D01*
X0006000Y0114880D02*
X0170228Y0114880D01*
X0170228Y0113881D02*
X0006000Y0113881D01*
X0006000Y0112883D02*
X0170228Y0112883D01*
X0170228Y0111884D02*
X0006000Y0111884D01*
X0006000Y0110886D02*
X0170228Y0110886D01*
X0170228Y0109887D02*
X0006000Y0109887D01*
X0006000Y0108889D02*
X0170228Y0108889D01*
X0170228Y0107890D02*
X0006000Y0107890D01*
X0006000Y0106892D02*
X0170228Y0106892D01*
X0170228Y0105893D02*
X0006000Y0105893D01*
X0006000Y0104895D02*
X0170228Y0104895D01*
X0170228Y0103896D02*
X0059927Y0103896D01*
X0059694Y0103993D02*
X0060977Y0103461D01*
X0061959Y0102479D01*
X0062491Y0101196D01*
X0062491Y0099808D01*
X0062100Y0098865D01*
X0062100Y0059012D01*
X0062940Y0058172D01*
X0063793Y0056114D01*
X0063793Y0053886D01*
X0062940Y0051828D01*
X0061365Y0050253D01*
X0061293Y0050223D01*
X0061293Y0049777D01*
X0061365Y0049747D01*
X0062940Y0048172D01*
X0063793Y0046114D01*
X0063793Y0043886D01*
X0062940Y0041828D01*
X0061365Y0040253D01*
X0059307Y0039400D01*
X0057079Y0039400D01*
X0055021Y0040253D01*
X0053445Y0041828D01*
X0053193Y0042438D01*
X0052940Y0041828D01*
X0051365Y0040253D01*
X0049307Y0039400D01*
X0047079Y0039400D01*
X0045021Y0040253D01*
X0043445Y0041828D01*
X0043193Y0042438D01*
X0042940Y0041828D01*
X0041365Y0040253D01*
X0039307Y0039400D01*
X0037079Y0039400D01*
X0035021Y0040253D01*
X0033445Y0041828D01*
X0033193Y0042438D01*
X0032940Y0041828D01*
X0031365Y0040253D01*
X0029307Y0039400D01*
X0027079Y0039400D01*
X0025021Y0040253D01*
X0023445Y0041828D01*
X0022871Y0043216D01*
X0022827Y0043081D01*
X0022469Y0042379D01*
X0022007Y0041743D01*
X0021450Y0041186D01*
X0020813Y0040724D01*
X0020112Y0040366D01*
X0019364Y0040123D01*
X0018693Y0040017D01*
X0018693Y0044500D01*
X0017693Y0044500D01*
X0017693Y0040017D01*
X0017022Y0040123D01*
X0016274Y0040366D01*
X0015572Y0040724D01*
X0014936Y0041186D01*
X0014379Y0041743D01*
X0013917Y0042379D01*
X0013559Y0043081D01*
X0013316Y0043829D01*
X0013210Y0044500D01*
X0017693Y0044500D01*
X0017693Y0045500D01*
X0013210Y0045500D01*
X0013316Y0046171D01*
X0013559Y0046919D01*
X0013917Y0047621D01*
X0014379Y0048257D01*
X0014936Y0048814D01*
X0015572Y0049276D01*
X0016274Y0049634D01*
X0016409Y0049678D01*
X0015021Y0050253D01*
X0013445Y0051828D01*
X0012593Y0053886D01*
X0012593Y0056114D01*
X0013445Y0058172D01*
X0015021Y0059747D01*
X0017079Y0060600D01*
X0019307Y0060600D01*
X0021365Y0059747D01*
X0022940Y0058172D01*
X0023193Y0057562D01*
X0023445Y0058172D01*
X0025021Y0059747D01*
X0027079Y0060600D01*
X0029307Y0060600D01*
X0031365Y0059747D01*
X0032940Y0058172D01*
X0033193Y0057562D01*
X0033445Y0058172D01*
X0035021Y0059747D01*
X0037079Y0060600D01*
X0039307Y0060600D01*
X0041365Y0059747D01*
X0042940Y0058172D01*
X0043193Y0057562D01*
X0043445Y0058172D01*
X0045021Y0059747D01*
X0047079Y0060600D01*
X0049307Y0060600D01*
X0051365Y0059747D01*
X0052940Y0058172D01*
X0053193Y0057562D01*
X0053445Y0058172D01*
X0055021Y0059747D01*
X0055900Y0060112D01*
X0055900Y0098865D01*
X0055509Y0099808D01*
X0055509Y0101196D01*
X0056041Y0102479D01*
X0057023Y0103461D01*
X0058306Y0103993D01*
X0059694Y0103993D01*
X0058073Y0103896D02*
X0006000Y0103896D01*
X0006000Y0102898D02*
X0056459Y0102898D01*
X0055801Y0101899D02*
X0006000Y0101899D01*
X0006000Y0100901D02*
X0055509Y0100901D01*
X0055509Y0099902D02*
X0006000Y0099902D01*
X0006000Y0098904D02*
X0055884Y0098904D01*
X0055900Y0097905D02*
X0006000Y0097905D01*
X0006000Y0096907D02*
X0055900Y0096907D01*
X0055900Y0095908D02*
X0006000Y0095908D01*
X0006000Y0094910D02*
X0055900Y0094910D01*
X0055900Y0093911D02*
X0006000Y0093911D01*
X0006000Y0092913D02*
X0055900Y0092913D01*
X0055900Y0091914D02*
X0006000Y0091914D01*
X0006000Y0090916D02*
X0055900Y0090916D01*
X0055900Y0089917D02*
X0006000Y0089917D01*
X0006000Y0088919D02*
X0055900Y0088919D01*
X0055900Y0087920D02*
X0006000Y0087920D01*
X0006000Y0086922D02*
X0055900Y0086922D01*
X0055900Y0085923D02*
X0006000Y0085923D01*
X0006000Y0084925D02*
X0055900Y0084925D01*
X0055900Y0083926D02*
X0006000Y0083926D01*
X0006000Y0082928D02*
X0055900Y0082928D01*
X0055900Y0081929D02*
X0006000Y0081929D01*
X0006000Y0080931D02*
X0055900Y0080931D01*
X0055900Y0079932D02*
X0006000Y0079932D01*
X0006000Y0078933D02*
X0055900Y0078933D01*
X0055900Y0077935D02*
X0006000Y0077935D01*
X0006000Y0076936D02*
X0055900Y0076936D01*
X0055900Y0075938D02*
X0006000Y0075938D01*
X0006000Y0074939D02*
X0055900Y0074939D01*
X0055900Y0073941D02*
X0006000Y0073941D01*
X0006000Y0072942D02*
X0055900Y0072942D01*
X0055900Y0071944D02*
X0006000Y0071944D01*
X0006000Y0070945D02*
X0055900Y0070945D01*
X0055900Y0069947D02*
X0006000Y0069947D01*
X0006000Y0068948D02*
X0055900Y0068948D01*
X0055900Y0067950D02*
X0006000Y0067950D01*
X0006000Y0066951D02*
X0055900Y0066951D01*
X0055900Y0065953D02*
X0006000Y0065953D01*
X0006000Y0064954D02*
X0055900Y0064954D01*
X0055900Y0063956D02*
X0006000Y0063956D01*
X0006000Y0062957D02*
X0055900Y0062957D01*
X0055900Y0061959D02*
X0006000Y0061959D01*
X0006000Y0060960D02*
X0055900Y0060960D01*
X0055538Y0059962D02*
X0050848Y0059962D01*
X0052149Y0058963D02*
X0054237Y0058963D01*
X0053360Y0057965D02*
X0053026Y0057965D01*
X0045538Y0059962D02*
X0040848Y0059962D01*
X0042149Y0058963D02*
X0044237Y0058963D01*
X0043360Y0057965D02*
X0043026Y0057965D01*
X0043193Y0052438D02*
X0043445Y0051828D01*
X0045021Y0050253D01*
X0045630Y0050000D01*
X0045021Y0049747D01*
X0043445Y0048172D01*
X0043193Y0047562D01*
X0042940Y0048172D01*
X0041365Y0049747D01*
X0040755Y0050000D01*
X0041365Y0050253D01*
X0042940Y0051828D01*
X0043193Y0052438D01*
X0043001Y0051974D02*
X0043385Y0051974D01*
X0044298Y0050975D02*
X0042088Y0050975D01*
X0040812Y0049977D02*
X0045574Y0049977D01*
X0044251Y0048978D02*
X0042134Y0048978D01*
X0043020Y0047980D02*
X0043366Y0047980D01*
X0050755Y0050000D02*
X0051365Y0050253D01*
X0052940Y0051828D01*
X0053193Y0052438D01*
X0053445Y0051828D01*
X0055021Y0050253D01*
X0055093Y0050223D01*
X0055093Y0049777D01*
X0055021Y0049747D01*
X0053445Y0048172D01*
X0053193Y0047562D01*
X0052940Y0048172D01*
X0051365Y0049747D01*
X0050755Y0050000D01*
X0050812Y0049977D02*
X0055093Y0049977D01*
X0054298Y0050975D02*
X0052088Y0050975D01*
X0053001Y0051974D02*
X0053385Y0051974D01*
X0054251Y0048978D02*
X0052134Y0048978D01*
X0053020Y0047980D02*
X0053366Y0047980D01*
X0061293Y0049977D02*
X0153128Y0049977D01*
X0153128Y0050975D02*
X0062088Y0050975D01*
X0063001Y0051974D02*
X0153128Y0051974D01*
X0153128Y0052972D02*
X0063414Y0052972D01*
X0063793Y0053971D02*
X0164128Y0053971D01*
X0164128Y0054969D02*
X0165128Y0054969D01*
X0165128Y0055968D02*
X0164128Y0055968D01*
X0164128Y0056966D02*
X0165128Y0056966D01*
X0165128Y0057965D02*
X0164128Y0057965D01*
X0164128Y0058963D02*
X0165128Y0058963D01*
X0170228Y0059962D02*
X0062100Y0059962D01*
X0062100Y0060960D02*
X0170228Y0060960D01*
X0170228Y0061959D02*
X0062100Y0061959D01*
X0062100Y0062957D02*
X0170228Y0062957D01*
X0170228Y0063956D02*
X0062100Y0063956D01*
X0062100Y0064954D02*
X0170228Y0064954D01*
X0170228Y0065953D02*
X0062100Y0065953D01*
X0062100Y0066951D02*
X0170228Y0066951D01*
X0170228Y0067950D02*
X0062100Y0067950D01*
X0062100Y0068948D02*
X0170228Y0068948D01*
X0170228Y0069947D02*
X0062100Y0069947D01*
X0062100Y0070945D02*
X0170228Y0070945D01*
X0170228Y0071944D02*
X0062100Y0071944D01*
X0062100Y0072942D02*
X0170228Y0072942D01*
X0170228Y0073941D02*
X0062100Y0073941D01*
X0062100Y0074939D02*
X0170228Y0074939D01*
X0170228Y0075938D02*
X0062100Y0075938D01*
X0062100Y0076936D02*
X0170228Y0076936D01*
X0170228Y0077935D02*
X0062100Y0077935D01*
X0062100Y0078933D02*
X0170228Y0078933D01*
X0170228Y0079932D02*
X0062100Y0079932D01*
X0062100Y0080931D02*
X0170228Y0080931D01*
X0170228Y0081929D02*
X0062100Y0081929D01*
X0062100Y0082928D02*
X0153746Y0082928D01*
X0153135Y0083926D02*
X0062100Y0083926D01*
X0062100Y0084925D02*
X0153128Y0084925D01*
X0153128Y0085923D02*
X0062100Y0085923D01*
X0062100Y0086922D02*
X0153128Y0086922D01*
X0153128Y0087920D02*
X0062100Y0087920D01*
X0062100Y0088919D02*
X0164128Y0088919D01*
X0164128Y0089917D02*
X0165128Y0089917D01*
X0165128Y0090916D02*
X0164128Y0090916D01*
X0164128Y0091914D02*
X0165128Y0091914D01*
X0165128Y0092913D02*
X0164128Y0092913D01*
X0164128Y0093911D02*
X0165128Y0093911D01*
X0170228Y0094910D02*
X0062100Y0094910D01*
X0062100Y0095908D02*
X0170228Y0095908D01*
X0170228Y0096907D02*
X0062100Y0096907D01*
X0062100Y0097905D02*
X0170228Y0097905D01*
X0170228Y0098904D02*
X0062116Y0098904D01*
X0062491Y0099902D02*
X0170228Y0099902D01*
X0170228Y0100901D02*
X0062491Y0100901D01*
X0062199Y0101899D02*
X0170228Y0101899D01*
X0170228Y0102898D02*
X0061541Y0102898D01*
X0062100Y0093911D02*
X0153336Y0093911D01*
X0153128Y0092913D02*
X0062100Y0092913D01*
X0062100Y0091914D02*
X0153128Y0091914D01*
X0153128Y0090916D02*
X0062100Y0090916D01*
X0062100Y0089917D02*
X0153128Y0089917D01*
X0164128Y0087920D02*
X0165128Y0087920D01*
X0165128Y0086922D02*
X0164128Y0086922D01*
X0164128Y0085923D02*
X0165128Y0085923D01*
X0165128Y0084925D02*
X0164128Y0084925D01*
X0164128Y0083926D02*
X0165128Y0083926D01*
X0165128Y0082928D02*
X0164128Y0082928D01*
X0153250Y0058963D02*
X0062149Y0058963D01*
X0063026Y0057965D02*
X0153128Y0057965D01*
X0153128Y0056966D02*
X0063440Y0056966D01*
X0063793Y0055968D02*
X0153128Y0055968D01*
X0153128Y0054969D02*
X0063793Y0054969D01*
X0062134Y0048978D02*
X0153175Y0048978D01*
X0154002Y0047980D02*
X0063020Y0047980D01*
X0063434Y0046981D02*
X0170228Y0046981D01*
X0170228Y0045983D02*
X0063793Y0045983D01*
X0063793Y0044984D02*
X0170228Y0044984D01*
X0170228Y0043986D02*
X0063793Y0043986D01*
X0063421Y0042987D02*
X0170228Y0042987D01*
X0170228Y0041989D02*
X0063007Y0041989D01*
X0062103Y0040990D02*
X0170228Y0040990D01*
X0170228Y0039992D02*
X0060735Y0039992D01*
X0055651Y0039992D02*
X0050735Y0039992D01*
X0052103Y0040990D02*
X0054283Y0040990D01*
X0053379Y0041989D02*
X0053007Y0041989D01*
X0045651Y0039992D02*
X0040735Y0039992D01*
X0042103Y0040990D02*
X0044283Y0040990D01*
X0043379Y0041989D02*
X0043007Y0041989D01*
X0035651Y0039992D02*
X0030735Y0039992D01*
X0032103Y0040990D02*
X0034283Y0040990D01*
X0033379Y0041989D02*
X0033007Y0041989D01*
X0025651Y0039992D02*
X0006000Y0039992D01*
X0006000Y0040990D02*
X0015206Y0040990D01*
X0014200Y0041989D02*
X0006000Y0041989D01*
X0006000Y0042987D02*
X0013607Y0042987D01*
X0013291Y0043986D02*
X0006000Y0043986D01*
X0006000Y0044984D02*
X0017693Y0044984D01*
X0017693Y0043986D02*
X0018693Y0043986D01*
X0018693Y0042987D02*
X0017693Y0042987D01*
X0017693Y0041989D02*
X0018693Y0041989D01*
X0018693Y0040990D02*
X0017693Y0040990D01*
X0021180Y0040990D02*
X0024283Y0040990D01*
X0023379Y0041989D02*
X0022185Y0041989D01*
X0022779Y0042987D02*
X0022965Y0042987D01*
X0022871Y0046784D02*
X0022827Y0046919D01*
X0022469Y0047621D01*
X0022007Y0048257D01*
X0021450Y0048814D01*
X0020813Y0049276D01*
X0020112Y0049634D01*
X0019977Y0049678D01*
X0021365Y0050253D01*
X0022940Y0051828D01*
X0023193Y0052438D01*
X0023445Y0051828D01*
X0025021Y0050253D01*
X0025630Y0050000D01*
X0025021Y0049747D01*
X0023445Y0048172D01*
X0022871Y0046784D01*
X0022795Y0046981D02*
X0022952Y0046981D01*
X0023366Y0047980D02*
X0022208Y0047980D01*
X0021224Y0048978D02*
X0024251Y0048978D01*
X0025574Y0049977D02*
X0020699Y0049977D01*
X0022088Y0050975D02*
X0024298Y0050975D01*
X0023385Y0051974D02*
X0023001Y0051974D01*
X0015687Y0049977D02*
X0006000Y0049977D01*
X0006000Y0050975D02*
X0014298Y0050975D01*
X0013385Y0051974D02*
X0006000Y0051974D01*
X0006000Y0052972D02*
X0012971Y0052972D01*
X0012593Y0053971D02*
X0006000Y0053971D01*
X0006000Y0054969D02*
X0012593Y0054969D01*
X0012593Y0055968D02*
X0006000Y0055968D01*
X0006000Y0056966D02*
X0012946Y0056966D01*
X0013360Y0057965D02*
X0006000Y0057965D01*
X0006000Y0058963D02*
X0014237Y0058963D01*
X0015538Y0059962D02*
X0006000Y0059962D01*
X0020848Y0059962D02*
X0025538Y0059962D01*
X0024237Y0058963D02*
X0022149Y0058963D01*
X0023026Y0057965D02*
X0023360Y0057965D01*
X0030848Y0059962D02*
X0035538Y0059962D01*
X0034237Y0058963D02*
X0032149Y0058963D01*
X0033026Y0057965D02*
X0033360Y0057965D01*
X0033193Y0052438D02*
X0033445Y0051828D01*
X0035021Y0050253D01*
X0035630Y0050000D01*
X0035021Y0049747D01*
X0033445Y0048172D01*
X0033193Y0047562D01*
X0032940Y0048172D01*
X0031365Y0049747D01*
X0030755Y0050000D01*
X0031365Y0050253D01*
X0032940Y0051828D01*
X0033193Y0052438D01*
X0033001Y0051974D02*
X0033385Y0051974D01*
X0034298Y0050975D02*
X0032088Y0050975D01*
X0030812Y0049977D02*
X0035574Y0049977D01*
X0034251Y0048978D02*
X0032134Y0048978D01*
X0033020Y0047980D02*
X0033366Y0047980D01*
X0015162Y0048978D02*
X0006000Y0048978D01*
X0006000Y0047980D02*
X0014177Y0047980D01*
X0013591Y0046981D02*
X0006000Y0046981D01*
X0006000Y0045983D02*
X0013286Y0045983D01*
X0006000Y0038993D02*
X0170228Y0038993D01*
X0170228Y0037995D02*
X0006000Y0037995D01*
X0164128Y0047980D02*
X0165128Y0047980D01*
X0165128Y0048978D02*
X0164128Y0048978D01*
X0164128Y0049977D02*
X0165128Y0049977D01*
X0165128Y0050975D02*
X0164128Y0050975D01*
X0164128Y0051974D02*
X0165128Y0051974D01*
X0165128Y0052972D02*
X0164128Y0052972D01*
D13*
X0162125Y0045502D03*
X0167125Y0045502D03*
X0157125Y0045502D03*
X0152125Y0045502D03*
X0152125Y0050502D03*
X0147125Y0045502D03*
X0139625Y0045502D03*
X0137125Y0050502D03*
X0137125Y0058002D03*
X0132125Y0063002D03*
X0124625Y0063002D03*
X0117125Y0063002D03*
X0109625Y0063002D03*
X0102125Y0063002D03*
X0094625Y0063002D03*
X0087125Y0063002D03*
X0079625Y0063002D03*
X0072125Y0063002D03*
X0064625Y0063002D03*
X0049625Y0063002D03*
X0049625Y0075502D03*
X0047125Y0078627D03*
X0044625Y0081752D03*
X0049625Y0081752D03*
X0044625Y0075502D03*
X0037125Y0090502D03*
X0042125Y0093002D03*
X0034625Y0098002D03*
X0034625Y0103002D03*
X0039625Y0108002D03*
X0047125Y0108002D03*
X0054625Y0108002D03*
X0062125Y0108002D03*
X0059000Y0100502D03*
X0069625Y0100502D03*
X0074625Y0095502D03*
X0074625Y0088002D03*
X0074625Y0080502D03*
X0079625Y0080502D03*
X0087125Y0080502D03*
X0094625Y0080502D03*
X0094625Y0085502D03*
X0094625Y0090502D03*
X0102125Y0095502D03*
X0109625Y0095502D03*
X0119625Y0095502D03*
X0129625Y0095502D03*
X0137125Y0095502D03*
X0152125Y0098002D03*
X0157125Y0098002D03*
X0162125Y0098002D03*
X0167125Y0098002D03*
X0152125Y0093002D03*
X0152125Y0085502D03*
X0152125Y0080502D03*
X0157125Y0080502D03*
X0162125Y0080502D03*
X0167125Y0080502D03*
X0167125Y0063002D03*
X0162125Y0063002D03*
X0157125Y0063002D03*
X0152125Y0063002D03*
X0152125Y0058002D03*
X0099625Y0055502D03*
X0099625Y0050502D03*
X0099625Y0045502D03*
X0099625Y0040502D03*
X0067125Y0040502D03*
X0067125Y0048002D03*
X0009625Y0048002D03*
X0009625Y0055502D03*
X0009625Y0063002D03*
X0009625Y0070502D03*
X0009625Y0078002D03*
X0017125Y0085502D03*
X0022125Y0090502D03*
X0029625Y0090502D03*
X0009625Y0040502D03*
D14*
X0058193Y0045000D02*
X0058193Y0055000D01*
X0059000Y0055807D01*
X0059000Y0100502D01*
M02*
