G75*
%MOIN*%
%OFA0B0*%
%FSLAX25Y25*%
%IPPOS*%
%LPD*%
%AMOC8*
5,1,8,0,0,1.08239X$1,22.5*
%
%ADD10R,0.05918X0.06706*%
%ADD11R,0.07887X0.07099*%
%ADD12R,0.06706X0.05918*%
%ADD13C,0.07800*%
%ADD14C,0.00985*%
%ADD15R,0.11036X0.11036*%
%ADD16R,0.20800X0.09800*%
D10*
X0065260Y0070502D03*
X0072740Y0070502D03*
X0082760Y0070502D03*
X0090240Y0070502D03*
X0100260Y0070502D03*
X0107740Y0070502D03*
X0117760Y0070502D03*
X0125240Y0070502D03*
X0135260Y0070502D03*
X0142740Y0070502D03*
X0050240Y0100502D03*
X0042760Y0100502D03*
D11*
X0079000Y0053514D03*
X0079000Y0042490D03*
D12*
X0091500Y0044262D03*
X0091500Y0051742D03*
X0101500Y0081762D03*
X0101500Y0089242D03*
X0119000Y0089242D03*
X0119000Y0081762D03*
X0136500Y0081762D03*
X0136500Y0089242D03*
X0144000Y0059242D03*
X0144000Y0051762D03*
X0066500Y0081762D03*
X0066500Y0089242D03*
D13*
X0018193Y0045000D03*
X0028193Y0045000D03*
X0038193Y0045000D03*
X0048193Y0045000D03*
X0058193Y0045000D03*
X0058193Y0055000D03*
X0048193Y0055000D03*
X0038193Y0055000D03*
X0028193Y0055000D03*
X0018193Y0055000D03*
D14*
X0042586Y0072693D02*
X0043426Y0072693D01*
X0043426Y0069571D01*
X0042586Y0069571D01*
X0042586Y0072693D01*
X0042586Y0070555D02*
X0043426Y0070555D01*
X0043426Y0071539D02*
X0042586Y0071539D01*
X0042586Y0072523D02*
X0043426Y0072523D01*
X0044554Y0072693D02*
X0045394Y0072693D01*
X0045394Y0069571D01*
X0044554Y0069571D01*
X0044554Y0072693D01*
X0044554Y0070555D02*
X0045394Y0070555D01*
X0045394Y0071539D02*
X0044554Y0071539D01*
X0044554Y0072523D02*
X0045394Y0072523D01*
X0046523Y0072693D02*
X0047363Y0072693D01*
X0047363Y0069571D01*
X0046523Y0069571D01*
X0046523Y0072693D01*
X0046523Y0070555D02*
X0047363Y0070555D01*
X0047363Y0071539D02*
X0046523Y0071539D01*
X0046523Y0072523D02*
X0047363Y0072523D01*
X0048491Y0072693D02*
X0049331Y0072693D01*
X0049331Y0069571D01*
X0048491Y0069571D01*
X0048491Y0072693D01*
X0048491Y0070555D02*
X0049331Y0070555D01*
X0049331Y0071539D02*
X0048491Y0071539D01*
X0048491Y0072523D02*
X0049331Y0072523D01*
X0050460Y0072693D02*
X0051300Y0072693D01*
X0051300Y0069571D01*
X0050460Y0069571D01*
X0050460Y0072693D01*
X0050460Y0070555D02*
X0051300Y0070555D01*
X0051300Y0071539D02*
X0050460Y0071539D01*
X0050460Y0072523D02*
X0051300Y0072523D01*
X0053000Y0074393D02*
X0053000Y0075233D01*
X0056122Y0075233D01*
X0056122Y0074393D01*
X0053000Y0074393D01*
X0053000Y0076361D02*
X0053000Y0077201D01*
X0056122Y0077201D01*
X0056122Y0076361D01*
X0053000Y0076361D01*
X0053000Y0078330D02*
X0053000Y0079170D01*
X0056122Y0079170D01*
X0056122Y0078330D01*
X0053000Y0078330D01*
X0053000Y0080299D02*
X0053000Y0081139D01*
X0056122Y0081139D01*
X0056122Y0080299D01*
X0053000Y0080299D01*
X0053000Y0082267D02*
X0053000Y0083107D01*
X0056122Y0083107D01*
X0056122Y0082267D01*
X0053000Y0082267D01*
X0051300Y0084807D02*
X0050460Y0084807D01*
X0050460Y0087929D01*
X0051300Y0087929D01*
X0051300Y0084807D01*
X0051300Y0085791D02*
X0050460Y0085791D01*
X0050460Y0086775D02*
X0051300Y0086775D01*
X0051300Y0087759D02*
X0050460Y0087759D01*
X0049331Y0084807D02*
X0048491Y0084807D01*
X0048491Y0087929D01*
X0049331Y0087929D01*
X0049331Y0084807D01*
X0049331Y0085791D02*
X0048491Y0085791D01*
X0048491Y0086775D02*
X0049331Y0086775D01*
X0049331Y0087759D02*
X0048491Y0087759D01*
X0047363Y0084807D02*
X0046523Y0084807D01*
X0046523Y0087929D01*
X0047363Y0087929D01*
X0047363Y0084807D01*
X0047363Y0085791D02*
X0046523Y0085791D01*
X0046523Y0086775D02*
X0047363Y0086775D01*
X0047363Y0087759D02*
X0046523Y0087759D01*
X0045394Y0084807D02*
X0044554Y0084807D01*
X0044554Y0087929D01*
X0045394Y0087929D01*
X0045394Y0084807D01*
X0045394Y0085791D02*
X0044554Y0085791D01*
X0044554Y0086775D02*
X0045394Y0086775D01*
X0045394Y0087759D02*
X0044554Y0087759D01*
X0043426Y0084807D02*
X0042586Y0084807D01*
X0042586Y0087929D01*
X0043426Y0087929D01*
X0043426Y0084807D01*
X0043426Y0085791D02*
X0042586Y0085791D01*
X0042586Y0086775D02*
X0043426Y0086775D01*
X0043426Y0087759D02*
X0042586Y0087759D01*
X0040886Y0083107D02*
X0040886Y0082267D01*
X0037764Y0082267D01*
X0037764Y0083107D01*
X0040886Y0083107D01*
X0040886Y0081139D02*
X0040886Y0080299D01*
X0037764Y0080299D01*
X0037764Y0081139D01*
X0040886Y0081139D01*
X0040886Y0079170D02*
X0040886Y0078330D01*
X0037764Y0078330D01*
X0037764Y0079170D01*
X0040886Y0079170D01*
X0040886Y0077201D02*
X0040886Y0076361D01*
X0037764Y0076361D01*
X0037764Y0077201D01*
X0040886Y0077201D01*
X0040886Y0075233D02*
X0040886Y0074393D01*
X0037764Y0074393D01*
X0037764Y0075233D01*
X0040886Y0075233D01*
D15*
X0046943Y0078750D03*
D16*
X0164628Y0071250D03*
X0164628Y0088650D03*
X0164628Y0053850D03*
M02*
