G75*
%MOIN*%
%OFA0B0*%
%FSLAX25Y25*%
%IPPOS*%
%LPD*%
%AMOC8*
5,1,8,0,0,1.08239X$1,22.5*
%
%ADD10R,0.05118X0.05906*%
%ADD11R,0.07087X0.06299*%
%ADD12R,0.05906X0.05118*%
%ADD13C,0.07000*%
%ADD14C,0.00553*%
%ADD15R,0.10236X0.10236*%
%ADD16R,0.20000X0.09000*%
%ADD17C,0.01000*%
%ADD18C,0.02781*%
%ADD19C,0.02000*%
D10*
X0065260Y0070502D03*
X0072740Y0070502D03*
X0082760Y0070502D03*
X0090240Y0070502D03*
X0100260Y0070502D03*
X0107740Y0070502D03*
X0117760Y0070502D03*
X0125240Y0070502D03*
X0135260Y0070502D03*
X0142740Y0070502D03*
X0050240Y0100502D03*
X0042760Y0100502D03*
D11*
X0079000Y0053514D03*
X0079000Y0042490D03*
D12*
X0091500Y0044262D03*
X0091500Y0051742D03*
X0101500Y0081762D03*
X0101500Y0089242D03*
X0119000Y0089242D03*
X0119000Y0081762D03*
X0136500Y0081762D03*
X0136500Y0089242D03*
X0144000Y0059242D03*
X0144000Y0051762D03*
X0066500Y0081762D03*
X0066500Y0089242D03*
D13*
X0058193Y0055000D03*
X0048193Y0055000D03*
X0038193Y0055000D03*
X0028193Y0055000D03*
X0018193Y0055000D03*
X0018193Y0045000D03*
X0028193Y0045000D03*
X0038193Y0045000D03*
X0048193Y0045000D03*
X0058193Y0045000D03*
D14*
X0051116Y0072509D02*
X0050644Y0072509D01*
X0051116Y0072509D02*
X0051116Y0069755D01*
X0050644Y0069755D01*
X0050644Y0072509D01*
X0050644Y0070307D02*
X0051116Y0070307D01*
X0051116Y0070859D02*
X0050644Y0070859D01*
X0050644Y0071411D02*
X0051116Y0071411D01*
X0051116Y0071963D02*
X0050644Y0071963D01*
X0049147Y0072509D02*
X0048675Y0072509D01*
X0049147Y0072509D02*
X0049147Y0069755D01*
X0048675Y0069755D01*
X0048675Y0072509D01*
X0048675Y0070307D02*
X0049147Y0070307D01*
X0049147Y0070859D02*
X0048675Y0070859D01*
X0048675Y0071411D02*
X0049147Y0071411D01*
X0049147Y0071963D02*
X0048675Y0071963D01*
X0047179Y0072509D02*
X0046707Y0072509D01*
X0047179Y0072509D02*
X0047179Y0069755D01*
X0046707Y0069755D01*
X0046707Y0072509D01*
X0046707Y0070307D02*
X0047179Y0070307D01*
X0047179Y0070859D02*
X0046707Y0070859D01*
X0046707Y0071411D02*
X0047179Y0071411D01*
X0047179Y0071963D02*
X0046707Y0071963D01*
X0045210Y0072509D02*
X0044738Y0072509D01*
X0045210Y0072509D02*
X0045210Y0069755D01*
X0044738Y0069755D01*
X0044738Y0072509D01*
X0044738Y0070307D02*
X0045210Y0070307D01*
X0045210Y0070859D02*
X0044738Y0070859D01*
X0044738Y0071411D02*
X0045210Y0071411D01*
X0045210Y0071963D02*
X0044738Y0071963D01*
X0043242Y0072509D02*
X0042770Y0072509D01*
X0043242Y0072509D02*
X0043242Y0069755D01*
X0042770Y0069755D01*
X0042770Y0072509D01*
X0042770Y0070307D02*
X0043242Y0070307D01*
X0043242Y0070859D02*
X0042770Y0070859D01*
X0042770Y0071411D02*
X0043242Y0071411D01*
X0043242Y0071963D02*
X0042770Y0071963D01*
X0040702Y0074577D02*
X0040702Y0075049D01*
X0040702Y0074577D02*
X0037948Y0074577D01*
X0037948Y0075049D01*
X0040702Y0075049D01*
X0040702Y0076545D02*
X0040702Y0077017D01*
X0040702Y0076545D02*
X0037948Y0076545D01*
X0037948Y0077017D01*
X0040702Y0077017D01*
X0040702Y0078514D02*
X0040702Y0078986D01*
X0040702Y0078514D02*
X0037948Y0078514D01*
X0037948Y0078986D01*
X0040702Y0078986D01*
X0040702Y0080483D02*
X0040702Y0080955D01*
X0040702Y0080483D02*
X0037948Y0080483D01*
X0037948Y0080955D01*
X0040702Y0080955D01*
X0040702Y0082451D02*
X0040702Y0082923D01*
X0040702Y0082451D02*
X0037948Y0082451D01*
X0037948Y0082923D01*
X0040702Y0082923D01*
X0042770Y0084991D02*
X0043242Y0084991D01*
X0042770Y0084991D02*
X0042770Y0087745D01*
X0043242Y0087745D01*
X0043242Y0084991D01*
X0043242Y0085543D02*
X0042770Y0085543D01*
X0042770Y0086095D02*
X0043242Y0086095D01*
X0043242Y0086647D02*
X0042770Y0086647D01*
X0042770Y0087199D02*
X0043242Y0087199D01*
X0044738Y0084991D02*
X0045210Y0084991D01*
X0044738Y0084991D02*
X0044738Y0087745D01*
X0045210Y0087745D01*
X0045210Y0084991D01*
X0045210Y0085543D02*
X0044738Y0085543D01*
X0044738Y0086095D02*
X0045210Y0086095D01*
X0045210Y0086647D02*
X0044738Y0086647D01*
X0044738Y0087199D02*
X0045210Y0087199D01*
X0046707Y0084991D02*
X0047179Y0084991D01*
X0046707Y0084991D02*
X0046707Y0087745D01*
X0047179Y0087745D01*
X0047179Y0084991D01*
X0047179Y0085543D02*
X0046707Y0085543D01*
X0046707Y0086095D02*
X0047179Y0086095D01*
X0047179Y0086647D02*
X0046707Y0086647D01*
X0046707Y0087199D02*
X0047179Y0087199D01*
X0048675Y0084991D02*
X0049147Y0084991D01*
X0048675Y0084991D02*
X0048675Y0087745D01*
X0049147Y0087745D01*
X0049147Y0084991D01*
X0049147Y0085543D02*
X0048675Y0085543D01*
X0048675Y0086095D02*
X0049147Y0086095D01*
X0049147Y0086647D02*
X0048675Y0086647D01*
X0048675Y0087199D02*
X0049147Y0087199D01*
X0050644Y0084991D02*
X0051116Y0084991D01*
X0050644Y0084991D02*
X0050644Y0087745D01*
X0051116Y0087745D01*
X0051116Y0084991D01*
X0051116Y0085543D02*
X0050644Y0085543D01*
X0050644Y0086095D02*
X0051116Y0086095D01*
X0051116Y0086647D02*
X0050644Y0086647D01*
X0050644Y0087199D02*
X0051116Y0087199D01*
X0053184Y0082923D02*
X0053184Y0082451D01*
X0053184Y0082923D02*
X0055938Y0082923D01*
X0055938Y0082451D01*
X0053184Y0082451D01*
X0053184Y0080955D02*
X0053184Y0080483D01*
X0053184Y0080955D02*
X0055938Y0080955D01*
X0055938Y0080483D01*
X0053184Y0080483D01*
X0053184Y0078986D02*
X0053184Y0078514D01*
X0053184Y0078986D02*
X0055938Y0078986D01*
X0055938Y0078514D01*
X0053184Y0078514D01*
X0053184Y0077017D02*
X0053184Y0076545D01*
X0053184Y0077017D02*
X0055938Y0077017D01*
X0055938Y0076545D01*
X0053184Y0076545D01*
X0053184Y0075049D02*
X0053184Y0074577D01*
X0053184Y0075049D02*
X0055938Y0075049D01*
X0055938Y0074577D01*
X0053184Y0074577D01*
D15*
X0046943Y0078750D03*
D16*
X0164628Y0071250D03*
X0164628Y0088650D03*
X0164628Y0053850D03*
D17*
X0006000Y0037502D02*
X0006000Y0130864D01*
X0170228Y0130864D01*
X0170228Y0094650D01*
X0165128Y0094650D01*
X0165128Y0089150D01*
X0164128Y0089150D01*
X0164128Y0088150D01*
X0153128Y0088150D01*
X0153128Y0083953D01*
X0153231Y0083571D01*
X0153428Y0083229D01*
X0153707Y0082950D01*
X0154049Y0082752D01*
X0154431Y0082650D01*
X0164128Y0082650D01*
X0164128Y0088150D01*
X0165128Y0088150D01*
X0165128Y0082650D01*
X0170228Y0082650D01*
X0170228Y0077850D01*
X0153758Y0077850D01*
X0152528Y0076620D01*
X0152528Y0073850D01*
X0147399Y0073850D01*
X0147399Y0074325D01*
X0146169Y0075555D01*
X0139311Y0075555D01*
X0139000Y0075243D01*
X0138689Y0075555D01*
X0137860Y0075555D01*
X0137860Y0077103D01*
X0140323Y0077103D01*
X0141553Y0078333D01*
X0141553Y0085191D01*
X0140773Y0085970D01*
X0140851Y0086104D01*
X0140953Y0086486D01*
X0140953Y0088742D01*
X0137000Y0088742D01*
X0137000Y0089742D01*
X0140953Y0089742D01*
X0140953Y0091999D01*
X0140851Y0092380D01*
X0140653Y0092722D01*
X0140374Y0093001D01*
X0140032Y0093199D01*
X0139650Y0093301D01*
X0137000Y0093301D01*
X0137000Y0089742D01*
X0136000Y0089742D01*
X0136000Y0088742D01*
X0132047Y0088742D01*
X0132047Y0086486D01*
X0132149Y0086104D01*
X0132227Y0085970D01*
X0131447Y0085191D01*
X0131447Y0078333D01*
X0132660Y0077120D01*
X0132660Y0075555D01*
X0131831Y0075555D01*
X0130601Y0074325D01*
X0130601Y0073102D01*
X0129899Y0073102D01*
X0129899Y0074325D01*
X0128669Y0075555D01*
X0121811Y0075555D01*
X0121500Y0075243D01*
X0121189Y0075555D01*
X0120360Y0075555D01*
X0120360Y0077103D01*
X0122823Y0077103D01*
X0124053Y0078333D01*
X0124053Y0085191D01*
X0123273Y0085970D01*
X0123351Y0086104D01*
X0123453Y0086486D01*
X0123453Y0088742D01*
X0119500Y0088742D01*
X0119500Y0089742D01*
X0123453Y0089742D01*
X0123453Y0091999D01*
X0123351Y0092380D01*
X0123153Y0092722D01*
X0122874Y0093001D01*
X0122532Y0093199D01*
X0122150Y0093301D01*
X0119500Y0093301D01*
X0119500Y0089742D01*
X0118500Y0089742D01*
X0118500Y0088742D01*
X0114547Y0088742D01*
X0114547Y0086486D01*
X0114649Y0086104D01*
X0114727Y0085970D01*
X0113947Y0085191D01*
X0113947Y0078333D01*
X0115160Y0077120D01*
X0115160Y0075555D01*
X0114331Y0075555D01*
X0113101Y0074325D01*
X0113101Y0073102D01*
X0112399Y0073102D01*
X0112399Y0074325D01*
X0111169Y0075555D01*
X0104311Y0075555D01*
X0104000Y0075243D01*
X0103689Y0075555D01*
X0102860Y0075555D01*
X0102860Y0077103D01*
X0105323Y0077103D01*
X0106553Y0078333D01*
X0106553Y0085191D01*
X0105773Y0085970D01*
X0105851Y0086104D01*
X0105953Y0086486D01*
X0105953Y0088742D01*
X0102000Y0088742D01*
X0102000Y0089742D01*
X0105953Y0089742D01*
X0105953Y0091999D01*
X0105851Y0092380D01*
X0105653Y0092722D01*
X0105374Y0093001D01*
X0105032Y0093199D01*
X0104650Y0093301D01*
X0102000Y0093301D01*
X0102000Y0089742D01*
X0101000Y0089742D01*
X0101000Y0088742D01*
X0097047Y0088742D01*
X0097047Y0086486D01*
X0097149Y0086104D01*
X0097227Y0085970D01*
X0096447Y0085191D01*
X0096447Y0078333D01*
X0097660Y0077120D01*
X0097660Y0075555D01*
X0096831Y0075555D01*
X0095601Y0074325D01*
X0095601Y0073102D01*
X0094899Y0073102D01*
X0094899Y0074325D01*
X0093669Y0075555D01*
X0086811Y0075555D01*
X0086500Y0075243D01*
X0086189Y0075555D01*
X0079331Y0075555D01*
X0078101Y0074325D01*
X0078101Y0073102D01*
X0077399Y0073102D01*
X0077399Y0074325D01*
X0076169Y0075555D01*
X0069311Y0075555D01*
X0069000Y0075243D01*
X0068689Y0075555D01*
X0067860Y0075555D01*
X0067860Y0077103D01*
X0070323Y0077103D01*
X0071553Y0078333D01*
X0071553Y0085191D01*
X0071241Y0085502D01*
X0071553Y0085813D01*
X0071553Y0092671D01*
X0070323Y0093901D01*
X0069100Y0093901D01*
X0069100Y0097269D01*
X0068704Y0098225D01*
X0067973Y0098956D01*
X0067973Y0098956D01*
X0064954Y0101975D01*
X0064223Y0102706D01*
X0063267Y0103102D01*
X0061336Y0103102D01*
X0060977Y0103461D01*
X0059694Y0103993D01*
X0058306Y0103993D01*
X0057023Y0103461D01*
X0056664Y0103102D01*
X0054899Y0103102D01*
X0054899Y0104325D01*
X0053669Y0105555D01*
X0046811Y0105555D01*
X0046032Y0104775D01*
X0045898Y0104852D01*
X0045516Y0104955D01*
X0043260Y0104955D01*
X0043260Y0101002D01*
X0042260Y0101002D01*
X0042260Y0104955D01*
X0040003Y0104955D01*
X0039622Y0104852D01*
X0039280Y0104655D01*
X0039000Y0104376D01*
X0038803Y0104034D01*
X0038701Y0103652D01*
X0038701Y0101002D01*
X0042260Y0101002D01*
X0042260Y0100002D01*
X0043260Y0100002D01*
X0043260Y0096049D01*
X0045516Y0096049D01*
X0045898Y0096151D01*
X0046032Y0096229D01*
X0046666Y0095595D01*
X0045470Y0094399D01*
X0044739Y0093668D01*
X0044343Y0092712D01*
X0044343Y0090122D01*
X0041786Y0090122D01*
X0040394Y0088730D01*
X0040394Y0085299D01*
X0036963Y0085299D01*
X0036952Y0085287D01*
X0026293Y0085287D01*
X0025337Y0084891D01*
X0024606Y0084160D01*
X0016171Y0075725D01*
X0015775Y0074769D01*
X0015775Y0060060D01*
X0015021Y0059747D01*
X0013445Y0058172D01*
X0012593Y0056114D01*
X0012593Y0053886D01*
X0013445Y0051828D01*
X0015021Y0050253D01*
X0016409Y0049678D01*
X0016274Y0049634D01*
X0015572Y0049276D01*
X0014936Y0048814D01*
X0014379Y0048257D01*
X0013917Y0047621D01*
X0013559Y0046919D01*
X0013316Y0046171D01*
X0013210Y0045500D01*
X0017693Y0045500D01*
X0017693Y0044500D01*
X0018693Y0044500D01*
X0018693Y0040017D01*
X0019364Y0040123D01*
X0020112Y0040366D01*
X0020813Y0040724D01*
X0021450Y0041186D01*
X0022007Y0041743D01*
X0022469Y0042379D01*
X0022827Y0043081D01*
X0022871Y0043216D01*
X0023445Y0041828D01*
X0025021Y0040253D01*
X0027079Y0039400D01*
X0029307Y0039400D01*
X0031365Y0040253D01*
X0032940Y0041828D01*
X0033193Y0042438D01*
X0033445Y0041828D01*
X0035021Y0040253D01*
X0037079Y0039400D01*
X0039307Y0039400D01*
X0041365Y0040253D01*
X0042940Y0041828D01*
X0043193Y0042438D01*
X0043445Y0041828D01*
X0045021Y0040253D01*
X0047079Y0039400D01*
X0049307Y0039400D01*
X0051365Y0040253D01*
X0052940Y0041828D01*
X0053193Y0042438D01*
X0053445Y0041828D01*
X0055021Y0040253D01*
X0057079Y0039400D01*
X0059307Y0039400D01*
X0061365Y0040253D01*
X0062940Y0041828D01*
X0063793Y0043886D01*
X0063793Y0046114D01*
X0062940Y0048172D01*
X0061365Y0049747D01*
X0060755Y0050000D01*
X0061365Y0050253D01*
X0062940Y0051828D01*
X0062970Y0051900D01*
X0073357Y0051900D01*
X0073357Y0049494D01*
X0074587Y0048264D01*
X0083413Y0048264D01*
X0083801Y0048652D01*
X0086447Y0048652D01*
X0086447Y0048313D01*
X0087227Y0047534D01*
X0087149Y0047400D01*
X0087047Y0047018D01*
X0087047Y0044762D01*
X0091000Y0044762D01*
X0091000Y0043762D01*
X0087047Y0043762D01*
X0087047Y0041505D01*
X0087149Y0041124D01*
X0087347Y0040782D01*
X0087626Y0040502D01*
X0087968Y0040305D01*
X0088350Y0040203D01*
X0091000Y0040203D01*
X0091000Y0043762D01*
X0092000Y0043762D01*
X0092000Y0044762D01*
X0095953Y0044762D01*
X0095953Y0047018D01*
X0095851Y0047400D01*
X0095773Y0047534D01*
X0096553Y0048313D01*
X0096553Y0055171D01*
X0095323Y0056401D01*
X0087677Y0056401D01*
X0086447Y0055171D01*
X0086447Y0054852D01*
X0084643Y0054852D01*
X0084643Y0057533D01*
X0083413Y0058763D01*
X0074587Y0058763D01*
X0073923Y0058100D01*
X0062970Y0058100D01*
X0062940Y0058172D01*
X0061365Y0059747D01*
X0059307Y0060600D01*
X0057079Y0060600D01*
X0056893Y0060523D01*
X0057161Y0061171D01*
X0057161Y0072440D01*
X0058315Y0073593D01*
X0058315Y0078119D01*
X0061662Y0078119D01*
X0062660Y0077120D01*
X0062660Y0075555D01*
X0061831Y0075555D01*
X0060601Y0074325D01*
X0060601Y0066679D01*
X0061831Y0065449D01*
X0068689Y0065449D01*
X0069000Y0065760D01*
X0069311Y0065449D01*
X0076169Y0065449D01*
X0077399Y0066679D01*
X0077399Y0067902D01*
X0078101Y0067902D01*
X0078101Y0066679D01*
X0079331Y0065449D01*
X0086189Y0065449D01*
X0086500Y0065760D01*
X0086811Y0065449D01*
X0093669Y0065449D01*
X0094899Y0066679D01*
X0094899Y0067902D01*
X0095601Y0067902D01*
X0095601Y0066679D01*
X0096831Y0065449D01*
X0103689Y0065449D01*
X0104000Y0065760D01*
X0104311Y0065449D01*
X0111169Y0065449D01*
X0112399Y0066679D01*
X0112399Y0067902D01*
X0113101Y0067902D01*
X0113101Y0066679D01*
X0114331Y0065449D01*
X0121189Y0065449D01*
X0121500Y0065760D01*
X0121811Y0065449D01*
X0128669Y0065449D01*
X0129899Y0066679D01*
X0129899Y0067902D01*
X0130601Y0067902D01*
X0130601Y0066679D01*
X0131831Y0065449D01*
X0138689Y0065449D01*
X0139000Y0065760D01*
X0139311Y0065449D01*
X0140140Y0065449D01*
X0140140Y0063864D01*
X0138947Y0062671D01*
X0138947Y0055813D01*
X0139727Y0055034D01*
X0139649Y0054900D01*
X0139547Y0054518D01*
X0139547Y0052262D01*
X0143500Y0052262D01*
X0143500Y0051262D01*
X0139547Y0051262D01*
X0139547Y0049005D01*
X0139649Y0048624D01*
X0139847Y0048282D01*
X0140126Y0048002D01*
X0140468Y0047805D01*
X0140850Y0047703D01*
X0143500Y0047703D01*
X0143500Y0051262D01*
X0144500Y0051262D01*
X0144500Y0052262D01*
X0148453Y0052262D01*
X0148453Y0054518D01*
X0148351Y0054900D01*
X0148273Y0055034D01*
X0149053Y0055813D01*
X0149053Y0062671D01*
X0147823Y0063901D01*
X0145340Y0063901D01*
X0145340Y0065449D01*
X0146169Y0065449D01*
X0147399Y0066679D01*
X0147399Y0068650D01*
X0152528Y0068650D01*
X0152528Y0065880D01*
X0153758Y0064650D01*
X0170228Y0064650D01*
X0170228Y0059850D01*
X0165128Y0059850D01*
X0165128Y0054350D01*
X0164128Y0054350D01*
X0164128Y0053350D01*
X0153128Y0053350D01*
X0153128Y0049153D01*
X0153231Y0048771D01*
X0153428Y0048429D01*
X0153707Y0048150D01*
X0154049Y0047952D01*
X0154431Y0047850D01*
X0164128Y0047850D01*
X0164128Y0053350D01*
X0165128Y0053350D01*
X0165128Y0047850D01*
X0170228Y0047850D01*
X0170228Y0037502D01*
X0006000Y0037502D01*
X0006000Y0037995D02*
X0074788Y0037995D01*
X0074878Y0037943D02*
X0075259Y0037841D01*
X0078500Y0037841D01*
X0078500Y0041990D01*
X0079500Y0041990D01*
X0079500Y0037841D01*
X0082741Y0037841D01*
X0083122Y0037943D01*
X0083464Y0038140D01*
X0083744Y0038420D01*
X0083941Y0038762D01*
X0084043Y0039143D01*
X0084043Y0041990D01*
X0079500Y0041990D01*
X0079500Y0042990D01*
X0084043Y0042990D01*
X0084043Y0045837D01*
X0083941Y0046219D01*
X0083744Y0046561D01*
X0083464Y0046840D01*
X0083122Y0047038D01*
X0082741Y0047140D01*
X0079500Y0047140D01*
X0079500Y0042990D01*
X0078500Y0042990D01*
X0078500Y0041990D01*
X0073957Y0041990D01*
X0073957Y0039143D01*
X0074059Y0038762D01*
X0074256Y0038420D01*
X0074536Y0038140D01*
X0074878Y0037943D01*
X0073997Y0038993D02*
X0006000Y0038993D01*
X0006000Y0039992D02*
X0025651Y0039992D01*
X0024283Y0040990D02*
X0021180Y0040990D01*
X0022185Y0041989D02*
X0023379Y0041989D01*
X0022965Y0042987D02*
X0022779Y0042987D01*
X0018693Y0042987D02*
X0017693Y0042987D01*
X0017693Y0041989D02*
X0018693Y0041989D01*
X0018693Y0040990D02*
X0017693Y0040990D01*
X0017693Y0040017D02*
X0017693Y0044500D01*
X0013210Y0044500D01*
X0013316Y0043829D01*
X0013559Y0043081D01*
X0013917Y0042379D01*
X0014379Y0041743D01*
X0014936Y0041186D01*
X0015572Y0040724D01*
X0016274Y0040366D01*
X0017022Y0040123D01*
X0017693Y0040017D01*
X0015206Y0040990D02*
X0006000Y0040990D01*
X0006000Y0041989D02*
X0014200Y0041989D01*
X0013607Y0042987D02*
X0006000Y0042987D01*
X0006000Y0043986D02*
X0013291Y0043986D01*
X0013286Y0045983D02*
X0006000Y0045983D01*
X0006000Y0046981D02*
X0013591Y0046981D01*
X0014177Y0047980D02*
X0006000Y0047980D01*
X0006000Y0048978D02*
X0015162Y0048978D01*
X0015687Y0049977D02*
X0006000Y0049977D01*
X0006000Y0050975D02*
X0014298Y0050975D01*
X0013385Y0051974D02*
X0006000Y0051974D01*
X0006000Y0052972D02*
X0012971Y0052972D01*
X0012593Y0053971D02*
X0006000Y0053971D01*
X0006000Y0054969D02*
X0012593Y0054969D01*
X0012593Y0055968D02*
X0006000Y0055968D01*
X0006000Y0056966D02*
X0012946Y0056966D01*
X0013360Y0057965D02*
X0006000Y0057965D01*
X0006000Y0058963D02*
X0014237Y0058963D01*
X0015538Y0059962D02*
X0006000Y0059962D01*
X0006000Y0060960D02*
X0015775Y0060960D01*
X0015775Y0061959D02*
X0006000Y0061959D01*
X0006000Y0062957D02*
X0015775Y0062957D01*
X0015775Y0063956D02*
X0006000Y0063956D01*
X0006000Y0064954D02*
X0015775Y0064954D01*
X0015775Y0065953D02*
X0006000Y0065953D01*
X0006000Y0066951D02*
X0015775Y0066951D01*
X0015775Y0067950D02*
X0006000Y0067950D01*
X0006000Y0068948D02*
X0015775Y0068948D01*
X0015775Y0069947D02*
X0006000Y0069947D01*
X0006000Y0070945D02*
X0015775Y0070945D01*
X0015775Y0071944D02*
X0006000Y0071944D01*
X0006000Y0072942D02*
X0015775Y0072942D01*
X0015775Y0073941D02*
X0006000Y0073941D01*
X0006000Y0074939D02*
X0015846Y0074939D01*
X0016384Y0075938D02*
X0006000Y0075938D01*
X0006000Y0076936D02*
X0017383Y0076936D01*
X0018381Y0077935D02*
X0006000Y0077935D01*
X0006000Y0078933D02*
X0019380Y0078933D01*
X0020378Y0079932D02*
X0006000Y0079932D01*
X0006000Y0080931D02*
X0021377Y0080931D01*
X0022375Y0081929D02*
X0006000Y0081929D01*
X0006000Y0082928D02*
X0023374Y0082928D01*
X0024372Y0083926D02*
X0006000Y0083926D01*
X0006000Y0084925D02*
X0025418Y0084925D01*
X0026810Y0082687D02*
X0039325Y0082687D01*
X0039325Y0080719D02*
X0029842Y0080719D01*
X0023375Y0074252D01*
X0023375Y0049818D01*
X0028193Y0045000D01*
X0033007Y0041989D02*
X0033379Y0041989D01*
X0034283Y0040990D02*
X0032103Y0040990D01*
X0030735Y0039992D02*
X0035651Y0039992D01*
X0040735Y0039992D02*
X0045651Y0039992D01*
X0044283Y0040990D02*
X0042103Y0040990D01*
X0043007Y0041989D02*
X0043379Y0041989D01*
X0048193Y0045000D02*
X0053375Y0050182D01*
X0053375Y0060502D01*
X0054561Y0061688D01*
X0054561Y0074813D01*
X0057664Y0072942D02*
X0060601Y0072942D01*
X0060601Y0071944D02*
X0057161Y0071944D01*
X0057161Y0070945D02*
X0060601Y0070945D01*
X0060601Y0069947D02*
X0057161Y0069947D01*
X0057161Y0068948D02*
X0060601Y0068948D01*
X0060601Y0067950D02*
X0057161Y0067950D01*
X0057161Y0066951D02*
X0060601Y0066951D01*
X0061327Y0065953D02*
X0057161Y0065953D01*
X0057161Y0064954D02*
X0140140Y0064954D01*
X0140140Y0063956D02*
X0057161Y0063956D01*
X0057161Y0062957D02*
X0139234Y0062957D01*
X0138947Y0061959D02*
X0057161Y0061959D01*
X0057074Y0060960D02*
X0138947Y0060960D01*
X0138947Y0059962D02*
X0060848Y0059962D01*
X0062149Y0058963D02*
X0138947Y0058963D01*
X0138947Y0057965D02*
X0084212Y0057965D01*
X0084643Y0056966D02*
X0138947Y0056966D01*
X0138947Y0055968D02*
X0095756Y0055968D01*
X0096553Y0054969D02*
X0139690Y0054969D01*
X0139547Y0053971D02*
X0096553Y0053971D01*
X0096553Y0052972D02*
X0139547Y0052972D01*
X0139547Y0050975D02*
X0096553Y0050975D01*
X0096553Y0049977D02*
X0139547Y0049977D01*
X0139555Y0048978D02*
X0096553Y0048978D01*
X0096219Y0047980D02*
X0140166Y0047980D01*
X0143500Y0047980D02*
X0144500Y0047980D01*
X0144500Y0047703D02*
X0147150Y0047703D01*
X0147532Y0047805D01*
X0147874Y0048002D01*
X0148153Y0048282D01*
X0148351Y0048624D01*
X0148453Y0049005D01*
X0148453Y0051262D01*
X0144500Y0051262D01*
X0144500Y0047703D01*
X0144500Y0048978D02*
X0143500Y0048978D01*
X0143500Y0049977D02*
X0144500Y0049977D01*
X0144500Y0050975D02*
X0143500Y0050975D01*
X0143500Y0051974D02*
X0096553Y0051974D01*
X0095953Y0046981D02*
X0170228Y0046981D01*
X0170228Y0045983D02*
X0095953Y0045983D01*
X0095953Y0044984D02*
X0170228Y0044984D01*
X0170228Y0043986D02*
X0092000Y0043986D01*
X0092000Y0043762D02*
X0095953Y0043762D01*
X0095953Y0041505D01*
X0095851Y0041124D01*
X0095653Y0040782D01*
X0095374Y0040502D01*
X0095032Y0040305D01*
X0094650Y0040203D01*
X0092000Y0040203D01*
X0092000Y0043762D01*
X0092000Y0042987D02*
X0091000Y0042987D01*
X0091000Y0041989D02*
X0092000Y0041989D01*
X0092000Y0040990D02*
X0091000Y0040990D01*
X0087227Y0040990D02*
X0084043Y0040990D01*
X0084043Y0039992D02*
X0170228Y0039992D01*
X0170228Y0040990D02*
X0095773Y0040990D01*
X0095953Y0041989D02*
X0170228Y0041989D01*
X0170228Y0042987D02*
X0095953Y0042987D01*
X0091000Y0043986D02*
X0084043Y0043986D01*
X0084043Y0044984D02*
X0087047Y0044984D01*
X0087047Y0045983D02*
X0084004Y0045983D01*
X0083220Y0046981D02*
X0087047Y0046981D01*
X0086781Y0047980D02*
X0063020Y0047980D01*
X0063434Y0046981D02*
X0074780Y0046981D01*
X0074878Y0047038D02*
X0074536Y0046840D01*
X0074256Y0046561D01*
X0074059Y0046219D01*
X0073957Y0045837D01*
X0073957Y0042990D01*
X0078500Y0042990D01*
X0078500Y0047140D01*
X0075259Y0047140D01*
X0074878Y0047038D01*
X0073996Y0045983D02*
X0063793Y0045983D01*
X0063793Y0044984D02*
X0073957Y0044984D01*
X0073957Y0043986D02*
X0063793Y0043986D01*
X0063421Y0042987D02*
X0078500Y0042987D01*
X0078500Y0041989D02*
X0079500Y0041989D01*
X0079500Y0042987D02*
X0087047Y0042987D01*
X0087047Y0041989D02*
X0084043Y0041989D01*
X0084003Y0038993D02*
X0170228Y0038993D01*
X0170228Y0037995D02*
X0083212Y0037995D01*
X0079500Y0037995D02*
X0078500Y0037995D01*
X0078500Y0038993D02*
X0079500Y0038993D01*
X0079500Y0039992D02*
X0078500Y0039992D01*
X0078500Y0040990D02*
X0079500Y0040990D01*
X0079500Y0043986D02*
X0078500Y0043986D01*
X0078500Y0044984D02*
X0079500Y0044984D01*
X0079500Y0045983D02*
X0078500Y0045983D01*
X0078500Y0046981D02*
X0079500Y0046981D01*
X0073873Y0048978D02*
X0062134Y0048978D01*
X0060812Y0049977D02*
X0073357Y0049977D01*
X0073357Y0050975D02*
X0062088Y0050975D01*
X0050775Y0059992D02*
X0049307Y0060600D01*
X0047574Y0060600D01*
X0047574Y0067496D01*
X0047692Y0067378D01*
X0051961Y0067378D01*
X0051961Y0062765D01*
X0051171Y0061975D01*
X0050775Y0061019D01*
X0050775Y0059992D01*
X0050775Y0060960D02*
X0047574Y0060960D01*
X0047574Y0061959D02*
X0051164Y0061959D01*
X0051961Y0062957D02*
X0047574Y0062957D01*
X0047574Y0063956D02*
X0051961Y0063956D01*
X0051961Y0064954D02*
X0047574Y0064954D01*
X0047574Y0065953D02*
X0051961Y0065953D01*
X0051961Y0066951D02*
X0047574Y0066951D01*
X0046943Y0071132D02*
X0046943Y0078750D01*
X0046943Y0079434D01*
X0044625Y0081752D01*
X0046443Y0081929D02*
X0047443Y0081929D01*
X0047443Y0082615D02*
X0046443Y0082615D01*
X0046443Y0079250D01*
X0047443Y0079250D01*
X0050807Y0079250D01*
X0050807Y0078250D01*
X0047443Y0078250D01*
X0047443Y0079250D01*
X0047443Y0082615D01*
X0047443Y0080931D02*
X0046443Y0080931D01*
X0046443Y0079932D02*
X0047443Y0079932D01*
X0047443Y0078933D02*
X0050807Y0078933D01*
X0047443Y0078250D02*
X0047443Y0074637D01*
X0047092Y0074285D01*
X0046943Y0074285D01*
X0046943Y0074137D01*
X0046943Y0074137D01*
X0046943Y0074285D01*
X0046794Y0074285D01*
X0046443Y0074637D01*
X0046443Y0078250D01*
X0047443Y0078250D01*
X0047443Y0077935D02*
X0046443Y0077935D01*
X0046443Y0078250D02*
X0043078Y0078250D01*
X0043078Y0079250D01*
X0046443Y0079250D01*
X0046443Y0078250D01*
X0046443Y0078933D02*
X0043078Y0078933D01*
X0046443Y0076936D02*
X0047443Y0076936D01*
X0047443Y0075938D02*
X0046443Y0075938D01*
X0046443Y0074939D02*
X0047443Y0074939D01*
X0046943Y0074137D02*
X0046943Y0074137D01*
X0044974Y0071132D02*
X0044974Y0058219D01*
X0048193Y0055000D01*
X0043193Y0052438D02*
X0043445Y0051828D01*
X0045021Y0050253D01*
X0045630Y0050000D01*
X0045021Y0049747D01*
X0043445Y0048172D01*
X0043193Y0047562D01*
X0042940Y0048172D01*
X0041365Y0049747D01*
X0040755Y0050000D01*
X0041365Y0050253D01*
X0042940Y0051828D01*
X0043193Y0052438D01*
X0043001Y0051974D02*
X0043385Y0051974D01*
X0044298Y0050975D02*
X0042088Y0050975D01*
X0040812Y0049977D02*
X0045574Y0049977D01*
X0044251Y0048978D02*
X0042134Y0048978D01*
X0043020Y0047980D02*
X0043366Y0047980D01*
X0038193Y0045000D02*
X0033375Y0049818D01*
X0033375Y0074252D01*
X0035875Y0076752D01*
X0039295Y0076752D01*
X0039325Y0076781D01*
X0039325Y0078750D02*
X0032873Y0078750D01*
X0028375Y0074252D01*
X0028375Y0055182D01*
X0028193Y0055000D01*
X0035975Y0060143D02*
X0035975Y0073175D01*
X0035982Y0073182D01*
X0036725Y0072440D01*
X0036725Y0060453D01*
X0035975Y0060143D01*
X0035975Y0060960D02*
X0036725Y0060960D01*
X0036725Y0061959D02*
X0035975Y0061959D01*
X0035975Y0062957D02*
X0036725Y0062957D01*
X0036725Y0063956D02*
X0035975Y0063956D01*
X0035975Y0064954D02*
X0036725Y0064954D01*
X0036725Y0065953D02*
X0035975Y0065953D01*
X0035975Y0066951D02*
X0036725Y0066951D01*
X0036725Y0067950D02*
X0035975Y0067950D01*
X0035975Y0068948D02*
X0036725Y0068948D01*
X0036725Y0069947D02*
X0035975Y0069947D01*
X0035975Y0070945D02*
X0036725Y0070945D01*
X0036725Y0071944D02*
X0035975Y0071944D01*
X0035975Y0072942D02*
X0036222Y0072942D01*
X0039325Y0074813D02*
X0039325Y0056132D01*
X0038193Y0055000D01*
X0042374Y0058738D02*
X0041925Y0059188D01*
X0041925Y0067378D01*
X0042374Y0067378D01*
X0042374Y0058738D01*
X0042374Y0058963D02*
X0042149Y0058963D01*
X0041925Y0059962D02*
X0042374Y0059962D01*
X0042374Y0060960D02*
X0041925Y0060960D01*
X0041925Y0061959D02*
X0042374Y0061959D01*
X0042374Y0062957D02*
X0041925Y0062957D01*
X0041925Y0063956D02*
X0042374Y0063956D01*
X0042374Y0064954D02*
X0041925Y0064954D01*
X0041925Y0065953D02*
X0042374Y0065953D01*
X0042374Y0066951D02*
X0041925Y0066951D01*
X0058315Y0073941D02*
X0060601Y0073941D01*
X0061216Y0074939D02*
X0058315Y0074939D01*
X0058315Y0075938D02*
X0062660Y0075938D01*
X0062660Y0076936D02*
X0058315Y0076936D01*
X0058315Y0077935D02*
X0061845Y0077935D01*
X0065260Y0080522D02*
X0065260Y0070502D01*
X0067860Y0075938D02*
X0097660Y0075938D01*
X0097660Y0076936D02*
X0067860Y0076936D01*
X0071155Y0077935D02*
X0096845Y0077935D01*
X0096447Y0078933D02*
X0071553Y0078933D01*
X0071553Y0079932D02*
X0096447Y0079932D01*
X0096447Y0080931D02*
X0071553Y0080931D01*
X0071553Y0081929D02*
X0096447Y0081929D01*
X0096447Y0082928D02*
X0071553Y0082928D01*
X0071553Y0083926D02*
X0096447Y0083926D01*
X0096447Y0084925D02*
X0071553Y0084925D01*
X0071553Y0085923D02*
X0097180Y0085923D01*
X0097047Y0086922D02*
X0071553Y0086922D01*
X0071553Y0087920D02*
X0097047Y0087920D01*
X0097047Y0089742D02*
X0101000Y0089742D01*
X0101000Y0093301D01*
X0098350Y0093301D01*
X0097968Y0093199D01*
X0097626Y0093001D01*
X0097347Y0092722D01*
X0097149Y0092380D01*
X0097047Y0091999D01*
X0097047Y0089742D01*
X0097047Y0089917D02*
X0071553Y0089917D01*
X0071553Y0088919D02*
X0101000Y0088919D01*
X0101000Y0089917D02*
X0102000Y0089917D01*
X0102000Y0088919D02*
X0118500Y0088919D01*
X0118500Y0089742D02*
X0114547Y0089742D01*
X0114547Y0091999D01*
X0114649Y0092380D01*
X0114847Y0092722D01*
X0115126Y0093001D01*
X0115468Y0093199D01*
X0115850Y0093301D01*
X0118500Y0093301D01*
X0118500Y0089742D01*
X0118500Y0089917D02*
X0119500Y0089917D01*
X0119500Y0088919D02*
X0136000Y0088919D01*
X0136000Y0089742D02*
X0132047Y0089742D01*
X0132047Y0091999D01*
X0132149Y0092380D01*
X0132347Y0092722D01*
X0132626Y0093001D01*
X0132968Y0093199D01*
X0133350Y0093301D01*
X0136000Y0093301D01*
X0136000Y0089742D01*
X0136000Y0089917D02*
X0137000Y0089917D01*
X0137000Y0088919D02*
X0164128Y0088919D01*
X0164128Y0089150D02*
X0153128Y0089150D01*
X0153128Y0093347D01*
X0153231Y0093729D01*
X0153428Y0094071D01*
X0153707Y0094350D01*
X0154049Y0094548D01*
X0154431Y0094650D01*
X0164128Y0094650D01*
X0164128Y0089150D01*
X0164128Y0089917D02*
X0165128Y0089917D01*
X0165128Y0090916D02*
X0164128Y0090916D01*
X0164128Y0091914D02*
X0165128Y0091914D01*
X0165128Y0092913D02*
X0164128Y0092913D01*
X0164128Y0093911D02*
X0165128Y0093911D01*
X0170228Y0094910D02*
X0069100Y0094910D01*
X0069100Y0095908D02*
X0170228Y0095908D01*
X0170228Y0096907D02*
X0069100Y0096907D01*
X0068837Y0097905D02*
X0170228Y0097905D01*
X0170228Y0098904D02*
X0068025Y0098904D01*
X0067027Y0099902D02*
X0170228Y0099902D01*
X0170228Y0100901D02*
X0066028Y0100901D01*
X0065030Y0101899D02*
X0170228Y0101899D01*
X0170228Y0102898D02*
X0063760Y0102898D01*
X0064954Y0101975D02*
X0064954Y0101975D01*
X0062750Y0100502D02*
X0059000Y0100502D01*
X0050240Y0100502D01*
X0050880Y0100502D01*
X0050880Y0094252D01*
X0049000Y0094252D01*
X0046943Y0092195D01*
X0046943Y0086368D01*
X0050880Y0086368D02*
X0050880Y0094252D01*
X0053480Y0093911D02*
X0063900Y0093911D01*
X0063900Y0093901D02*
X0062677Y0093901D01*
X0061447Y0092671D01*
X0061447Y0085813D01*
X0061759Y0085502D01*
X0061447Y0085191D01*
X0061447Y0083318D01*
X0058315Y0083318D01*
X0058315Y0083907D01*
X0056923Y0085299D01*
X0053492Y0085299D01*
X0053492Y0088730D01*
X0053480Y0088741D01*
X0053480Y0095449D01*
X0053669Y0095449D01*
X0054899Y0096679D01*
X0054899Y0097902D01*
X0056664Y0097902D01*
X0057023Y0097543D01*
X0058306Y0097011D01*
X0059694Y0097011D01*
X0060977Y0097543D01*
X0061336Y0097902D01*
X0061673Y0097902D01*
X0063900Y0095675D01*
X0063900Y0093901D01*
X0063900Y0094910D02*
X0053480Y0094910D01*
X0054128Y0095908D02*
X0063667Y0095908D01*
X0062668Y0096907D02*
X0054899Y0096907D01*
X0053480Y0092913D02*
X0061689Y0092913D01*
X0061447Y0091914D02*
X0053480Y0091914D01*
X0053480Y0090916D02*
X0061447Y0090916D01*
X0061447Y0089917D02*
X0053480Y0089917D01*
X0053480Y0088919D02*
X0061447Y0088919D01*
X0061447Y0087920D02*
X0053492Y0087920D01*
X0053492Y0086922D02*
X0061447Y0086922D01*
X0061447Y0085923D02*
X0053492Y0085923D01*
X0057297Y0084925D02*
X0061447Y0084925D01*
X0061447Y0083926D02*
X0058295Y0083926D01*
X0054561Y0080719D02*
X0065457Y0080719D01*
X0066500Y0081762D01*
X0065260Y0080522D01*
X0076784Y0074939D02*
X0078716Y0074939D01*
X0078101Y0073941D02*
X0077399Y0073941D01*
X0072740Y0070502D02*
X0082760Y0070502D01*
X0078101Y0066951D02*
X0077399Y0066951D01*
X0076673Y0065953D02*
X0078827Y0065953D01*
X0090240Y0070502D02*
X0100260Y0070502D01*
X0100260Y0080522D01*
X0101500Y0081762D01*
X0106553Y0081929D02*
X0113947Y0081929D01*
X0113947Y0080931D02*
X0106553Y0080931D01*
X0106553Y0079932D02*
X0113947Y0079932D01*
X0113947Y0078933D02*
X0106553Y0078933D01*
X0106155Y0077935D02*
X0114345Y0077935D01*
X0115160Y0076936D02*
X0102860Y0076936D01*
X0102860Y0075938D02*
X0115160Y0075938D01*
X0113716Y0074939D02*
X0111784Y0074939D01*
X0112399Y0073941D02*
X0113101Y0073941D01*
X0117760Y0070502D02*
X0107740Y0070502D01*
X0112399Y0066951D02*
X0113101Y0066951D01*
X0113827Y0065953D02*
X0111673Y0065953D01*
X0117760Y0070502D02*
X0117760Y0080522D01*
X0119000Y0081762D01*
X0113947Y0082928D02*
X0106553Y0082928D01*
X0106553Y0083926D02*
X0113947Y0083926D01*
X0113947Y0084925D02*
X0106553Y0084925D01*
X0105820Y0085923D02*
X0114680Y0085923D01*
X0114547Y0086922D02*
X0105953Y0086922D01*
X0105953Y0087920D02*
X0114547Y0087920D01*
X0114547Y0089917D02*
X0105953Y0089917D01*
X0105953Y0090916D02*
X0114547Y0090916D01*
X0114547Y0091914D02*
X0105953Y0091914D01*
X0105463Y0092913D02*
X0115037Y0092913D01*
X0118500Y0092913D02*
X0119500Y0092913D01*
X0119500Y0091914D02*
X0118500Y0091914D01*
X0118500Y0090916D02*
X0119500Y0090916D01*
X0123453Y0090916D02*
X0132047Y0090916D01*
X0132047Y0091914D02*
X0123453Y0091914D01*
X0122963Y0092913D02*
X0132537Y0092913D01*
X0136000Y0092913D02*
X0137000Y0092913D01*
X0137000Y0091914D02*
X0136000Y0091914D01*
X0136000Y0090916D02*
X0137000Y0090916D01*
X0140463Y0092913D02*
X0153128Y0092913D01*
X0153128Y0091914D02*
X0140953Y0091914D01*
X0140953Y0090916D02*
X0153128Y0090916D01*
X0153128Y0089917D02*
X0140953Y0089917D01*
X0140953Y0087920D02*
X0153128Y0087920D01*
X0153128Y0086922D02*
X0140953Y0086922D01*
X0140820Y0085923D02*
X0153128Y0085923D01*
X0153128Y0084925D02*
X0141553Y0084925D01*
X0141553Y0083926D02*
X0153135Y0083926D01*
X0153746Y0082928D02*
X0141553Y0082928D01*
X0141553Y0081929D02*
X0170228Y0081929D01*
X0170228Y0080931D02*
X0141553Y0080931D01*
X0141553Y0079932D02*
X0170228Y0079932D01*
X0170228Y0078933D02*
X0141553Y0078933D01*
X0141155Y0077935D02*
X0170228Y0077935D01*
X0165128Y0082928D02*
X0164128Y0082928D01*
X0164128Y0083926D02*
X0165128Y0083926D01*
X0165128Y0084925D02*
X0164128Y0084925D01*
X0164128Y0085923D02*
X0165128Y0085923D01*
X0165128Y0086922D02*
X0164128Y0086922D01*
X0164128Y0087920D02*
X0165128Y0087920D01*
X0153336Y0093911D02*
X0069100Y0093911D01*
X0071311Y0092913D02*
X0097537Y0092913D01*
X0097047Y0091914D02*
X0071553Y0091914D01*
X0071553Y0090916D02*
X0097047Y0090916D01*
X0101000Y0090916D02*
X0102000Y0090916D01*
X0102000Y0091914D02*
X0101000Y0091914D01*
X0101000Y0092913D02*
X0102000Y0092913D01*
X0123453Y0089917D02*
X0132047Y0089917D01*
X0132047Y0087920D02*
X0123453Y0087920D01*
X0123453Y0086922D02*
X0132047Y0086922D01*
X0132180Y0085923D02*
X0123320Y0085923D01*
X0124053Y0084925D02*
X0131447Y0084925D01*
X0131447Y0083926D02*
X0124053Y0083926D01*
X0124053Y0082928D02*
X0131447Y0082928D01*
X0131447Y0081929D02*
X0124053Y0081929D01*
X0124053Y0080931D02*
X0131447Y0080931D01*
X0131447Y0079932D02*
X0124053Y0079932D01*
X0124053Y0078933D02*
X0131447Y0078933D01*
X0131845Y0077935D02*
X0123655Y0077935D01*
X0120360Y0076936D02*
X0132660Y0076936D01*
X0132660Y0075938D02*
X0120360Y0075938D01*
X0125240Y0070502D02*
X0135260Y0070502D01*
X0135260Y0080522D01*
X0136500Y0081762D01*
X0137860Y0076936D02*
X0152845Y0076936D01*
X0152528Y0075938D02*
X0137860Y0075938D01*
X0131216Y0074939D02*
X0129284Y0074939D01*
X0129899Y0073941D02*
X0130601Y0073941D01*
X0130601Y0066951D02*
X0129899Y0066951D01*
X0129173Y0065953D02*
X0131327Y0065953D01*
X0142740Y0070502D02*
X0142740Y0060502D01*
X0144000Y0059242D01*
X0149053Y0058963D02*
X0153250Y0058963D01*
X0153231Y0058929D02*
X0153128Y0058547D01*
X0153128Y0054350D01*
X0164128Y0054350D01*
X0164128Y0059850D01*
X0154431Y0059850D01*
X0154049Y0059748D01*
X0153707Y0059550D01*
X0153428Y0059271D01*
X0153231Y0058929D01*
X0153128Y0057965D02*
X0149053Y0057965D01*
X0149053Y0056966D02*
X0153128Y0056966D01*
X0153128Y0055968D02*
X0149053Y0055968D01*
X0148310Y0054969D02*
X0153128Y0054969D01*
X0153128Y0052972D02*
X0148453Y0052972D01*
X0148453Y0053971D02*
X0164128Y0053971D01*
X0164128Y0054969D02*
X0165128Y0054969D01*
X0165128Y0055968D02*
X0164128Y0055968D01*
X0164128Y0056966D02*
X0165128Y0056966D01*
X0165128Y0057965D02*
X0164128Y0057965D01*
X0164128Y0058963D02*
X0165128Y0058963D01*
X0170228Y0059962D02*
X0149053Y0059962D01*
X0149053Y0060960D02*
X0170228Y0060960D01*
X0170228Y0061959D02*
X0149053Y0061959D01*
X0148766Y0062957D02*
X0170228Y0062957D01*
X0170228Y0063956D02*
X0145340Y0063956D01*
X0145340Y0064954D02*
X0153454Y0064954D01*
X0152528Y0065953D02*
X0146673Y0065953D01*
X0147399Y0066951D02*
X0152528Y0066951D01*
X0152528Y0067950D02*
X0147399Y0067950D01*
X0143488Y0071250D02*
X0164628Y0071250D01*
X0152528Y0073941D02*
X0147399Y0073941D01*
X0146784Y0074939D02*
X0152528Y0074939D01*
X0143488Y0071250D02*
X0142740Y0070502D01*
X0164128Y0052972D02*
X0165128Y0052972D01*
X0165128Y0051974D02*
X0164128Y0051974D01*
X0164128Y0050975D02*
X0165128Y0050975D01*
X0165128Y0049977D02*
X0164128Y0049977D01*
X0164128Y0048978D02*
X0165128Y0048978D01*
X0165128Y0047980D02*
X0164128Y0047980D01*
X0154002Y0047980D02*
X0147834Y0047980D01*
X0148445Y0048978D02*
X0153175Y0048978D01*
X0153128Y0049977D02*
X0148453Y0049977D01*
X0148453Y0050975D02*
X0153128Y0050975D01*
X0153128Y0051974D02*
X0144500Y0051974D01*
X0096327Y0065953D02*
X0094173Y0065953D01*
X0094899Y0066951D02*
X0095601Y0066951D01*
X0095601Y0073941D02*
X0094899Y0073941D01*
X0094284Y0074939D02*
X0096216Y0074939D01*
X0087244Y0055968D02*
X0084643Y0055968D01*
X0084643Y0054969D02*
X0086447Y0054969D01*
X0073957Y0041989D02*
X0063007Y0041989D01*
X0062103Y0040990D02*
X0073957Y0040990D01*
X0073957Y0039992D02*
X0060735Y0039992D01*
X0055651Y0039992D02*
X0050735Y0039992D01*
X0052103Y0040990D02*
X0054283Y0040990D01*
X0053379Y0041989D02*
X0053007Y0041989D01*
X0030775Y0049992D02*
X0030755Y0050000D01*
X0030775Y0050008D01*
X0030775Y0049992D01*
X0020775Y0049977D02*
X0020699Y0049977D01*
X0020775Y0050008D02*
X0020775Y0049301D01*
X0020777Y0049295D01*
X0020112Y0049634D01*
X0019977Y0049678D01*
X0020775Y0050008D01*
X0018193Y0055000D02*
X0018375Y0055182D01*
X0018375Y0074252D01*
X0026810Y0082687D01*
X0040394Y0085923D02*
X0006000Y0085923D01*
X0006000Y0086922D02*
X0040394Y0086922D01*
X0040394Y0087920D02*
X0006000Y0087920D01*
X0006000Y0088919D02*
X0040583Y0088919D01*
X0041582Y0089917D02*
X0006000Y0089917D01*
X0006000Y0090916D02*
X0044343Y0090916D01*
X0044343Y0091914D02*
X0006000Y0091914D01*
X0006000Y0092913D02*
X0044426Y0092913D01*
X0044982Y0093911D02*
X0006000Y0093911D01*
X0006000Y0094910D02*
X0045981Y0094910D01*
X0046352Y0095908D02*
X0006000Y0095908D01*
X0006000Y0096907D02*
X0038840Y0096907D01*
X0038803Y0096970D02*
X0039000Y0096628D01*
X0039280Y0096349D01*
X0039622Y0096151D01*
X0040003Y0096049D01*
X0042260Y0096049D01*
X0042260Y0100002D01*
X0038701Y0100002D01*
X0038701Y0097352D01*
X0038803Y0096970D01*
X0038701Y0097905D02*
X0006000Y0097905D01*
X0006000Y0098904D02*
X0038701Y0098904D01*
X0038701Y0099902D02*
X0006000Y0099902D01*
X0006000Y0100901D02*
X0042260Y0100901D01*
X0042260Y0101899D02*
X0043260Y0101899D01*
X0043260Y0102898D02*
X0042260Y0102898D01*
X0042260Y0103896D02*
X0043260Y0103896D01*
X0043260Y0104895D02*
X0042260Y0104895D01*
X0039780Y0104895D02*
X0006000Y0104895D01*
X0006000Y0105893D02*
X0170228Y0105893D01*
X0170228Y0104895D02*
X0054329Y0104895D01*
X0054899Y0103896D02*
X0058073Y0103896D01*
X0059927Y0103896D02*
X0170228Y0103896D01*
X0170228Y0106892D02*
X0006000Y0106892D01*
X0006000Y0107890D02*
X0170228Y0107890D01*
X0170228Y0108889D02*
X0006000Y0108889D01*
X0006000Y0109887D02*
X0170228Y0109887D01*
X0170228Y0110886D02*
X0006000Y0110886D01*
X0006000Y0111884D02*
X0170228Y0111884D01*
X0170228Y0112883D02*
X0006000Y0112883D01*
X0006000Y0113881D02*
X0170228Y0113881D01*
X0170228Y0114880D02*
X0006000Y0114880D01*
X0006000Y0115878D02*
X0170228Y0115878D01*
X0170228Y0116877D02*
X0006000Y0116877D01*
X0006000Y0117875D02*
X0170228Y0117875D01*
X0170228Y0118874D02*
X0006000Y0118874D01*
X0006000Y0119872D02*
X0170228Y0119872D01*
X0170228Y0120871D02*
X0006000Y0120871D01*
X0006000Y0121869D02*
X0170228Y0121869D01*
X0170228Y0122868D02*
X0006000Y0122868D01*
X0006000Y0123866D02*
X0170228Y0123866D01*
X0170228Y0124865D02*
X0006000Y0124865D01*
X0006000Y0125864D02*
X0170228Y0125864D01*
X0170228Y0126862D02*
X0006000Y0126862D01*
X0006000Y0127861D02*
X0170228Y0127861D01*
X0170228Y0128859D02*
X0006000Y0128859D01*
X0006000Y0129858D02*
X0170228Y0129858D01*
X0170228Y0130856D02*
X0006000Y0130856D01*
X0045740Y0104895D02*
X0046151Y0104895D01*
X0038766Y0103896D02*
X0006000Y0103896D01*
X0006000Y0102898D02*
X0038701Y0102898D01*
X0038701Y0101899D02*
X0006000Y0101899D01*
X0042260Y0099902D02*
X0043260Y0099902D01*
X0043260Y0098904D02*
X0042260Y0098904D01*
X0042260Y0097905D02*
X0043260Y0097905D01*
X0043260Y0096907D02*
X0042260Y0096907D01*
X0062750Y0100502D02*
X0066500Y0096752D01*
X0066500Y0089242D01*
X0018693Y0043986D02*
X0017693Y0043986D01*
X0017693Y0044984D02*
X0006000Y0044984D01*
D18*
X0009625Y0048002D03*
X0009625Y0055502D03*
X0009625Y0063002D03*
X0009625Y0070502D03*
X0009625Y0078002D03*
X0017125Y0085502D03*
X0022125Y0090502D03*
X0029625Y0090502D03*
X0037125Y0090502D03*
X0042125Y0093002D03*
X0034625Y0098002D03*
X0034625Y0103002D03*
X0039625Y0108002D03*
X0047125Y0108002D03*
X0054625Y0108002D03*
X0062125Y0108002D03*
X0059000Y0100502D03*
X0069625Y0100502D03*
X0074625Y0095502D03*
X0074625Y0088002D03*
X0074625Y0080502D03*
X0079625Y0080502D03*
X0087125Y0080502D03*
X0094625Y0080502D03*
X0094625Y0085502D03*
X0094625Y0090502D03*
X0102125Y0095502D03*
X0109625Y0095502D03*
X0119625Y0095502D03*
X0129625Y0095502D03*
X0137125Y0095502D03*
X0152125Y0098002D03*
X0157125Y0098002D03*
X0162125Y0098002D03*
X0167125Y0098002D03*
X0152125Y0093002D03*
X0152125Y0085502D03*
X0152125Y0080502D03*
X0157125Y0080502D03*
X0162125Y0080502D03*
X0167125Y0080502D03*
X0167125Y0063002D03*
X0162125Y0063002D03*
X0157125Y0063002D03*
X0152125Y0063002D03*
X0152125Y0058002D03*
X0152125Y0050502D03*
X0152125Y0045502D03*
X0157125Y0045502D03*
X0162125Y0045502D03*
X0167125Y0045502D03*
X0147125Y0045502D03*
X0139625Y0045502D03*
X0137125Y0050502D03*
X0137125Y0058002D03*
X0132125Y0063002D03*
X0124625Y0063002D03*
X0117125Y0063002D03*
X0109625Y0063002D03*
X0102125Y0063002D03*
X0094625Y0063002D03*
X0087125Y0063002D03*
X0079625Y0063002D03*
X0072125Y0063002D03*
X0064625Y0063002D03*
X0049625Y0063002D03*
X0049625Y0075502D03*
X0047125Y0078627D03*
X0044625Y0081752D03*
X0049625Y0081752D03*
X0044625Y0075502D03*
X0067125Y0048002D03*
X0067125Y0040502D03*
X0099625Y0040502D03*
X0099625Y0045502D03*
X0099625Y0050502D03*
X0099625Y0055502D03*
X0009625Y0040502D03*
D19*
X0058193Y0055000D02*
X0077514Y0055000D01*
X0079000Y0053514D01*
X0079000Y0053002D01*
X0080250Y0051752D01*
X0091490Y0051752D01*
X0091500Y0051742D01*
M02*
