%
M48
M72
T01C0.01181
T02C0.04000
%
T01
X9625Y40502
X9625Y48002
X9625Y55502
X9625Y63002
X9625Y70502
X9625Y78002
X17125Y85502
X22125Y90502
X29625Y90502
X37125Y90502
X42125Y93002
X34625Y98002
X34625Y103002
X39625Y108002
X47125Y108002
X54625Y108002
X62125Y108002
X59000Y100502
X69625Y100502
X74625Y95502
X74625Y88002
X74625Y80502
X79625Y80502
X87125Y80502
X94625Y80502
X94625Y85502
X94625Y90502
X102125Y95502
X109625Y95502
X119625Y95502
X129625Y95502
X137125Y95502
X152125Y98002
X157125Y98002
X162125Y98002
X167125Y98002
X152125Y93002
X152125Y85502
X152125Y80502
X157125Y80502
X162125Y80502
X167125Y80502
X167125Y63002
X162125Y63002
X157125Y63002
X152125Y63002
X152125Y58002
X152125Y50502
X152125Y45502
X157125Y45502
X162125Y45502
X167125Y45502
X147125Y45502
X139625Y45502
X137125Y50502
X137125Y58002
X132125Y63002
X124625Y63002
X117125Y63002
X109625Y63002
X102125Y63002
X94625Y63002
X87125Y63002
X79625Y63002
X72125Y63002
X64625Y63002
X49625Y63002
X49625Y75502
X47125Y78627
X44625Y81752
X49625Y81752
X44625Y75502
X67125Y48002
X67125Y40502
X99625Y40502
X99625Y45502
X99625Y50502
X99625Y55502
T02
X58193Y55000
X48193Y55000
X38193Y55000
X28193Y55000
X18193Y55000
X18193Y45000
X28193Y45000
X38193Y45000
X48193Y45000
X58193Y45000
M30
