%
M48
M72
T01C0.01181
T02C0.04000
%
T01
X10734Y39065
X10734Y45315
X10984Y51565
X10984Y57815
X11484Y64815
X11484Y72815
X16484Y77815
X22734Y83565
X27984Y87815
X38234Y87815
X38234Y91565
X43234Y91565
X38234Y97815
X38234Y102815
X43234Y102815
X58677Y96250
X61984Y104065
X66984Y104065
X73234Y104065
X73234Y97815
X75734Y89065
X85734Y89065
X93234Y87815
X101984Y94065
X110734Y87815
X119484Y94065
X126984Y87815
X135734Y86565
X135734Y90315
X135734Y94065
X138234Y96565
X141984Y96565
X145734Y96565
X149484Y96565
X153234Y96565
X135734Y82815
X138234Y80315
X141984Y80315
X145734Y80315
X149484Y80315
X153234Y80315
X135734Y76565
X131984Y77815
X128234Y77815
X110862Y78563
X93234Y79065
X90734Y64065
X81984Y64065
X73234Y64065
X65734Y64065
X50734Y75565
X47734Y78565
X50734Y81565
X44484Y81565
X44484Y75565
X69484Y49065
X69484Y41565
X89484Y41565
X96984Y41565
X96984Y47815
X96984Y56565
X100734Y64065
X110734Y64065
X120734Y64065
X121984Y55315
X129484Y55315
X135734Y55315
X135734Y51565
X135734Y47815
X138234Y45315
X141984Y45315
X145734Y45315
X149484Y45315
X153234Y45315
X153234Y61565
X149484Y61565
X145734Y61565
X141984Y61565
X138234Y61565
T02
X58677Y55000
X48677Y55000
X38677Y55000
X28677Y55000
X18677Y55000
X18677Y45000
X28677Y45000
X38677Y45000
X48677Y45000
X58677Y45000
M30
