G75*
%MOIN*%
%OFA0B0*%
%FSLAX25Y25*%
%IPPOS*%
%LPD*%
%AMOC8*
5,1,8,0,0,1.08239X$1,22.5*
%
%ADD10R,0.07087X0.06299*%
%ADD11R,0.05118X0.05906*%
%ADD12R,0.05906X0.05118*%
%ADD13R,0.03937X0.05512*%
%ADD14C,0.07000*%
%ADD15C,0.00553*%
%ADD16R,0.10236X0.10236*%
%ADD17R,0.20000X0.09000*%
%ADD18C,0.01969*%
%ADD19C,0.01000*%
%ADD20C,0.02781*%
D10*
X0078677Y0043238D03*
X0078677Y0054262D03*
D11*
X0076187Y0071250D03*
X0083667Y0071250D03*
X0093687Y0071250D03*
X0101167Y0071250D03*
X0111187Y0071250D03*
X0118667Y0071250D03*
X0083667Y0081250D03*
X0076187Y0081250D03*
X0051167Y0097500D03*
X0043687Y0097500D03*
D12*
X0067427Y0097490D03*
X0067427Y0090010D03*
X0067427Y0079990D03*
X0067427Y0072510D03*
X0089927Y0054990D03*
X0089927Y0047510D03*
X0102427Y0080010D03*
X0102427Y0087490D03*
X0119927Y0087490D03*
X0119927Y0080010D03*
D13*
X0129927Y0070581D03*
X0126187Y0061919D03*
X0133667Y0061919D03*
D14*
X0058677Y0055000D03*
X0048677Y0055000D03*
X0038677Y0055000D03*
X0028677Y0055000D03*
X0018677Y0055000D03*
X0018677Y0045000D03*
X0028677Y0045000D03*
X0038677Y0045000D03*
X0048677Y0045000D03*
X0058677Y0045000D03*
D15*
X0051600Y0072509D02*
X0051128Y0072509D01*
X0051600Y0072509D02*
X0051600Y0069755D01*
X0051128Y0069755D01*
X0051128Y0072509D01*
X0051128Y0070307D02*
X0051600Y0070307D01*
X0051600Y0070859D02*
X0051128Y0070859D01*
X0051128Y0071411D02*
X0051600Y0071411D01*
X0051600Y0071963D02*
X0051128Y0071963D01*
X0049632Y0072509D02*
X0049160Y0072509D01*
X0049632Y0072509D02*
X0049632Y0069755D01*
X0049160Y0069755D01*
X0049160Y0072509D01*
X0049160Y0070307D02*
X0049632Y0070307D01*
X0049632Y0070859D02*
X0049160Y0070859D01*
X0049160Y0071411D02*
X0049632Y0071411D01*
X0049632Y0071963D02*
X0049160Y0071963D01*
X0047663Y0072509D02*
X0047191Y0072509D01*
X0047663Y0072509D02*
X0047663Y0069755D01*
X0047191Y0069755D01*
X0047191Y0072509D01*
X0047191Y0070307D02*
X0047663Y0070307D01*
X0047663Y0070859D02*
X0047191Y0070859D01*
X0047191Y0071411D02*
X0047663Y0071411D01*
X0047663Y0071963D02*
X0047191Y0071963D01*
X0045695Y0072509D02*
X0045223Y0072509D01*
X0045695Y0072509D02*
X0045695Y0069755D01*
X0045223Y0069755D01*
X0045223Y0072509D01*
X0045223Y0070307D02*
X0045695Y0070307D01*
X0045695Y0070859D02*
X0045223Y0070859D01*
X0045223Y0071411D02*
X0045695Y0071411D01*
X0045695Y0071963D02*
X0045223Y0071963D01*
X0043726Y0072509D02*
X0043254Y0072509D01*
X0043726Y0072509D02*
X0043726Y0069755D01*
X0043254Y0069755D01*
X0043254Y0072509D01*
X0043254Y0070307D02*
X0043726Y0070307D01*
X0043726Y0070859D02*
X0043254Y0070859D01*
X0043254Y0071411D02*
X0043726Y0071411D01*
X0043726Y0071963D02*
X0043254Y0071963D01*
X0041186Y0074577D02*
X0041186Y0075049D01*
X0041186Y0074577D02*
X0038432Y0074577D01*
X0038432Y0075049D01*
X0041186Y0075049D01*
X0041186Y0076545D02*
X0041186Y0077017D01*
X0041186Y0076545D02*
X0038432Y0076545D01*
X0038432Y0077017D01*
X0041186Y0077017D01*
X0041186Y0078514D02*
X0041186Y0078986D01*
X0041186Y0078514D02*
X0038432Y0078514D01*
X0038432Y0078986D01*
X0041186Y0078986D01*
X0041186Y0080483D02*
X0041186Y0080955D01*
X0041186Y0080483D02*
X0038432Y0080483D01*
X0038432Y0080955D01*
X0041186Y0080955D01*
X0041186Y0082451D02*
X0041186Y0082923D01*
X0041186Y0082451D02*
X0038432Y0082451D01*
X0038432Y0082923D01*
X0041186Y0082923D01*
X0043254Y0084991D02*
X0043726Y0084991D01*
X0043254Y0084991D02*
X0043254Y0087745D01*
X0043726Y0087745D01*
X0043726Y0084991D01*
X0043726Y0085543D02*
X0043254Y0085543D01*
X0043254Y0086095D02*
X0043726Y0086095D01*
X0043726Y0086647D02*
X0043254Y0086647D01*
X0043254Y0087199D02*
X0043726Y0087199D01*
X0045223Y0084991D02*
X0045695Y0084991D01*
X0045223Y0084991D02*
X0045223Y0087745D01*
X0045695Y0087745D01*
X0045695Y0084991D01*
X0045695Y0085543D02*
X0045223Y0085543D01*
X0045223Y0086095D02*
X0045695Y0086095D01*
X0045695Y0086647D02*
X0045223Y0086647D01*
X0045223Y0087199D02*
X0045695Y0087199D01*
X0047191Y0084991D02*
X0047663Y0084991D01*
X0047191Y0084991D02*
X0047191Y0087745D01*
X0047663Y0087745D01*
X0047663Y0084991D01*
X0047663Y0085543D02*
X0047191Y0085543D01*
X0047191Y0086095D02*
X0047663Y0086095D01*
X0047663Y0086647D02*
X0047191Y0086647D01*
X0047191Y0087199D02*
X0047663Y0087199D01*
X0049160Y0084991D02*
X0049632Y0084991D01*
X0049160Y0084991D02*
X0049160Y0087745D01*
X0049632Y0087745D01*
X0049632Y0084991D01*
X0049632Y0085543D02*
X0049160Y0085543D01*
X0049160Y0086095D02*
X0049632Y0086095D01*
X0049632Y0086647D02*
X0049160Y0086647D01*
X0049160Y0087199D02*
X0049632Y0087199D01*
X0051128Y0084991D02*
X0051600Y0084991D01*
X0051128Y0084991D02*
X0051128Y0087745D01*
X0051600Y0087745D01*
X0051600Y0084991D01*
X0051600Y0085543D02*
X0051128Y0085543D01*
X0051128Y0086095D02*
X0051600Y0086095D01*
X0051600Y0086647D02*
X0051128Y0086647D01*
X0051128Y0087199D02*
X0051600Y0087199D01*
X0053668Y0082923D02*
X0053668Y0082451D01*
X0053668Y0082923D02*
X0056422Y0082923D01*
X0056422Y0082451D01*
X0053668Y0082451D01*
X0053668Y0080955D02*
X0053668Y0080483D01*
X0053668Y0080955D02*
X0056422Y0080955D01*
X0056422Y0080483D01*
X0053668Y0080483D01*
X0053668Y0078986D02*
X0053668Y0078514D01*
X0053668Y0078986D02*
X0056422Y0078986D01*
X0056422Y0078514D01*
X0053668Y0078514D01*
X0053668Y0077017D02*
X0053668Y0076545D01*
X0053668Y0077017D02*
X0056422Y0077017D01*
X0056422Y0076545D01*
X0053668Y0076545D01*
X0053668Y0075049D02*
X0053668Y0074577D01*
X0053668Y0075049D02*
X0056422Y0075049D01*
X0056422Y0074577D01*
X0053668Y0074577D01*
D16*
X0047427Y0078750D03*
D17*
X0149365Y0071250D03*
X0149365Y0053850D03*
X0149365Y0088650D03*
D18*
X0006968Y0130331D02*
X0006968Y0037937D01*
X0154480Y0037937D01*
X0154480Y0047366D01*
X0150349Y0047366D01*
X0150349Y0052866D01*
X0148380Y0052866D01*
X0137380Y0052866D01*
X0137380Y0049089D01*
X0137516Y0048584D01*
X0137777Y0048132D01*
X0138146Y0047762D01*
X0138599Y0047501D01*
X0139103Y0047366D01*
X0148380Y0047366D01*
X0148380Y0052866D01*
X0148380Y0054834D01*
X0137380Y0054834D01*
X0137380Y0058216D01*
X0137224Y0057945D01*
X0136854Y0057576D01*
X0136402Y0057314D01*
X0135897Y0057179D01*
X0133667Y0057179D01*
X0133667Y0061919D01*
X0126187Y0061919D01*
X0126187Y0057179D01*
X0128417Y0057179D01*
X0128921Y0057314D01*
X0129374Y0057576D01*
X0129743Y0057945D01*
X0129927Y0058263D01*
X0130111Y0057945D01*
X0130480Y0057576D01*
X0130933Y0057314D01*
X0131438Y0057179D01*
X0133667Y0057179D01*
X0133667Y0061919D01*
X0133667Y0061919D01*
X0133667Y0061919D01*
X0130140Y0061919D01*
X0126187Y0061919D01*
X0126187Y0061919D01*
X0126187Y0057179D01*
X0123957Y0057179D01*
X0123453Y0057314D01*
X0123000Y0057576D01*
X0122631Y0057945D01*
X0122369Y0058397D01*
X0122234Y0058902D01*
X0122234Y0061919D01*
X0126187Y0061919D01*
X0126187Y0061919D01*
X0126187Y0061919D01*
X0122234Y0061919D01*
X0122234Y0064936D01*
X0122369Y0065441D01*
X0122631Y0065894D01*
X0123000Y0066263D01*
X0123453Y0066524D01*
X0123957Y0066659D01*
X0125644Y0066659D01*
X0125374Y0067311D01*
X0125374Y0067681D01*
X0123768Y0067681D01*
X0123417Y0066833D01*
X0122690Y0066106D01*
X0121740Y0065713D01*
X0115594Y0065713D01*
X0114927Y0065989D01*
X0114260Y0065713D01*
X0108114Y0065713D01*
X0107164Y0066106D01*
X0106437Y0066833D01*
X0106177Y0067461D01*
X0105917Y0066833D01*
X0105190Y0066106D01*
X0104240Y0065713D01*
X0098094Y0065713D01*
X0097427Y0065989D01*
X0096760Y0065713D01*
X0090614Y0065713D01*
X0089664Y0066106D01*
X0088937Y0066833D01*
X0088677Y0067461D01*
X0088417Y0066833D01*
X0087690Y0066106D01*
X0086740Y0065713D01*
X0080594Y0065713D01*
X0079927Y0065989D01*
X0079260Y0065713D01*
X0073114Y0065713D01*
X0072164Y0066106D01*
X0071437Y0066833D01*
X0071169Y0067480D01*
X0070894Y0067367D01*
X0063960Y0067367D01*
X0063011Y0067760D01*
X0062284Y0068487D01*
X0061899Y0069416D01*
X0061814Y0069416D01*
X0060680Y0069885D01*
X0059812Y0070753D01*
X0058228Y0072337D01*
X0058130Y0072239D01*
X0058130Y0061084D01*
X0059887Y0061084D01*
X0062124Y0060158D01*
X0063713Y0058568D01*
X0072816Y0058568D01*
X0072943Y0058875D01*
X0073670Y0059602D01*
X0074620Y0059996D01*
X0082735Y0059996D01*
X0083684Y0059602D01*
X0084411Y0058875D01*
X0084542Y0058559D01*
X0084595Y0058559D01*
X0084784Y0059013D01*
X0085511Y0059740D01*
X0086460Y0060133D01*
X0093394Y0060133D01*
X0094344Y0059740D01*
X0095071Y0059013D01*
X0095464Y0058063D01*
X0095464Y0051917D01*
X0095071Y0050967D01*
X0094773Y0050670D01*
X0094864Y0050330D01*
X0094864Y0047805D01*
X0090223Y0047805D01*
X0090223Y0047215D01*
X0094864Y0047215D01*
X0094864Y0044690D01*
X0094729Y0044185D01*
X0094468Y0043732D01*
X0094098Y0043363D01*
X0093646Y0043102D01*
X0093141Y0042967D01*
X0090222Y0042967D01*
X0090222Y0047214D01*
X0089632Y0047214D01*
X0089632Y0042967D01*
X0086713Y0042967D01*
X0086209Y0043102D01*
X0085756Y0043363D01*
X0085387Y0043732D01*
X0085125Y0044185D01*
X0084990Y0044690D01*
X0084990Y0047215D01*
X0089632Y0047215D01*
X0089632Y0047805D01*
X0084990Y0047805D01*
X0084990Y0050330D01*
X0085081Y0050670D01*
X0084805Y0050946D01*
X0084805Y0050598D01*
X0084411Y0049648D01*
X0083684Y0048921D01*
X0082735Y0048528D01*
X0074620Y0048528D01*
X0073670Y0048921D01*
X0072943Y0049648D01*
X0072550Y0050598D01*
X0072550Y0051431D01*
X0063713Y0051431D01*
X0062282Y0050000D01*
X0063835Y0048446D01*
X0064761Y0046210D01*
X0064761Y0043790D01*
X0063835Y0041554D01*
X0062124Y0039842D01*
X0059887Y0038916D01*
X0057467Y0038916D01*
X0055231Y0039842D01*
X0053677Y0041396D01*
X0052124Y0039842D01*
X0049887Y0038916D01*
X0047467Y0038916D01*
X0045231Y0039842D01*
X0043677Y0041396D01*
X0042124Y0039842D01*
X0039887Y0038916D01*
X0037467Y0038916D01*
X0035231Y0039842D01*
X0033677Y0041396D01*
X0032124Y0039842D01*
X0029887Y0038916D01*
X0027467Y0038916D01*
X0025231Y0039842D01*
X0023519Y0041554D01*
X0023313Y0042051D01*
X0022860Y0041427D01*
X0022250Y0040817D01*
X0021552Y0040309D01*
X0020782Y0039918D01*
X0019961Y0039651D01*
X0019109Y0039516D01*
X0018693Y0039516D01*
X0018693Y0044984D01*
X0018661Y0044984D01*
X0013193Y0044984D01*
X0013193Y0044568D01*
X0013328Y0043716D01*
X0013595Y0042895D01*
X0013987Y0042126D01*
X0014494Y0041427D01*
X0015104Y0040817D01*
X0015803Y0040309D01*
X0016572Y0039918D01*
X0017393Y0039651D01*
X0018246Y0039516D01*
X0018661Y0039516D01*
X0018661Y0044984D01*
X0018661Y0045016D01*
X0013193Y0045016D01*
X0013193Y0045432D01*
X0013328Y0046284D01*
X0013595Y0047105D01*
X0013987Y0047874D01*
X0014494Y0048573D01*
X0015104Y0049183D01*
X0015728Y0049636D01*
X0015231Y0049842D01*
X0013519Y0051554D01*
X0012593Y0053790D01*
X0012593Y0056210D01*
X0013519Y0058446D01*
X0015231Y0060158D01*
X0015900Y0060435D01*
X0015900Y0074615D01*
X0016370Y0075749D01*
X0017237Y0076617D01*
X0025922Y0085302D01*
X0027056Y0085771D01*
X0037834Y0085771D01*
X0037863Y0085783D01*
X0040394Y0085783D01*
X0040394Y0088314D01*
X0040830Y0089366D01*
X0041634Y0090170D01*
X0042686Y0090606D01*
X0044295Y0090606D01*
X0044343Y0090586D01*
X0044343Y0091058D01*
X0044812Y0092192D01*
X0045184Y0092563D01*
X0043982Y0092563D01*
X0043982Y0097205D01*
X0043392Y0097205D01*
X0043392Y0092563D01*
X0040867Y0092563D01*
X0040362Y0092698D01*
X0039910Y0092959D01*
X0039540Y0093329D01*
X0039279Y0093781D01*
X0039144Y0094286D01*
X0039144Y0097205D01*
X0043392Y0097205D01*
X0043392Y0097795D01*
X0039144Y0097795D01*
X0039144Y0100714D01*
X0039279Y0101219D01*
X0039540Y0101671D01*
X0039910Y0102041D01*
X0040362Y0102302D01*
X0040867Y0102437D01*
X0043392Y0102437D01*
X0043392Y0097795D01*
X0043982Y0097795D01*
X0043982Y0102437D01*
X0046507Y0102437D01*
X0046847Y0102346D01*
X0047144Y0102644D01*
X0048094Y0103037D01*
X0054240Y0103037D01*
X0055190Y0102644D01*
X0055917Y0101917D01*
X0056311Y0100967D01*
X0056311Y0100872D01*
X0058334Y0100872D01*
X0059645Y0100328D01*
X0059948Y0100026D01*
X0060929Y0099620D01*
X0062047Y0098502D01*
X0062588Y0097195D01*
X0067132Y0097195D01*
X0067132Y0097785D01*
X0062490Y0097785D01*
X0062490Y0100310D01*
X0062625Y0100815D01*
X0062887Y0101268D01*
X0063256Y0101637D01*
X0063709Y0101898D01*
X0064213Y0102033D01*
X0067132Y0102033D01*
X0067132Y0097786D01*
X0067722Y0097786D01*
X0067722Y0102033D01*
X0070641Y0102033D01*
X0071146Y0101898D01*
X0071598Y0101637D01*
X0071968Y0101268D01*
X0072229Y0100815D01*
X0072364Y0100310D01*
X0072364Y0097785D01*
X0067723Y0097785D01*
X0067723Y0097195D01*
X0072364Y0097195D01*
X0072364Y0094670D01*
X0072273Y0094330D01*
X0072571Y0094033D01*
X0072964Y0093083D01*
X0072964Y0086937D01*
X0072858Y0086681D01*
X0073114Y0086787D01*
X0079260Y0086787D01*
X0079927Y0086511D01*
X0080594Y0086787D01*
X0086740Y0086787D01*
X0087690Y0086394D01*
X0088417Y0085667D01*
X0088811Y0084717D01*
X0088811Y0077783D01*
X0088417Y0076833D01*
X0087834Y0076250D01*
X0088417Y0075667D01*
X0088677Y0075039D01*
X0088937Y0075667D01*
X0089664Y0076394D01*
X0090614Y0076787D01*
X0096760Y0076787D01*
X0096992Y0076691D01*
X0096890Y0076937D01*
X0096890Y0083083D01*
X0097284Y0084033D01*
X0097581Y0084330D01*
X0097490Y0084670D01*
X0097490Y0087195D01*
X0102132Y0087195D01*
X0102132Y0087785D01*
X0097490Y0087785D01*
X0097490Y0090310D01*
X0097625Y0090815D01*
X0097887Y0091268D01*
X0098256Y0091637D01*
X0098709Y0091898D01*
X0099213Y0092033D01*
X0102132Y0092033D01*
X0102132Y0087786D01*
X0102722Y0087786D01*
X0102722Y0092033D01*
X0105641Y0092033D01*
X0106146Y0091898D01*
X0106598Y0091637D01*
X0106968Y0091268D01*
X0107229Y0090815D01*
X0107364Y0090310D01*
X0107364Y0087785D01*
X0102723Y0087785D01*
X0102723Y0087195D01*
X0107364Y0087195D01*
X0107364Y0084670D01*
X0107273Y0084330D01*
X0107571Y0084033D01*
X0107964Y0083083D01*
X0107964Y0076937D01*
X0107858Y0076681D01*
X0108114Y0076787D01*
X0114260Y0076787D01*
X0114492Y0076691D01*
X0114390Y0076937D01*
X0114390Y0083083D01*
X0114784Y0084033D01*
X0115081Y0084330D01*
X0114990Y0084670D01*
X0114990Y0087195D01*
X0119632Y0087195D01*
X0119632Y0087785D01*
X0114990Y0087785D01*
X0114990Y0090310D01*
X0115125Y0090815D01*
X0115387Y0091268D01*
X0115756Y0091637D01*
X0116209Y0091898D01*
X0116713Y0092033D01*
X0119632Y0092033D01*
X0119632Y0087786D01*
X0120222Y0087786D01*
X0120222Y0092033D01*
X0123141Y0092033D01*
X0123646Y0091898D01*
X0124098Y0091637D01*
X0124468Y0091268D01*
X0124729Y0090815D01*
X0124864Y0090310D01*
X0124864Y0087785D01*
X0120223Y0087785D01*
X0120223Y0087195D01*
X0124864Y0087195D01*
X0124864Y0084670D01*
X0124773Y0084330D01*
X0125071Y0084033D01*
X0125464Y0083083D01*
X0125464Y0076937D01*
X0125071Y0075987D01*
X0124344Y0075260D01*
X0123697Y0074992D01*
X0123768Y0074818D01*
X0125786Y0074818D01*
X0126495Y0075527D01*
X0127445Y0075921D01*
X0132410Y0075921D01*
X0133360Y0075527D01*
X0134086Y0074800D01*
X0134356Y0074149D01*
X0136780Y0074149D01*
X0136780Y0076264D01*
X0137174Y0077214D01*
X0137901Y0077941D01*
X0138851Y0078334D01*
X0154480Y0078334D01*
X0154480Y0082166D01*
X0150349Y0082166D01*
X0150349Y0087666D01*
X0148380Y0087666D01*
X0137380Y0087666D01*
X0137380Y0083889D01*
X0137516Y0083384D01*
X0137777Y0082932D01*
X0138146Y0082562D01*
X0138599Y0082301D01*
X0139103Y0082166D01*
X0148380Y0082166D01*
X0148380Y0087666D01*
X0148380Y0089634D01*
X0137380Y0089634D01*
X0137380Y0093411D01*
X0137516Y0093916D01*
X0137777Y0094368D01*
X0138146Y0094738D01*
X0138599Y0094999D01*
X0139103Y0095134D01*
X0148380Y0095134D01*
X0148380Y0089634D01*
X0150349Y0089634D01*
X0150349Y0095134D01*
X0154480Y0095134D01*
X0154480Y0130331D01*
X0006968Y0130331D01*
X0006968Y0129386D02*
X0154480Y0129386D01*
X0154480Y0127419D02*
X0006968Y0127419D01*
X0006968Y0125452D02*
X0154480Y0125452D01*
X0154480Y0123485D02*
X0006968Y0123485D01*
X0006968Y0121518D02*
X0154480Y0121518D01*
X0154480Y0119551D02*
X0006968Y0119551D01*
X0006968Y0117584D02*
X0154480Y0117584D01*
X0154480Y0115617D02*
X0006968Y0115617D01*
X0006968Y0113650D02*
X0154480Y0113650D01*
X0154480Y0111683D02*
X0006968Y0111683D01*
X0006968Y0109716D02*
X0154480Y0109716D01*
X0154480Y0107749D02*
X0006968Y0107749D01*
X0006968Y0105782D02*
X0154480Y0105782D01*
X0154480Y0103815D02*
X0006968Y0103815D01*
X0006968Y0101848D02*
X0039717Y0101848D01*
X0043392Y0101848D02*
X0043982Y0101848D01*
X0043982Y0099880D02*
X0043392Y0099880D01*
X0043392Y0097913D02*
X0043982Y0097913D01*
X0043982Y0095946D02*
X0043392Y0095946D01*
X0043392Y0093979D02*
X0043982Y0093979D01*
X0044738Y0092012D02*
X0006968Y0092012D01*
X0006968Y0093979D02*
X0039226Y0093979D01*
X0039144Y0095946D02*
X0006968Y0095946D01*
X0006968Y0097913D02*
X0039144Y0097913D01*
X0039144Y0099880D02*
X0006968Y0099880D01*
X0006968Y0090045D02*
X0041509Y0090045D01*
X0040394Y0088078D02*
X0006968Y0088078D01*
X0006968Y0086111D02*
X0040394Y0086111D01*
X0046443Y0082205D02*
X0046443Y0079734D01*
X0046443Y0077766D01*
X0043972Y0077766D01*
X0044047Y0077946D01*
X0044047Y0079554D01*
X0043972Y0079734D01*
X0046443Y0079734D01*
X0048411Y0079734D01*
X0048411Y0082205D01*
X0048232Y0082130D01*
X0046623Y0082130D01*
X0046443Y0082205D01*
X0046443Y0082177D02*
X0046509Y0082177D01*
X0048345Y0082177D02*
X0048411Y0082177D01*
X0048411Y0080210D02*
X0046443Y0080210D01*
X0048411Y0079734D02*
X0050882Y0079734D01*
X0050807Y0079554D01*
X0050807Y0077946D01*
X0050882Y0077766D01*
X0048411Y0077766D01*
X0048411Y0075295D01*
X0047540Y0074934D01*
X0047427Y0074822D01*
X0047315Y0074934D01*
X0046443Y0075295D01*
X0046443Y0077766D01*
X0048411Y0077766D01*
X0048411Y0079734D01*
X0048411Y0078243D02*
X0050807Y0078243D01*
X0048411Y0076276D02*
X0046443Y0076276D01*
X0046443Y0078243D02*
X0044047Y0078243D01*
X0054460Y0085783D02*
X0054460Y0088314D01*
X0054448Y0088343D01*
X0054448Y0092049D01*
X0055190Y0092356D01*
X0055917Y0093083D01*
X0056007Y0093299D01*
X0056426Y0092880D01*
X0057887Y0092275D01*
X0059468Y0092275D01*
X0060929Y0092880D01*
X0062047Y0093998D01*
X0062490Y0095069D01*
X0062490Y0094670D01*
X0062581Y0094330D01*
X0062284Y0094033D01*
X0061890Y0093083D01*
X0061890Y0086937D01*
X0062284Y0085987D01*
X0063011Y0085260D01*
X0063638Y0085000D01*
X0063011Y0084740D01*
X0062284Y0084013D01*
X0061890Y0083063D01*
X0061890Y0081834D01*
X0059263Y0081834D01*
X0059283Y0081883D01*
X0059283Y0083491D01*
X0058848Y0084543D01*
X0058043Y0085348D01*
X0056991Y0085783D01*
X0054460Y0085783D01*
X0054460Y0086111D02*
X0062232Y0086111D01*
X0062415Y0084144D02*
X0059013Y0084144D01*
X0059283Y0082177D02*
X0061890Y0082177D01*
X0066187Y0078750D02*
X0067427Y0079990D01*
X0076187Y0079990D01*
X0076187Y0081250D01*
X0083667Y0081250D02*
X0083667Y0071250D01*
X0093687Y0071250D01*
X0089329Y0066441D02*
X0088025Y0066441D01*
X0084601Y0058573D02*
X0084536Y0058573D01*
X0079406Y0054990D02*
X0078677Y0054262D01*
X0077939Y0055000D01*
X0058677Y0055000D01*
X0058677Y0045000D01*
X0064367Y0042837D02*
X0078087Y0042837D01*
X0078087Y0042648D02*
X0073150Y0042648D01*
X0073150Y0039827D01*
X0073285Y0039323D01*
X0073546Y0038870D01*
X0073915Y0038501D01*
X0074368Y0038240D01*
X0074873Y0038104D01*
X0078087Y0038104D01*
X0078087Y0042648D01*
X0079268Y0042648D01*
X0079268Y0043829D01*
X0078087Y0043829D01*
X0078087Y0048372D01*
X0074873Y0048372D01*
X0074368Y0048237D01*
X0073915Y0047976D01*
X0073546Y0047606D01*
X0073285Y0047154D01*
X0073150Y0046649D01*
X0073150Y0043829D01*
X0078087Y0043829D01*
X0078087Y0042648D01*
X0079268Y0042648D02*
X0079268Y0038104D01*
X0082482Y0038104D01*
X0082986Y0038240D01*
X0083439Y0038501D01*
X0083808Y0038870D01*
X0084069Y0039323D01*
X0084205Y0039827D01*
X0084205Y0042648D01*
X0079268Y0042648D01*
X0079268Y0042837D02*
X0154480Y0042837D01*
X0154480Y0044804D02*
X0094864Y0044804D01*
X0094864Y0046771D02*
X0154480Y0046771D01*
X0150349Y0048738D02*
X0148380Y0048738D01*
X0148380Y0050705D02*
X0150349Y0050705D01*
X0150349Y0052672D02*
X0148380Y0052672D01*
X0148380Y0054639D02*
X0095464Y0054639D01*
X0095464Y0052672D02*
X0137380Y0052672D01*
X0137380Y0050705D02*
X0094809Y0050705D01*
X0094864Y0048738D02*
X0137474Y0048738D01*
X0148380Y0054834D02*
X0148380Y0060334D01*
X0139103Y0060334D01*
X0138599Y0060199D01*
X0138146Y0059938D01*
X0137777Y0059568D01*
X0137620Y0059297D01*
X0137620Y0061919D01*
X0133667Y0061919D01*
X0133667Y0061919D01*
X0137620Y0061919D01*
X0137620Y0064840D01*
X0137901Y0064559D01*
X0138851Y0064166D01*
X0154480Y0064166D01*
X0154480Y0060334D01*
X0150349Y0060334D01*
X0150349Y0054834D01*
X0148380Y0054834D01*
X0148380Y0056606D02*
X0150349Y0056606D01*
X0150349Y0058573D02*
X0148380Y0058573D01*
X0154480Y0060540D02*
X0137620Y0060540D01*
X0137620Y0062507D02*
X0154480Y0062507D01*
X0149827Y0070581D02*
X0129927Y0070581D01*
X0129927Y0071250D01*
X0118667Y0071250D01*
X0119927Y0071250D01*
X0119927Y0080010D01*
X0114390Y0080210D02*
X0107964Y0080210D01*
X0107964Y0082177D02*
X0114390Y0082177D01*
X0114895Y0084144D02*
X0107459Y0084144D01*
X0107364Y0086111D02*
X0114990Y0086111D01*
X0114990Y0088078D02*
X0107364Y0088078D01*
X0107364Y0090045D02*
X0114990Y0090045D01*
X0116635Y0092012D02*
X0105720Y0092012D01*
X0102722Y0092012D02*
X0102132Y0092012D01*
X0099135Y0092012D02*
X0072964Y0092012D01*
X0072593Y0093979D02*
X0137552Y0093979D01*
X0137380Y0092012D02*
X0123220Y0092012D01*
X0124864Y0090045D02*
X0137380Y0090045D01*
X0137380Y0086111D02*
X0124864Y0086111D01*
X0124959Y0084144D02*
X0137380Y0084144D01*
X0139060Y0082177D02*
X0125464Y0082177D01*
X0125464Y0080210D02*
X0154480Y0080210D01*
X0150349Y0082177D02*
X0148380Y0082177D01*
X0148380Y0084144D02*
X0150349Y0084144D01*
X0150349Y0086111D02*
X0148380Y0086111D01*
X0148380Y0088078D02*
X0124864Y0088078D01*
X0120222Y0088078D02*
X0119632Y0088078D01*
X0119632Y0090045D02*
X0120222Y0090045D01*
X0120222Y0092012D02*
X0119632Y0092012D01*
X0102722Y0090045D02*
X0102132Y0090045D01*
X0102132Y0088078D02*
X0102722Y0088078D01*
X0097490Y0088078D02*
X0072964Y0088078D01*
X0072964Y0090045D02*
X0097490Y0090045D01*
X0097490Y0086111D02*
X0087972Y0086111D01*
X0088811Y0084144D02*
X0097395Y0084144D01*
X0096890Y0082177D02*
X0088811Y0082177D01*
X0088811Y0080210D02*
X0096890Y0080210D01*
X0096890Y0078243D02*
X0088811Y0078243D01*
X0089547Y0076276D02*
X0087860Y0076276D01*
X0076187Y0072510D02*
X0076187Y0071250D01*
X0076187Y0072510D02*
X0067427Y0072510D01*
X0067417Y0072500D01*
X0062362Y0068408D02*
X0058130Y0068408D01*
X0058130Y0066441D02*
X0071829Y0066441D01*
X0072818Y0058573D02*
X0063708Y0058573D01*
X0061201Y0060540D02*
X0122234Y0060540D01*
X0122234Y0062507D02*
X0058130Y0062507D01*
X0058130Y0064474D02*
X0122234Y0064474D01*
X0123025Y0066441D02*
X0123309Y0066441D01*
X0126187Y0060540D02*
X0126187Y0060540D01*
X0126187Y0058573D02*
X0126187Y0058573D01*
X0122322Y0058573D02*
X0095253Y0058573D01*
X0095464Y0056606D02*
X0137380Y0056606D01*
X0133667Y0058573D02*
X0133667Y0058573D01*
X0133667Y0060540D02*
X0133667Y0060540D01*
X0137620Y0064474D02*
X0138106Y0064474D01*
X0136780Y0066306D02*
X0136402Y0066524D01*
X0135897Y0066659D01*
X0134210Y0066659D01*
X0134356Y0067012D01*
X0136780Y0067012D01*
X0136780Y0066306D01*
X0136780Y0066441D02*
X0136545Y0066441D01*
X0136780Y0074309D02*
X0134290Y0074309D01*
X0136785Y0076276D02*
X0125191Y0076276D01*
X0125464Y0078243D02*
X0138631Y0078243D01*
X0149365Y0071250D02*
X0149827Y0070581D01*
X0150349Y0090045D02*
X0148380Y0090045D01*
X0148380Y0092012D02*
X0150349Y0092012D01*
X0150349Y0093979D02*
X0148380Y0093979D01*
X0154480Y0095946D02*
X0072364Y0095946D01*
X0072364Y0097913D02*
X0154480Y0097913D01*
X0154480Y0099880D02*
X0072364Y0099880D01*
X0071234Y0101848D02*
X0154480Y0101848D01*
X0114390Y0078243D02*
X0107964Y0078243D01*
X0102427Y0080010D02*
X0102427Y0071250D01*
X0101167Y0071250D01*
X0111187Y0071250D01*
X0106829Y0066441D02*
X0105525Y0066441D01*
X0089927Y0054990D02*
X0079406Y0054990D01*
X0084805Y0050705D02*
X0085046Y0050705D01*
X0084990Y0048738D02*
X0083242Y0048738D01*
X0082986Y0048237D02*
X0083439Y0047976D01*
X0083808Y0047606D01*
X0084069Y0047154D01*
X0084205Y0046649D01*
X0084205Y0043829D01*
X0079268Y0043829D01*
X0079268Y0048372D01*
X0082482Y0048372D01*
X0082986Y0048237D01*
X0084172Y0046771D02*
X0084990Y0046771D01*
X0084990Y0044804D02*
X0084205Y0044804D01*
X0079268Y0044804D02*
X0078087Y0044804D01*
X0078087Y0046771D02*
X0079268Y0046771D01*
X0074112Y0048738D02*
X0063543Y0048738D01*
X0062987Y0050705D02*
X0072550Y0050705D01*
X0073182Y0046771D02*
X0064529Y0046771D01*
X0064761Y0044804D02*
X0073150Y0044804D01*
X0073150Y0040870D02*
X0063152Y0040870D01*
X0054203Y0040870D02*
X0053152Y0040870D01*
X0044203Y0040870D02*
X0043152Y0040870D01*
X0034203Y0040870D02*
X0033152Y0040870D01*
X0024203Y0040870D02*
X0022303Y0040870D01*
X0018693Y0040870D02*
X0018661Y0040870D01*
X0018661Y0042837D02*
X0018693Y0042837D01*
X0018661Y0044804D02*
X0018693Y0044804D01*
X0015051Y0040870D02*
X0006968Y0040870D01*
X0006968Y0038903D02*
X0073527Y0038903D01*
X0078087Y0038903D02*
X0079268Y0038903D01*
X0079268Y0040870D02*
X0078087Y0040870D01*
X0083827Y0038903D02*
X0154480Y0038903D01*
X0154480Y0040870D02*
X0084205Y0040870D01*
X0089632Y0044804D02*
X0090222Y0044804D01*
X0090222Y0046771D02*
X0089632Y0046771D01*
X0060190Y0070375D02*
X0058130Y0070375D01*
X0051961Y0066894D02*
X0051961Y0062341D01*
X0051370Y0061749D01*
X0050917Y0060658D01*
X0049887Y0061084D01*
X0048543Y0061084D01*
X0048543Y0066914D01*
X0048591Y0066894D01*
X0050200Y0066894D01*
X0050380Y0066969D01*
X0050560Y0066894D01*
X0051961Y0066894D01*
X0051961Y0066441D02*
X0048543Y0066441D01*
X0048543Y0064474D02*
X0051961Y0064474D01*
X0051961Y0062507D02*
X0048543Y0062507D01*
X0043677Y0051396D02*
X0045073Y0050000D01*
X0043677Y0048604D01*
X0042282Y0050000D01*
X0043677Y0051396D01*
X0042987Y0050705D02*
X0044368Y0050705D01*
X0043811Y0048738D02*
X0043543Y0048738D01*
X0015900Y0060540D02*
X0006968Y0060540D01*
X0006968Y0062507D02*
X0015900Y0062507D01*
X0015900Y0064474D02*
X0006968Y0064474D01*
X0006968Y0066441D02*
X0015900Y0066441D01*
X0015900Y0068408D02*
X0006968Y0068408D01*
X0006968Y0070375D02*
X0015900Y0070375D01*
X0015900Y0072342D02*
X0006968Y0072342D01*
X0006968Y0074309D02*
X0015900Y0074309D01*
X0016897Y0076276D02*
X0006968Y0076276D01*
X0006968Y0078243D02*
X0018864Y0078243D01*
X0020831Y0080210D02*
X0006968Y0080210D01*
X0006968Y0082177D02*
X0022798Y0082177D01*
X0024765Y0084144D02*
X0006968Y0084144D01*
X0006968Y0058573D02*
X0013646Y0058573D01*
X0012757Y0056606D02*
X0006968Y0056606D01*
X0006968Y0054639D02*
X0012593Y0054639D01*
X0013056Y0052672D02*
X0006968Y0052672D01*
X0006968Y0050705D02*
X0014368Y0050705D01*
X0014659Y0048738D02*
X0006968Y0048738D01*
X0006968Y0046771D02*
X0013486Y0046771D01*
X0013193Y0044804D02*
X0006968Y0044804D01*
X0006968Y0042837D02*
X0013624Y0042837D01*
X0067427Y0079990D02*
X0067427Y0090010D01*
X0061890Y0090045D02*
X0054448Y0090045D01*
X0054460Y0088078D02*
X0061890Y0088078D01*
X0061890Y0092012D02*
X0054448Y0092012D01*
X0058677Y0096250D02*
X0057624Y0097303D01*
X0051364Y0097303D01*
X0055946Y0101848D02*
X0063621Y0101848D01*
X0067132Y0101848D02*
X0067722Y0101848D01*
X0067722Y0099880D02*
X0067132Y0099880D01*
X0067132Y0097913D02*
X0067722Y0097913D01*
X0062490Y0097913D02*
X0062290Y0097913D01*
X0062490Y0099880D02*
X0060299Y0099880D01*
X0062028Y0093979D02*
X0062262Y0093979D01*
D19*
X0051364Y0092002D02*
X0051364Y0086368D01*
X0047427Y0086368D02*
X0047427Y0090445D01*
X0048984Y0092002D01*
X0051364Y0092002D01*
X0051364Y0097303D01*
X0051167Y0097500D01*
X0039809Y0082687D02*
X0027669Y0082687D01*
X0018984Y0074002D01*
X0018984Y0055307D01*
X0018677Y0055000D01*
X0023984Y0049693D02*
X0028677Y0045000D01*
X0023984Y0049693D02*
X0023984Y0074002D01*
X0030701Y0080719D01*
X0039809Y0080719D01*
X0039809Y0078750D02*
X0033732Y0078750D01*
X0028984Y0074002D01*
X0028984Y0055307D01*
X0028677Y0055000D01*
X0033984Y0049693D02*
X0038677Y0045000D01*
X0033984Y0049693D02*
X0033984Y0074002D01*
X0036764Y0076781D01*
X0039809Y0076781D01*
X0039809Y0074813D02*
X0039809Y0056827D01*
X0038984Y0056002D01*
X0038984Y0055307D01*
X0038677Y0055000D01*
X0045459Y0058528D02*
X0047984Y0056002D01*
X0047984Y0055693D01*
X0048677Y0055000D01*
X0045459Y0058528D02*
X0045459Y0071132D01*
X0047427Y0071132D02*
X0047427Y0078750D01*
X0055045Y0078750D02*
X0066187Y0078750D01*
X0062427Y0072500D02*
X0058146Y0076781D01*
X0055045Y0076781D01*
X0055045Y0074813D02*
X0055045Y0061063D01*
X0053984Y0060002D01*
X0053984Y0050002D01*
X0050984Y0047002D01*
X0050679Y0047002D01*
X0048677Y0045000D01*
X0062427Y0072500D02*
X0067417Y0072500D01*
D20*
X0065734Y0064065D03*
X0073234Y0064065D03*
X0081984Y0064065D03*
X0090734Y0064065D03*
X0096984Y0056565D03*
X0100734Y0064065D03*
X0110734Y0064065D03*
X0120734Y0064065D03*
X0121984Y0055315D03*
X0129484Y0055315D03*
X0135734Y0055315D03*
X0135734Y0051565D03*
X0135734Y0047815D03*
X0138234Y0045315D03*
X0141984Y0045315D03*
X0145734Y0045315D03*
X0149484Y0045315D03*
X0153234Y0045315D03*
X0153234Y0061565D03*
X0149484Y0061565D03*
X0145734Y0061565D03*
X0141984Y0061565D03*
X0138234Y0061565D03*
X0135734Y0076565D03*
X0131984Y0077815D03*
X0128234Y0077815D03*
X0135734Y0082815D03*
X0138234Y0080315D03*
X0141984Y0080315D03*
X0145734Y0080315D03*
X0149484Y0080315D03*
X0153234Y0080315D03*
X0135734Y0086565D03*
X0135734Y0090315D03*
X0135734Y0094065D03*
X0138234Y0096565D03*
X0141984Y0096565D03*
X0145734Y0096565D03*
X0149484Y0096565D03*
X0153234Y0096565D03*
X0126984Y0087815D03*
X0119484Y0094065D03*
X0110734Y0087815D03*
X0101984Y0094065D03*
X0093234Y0087815D03*
X0085734Y0089065D03*
X0075734Y0089065D03*
X0073234Y0097815D03*
X0073234Y0104065D03*
X0066984Y0104065D03*
X0061984Y0104065D03*
X0058677Y0096250D03*
X0043234Y0091565D03*
X0038234Y0091565D03*
X0038234Y0087815D03*
X0044484Y0081565D03*
X0047734Y0078565D03*
X0050734Y0081565D03*
X0050734Y0075565D03*
X0044484Y0075565D03*
X0027984Y0087815D03*
X0022734Y0083565D03*
X0016484Y0077815D03*
X0011484Y0072815D03*
X0011484Y0064815D03*
X0010984Y0057815D03*
X0010984Y0051565D03*
X0010734Y0045315D03*
X0010734Y0039065D03*
X0069484Y0041565D03*
X0069484Y0049065D03*
X0089484Y0041565D03*
X0096984Y0041565D03*
X0096984Y0047815D03*
X0093234Y0079065D03*
X0110862Y0078563D03*
X0043234Y0102815D03*
X0038234Y0102815D03*
X0038234Y0097815D03*
M02*
