G75*
%MOIN*%
%OFA0B0*%
%FSLAX25Y25*%
%IPPOS*%
%LPD*%
%AMOC8*
5,1,8,0,0,1.08239X$1,22.5*
%
%ADD10C,0.00600*%
%ADD11C,0.00400*%
%ADD12R,0.06693X0.02953*%
%ADD13R,0.02953X0.05709*%
%ADD14R,0.05709X0.02953*%
%ADD15R,0.01800X0.02300*%
%ADD16C,0.03000*%
%ADD17R,0.03000X0.02000*%
%ADD18R,0.03000X0.04000*%
%ADD19R,0.03000X0.03000*%
%ADD20R,0.03000X0.07000*%
%ADD21R,0.02559X0.05512*%
%ADD22R,0.05512X0.02559*%
%ADD23C,0.00500*%
%ADD24C,0.01181*%
%ADD25C,0.00800*%
%ADD26R,0.16043X0.03937*%
D10*
X0013677Y0027500D02*
X0023677Y0027500D01*
X0033677Y0027500D01*
X0043677Y0027500D01*
X0053677Y0027500D01*
X0063677Y0027500D01*
X0063677Y0037500D01*
X0053677Y0037500D01*
X0043677Y0037500D01*
X0033677Y0037500D01*
X0023677Y0037500D01*
X0013677Y0037500D01*
X0013677Y0027500D01*
X0023677Y0027500D02*
X0023677Y0037500D01*
X0033677Y0037500D02*
X0033677Y0027500D01*
X0043677Y0027500D02*
X0043677Y0037500D01*
X0053677Y0037500D02*
X0053677Y0027500D01*
X0113313Y0068750D02*
X0116541Y0068750D01*
X0116541Y0073750D02*
X0113313Y0073750D01*
X0124327Y0068850D02*
X0126527Y0068850D01*
X0124327Y0068850D02*
X0124327Y0065650D01*
X0124327Y0063650D02*
X0124327Y0068850D01*
X0135527Y0068850D01*
X0133327Y0068850D01*
X0135527Y0068850D02*
X0135527Y0065650D01*
X0135527Y0063650D02*
X0124327Y0063650D01*
X0135527Y0063650D02*
X0135527Y0068850D01*
X0081541Y0078750D02*
X0078313Y0078750D01*
X0078313Y0083750D02*
X0081541Y0083750D01*
X0069927Y0077864D02*
X0069927Y0074636D01*
X0064927Y0074636D02*
X0064927Y0077864D01*
X0063445Y0120741D02*
X0061310Y0120741D01*
X0060242Y0121809D01*
X0060242Y0126079D01*
X0061310Y0127146D01*
X0063445Y0127146D01*
X0064512Y0126079D01*
X0064512Y0121809D01*
X0063445Y0120741D01*
X0066688Y0120741D02*
X0066688Y0125011D01*
X0068823Y0127146D01*
X0070958Y0125011D01*
X0070958Y0120741D01*
X0073133Y0120741D02*
X0073133Y0127146D01*
X0076336Y0127146D01*
X0077403Y0126079D01*
X0077403Y0123944D01*
X0076336Y0122876D01*
X0073133Y0122876D01*
X0070958Y0123944D02*
X0066688Y0123944D01*
X0058067Y0125011D02*
X0056999Y0123944D01*
X0053797Y0123944D01*
X0056999Y0123944D02*
X0058067Y0122876D01*
X0058067Y0121809D01*
X0056999Y0120741D01*
X0053797Y0120741D01*
X0053797Y0127146D01*
X0056999Y0127146D01*
X0058067Y0126079D01*
X0058067Y0125011D01*
X0051621Y0119673D02*
X0047351Y0119673D01*
X0045176Y0120741D02*
X0040906Y0127146D01*
X0038730Y0126079D02*
X0038730Y0123944D01*
X0037663Y0122876D01*
X0034460Y0122876D01*
X0036595Y0122876D02*
X0038730Y0120741D01*
X0040906Y0120741D02*
X0045176Y0127146D01*
X0038730Y0126079D02*
X0037663Y0127146D01*
X0034460Y0127146D01*
X0034460Y0120741D01*
X0032285Y0119673D02*
X0028015Y0119673D01*
X0024772Y0122876D02*
X0021569Y0122876D01*
X0021569Y0120741D02*
X0021569Y0127146D01*
X0024772Y0127146D01*
X0025839Y0126079D01*
X0025839Y0123944D01*
X0024772Y0122876D01*
X0019394Y0120741D02*
X0015124Y0120741D01*
X0015124Y0127146D01*
X0019394Y0127146D01*
X0017259Y0123944D02*
X0015124Y0123944D01*
X0012948Y0123944D02*
X0011881Y0122876D01*
X0008678Y0122876D01*
X0010813Y0122876D02*
X0012948Y0120741D01*
X0008678Y0120741D02*
X0008678Y0127146D01*
X0011881Y0127146D01*
X0012948Y0126079D01*
X0012948Y0123944D01*
X0075268Y0122876D02*
X0077403Y0120741D01*
X0079579Y0120741D02*
X0082781Y0120741D01*
X0083849Y0121809D01*
X0083849Y0126079D01*
X0082781Y0127146D01*
X0079579Y0127146D01*
X0079579Y0120741D01*
X0086024Y0119673D02*
X0090294Y0119673D01*
X0092470Y0120741D02*
X0096740Y0120741D01*
X0094605Y0120741D02*
X0094605Y0127146D01*
X0092470Y0125011D01*
X0098915Y0121809D02*
X0099983Y0121809D01*
X0099983Y0120741D01*
X0098915Y0120741D01*
X0098915Y0121809D01*
X0102138Y0121809D02*
X0106408Y0126079D01*
X0106408Y0121809D01*
X0105341Y0120741D01*
X0103205Y0120741D01*
X0102138Y0121809D01*
X0102138Y0126079D01*
X0103205Y0127146D01*
X0105341Y0127146D01*
X0106408Y0126079D01*
D11*
X0070026Y0095250D02*
X0070026Y0092348D01*
X0064829Y0092250D02*
X0064829Y0095250D01*
X0048927Y0094902D02*
X0045927Y0094902D01*
X0045927Y0100098D02*
X0048829Y0100098D01*
X0078427Y0073848D02*
X0081427Y0073848D01*
X0081427Y0068652D02*
X0078526Y0068652D01*
X0096026Y0068652D02*
X0098927Y0068652D01*
X0098927Y0073848D02*
X0095927Y0073848D01*
X0099829Y0082250D02*
X0099829Y0085250D01*
X0105026Y0085250D02*
X0105026Y0082348D01*
X0117329Y0082250D02*
X0117329Y0085250D01*
X0122526Y0085250D02*
X0122526Y0082348D01*
X0092526Y0052750D02*
X0092526Y0049750D01*
X0087329Y0049750D02*
X0087329Y0052652D01*
X0081776Y0052549D02*
X0081776Y0044951D01*
X0075579Y0044951D02*
X0075579Y0052549D01*
D12*
X0078674Y0053973D03*
X0078681Y0043527D03*
D13*
X0077104Y0071255D03*
X0082804Y0071255D03*
X0094604Y0071255D03*
X0100304Y0071255D03*
X0050251Y0097495D03*
X0044551Y0097495D03*
D14*
X0067423Y0096627D03*
X0067423Y0090927D03*
X0102423Y0086627D03*
X0102423Y0080927D03*
X0119923Y0080927D03*
X0119923Y0086627D03*
X0089932Y0054073D03*
X0089932Y0048373D03*
D15*
X0126227Y0062300D03*
X0133627Y0062300D03*
X0129927Y0070200D03*
D16*
X0018677Y0025000D02*
X0018677Y0002500D01*
X0028677Y0002500D02*
X0028677Y0025000D01*
X0038677Y0025000D02*
X0038677Y0002500D01*
X0048677Y0002500D02*
X0048677Y0025000D01*
X0058677Y0025000D02*
X0058677Y0002500D01*
D17*
X0058677Y0026500D03*
X0048677Y0026500D03*
X0038677Y0026500D03*
X0028677Y0026500D03*
X0018677Y0026500D03*
D18*
X0018677Y0039500D03*
X0028677Y0039500D03*
X0038677Y0039500D03*
X0048677Y0039500D03*
X0058677Y0039500D03*
D19*
X0058677Y0050000D03*
X0048677Y0050000D03*
X0038677Y0050000D03*
X0028677Y0050000D03*
X0018677Y0050000D03*
D20*
X0018677Y0045000D03*
X0028677Y0045000D03*
X0038677Y0045000D03*
X0048677Y0045000D03*
X0058677Y0045000D03*
D21*
X0077007Y0081256D03*
X0082807Y0081256D03*
X0112007Y0071256D03*
X0117807Y0071256D03*
D22*
X0067433Y0073370D03*
X0067433Y0079170D03*
D23*
X0055301Y0084262D02*
X0055301Y0086624D01*
X0052939Y0086624D01*
X0055301Y0086624D02*
X0039553Y0086624D01*
X0039553Y0084262D01*
X0039553Y0086624D02*
X0041915Y0086624D01*
X0039553Y0086624D02*
X0039553Y0070876D01*
X0039553Y0073238D01*
X0039553Y0070876D02*
X0041915Y0070876D01*
X0039553Y0070876D02*
X0055301Y0070876D01*
X0052939Y0070876D01*
X0055301Y0070876D02*
X0055301Y0073238D01*
X0055301Y0070876D02*
X0055301Y0086624D01*
D24*
X0056285Y0072844D03*
D25*
X0141157Y0086407D02*
X0159858Y0086407D01*
X0159858Y0056093D01*
X0141157Y0056093D01*
X0141157Y0052943D01*
X0165567Y0052943D01*
X0159858Y0052943D01*
X0165567Y0052943D02*
X0165567Y0063376D01*
X0174031Y0063376D01*
X0176984Y0060423D01*
X0191945Y0060423D01*
X0191945Y0063770D01*
X0196571Y0063770D01*
X0196571Y0078730D01*
X0191945Y0078730D01*
X0191945Y0082077D01*
X0176984Y0082077D01*
X0174031Y0079124D01*
X0165567Y0079124D01*
X0165567Y0089557D01*
X0159858Y0089557D01*
X0165567Y0089557D02*
X0141157Y0089557D01*
X0141157Y0086407D01*
D26*
X0151541Y0071250D03*
M02*
