G75*
%MOIN*%
%OFA0B0*%
%FSLAX25Y25*%
%IPPOS*%
%LPD*%
%AMOC8*
5,1,8,0,0,1.08239X$1,22.5*
%
%ADD10R,0.07887X0.07099*%
%ADD11R,0.05918X0.06706*%
%ADD12R,0.06706X0.05918*%
%ADD13R,0.04737X0.06312*%
%ADD14C,0.07800*%
%ADD15C,0.00985*%
%ADD16R,0.11036X0.11036*%
%ADD17R,0.20800X0.09800*%
D10*
X0078677Y0043238D03*
X0078677Y0054262D03*
D11*
X0076187Y0071250D03*
X0083667Y0071250D03*
X0093687Y0071250D03*
X0101167Y0071250D03*
X0111187Y0071250D03*
X0118667Y0071250D03*
X0083667Y0081250D03*
X0076187Y0081250D03*
X0051167Y0097500D03*
X0043687Y0097500D03*
D12*
X0067427Y0097490D03*
X0067427Y0090010D03*
X0067427Y0079990D03*
X0067427Y0072510D03*
X0089927Y0054990D03*
X0089927Y0047510D03*
X0102427Y0080010D03*
X0102427Y0087490D03*
X0119927Y0087490D03*
X0119927Y0080010D03*
D13*
X0129927Y0070581D03*
X0126187Y0061919D03*
X0133667Y0061919D03*
D14*
X0018677Y0045000D03*
X0028677Y0045000D03*
X0038677Y0045000D03*
X0048677Y0045000D03*
X0058677Y0045000D03*
X0058677Y0055000D03*
X0048677Y0055000D03*
X0038677Y0055000D03*
X0028677Y0055000D03*
X0018677Y0055000D03*
D15*
X0043070Y0072693D02*
X0043910Y0072693D01*
X0043910Y0069571D01*
X0043070Y0069571D01*
X0043070Y0072693D01*
X0043070Y0070555D02*
X0043910Y0070555D01*
X0043910Y0071539D02*
X0043070Y0071539D01*
X0043070Y0072523D02*
X0043910Y0072523D01*
X0045039Y0072693D02*
X0045879Y0072693D01*
X0045879Y0069571D01*
X0045039Y0069571D01*
X0045039Y0072693D01*
X0045039Y0070555D02*
X0045879Y0070555D01*
X0045879Y0071539D02*
X0045039Y0071539D01*
X0045039Y0072523D02*
X0045879Y0072523D01*
X0047007Y0072693D02*
X0047847Y0072693D01*
X0047847Y0069571D01*
X0047007Y0069571D01*
X0047007Y0072693D01*
X0047007Y0070555D02*
X0047847Y0070555D01*
X0047847Y0071539D02*
X0047007Y0071539D01*
X0047007Y0072523D02*
X0047847Y0072523D01*
X0048976Y0072693D02*
X0049816Y0072693D01*
X0049816Y0069571D01*
X0048976Y0069571D01*
X0048976Y0072693D01*
X0048976Y0070555D02*
X0049816Y0070555D01*
X0049816Y0071539D02*
X0048976Y0071539D01*
X0048976Y0072523D02*
X0049816Y0072523D01*
X0050944Y0072693D02*
X0051784Y0072693D01*
X0051784Y0069571D01*
X0050944Y0069571D01*
X0050944Y0072693D01*
X0050944Y0070555D02*
X0051784Y0070555D01*
X0051784Y0071539D02*
X0050944Y0071539D01*
X0050944Y0072523D02*
X0051784Y0072523D01*
X0053484Y0074393D02*
X0053484Y0075233D01*
X0056606Y0075233D01*
X0056606Y0074393D01*
X0053484Y0074393D01*
X0053484Y0076361D02*
X0053484Y0077201D01*
X0056606Y0077201D01*
X0056606Y0076361D01*
X0053484Y0076361D01*
X0053484Y0078330D02*
X0053484Y0079170D01*
X0056606Y0079170D01*
X0056606Y0078330D01*
X0053484Y0078330D01*
X0053484Y0080299D02*
X0053484Y0081139D01*
X0056606Y0081139D01*
X0056606Y0080299D01*
X0053484Y0080299D01*
X0053484Y0082267D02*
X0053484Y0083107D01*
X0056606Y0083107D01*
X0056606Y0082267D01*
X0053484Y0082267D01*
X0051784Y0084807D02*
X0050944Y0084807D01*
X0050944Y0087929D01*
X0051784Y0087929D01*
X0051784Y0084807D01*
X0051784Y0085791D02*
X0050944Y0085791D01*
X0050944Y0086775D02*
X0051784Y0086775D01*
X0051784Y0087759D02*
X0050944Y0087759D01*
X0049816Y0084807D02*
X0048976Y0084807D01*
X0048976Y0087929D01*
X0049816Y0087929D01*
X0049816Y0084807D01*
X0049816Y0085791D02*
X0048976Y0085791D01*
X0048976Y0086775D02*
X0049816Y0086775D01*
X0049816Y0087759D02*
X0048976Y0087759D01*
X0047847Y0084807D02*
X0047007Y0084807D01*
X0047007Y0087929D01*
X0047847Y0087929D01*
X0047847Y0084807D01*
X0047847Y0085791D02*
X0047007Y0085791D01*
X0047007Y0086775D02*
X0047847Y0086775D01*
X0047847Y0087759D02*
X0047007Y0087759D01*
X0045879Y0084807D02*
X0045039Y0084807D01*
X0045039Y0087929D01*
X0045879Y0087929D01*
X0045879Y0084807D01*
X0045879Y0085791D02*
X0045039Y0085791D01*
X0045039Y0086775D02*
X0045879Y0086775D01*
X0045879Y0087759D02*
X0045039Y0087759D01*
X0043910Y0084807D02*
X0043070Y0084807D01*
X0043070Y0087929D01*
X0043910Y0087929D01*
X0043910Y0084807D01*
X0043910Y0085791D02*
X0043070Y0085791D01*
X0043070Y0086775D02*
X0043910Y0086775D01*
X0043910Y0087759D02*
X0043070Y0087759D01*
X0041370Y0083107D02*
X0041370Y0082267D01*
X0038248Y0082267D01*
X0038248Y0083107D01*
X0041370Y0083107D01*
X0041370Y0081139D02*
X0041370Y0080299D01*
X0038248Y0080299D01*
X0038248Y0081139D01*
X0041370Y0081139D01*
X0041370Y0079170D02*
X0041370Y0078330D01*
X0038248Y0078330D01*
X0038248Y0079170D01*
X0041370Y0079170D01*
X0041370Y0077201D02*
X0041370Y0076361D01*
X0038248Y0076361D01*
X0038248Y0077201D01*
X0041370Y0077201D01*
X0041370Y0075233D02*
X0041370Y0074393D01*
X0038248Y0074393D01*
X0038248Y0075233D01*
X0041370Y0075233D01*
D16*
X0047427Y0078750D03*
D17*
X0149365Y0071250D03*
X0149365Y0053850D03*
X0149365Y0088650D03*
M02*
