G75*
%MOIN*%
%OFA0B0*%
%FSLAX25Y25*%
%IPPOS*%
%LPD*%
%AMOC8*
5,1,8,0,0,1.08239X$1,22.5*
%
%ADD10R,0.05918X0.06706*%
%ADD11R,0.06706X0.05918*%
%ADD12R,0.07887X0.07099*%
%ADD13OC8,0.07100*%
%ADD14C,0.07100*%
%ADD15C,0.10800*%
%ADD16R,0.03400X0.08800*%
%ADD17OC8,0.06800*%
%ADD18C,0.06800*%
%ADD19OC8,0.06000*%
%ADD20R,0.07493X0.08674*%
%ADD21R,0.05328X0.06312*%
%ADD22R,0.07099X0.07898*%
%ADD23OC8,0.06400*%
%ADD24R,0.06312X0.04737*%
%ADD25R,0.01981X0.05524*%
%ADD26R,0.05524X0.01981*%
%ADD27C,0.23800*%
%ADD28C,0.08600*%
D10*
X0027310Y0064800D03*
X0034790Y0064800D03*
X0034790Y0084800D03*
X0027310Y0084800D03*
X0027310Y0102300D03*
X0034790Y0102300D03*
X0034790Y0112300D03*
X0027310Y0112300D03*
X0027310Y0122300D03*
X0034790Y0122300D03*
X0034790Y0132300D03*
X0027310Y0132300D03*
X0067310Y0156050D03*
X0074790Y0156050D03*
X0074790Y0166050D03*
X0067310Y0166050D03*
X0067310Y0176050D03*
X0074790Y0176050D03*
X0074790Y0186050D03*
X0067310Y0186050D03*
X0067310Y0196050D03*
X0074790Y0196050D03*
X0074790Y0206050D03*
X0067310Y0206050D03*
X0112310Y0201050D03*
X0119790Y0201050D03*
X0119790Y0186050D03*
X0112310Y0186050D03*
X0112310Y0171050D03*
X0119790Y0171050D03*
X0119790Y0156050D03*
X0112310Y0156050D03*
X0112310Y0141050D03*
X0119790Y0141050D03*
X0074790Y0094800D03*
X0067310Y0094800D03*
X0067310Y0084800D03*
X0074790Y0084800D03*
X0074790Y0064800D03*
X0067310Y0064800D03*
X0067310Y0054800D03*
X0074790Y0054800D03*
X0188560Y0057300D03*
X0196040Y0057300D03*
X0206060Y0057300D03*
X0213540Y0057300D03*
X0224810Y0057300D03*
X0232290Y0057300D03*
X0302310Y0032300D03*
X0309790Y0032300D03*
X0327310Y0032300D03*
X0334790Y0032300D03*
X0213540Y0213550D03*
X0206060Y0213550D03*
X0119790Y0216050D03*
X0112310Y0216050D03*
X0109790Y0367300D03*
X0102310Y0367300D03*
X0089790Y0367300D03*
X0082310Y0367300D03*
X0122310Y0367300D03*
X0129790Y0367300D03*
X0142310Y0367300D03*
X0149790Y0367300D03*
X0192310Y0367300D03*
X0199790Y0367300D03*
X0212310Y0367300D03*
X0219790Y0367300D03*
X0292310Y0367300D03*
X0299790Y0367300D03*
X0312310Y0367300D03*
X0319790Y0367300D03*
X0346060Y0258550D03*
X0353540Y0258550D03*
X0343540Y0246050D03*
X0336060Y0246050D03*
D11*
X0281050Y0161040D03*
X0281050Y0153560D03*
X0258550Y0083540D03*
X0258550Y0076060D03*
X0244800Y0076060D03*
X0244800Y0083540D03*
X0156050Y0063540D03*
X0156050Y0056060D03*
X0126050Y0056060D03*
X0126050Y0063540D03*
X0126050Y0081060D03*
X0126050Y0088540D03*
X0208550Y0172310D03*
X0208550Y0179790D03*
X0144800Y0327310D03*
X0144800Y0334790D03*
D12*
X0271050Y0165312D03*
X0271050Y0154288D03*
X0213550Y0082812D03*
X0213550Y0071788D03*
D13*
X0150300Y0221050D03*
X0047800Y0328550D03*
D14*
X0061800Y0328550D03*
X0164300Y0221050D03*
D15*
X0182300Y0081050D03*
X0196050Y0081050D03*
X0323550Y0234800D03*
X0353550Y0234800D03*
D16*
X0187300Y0318950D03*
X0182300Y0318950D03*
X0177300Y0318950D03*
X0172300Y0318950D03*
X0167300Y0318950D03*
X0162300Y0318950D03*
X0157300Y0318950D03*
X0157300Y0343150D03*
X0162300Y0343150D03*
X0167300Y0343150D03*
X0172300Y0343150D03*
X0177300Y0343150D03*
X0182300Y0343150D03*
X0187300Y0343150D03*
D17*
X0051050Y0206050D03*
X0051050Y0196050D03*
X0041050Y0196050D03*
X0041050Y0206050D03*
X0041050Y0186050D03*
X0041050Y0176050D03*
X0051050Y0176050D03*
X0051050Y0186050D03*
X0051050Y0166050D03*
X0051050Y0156050D03*
X0041050Y0156050D03*
X0041050Y0166050D03*
X0131050Y0037300D03*
X0131050Y0027300D03*
X0141050Y0027300D03*
X0151050Y0027300D03*
X0151050Y0037300D03*
X0141050Y0037300D03*
X0161050Y0037300D03*
X0161050Y0027300D03*
D18*
X0194800Y0039300D02*
X0194800Y0045300D01*
X0204800Y0045300D02*
X0204800Y0039300D01*
X0278050Y0062300D02*
X0284050Y0062300D01*
X0301050Y0069300D02*
X0301050Y0075300D01*
X0284050Y0082300D02*
X0278050Y0082300D01*
X0224800Y0193050D02*
X0224800Y0199050D01*
X0214800Y0199050D02*
X0214800Y0193050D01*
X0204800Y0193050D02*
X0204800Y0199050D01*
X0194800Y0199050D02*
X0194800Y0193050D01*
X0184800Y0193050D02*
X0184800Y0199050D01*
X0054050Y0142300D02*
X0048050Y0142300D01*
X0048050Y0132300D02*
X0054050Y0132300D01*
X0054050Y0122300D02*
X0048050Y0122300D01*
X0048050Y0112300D02*
X0054050Y0112300D01*
X0054050Y0102300D02*
X0048050Y0102300D01*
X0048050Y0084800D02*
X0054050Y0084800D01*
X0054050Y0074800D02*
X0048050Y0074800D01*
X0048050Y0064800D02*
X0054050Y0064800D01*
X0369300Y0224800D02*
X0375300Y0224800D01*
X0375300Y0234800D02*
X0369300Y0234800D01*
X0369300Y0244800D02*
X0375300Y0244800D01*
D19*
X0321050Y0354800D03*
X0291050Y0354800D03*
X0221050Y0354800D03*
X0191050Y0354800D03*
X0151050Y0354800D03*
X0121050Y0354800D03*
X0111050Y0354800D03*
X0081050Y0354800D03*
X0141050Y0087300D03*
X0141050Y0057300D03*
X0303550Y0044800D03*
X0333550Y0044800D03*
D20*
X0263550Y0048176D03*
X0263550Y0063924D03*
X0244800Y0063924D03*
X0244800Y0048176D03*
D21*
X0231700Y0072969D03*
X0225400Y0072969D03*
X0225400Y0081631D03*
X0231700Y0081631D03*
D22*
X0297952Y0234800D03*
X0309148Y0234800D03*
D23*
X0333550Y0197300D03*
X0333550Y0187300D03*
X0333550Y0177300D03*
X0333550Y0167300D03*
X0333550Y0157300D03*
X0333550Y0147300D03*
X0333550Y0137300D03*
X0333550Y0127300D03*
X0333550Y0117300D03*
X0333550Y0107300D03*
X0333550Y0097300D03*
X0333550Y0087300D03*
X0333550Y0077300D03*
X0343550Y0077300D03*
X0343550Y0087300D03*
X0343550Y0097300D03*
X0343550Y0107300D03*
X0343550Y0117300D03*
X0343550Y0127300D03*
X0343550Y0137300D03*
X0343550Y0147300D03*
X0343550Y0157300D03*
X0343550Y0167300D03*
X0343550Y0177300D03*
X0343550Y0187300D03*
X0343550Y0197300D03*
X0321050Y0277300D03*
X0311050Y0277300D03*
X0311050Y0287300D03*
X0311050Y0297300D03*
X0321050Y0297300D03*
X0321050Y0287300D03*
X0321050Y0307300D03*
X0321050Y0317300D03*
X0311050Y0317300D03*
X0311050Y0307300D03*
X0221050Y0307300D03*
X0221050Y0317300D03*
X0211050Y0317300D03*
X0211050Y0307300D03*
X0211050Y0297300D03*
X0211050Y0287300D03*
X0211050Y0277300D03*
X0221050Y0277300D03*
X0221050Y0287300D03*
X0221050Y0297300D03*
X0121050Y0297300D03*
X0121050Y0287300D03*
X0121050Y0277300D03*
X0111050Y0277300D03*
X0111050Y0287300D03*
X0111050Y0297300D03*
X0111050Y0307300D03*
X0111050Y0317300D03*
X0121050Y0317300D03*
X0121050Y0307300D03*
D24*
X0097881Y0222290D03*
X0097881Y0214810D03*
X0097881Y0207290D03*
X0097881Y0199810D03*
X0097881Y0192290D03*
X0097881Y0184810D03*
X0097881Y0177290D03*
X0097881Y0169810D03*
X0097881Y0162290D03*
X0097881Y0154810D03*
X0097881Y0147290D03*
X0097881Y0139810D03*
X0089219Y0143550D03*
X0089219Y0158550D03*
X0089219Y0173550D03*
X0089219Y0188550D03*
X0089219Y0203550D03*
X0089219Y0218550D03*
D25*
X0204928Y0159062D03*
X0206896Y0159062D03*
X0208865Y0159062D03*
X0210833Y0159062D03*
X0212802Y0159062D03*
X0214770Y0159062D03*
X0216739Y0159062D03*
X0218707Y0159062D03*
X0220676Y0159062D03*
X0222644Y0159062D03*
X0224613Y0159062D03*
X0226581Y0159062D03*
X0228550Y0159062D03*
X0230519Y0159062D03*
X0232487Y0159062D03*
X0234456Y0159062D03*
X0236424Y0159062D03*
X0238393Y0159062D03*
X0240361Y0159062D03*
X0242330Y0159062D03*
X0244298Y0159062D03*
X0246267Y0159062D03*
X0248235Y0159062D03*
X0250204Y0159062D03*
X0252172Y0159062D03*
X0252172Y0098038D03*
X0250204Y0098038D03*
X0248235Y0098038D03*
X0246267Y0098038D03*
X0244298Y0098038D03*
X0242330Y0098038D03*
X0240361Y0098038D03*
X0238393Y0098038D03*
X0236424Y0098038D03*
X0234456Y0098038D03*
X0232487Y0098038D03*
X0230519Y0098038D03*
X0228550Y0098038D03*
X0226581Y0098038D03*
X0224613Y0098038D03*
X0222644Y0098038D03*
X0220676Y0098038D03*
X0218707Y0098038D03*
X0216739Y0098038D03*
X0214770Y0098038D03*
X0212802Y0098038D03*
X0210833Y0098038D03*
X0208865Y0098038D03*
X0206896Y0098038D03*
X0204928Y0098038D03*
D26*
X0198038Y0104928D03*
X0198038Y0106896D03*
X0198038Y0108865D03*
X0198038Y0110833D03*
X0198038Y0112802D03*
X0198038Y0114770D03*
X0198038Y0116739D03*
X0198038Y0118707D03*
X0198038Y0120676D03*
X0198038Y0122644D03*
X0198038Y0124613D03*
X0198038Y0126581D03*
X0198038Y0128550D03*
X0198038Y0130519D03*
X0198038Y0132487D03*
X0198038Y0134456D03*
X0198038Y0136424D03*
X0198038Y0138393D03*
X0198038Y0140361D03*
X0198038Y0142330D03*
X0198038Y0144298D03*
X0198038Y0146267D03*
X0198038Y0148235D03*
X0198038Y0150204D03*
X0198038Y0152172D03*
X0259062Y0152172D03*
X0259062Y0150204D03*
X0259062Y0148235D03*
X0259062Y0146267D03*
X0259062Y0144298D03*
X0259062Y0142330D03*
X0259062Y0140361D03*
X0259062Y0138393D03*
X0259062Y0136424D03*
X0259062Y0134456D03*
X0259062Y0132487D03*
X0259062Y0130519D03*
X0259062Y0128550D03*
X0259062Y0126581D03*
X0259062Y0124613D03*
X0259062Y0122644D03*
X0259062Y0120676D03*
X0259062Y0118707D03*
X0259062Y0116739D03*
X0259062Y0114770D03*
X0259062Y0112802D03*
X0259062Y0110833D03*
X0259062Y0108865D03*
X0259062Y0106896D03*
X0259062Y0104928D03*
D27*
X0029859Y0029859D03*
X0029859Y0368442D03*
X0368442Y0368442D03*
X0368442Y0029859D03*
D28*
X0058700Y0237700D02*
X0050900Y0237700D01*
X0050900Y0257500D02*
X0058700Y0257500D01*
X0058700Y0277100D02*
X0050900Y0277100D01*
X0050900Y0296900D02*
X0058700Y0296900D01*
M02*
