%
M48
M72
T01C0.00787
T02C0.01181
T03C0.03200
T04C0.03600
T05C0.04000
T06C0.04331
T07C0.05200
T08C0.12598
%
T01
X57733Y55036
X40233Y75036
X35233Y75036
X42733Y95036
X60233Y95036
X70233Y107536
X70233Y117536
X70233Y127536
X70233Y140036
X42733Y140036
X37733Y145036
X87733Y85036
X105233Y80036
X122733Y72536
X130233Y72536
X126050Y96050
X135233Y105036
X147733Y107536
X162733Y112536
X186985Y104347
X206985Y112536
X214859Y120410
X206985Y124347
X214859Y132221
X222733Y124347
X222733Y112536
X227300Y106050
X234800Y106050
X238481Y116473
X246355Y116473
X246355Y128284
X238481Y128284
X238481Y140095
X246355Y140095
X246355Y151906
X257300Y164800
X263855Y161906
X264800Y152300
X295233Y152536
X322733Y157536
X296355Y184406
X313855Y206906
X333855Y221906
X343855Y209406
X361355Y216906
X366355Y216906
X361355Y221906
X361355Y226906
X371355Y216906
X376355Y216906
X381355Y216906
X381355Y221906
X381355Y226906
X371355Y259406
X351355Y289406
X328855Y289406
X328855Y284406
X328855Y279406
X328855Y274406
X328855Y269406
X323855Y269406
X318855Y266906
X313855Y264406
X308855Y264406
X303855Y264406
X298855Y264406
X293855Y264406
X298855Y274406
X303855Y276906
X291355Y276906
X282300Y271050
X274800Y283550
X272300Y287300
X277300Y296050
X279800Y301050
X284800Y306050
X273855Y306906
X263855Y296906
X252300Y287300
X248550Y292300
X243550Y296050
X251355Y306906
X265233Y325036
X285233Y325036
X303855Y324406
X303855Y319406
X308855Y324406
X313855Y324406
X328855Y324406
X328855Y319406
X328855Y314406
X328855Y309406
X328855Y304406
X328855Y299406
X328855Y294406
X303855Y291906
X291355Y291906
X266355Y274406
X259800Y277300
X256050Y282300
X261355Y261906
X258550Y246050
X258855Y226906
X266355Y206906
X291355Y224406
X313855Y254406
X338855Y236906
X360233Y162536
X302733Y107536
X317733Y90036
X322733Y70036
X322733Y52536
X307733Y55036
X315233Y32536
X322733Y32536
X325233Y25036
X312733Y25036
X290233Y22536
X277733Y40036
X255233Y40036
X255233Y52536
X255233Y57536
X255233Y62536
X237733Y60036
X237733Y65036
X237733Y70036
X237733Y75036
X237733Y80036
X237300Y91050
X234800Y92300
X232300Y91050
X220233Y90036
X217733Y65036
X212733Y65036
X197733Y70036
X180233Y67536
X182733Y57536
X187733Y42536
X195233Y32536
X182733Y30036
X162733Y47536
X132733Y47536
X125233Y32536
X105233Y25036
X82733Y57536
X103855Y146906
X103855Y161906
X103855Y176906
X103855Y191906
X103855Y206906
X103855Y221906
X103855Y246906
X106355Y271906
X111355Y271906
X116355Y271906
X121355Y271906
X126355Y271906
X128855Y276906
X128855Y281906
X128855Y286906
X136355Y286906
X143855Y286906
X157300Y289800
X143855Y301906
X141355Y314406
X143855Y321906
X146355Y321906
X151355Y326906
X157300Y314800
X176355Y309406
X193855Y319406
X201355Y319406
X201355Y324406
X206355Y324406
X211355Y324406
X196355Y329406
X191355Y334406
X186355Y329406
X181355Y334406
X193855Y346906
X203855Y344406
X201355Y359406
X206355Y366906
X206355Y371906
X211355Y359406
X235233Y357536
X237733Y330036
X228855Y324406
X228855Y319406
X201355Y294406
X201355Y289406
X201355Y284406
X201355Y279406
X201355Y274406
X203855Y269406
X208855Y269406
X213855Y269406
X218855Y269406
X223855Y269406
X228855Y266906
X228855Y271906
X236355Y271906
X237300Y246050
X221355Y246906
X228855Y226906
X188855Y214406
X183855Y206906
X176355Y196906
X183855Y186906
X163855Y184406
X156355Y176906
X148855Y169406
X141355Y161906
X133855Y154406
X126355Y146906
X188855Y164406
X191050Y154800
X199800Y163550
X204800Y164800
X206670Y154406
X213550Y149800
X217300Y147300
X226670Y151906
X226670Y140095
X223855Y174406
X209170Y186906
X153855Y246906
X141355Y266906
X166355Y266906
X178855Y284406
X191355Y266906
X138855Y221906
X101355Y276906
X101355Y281906
X101355Y286906
X101355Y291906
X101355Y296906
X101355Y301906
X101355Y306906
X101355Y311906
X101355Y316906
X101355Y321906
X101355Y326906
X101355Y331906
X101355Y336906
X86355Y331906
X91355Y359406
X96355Y366906
X96355Y371906
X101355Y359406
X131355Y359406
X138855Y359406
X136355Y366906
X136355Y371906
X167733Y367536
X175233Y360036
X167733Y352536
X182733Y352536
X182733Y367536
X168855Y386906
X150233Y342536
X138855Y326906
X128855Y324406
X128855Y319406
X128855Y314406
X128855Y309406
X128855Y304406
X128855Y299406
X128855Y329406
X128855Y334406
X83855Y284406
X56355Y309406
X66355Y369406
X86355Y386906
X56355Y246906
X66355Y221906
X237733Y55036
X232733Y40036
X277733Y72536
X287733Y72536
X290233Y80036
X295233Y85036
X272300Y107300
X274800Y109800
X277300Y112300
X279800Y114800
X282300Y117300
X284800Y119800
X269800Y104800
X259800Y98550
X251355Y103973
X342733Y70036
X342733Y65036
X347733Y65036
X347733Y70036
X360233Y102536
X383855Y326906
X346355Y366906
X311355Y359406
X306355Y364406
X306355Y369406
X298855Y359406
X305233Y345036
X265233Y355036
X241355Y386906
X298855Y386906
T02
X262300Y234800
T03
X164300Y221050
X150300Y221050
X61800Y328550
X47800Y328550
X81050Y354800
X111050Y354800
X121050Y354800
X151050Y354800
X191050Y354800
X221050Y354800
X291050Y354800
X321050Y354800
X141050Y87300
X141050Y57300
X303550Y44800
X333550Y44800
T04
X333550Y77300
X333550Y87300
X333550Y97300
X333550Y107300
X333550Y117300
X333550Y127300
X333550Y137300
X333550Y147300
X333550Y157300
X333550Y167300
X333550Y177300
X333550Y187300
X333550Y197300
X343550Y197300
X343550Y187300
X343550Y177300
X343550Y167300
X343550Y157300
X343550Y147300
X343550Y137300
X343550Y127300
X343550Y117300
X343550Y107300
X343550Y97300
X343550Y87300
X343550Y77300
X321050Y277300
X311050Y277300
X311050Y287300
X311050Y297300
X321050Y297300
X321050Y287300
X321050Y307300
X321050Y317300
X311050Y317300
X311050Y307300
X221050Y307300
X221050Y317300
X211050Y317300
X211050Y307300
X211050Y297300
X211050Y287300
X211050Y277300
X221050Y277300
X221050Y287300
X221050Y297300
X121050Y297300
X121050Y287300
X121050Y277300
X111050Y277300
X111050Y287300
X111050Y297300
X111050Y307300
X111050Y317300
X121050Y317300
X121050Y307300
T05
X51050Y206050
X51050Y196050
X41050Y196050
X41050Y206050
X41050Y186050
X41050Y176050
X51050Y176050
X51050Y186050
X51050Y166050
X51050Y156050
X41050Y156050
X41050Y166050
X51050Y142300
X51050Y132300
X51050Y122300
X51050Y112300
X51050Y102300
X51050Y84800
X51050Y74800
X51050Y64800
X131050Y37300
X131050Y27300
X141050Y27300
X151050Y27300
X151050Y37300
X141050Y37300
X161050Y37300
X161050Y27300
X194800Y42300
X204800Y42300
X281050Y62300
X281050Y82300
X301050Y72300
X224800Y196050
X214800Y196050
X204800Y196050
X194800Y196050
X184800Y196050
X372300Y224800
X372300Y234800
X372300Y244800
T06
X353550Y234800
X323550Y234800
T07
X54800Y237700
X54800Y257500
X54800Y277100
X54800Y296900
T08
X29859Y29859
X29859Y368442
X368442Y368442
X368442Y29859
M30
