G75*
%MOIN*%
%OFA0B0*%
%FSLAX25Y25*%
%IPPOS*%
%LPD*%
%AMOC8*
5,1,8,0,0,1.08239X$1,22.5*
%
%ADD10C,0.07874*%
%ADD11R,0.05918X0.06706*%
%ADD12R,0.06706X0.05918*%
%ADD13OC8,0.07100*%
%ADD14C,0.07100*%
%ADD15C,0.10800*%
%ADD16OC8,0.10800*%
%ADD17C,0.11430*%
%ADD18C,0.08280*%
%ADD19C,0.13005*%
%ADD20C,0.06000*%
%ADD21C,0.06800*%
%ADD22OC8,0.15800*%
%ADD23OC8,0.06800*%
%ADD24R,0.04737X0.06312*%
%ADD25OC8,0.06000*%
%ADD26C,0.08600*%
%ADD27C,0.23800*%
%ADD28C,0.07400*%
%ADD29R,0.05600X0.09600*%
%ADD30R,0.14973X0.09461*%
%ADD31R,0.41784X0.43320*%
%ADD32R,0.09300X0.05000*%
%ADD33C,0.09650*%
%ADD34C,0.15800*%
%ADD35C,0.03975*%
D10*
X0312969Y0335469D02*
X0475469Y0335469D01*
X0487969Y0347969D01*
X0487969Y0362969D01*
X0490469Y0365469D01*
X0502969Y0380469D02*
X0525469Y0380469D01*
X0565469Y0340469D01*
X0565469Y0312969D01*
X0560469Y0207969D02*
X0562969Y0205469D01*
X0572969Y0205469D01*
X0312969Y0335469D02*
X0287969Y0360469D01*
X0287969Y0367969D01*
D11*
X0361728Y0280469D03*
X0369209Y0280469D03*
X0369209Y0265469D03*
X0361728Y0265469D03*
X0340094Y0245803D03*
X0332614Y0245803D03*
X0324209Y0197969D03*
X0316728Y0197969D03*
X0361728Y0190469D03*
X0369209Y0190469D03*
X0411728Y0190469D03*
X0419209Y0190469D03*
X0499228Y0160469D03*
X0506709Y0160469D03*
X0519228Y0160469D03*
X0526709Y0160469D03*
X0556728Y0107969D03*
X0564209Y0107969D03*
X0564209Y0087969D03*
X0556728Y0087969D03*
X0359209Y0095469D03*
X0351728Y0095469D03*
X0234209Y0025843D03*
X0226728Y0025843D03*
X0189209Y0025843D03*
X0181728Y0025843D03*
X0146709Y0025469D03*
X0139228Y0025469D03*
X0141709Y0340469D03*
X0134228Y0340469D03*
X0464228Y0355469D03*
X0471709Y0355469D03*
D12*
X0525469Y0341709D03*
X0525469Y0334228D03*
X0525469Y0319209D03*
X0525469Y0311728D03*
X0420469Y0271709D03*
X0420469Y0264228D03*
X0390469Y0264228D03*
X0390469Y0271709D03*
X0440469Y0231709D03*
X0440469Y0224228D03*
X0485469Y0169209D03*
X0485469Y0161728D03*
X0557969Y0166728D03*
X0557969Y0174209D03*
X0557969Y0151709D03*
X0557969Y0144228D03*
X0517969Y0086709D03*
X0517969Y0079228D03*
X0497969Y0079228D03*
X0497969Y0086709D03*
X0467969Y0086709D03*
X0467969Y0079228D03*
X0390469Y0156728D03*
X0390469Y0164209D03*
X0342969Y0171728D03*
X0342969Y0179209D03*
X0340469Y0224228D03*
X0340469Y0231709D03*
X0212969Y0221709D03*
X0212969Y0214228D03*
X0155469Y0274228D03*
X0155469Y0281709D03*
X0155469Y0296728D03*
X0155469Y0304209D03*
X0137969Y0304228D03*
X0137969Y0311709D03*
X0127969Y0291709D03*
X0127969Y0284228D03*
X0115469Y0141709D03*
X0115469Y0134228D03*
D13*
X0187969Y0112969D03*
X0232969Y0113343D03*
X0277969Y0113343D03*
D14*
X0267969Y0113343D03*
X0222969Y0113343D03*
X0177969Y0112969D03*
D15*
X0115469Y0047969D03*
X0045469Y0212969D03*
X0045469Y0265469D03*
X0192969Y0310469D03*
X0310469Y0292969D03*
D16*
X0330469Y0292969D03*
X0212969Y0310469D03*
X0045469Y0245469D03*
X0045469Y0192969D03*
X0115469Y0027969D03*
D17*
X0288469Y0376154D02*
X0288469Y0386783D01*
X0310469Y0386783D02*
X0310469Y0376154D01*
X0332469Y0376154D02*
X0332469Y0386783D01*
D18*
X0502634Y0185252D03*
X0512634Y0185252D03*
X0517634Y0176591D03*
X0507634Y0176591D03*
D19*
X0468815Y0215843D03*
X0468815Y0225843D03*
X0468815Y0235843D03*
X0551492Y0235843D03*
X0551492Y0225843D03*
X0551492Y0215843D03*
D20*
X0537969Y0140569D02*
X0537969Y0135369D01*
X0527969Y0135369D02*
X0527969Y0140569D01*
X0517969Y0140569D02*
X0517969Y0135369D01*
X0507969Y0135369D02*
X0507969Y0140569D01*
X0497969Y0140569D02*
X0497969Y0135369D01*
X0487969Y0135369D02*
X0487969Y0140569D01*
X0477969Y0140569D02*
X0477969Y0135369D01*
X0467969Y0135369D02*
X0467969Y0140569D01*
X0440469Y0140569D02*
X0440469Y0135369D01*
X0430469Y0135369D02*
X0430469Y0140569D01*
X0420469Y0140569D02*
X0420469Y0135369D01*
X0410469Y0135369D02*
X0410469Y0140569D01*
X0400469Y0140569D02*
X0400469Y0135369D01*
X0390469Y0135369D02*
X0390469Y0140569D01*
X0380469Y0140569D02*
X0380469Y0135369D01*
X0370469Y0135369D02*
X0370469Y0140569D01*
X0370469Y0110569D02*
X0370469Y0105369D01*
X0380469Y0105369D02*
X0380469Y0110569D01*
X0390469Y0110569D02*
X0390469Y0105369D01*
X0400469Y0105369D02*
X0400469Y0110569D01*
X0410469Y0110569D02*
X0410469Y0105369D01*
X0420469Y0105369D02*
X0420469Y0110569D01*
X0430469Y0110569D02*
X0430469Y0105369D01*
X0440469Y0105369D02*
X0440469Y0110569D01*
X0467969Y0110569D02*
X0467969Y0105369D01*
X0477969Y0105369D02*
X0477969Y0110569D01*
X0487969Y0110569D02*
X0487969Y0105369D01*
X0497969Y0105369D02*
X0497969Y0110569D01*
X0507969Y0110569D02*
X0507969Y0105369D01*
X0517969Y0105369D02*
X0517969Y0110569D01*
X0527969Y0110569D02*
X0527969Y0105369D01*
X0537969Y0105369D02*
X0537969Y0110569D01*
X0430469Y0083069D02*
X0430469Y0077869D01*
X0420469Y0077869D02*
X0420469Y0083069D01*
X0410469Y0083069D02*
X0410469Y0077869D01*
X0400469Y0077869D02*
X0400469Y0083069D01*
X0390469Y0083069D02*
X0390469Y0077869D01*
X0380469Y0077869D02*
X0380469Y0083069D01*
X0370469Y0083069D02*
X0370469Y0077869D01*
X0360469Y0077869D02*
X0360469Y0083069D01*
X0360469Y0053069D02*
X0360469Y0047869D01*
X0370469Y0047869D02*
X0370469Y0053069D01*
X0380469Y0053069D02*
X0380469Y0047869D01*
X0390469Y0047869D02*
X0390469Y0053069D01*
X0400469Y0053069D02*
X0400469Y0047869D01*
X0410469Y0047869D02*
X0410469Y0053069D01*
X0420469Y0053069D02*
X0420469Y0047869D01*
X0430469Y0047869D02*
X0430469Y0053069D01*
X0420469Y0210369D02*
X0420469Y0215569D01*
X0410469Y0215569D02*
X0410469Y0210369D01*
X0400469Y0210369D02*
X0400469Y0215569D01*
X0390469Y0215569D02*
X0390469Y0210369D01*
X0380469Y0210369D02*
X0380469Y0215569D01*
X0370469Y0215569D02*
X0370469Y0210369D01*
X0360469Y0210369D02*
X0360469Y0215569D01*
X0360469Y0240369D02*
X0360469Y0245569D01*
X0370469Y0245569D02*
X0370469Y0240369D01*
X0380469Y0240369D02*
X0380469Y0245569D01*
X0390469Y0245569D02*
X0390469Y0240369D01*
X0400469Y0240369D02*
X0400469Y0245569D01*
X0410469Y0245569D02*
X0410469Y0240369D01*
X0420469Y0240369D02*
X0420469Y0245569D01*
D21*
X0417469Y0283969D02*
X0423469Y0283969D01*
X0423469Y0292969D02*
X0417469Y0292969D01*
X0417469Y0301969D02*
X0423469Y0301969D01*
X0255969Y0205469D02*
X0249969Y0205469D01*
X0249969Y0195469D02*
X0255969Y0195469D01*
X0255969Y0185469D02*
X0249969Y0185469D01*
X0198469Y0185469D02*
X0192469Y0185469D01*
X0192469Y0195469D02*
X0198469Y0195469D01*
X0198469Y0205469D02*
X0192469Y0205469D01*
X0093469Y0271469D02*
X0087469Y0271469D01*
X0087469Y0280469D02*
X0093469Y0280469D01*
X0093469Y0289469D02*
X0087469Y0289469D01*
X0204969Y0095843D02*
X0210969Y0095843D01*
X0210969Y0085843D02*
X0204969Y0085843D01*
X0204969Y0075843D02*
X0210969Y0075843D01*
X0210969Y0065843D02*
X0204969Y0065843D01*
X0204969Y0055843D02*
X0210969Y0055843D01*
X0210969Y0045843D02*
X0204969Y0045843D01*
X0204969Y0035843D02*
X0210969Y0035843D01*
X0210969Y0025843D02*
X0204969Y0025843D01*
X0165969Y0025469D02*
X0159969Y0025469D01*
X0159969Y0035469D02*
X0165969Y0035469D01*
X0165969Y0045469D02*
X0159969Y0045469D01*
X0159969Y0055469D02*
X0165969Y0055469D01*
X0165969Y0065469D02*
X0159969Y0065469D01*
X0159969Y0075469D02*
X0165969Y0075469D01*
X0165969Y0085469D02*
X0159969Y0085469D01*
X0159969Y0095469D02*
X0165969Y0095469D01*
X0249969Y0095843D02*
X0255969Y0095843D01*
X0255969Y0085843D02*
X0249969Y0085843D01*
X0249969Y0075843D02*
X0255969Y0075843D01*
X0255969Y0065843D02*
X0249969Y0065843D01*
X0249969Y0055843D02*
X0255969Y0055843D01*
X0255969Y0045843D02*
X0249969Y0045843D01*
X0249969Y0035843D02*
X0255969Y0035843D01*
X0255969Y0025843D02*
X0249969Y0025843D01*
X0287469Y0025469D02*
X0293469Y0025469D01*
X0293469Y0035469D02*
X0287469Y0035469D01*
X0287469Y0045469D02*
X0293469Y0045469D01*
X0293469Y0055469D02*
X0287469Y0055469D01*
X0287469Y0065469D02*
X0293469Y0065469D01*
X0293469Y0075469D02*
X0287469Y0075469D01*
X0287469Y0085469D02*
X0293469Y0085469D01*
X0293469Y0095469D02*
X0287469Y0095469D01*
X0307469Y0095469D02*
X0313469Y0095469D01*
X0313469Y0085469D02*
X0307469Y0085469D01*
X0307469Y0075469D02*
X0313469Y0075469D01*
X0313469Y0065469D02*
X0307469Y0065469D01*
X0307469Y0055469D02*
X0313469Y0055469D01*
X0313469Y0045469D02*
X0307469Y0045469D01*
X0307469Y0035469D02*
X0313469Y0035469D01*
X0313469Y0025469D02*
X0307469Y0025469D01*
X0327469Y0025469D02*
X0333469Y0025469D01*
X0333469Y0035469D02*
X0327469Y0035469D01*
X0327469Y0045469D02*
X0333469Y0045469D01*
X0333469Y0055469D02*
X0327469Y0055469D01*
X0327469Y0065469D02*
X0333469Y0065469D01*
X0333469Y0075469D02*
X0327469Y0075469D01*
X0327469Y0085469D02*
X0333469Y0085469D01*
X0333469Y0095469D02*
X0327469Y0095469D01*
X0467969Y0025969D02*
X0467969Y0019969D01*
X0477969Y0019969D02*
X0477969Y0025969D01*
X0487969Y0025969D02*
X0487969Y0019969D01*
X0497969Y0019969D02*
X0497969Y0025969D01*
X0507969Y0025969D02*
X0507969Y0019969D01*
X0517969Y0019969D02*
X0517969Y0025969D01*
X0527969Y0025969D02*
X0527969Y0019969D01*
X0537969Y0019969D02*
X0537969Y0025969D01*
D22*
X0489469Y0380469D03*
X0467969Y0380469D03*
X0446469Y0380469D03*
X0159469Y0380469D03*
X0137969Y0380469D03*
X0116469Y0380469D03*
D23*
X0445469Y0355469D03*
X0445469Y0265469D03*
D24*
X0529228Y0087299D03*
X0536709Y0087299D03*
X0532969Y0078638D03*
D25*
X0137969Y0270469D03*
X0132969Y0262969D03*
X0127969Y0270469D03*
D26*
X0064369Y0298069D02*
X0056569Y0298069D01*
X0056569Y0317869D02*
X0064369Y0317869D01*
X0064369Y0338069D02*
X0056569Y0338069D01*
X0056569Y0357869D02*
X0064369Y0357869D01*
X0584069Y0340169D02*
X0591869Y0340169D01*
X0591869Y0320469D02*
X0584069Y0320469D01*
X0584069Y0300769D02*
X0591869Y0300769D01*
X0591869Y0272669D02*
X0584069Y0272669D01*
X0584069Y0252969D02*
X0591869Y0252969D01*
X0591869Y0233269D02*
X0584069Y0233269D01*
X0584069Y0205169D02*
X0591869Y0205169D01*
X0591869Y0185469D02*
X0584069Y0185469D01*
X0584069Y0165769D02*
X0591869Y0165769D01*
X0591869Y0137669D02*
X0584069Y0137669D01*
X0584069Y0117969D02*
X0591869Y0117969D01*
X0591869Y0098269D02*
X0584069Y0098269D01*
D27*
X0022654Y0022654D03*
X0022654Y0373047D03*
X0587516Y0373047D03*
X0587516Y0022654D03*
D28*
X0089583Y0301866D03*
X0089583Y0341866D03*
D29*
X0290869Y0182669D03*
X0299969Y0182669D03*
X0309069Y0182669D03*
D30*
X0299969Y0158268D03*
D31*
X0125469Y0200469D03*
D32*
X0082669Y0200469D03*
X0082669Y0207169D03*
X0082669Y0213869D03*
X0082669Y0193769D03*
X0082669Y0187069D03*
D33*
X0072394Y0162969D02*
X0063544Y0162969D01*
X0123544Y0162969D02*
X0132394Y0162969D01*
D34*
X0067969Y0141925D03*
X0067969Y0049012D03*
D35*
X0110469Y0185469D03*
X0115469Y0185469D03*
X0120469Y0185469D03*
X0125469Y0185469D03*
X0130469Y0185469D03*
X0135469Y0185469D03*
X0140469Y0185469D03*
X0140469Y0192969D03*
X0135469Y0192969D03*
X0130469Y0192969D03*
X0125469Y0192969D03*
X0120469Y0192969D03*
X0115469Y0192969D03*
X0110469Y0192969D03*
X0110469Y0200469D03*
X0115469Y0200469D03*
X0120469Y0200469D03*
X0125469Y0200469D03*
X0130469Y0200469D03*
X0135469Y0200469D03*
X0140469Y0200469D03*
X0140469Y0207969D03*
X0135469Y0207969D03*
X0130469Y0207969D03*
X0125469Y0207969D03*
X0120469Y0207969D03*
X0115469Y0207969D03*
X0110469Y0207969D03*
X0110469Y0215469D03*
X0115469Y0215469D03*
X0120469Y0215469D03*
X0125469Y0215469D03*
X0130469Y0215469D03*
X0135469Y0215469D03*
X0140469Y0215469D03*
M02*
