%
M48
M72
T01C0.01181
T02C0.03150
T03C0.03200
T04C0.03600
T05C0.04000
T06C0.04400
T07C0.04528
T08C0.05200
T09C0.05906
T10C0.06600
T11C0.12598
%
T01
X332969Y155469
X375469Y172969
X387969Y177969
X397969Y155469
X439976Y160449
X479346Y160449
X491157Y160449
X497969Y167969
X377969Y265469
X532969Y325469
X152969Y322969
X137969Y332969
X130469Y322969
X137969Y347969
T02
X137969Y270469
X132969Y262969
X127969Y270469
T03
X60469Y195469
X60469Y185469
X172969Y113343
X182969Y113343
X265469Y113343
X275469Y113343
X360469Y75469
X370469Y75469
X380469Y75469
X390469Y75469
X400469Y75469
X410469Y75469
X420469Y75469
X430469Y75469
X430469Y45469
X420469Y45469
X410469Y45469
X400469Y45469
X390469Y45469
X380469Y45469
X370469Y45469
X360469Y45469
X370469Y107969
X380469Y107969
X390469Y107969
X400469Y107969
X410469Y107969
X420469Y107969
X430469Y107969
X440469Y107969
X467969Y107969
X477969Y107969
X487969Y107969
X497969Y107969
X507969Y107969
X517969Y107969
X527969Y107969
X537969Y107969
X537969Y137969
X527969Y137969
X517969Y137969
X507969Y137969
X497969Y137969
X487969Y137969
X477969Y137969
X467969Y137969
X440469Y137969
X430469Y137969
X420469Y137969
X410469Y137969
X400469Y137969
X390469Y137969
X380469Y137969
X370469Y137969
X370469Y212969
X380469Y212969
X390469Y212969
X400469Y212969
X410469Y212969
X420469Y212969
X420469Y242969
X410469Y242969
X400469Y242969
X390469Y242969
X380469Y242969
X370469Y242969
X360469Y242969
X360469Y212969
T04
X445469Y292969
X445469Y352969
X115469Y340469
X115469Y280469
T05
X90469Y280469
X90469Y289469
X90469Y271469
X192969Y292969
X212969Y292969
X310469Y292969
X330469Y292969
X420469Y292969
X420469Y301969
X420469Y283969
X247969Y205469
X247969Y195469
X247969Y185469
X152969Y185469
X152969Y195469
X152969Y205469
X152969Y95843
X152969Y85843
X152969Y75843
X152969Y65843
X152969Y55843
X152969Y45843
X152969Y35843
X152969Y25843
X247969Y25843
X247969Y35843
X247969Y45843
X247969Y55843
X247969Y65843
X247969Y75843
X247969Y85843
X247969Y95843
X307969Y95843
X317969Y95843
X317969Y85843
X317969Y75843
X307969Y75843
X307969Y85843
X307969Y65843
X317969Y65843
X317969Y55843
X307969Y55843
X307969Y45843
X317969Y45843
X317969Y35843
X307969Y35843
X307969Y25843
X317969Y25843
X467969Y20469
X477969Y20469
X487969Y20469
X497969Y20469
X507969Y20469
X517969Y20469
X527969Y20469
X537969Y20469
T06
X90469Y302969
X90469Y342969
T07
X502634Y185252
X512634Y185252
X517634Y176591
X507634Y176591
T08
X585469Y177669
X585469Y157969
X585469Y138269
X585469Y205769
X585469Y225469
X585469Y245169
X585469Y273269
X585469Y292969
X585469Y312669
X585469Y340769
X585469Y360469
X585469Y380169
X60469Y357869
X60469Y338069
X60469Y150369
X60469Y130569
T09
X288469Y381469
X310469Y381469
X332469Y381469
X468815Y235843
X468815Y225843
X468815Y215843
X551492Y215843
X551492Y225843
X551492Y235843
T10
X489469Y380469
X467969Y380469
X446469Y380469
X159469Y380469
X137969Y380469
X116469Y380469
T11
X22654Y22654
X22654Y373047
X625016Y373047
X625016Y22654
M30
