%
M48
M72
T01C0.00787
T02C0.01181
T03C0.01575
T04C0.03200
T05C0.04000
T06C0.04400
T07C0.04528
T08C0.05118
T09C0.05200
T10C0.05900
T11C0.06600
T12C0.07087
T13C0.08661
T14C0.12598
%
T01
X360469Y155469
X467969Y70469
X497969Y70469
T02
X517969Y72969
X532969Y72969
X557969Y52969
X590469Y60469
X570469Y87969
X547969Y97969
X570469Y107969
X562969Y137969
X552969Y137969
X547969Y160469
X527969Y167969
X527969Y172969
X520469Y187969
X515469Y192969
X510469Y192969
X520469Y205469
X497969Y205469
X477969Y195469
X452969Y210469
X432969Y192969
X417969Y165469
X397969Y155469
X392969Y170469
X387969Y170469
X387969Y177969
X390469Y187969
X390469Y200469
X390469Y222969
X350469Y222969
X325469Y245469
X350469Y252969
X377969Y265469
X390469Y290469
X367969Y305469
X340469Y300469
X340469Y292969
X340469Y285469
X292969Y250469
X277969Y220469
X300469Y200469
X300469Y192969
X272969Y175469
X287969Y157969
X295469Y150469
X305469Y150469
X310469Y157969
X277969Y137969
X277969Y120469
X277969Y105469
X232969Y105469
X232969Y120469
X232969Y142969
X187969Y120469
X187969Y105469
X137969Y75469
X90469Y95469
X67969Y95469
X42969Y95469
X67969Y70469
X67969Y120469
X145469Y140469
X180469Y145469
X225469Y187969
X235469Y222969
X202969Y222969
X157969Y197969
X90469Y200469
X52969Y182969
X45469Y182969
X37969Y182969
X37969Y235469
X45469Y235469
X52969Y235469
X92969Y255469
X125469Y260469
X140469Y260469
X155469Y267969
X190469Y257969
X232969Y267969
X260469Y290469
X222969Y302969
X222969Y310469
X222969Y317969
X277969Y322969
X332969Y357969
X370469Y357969
X415469Y380469
X427969Y370469
X502969Y327969
X532969Y325469
X542969Y335469
X510469Y357969
X555469Y380469
X450469Y317969
X425469Y310469
X420469Y310469
X415469Y310469
X452969Y290469
X510469Y280469
X557969Y262969
X520469Y240469
X507969Y225469
X497969Y240469
X450469Y247969
X432969Y247969
X345469Y185469
X340469Y185469
X332969Y195469
X332969Y200469
X360469Y177969
X375469Y172969
X365469Y165469
X360469Y130469
X350469Y112969
X345469Y97969
X345469Y92969
X370469Y95469
X387969Y95469
X395469Y117969
X397969Y127969
X405469Y127969
X452969Y137969
X465469Y122969
X452969Y115469
X460469Y107969
X467969Y97969
X467969Y92969
X460469Y87969
X452969Y92969
X480469Y122969
X497969Y122969
X515469Y122969
X517969Y97969
X465469Y57969
X460469Y50469
X437969Y47969
X437969Y55469
X460469Y22969
X460469Y17969
X465469Y12969
X470469Y12969
X480469Y10469
X490469Y10469
X505469Y10469
X515469Y10469
X535469Y12969
X540469Y12969
X545469Y17969
X545469Y22969
X360469Y40469
X352969Y50469
X222969Y17969
X177969Y17969
X135469Y17969
X120469Y17969
X115469Y17969
X110469Y17969
X465469Y165469
X472969Y160469
X485469Y160469
X492969Y160469
X497969Y167969
X547969Y192969
X570469Y177969
X587969Y147969
X192969Y362969
X137969Y330469
X130469Y322969
X152969Y322969
X160469Y315469
X117969Y280469
X102969Y302969
X62969Y282969
X17969Y280469
X17969Y310469
X17969Y342969
X65469Y380469
X82969Y340469
X85469Y332969
X92969Y332969
X95469Y340469
T03
X110469Y215469
X115469Y215469
X120469Y215469
X125469Y215469
X130469Y215469
X135469Y215469
X140469Y215469
X140469Y207969
X135469Y207969
X130469Y207969
X125469Y207969
X120469Y207969
X115469Y207969
X110469Y207969
X110469Y200469
X115469Y200469
X120469Y200469
X125469Y200469
X130469Y200469
X135469Y200469
X140469Y200469
X140469Y192969
X135469Y192969
X130469Y192969
X125469Y192969
X120469Y192969
X115469Y192969
X110469Y192969
X110469Y185469
X115469Y185469
X120469Y185469
X125469Y185469
X130469Y185469
X135469Y185469
X140469Y185469
T04
X177969Y112969
X187969Y112969
X222969Y113343
X232969Y113343
X267969Y113343
X277969Y113343
X360469Y80469
X370469Y80469
X380469Y80469
X390469Y80469
X400469Y80469
X410469Y80469
X420469Y80469
X430469Y80469
X430469Y107969
X420469Y107969
X410469Y107969
X400469Y107969
X390469Y107969
X380469Y107969
X370469Y107969
X370469Y137969
X380469Y137969
X390469Y137969
X400469Y137969
X410469Y137969
X420469Y137969
X430469Y137969
X440469Y137969
X467969Y137969
X477969Y137969
X487969Y137969
X497969Y137969
X507969Y137969
X517969Y137969
X527969Y137969
X537969Y137969
X537969Y107969
X527969Y107969
X517969Y107969
X507969Y107969
X497969Y107969
X487969Y107969
X477969Y107969
X467969Y107969
X440469Y107969
X430469Y50469
X420469Y50469
X410469Y50469
X400469Y50469
X390469Y50469
X380469Y50469
X370469Y50469
X360469Y50469
X360469Y212969
X370469Y212969
X380469Y212969
X390469Y212969
X400469Y212969
X410469Y212969
X420469Y212969
X420469Y242969
X410469Y242969
X400469Y242969
X390469Y242969
X380469Y242969
X370469Y242969
X360469Y242969
X137969Y270469
X132969Y262969
X127969Y270469
T05
X90469Y271469
X90469Y280469
X90469Y289469
X45469Y265469
X45469Y245469
X45469Y212969
X45469Y192969
X195469Y195469
X195469Y205469
X195469Y185469
X252969Y185469
X252969Y195469
X252969Y205469
X310469Y292969
X330469Y292969
X420469Y292969
X420469Y301969
X420469Y283969
X445469Y265469
X445469Y355469
X212969Y310469
X192969Y310469
X207969Y95843
X207969Y85843
X207969Y75843
X207969Y65843
X207969Y55843
X207969Y45843
X207969Y35843
X207969Y25843
X162969Y25469
X162969Y35469
X162969Y45469
X162969Y55469
X162969Y65469
X162969Y75469
X162969Y85469
X162969Y95469
X115469Y47969
X115469Y27969
X252969Y25843
X252969Y35843
X252969Y45843
X252969Y55843
X252969Y65843
X252969Y75843
X252969Y85843
X252969Y95843
X290469Y95469
X290469Y85469
X290469Y75469
X290469Y65469
X290469Y55469
X290469Y45469
X290469Y35469
X290469Y25469
X310469Y25469
X310469Y35469
X310469Y45469
X310469Y55469
X310469Y65469
X310469Y75469
X310469Y85469
X310469Y95469
X330469Y95469
X330469Y85469
X330469Y75469
X330469Y65469
X330469Y55469
X330469Y45469
X330469Y35469
X330469Y25469
X467969Y22969
X477969Y22969
X487969Y22969
X497969Y22969
X507969Y22969
X517969Y22969
X527969Y22969
X537969Y22969
T06
X89583Y301866
X89583Y341866
T07
X502634Y185252
X512634Y185252
X517634Y176591
X507634Y176591
T08
X468815Y215843
X468815Y225843
X468815Y235843
X551492Y235843
X551492Y225843
X551492Y215843
T09
X587969Y205169
X587969Y185469
X587969Y165769
X587969Y137669
X587969Y117969
X587969Y98269
X587969Y233269
X587969Y252969
X587969Y272669
X587969Y300769
X587969Y320469
X587969Y340169
X60469Y338069
X60469Y357869
X60469Y317869
X60469Y298069
T10
X67969Y162969
X127969Y162969
T11
X137969Y380469
X159469Y380469
X116469Y380469
X446469Y380469
X467969Y380469
X489469Y380469
T12
X332469Y381469
X310469Y381469
X288469Y381469
T13
X67969Y141925
X67969Y49012
T14
X22654Y22654
X22654Y373047
X587516Y373047
X587516Y22654
M30
