G75*
%MOIN*%
%OFA0B0*%
%FSLAX25Y25*%
%IPPOS*%
%LPD*%
%AMOC8*
5,1,8,0,0,1.08239X$1,22.5*
%
%ADD10R,0.05118X0.05906*%
%ADD11R,0.05906X0.05118*%
%ADD12OC8,0.06300*%
%ADD13C,0.06300*%
%ADD14C,0.10000*%
%ADD15OC8,0.10000*%
%ADD16C,0.10630*%
%ADD17C,0.07480*%
%ADD18C,0.12205*%
%ADD19C,0.05200*%
%ADD20C,0.06000*%
%ADD21OC8,0.15000*%
%ADD22OC8,0.06000*%
%ADD23R,0.03937X0.05512*%
%ADD24OC8,0.05200*%
%ADD25C,0.07800*%
%ADD26C,0.23000*%
%ADD27C,0.06600*%
%ADD28R,0.04800X0.08800*%
%ADD29R,0.14173X0.08661*%
%ADD30R,0.40984X0.42520*%
%ADD31R,0.08500X0.04200*%
%ADD32C,0.08850*%
%ADD33C,0.15000*%
%ADD34C,0.03937*%
%ADD35C,0.03175*%
%ADD36C,0.02781*%
%ADD37C,0.04331*%
%ADD38C,0.02600*%
%ADD39C,0.15000*%
%ADD40C,0.05906*%
%ADD41C,0.02000*%
%ADD42C,0.02387*%
%ADD43C,0.07874*%
D10*
X0139228Y0025469D03*
X0146709Y0025469D03*
X0181728Y0025843D03*
X0189209Y0025843D03*
X0226728Y0025843D03*
X0234209Y0025843D03*
X0351728Y0095469D03*
X0359209Y0095469D03*
X0499228Y0160469D03*
X0506709Y0160469D03*
X0519228Y0160469D03*
X0526709Y0160469D03*
X0556728Y0107969D03*
X0564209Y0107969D03*
X0564209Y0087969D03*
X0556728Y0087969D03*
X0419209Y0190469D03*
X0411728Y0190469D03*
X0369209Y0190469D03*
X0361728Y0190469D03*
X0324209Y0197969D03*
X0316728Y0197969D03*
X0332614Y0245803D03*
X0340094Y0245803D03*
X0361728Y0265469D03*
X0369209Y0265469D03*
X0369209Y0280469D03*
X0361728Y0280469D03*
X0464228Y0355469D03*
X0471709Y0355469D03*
X0141709Y0340469D03*
X0134228Y0340469D03*
D11*
X0137969Y0311709D03*
X0137969Y0304228D03*
X0127969Y0291709D03*
X0127969Y0284228D03*
X0155469Y0281709D03*
X0155469Y0274228D03*
X0155469Y0296728D03*
X0155469Y0304209D03*
X0212969Y0221709D03*
X0212969Y0214228D03*
X0115469Y0141709D03*
X0115469Y0134228D03*
X0342969Y0171728D03*
X0342969Y0179209D03*
X0390469Y0164209D03*
X0390469Y0156728D03*
X0485469Y0161728D03*
X0485469Y0169209D03*
X0557969Y0166728D03*
X0557969Y0174209D03*
X0557969Y0151709D03*
X0557969Y0144228D03*
X0517969Y0086709D03*
X0517969Y0079228D03*
X0497969Y0079228D03*
X0497969Y0086709D03*
X0467969Y0086709D03*
X0467969Y0079228D03*
X0440469Y0224228D03*
X0440469Y0231709D03*
X0420469Y0264228D03*
X0420469Y0271709D03*
X0390469Y0271709D03*
X0390469Y0264228D03*
X0340469Y0231709D03*
X0340469Y0224228D03*
X0525469Y0311728D03*
X0525469Y0319209D03*
X0525469Y0334228D03*
X0525469Y0341709D03*
D12*
X0277969Y0113343D03*
X0232969Y0113343D03*
X0187969Y0112969D03*
D13*
X0177969Y0112969D03*
X0222969Y0113343D03*
X0267969Y0113343D03*
D14*
X0115469Y0047969D03*
X0045469Y0212969D03*
X0045469Y0265469D03*
X0192969Y0310469D03*
X0310469Y0292969D03*
D15*
X0330469Y0292969D03*
X0212969Y0310469D03*
X0045469Y0245469D03*
X0045469Y0192969D03*
X0115469Y0027969D03*
D16*
X0288469Y0376154D02*
X0288469Y0386783D01*
X0310469Y0386783D02*
X0310469Y0376154D01*
X0332469Y0376154D02*
X0332469Y0386783D01*
D17*
X0502634Y0185252D03*
X0512634Y0185252D03*
X0517634Y0176591D03*
X0507634Y0176591D03*
D18*
X0468815Y0215843D03*
X0468815Y0225843D03*
X0468815Y0235843D03*
X0551492Y0235843D03*
X0551492Y0225843D03*
X0551492Y0215843D03*
D19*
X0537969Y0140569D02*
X0537969Y0135369D01*
X0527969Y0135369D02*
X0527969Y0140569D01*
X0517969Y0140569D02*
X0517969Y0135369D01*
X0507969Y0135369D02*
X0507969Y0140569D01*
X0497969Y0140569D02*
X0497969Y0135369D01*
X0487969Y0135369D02*
X0487969Y0140569D01*
X0477969Y0140569D02*
X0477969Y0135369D01*
X0467969Y0135369D02*
X0467969Y0140569D01*
X0440469Y0140569D02*
X0440469Y0135369D01*
X0430469Y0135369D02*
X0430469Y0140569D01*
X0420469Y0140569D02*
X0420469Y0135369D01*
X0410469Y0135369D02*
X0410469Y0140569D01*
X0400469Y0140569D02*
X0400469Y0135369D01*
X0390469Y0135369D02*
X0390469Y0140569D01*
X0380469Y0140569D02*
X0380469Y0135369D01*
X0370469Y0135369D02*
X0370469Y0140569D01*
X0370469Y0110569D02*
X0370469Y0105369D01*
X0380469Y0105369D02*
X0380469Y0110569D01*
X0390469Y0110569D02*
X0390469Y0105369D01*
X0400469Y0105369D02*
X0400469Y0110569D01*
X0410469Y0110569D02*
X0410469Y0105369D01*
X0420469Y0105369D02*
X0420469Y0110569D01*
X0430469Y0110569D02*
X0430469Y0105369D01*
X0440469Y0105369D02*
X0440469Y0110569D01*
X0467969Y0110569D02*
X0467969Y0105369D01*
X0477969Y0105369D02*
X0477969Y0110569D01*
X0487969Y0110569D02*
X0487969Y0105369D01*
X0497969Y0105369D02*
X0497969Y0110569D01*
X0507969Y0110569D02*
X0507969Y0105369D01*
X0517969Y0105369D02*
X0517969Y0110569D01*
X0527969Y0110569D02*
X0527969Y0105369D01*
X0537969Y0105369D02*
X0537969Y0110569D01*
X0430469Y0083069D02*
X0430469Y0077869D01*
X0420469Y0077869D02*
X0420469Y0083069D01*
X0410469Y0083069D02*
X0410469Y0077869D01*
X0400469Y0077869D02*
X0400469Y0083069D01*
X0390469Y0083069D02*
X0390469Y0077869D01*
X0380469Y0077869D02*
X0380469Y0083069D01*
X0370469Y0083069D02*
X0370469Y0077869D01*
X0360469Y0077869D02*
X0360469Y0083069D01*
X0360469Y0053069D02*
X0360469Y0047869D01*
X0370469Y0047869D02*
X0370469Y0053069D01*
X0380469Y0053069D02*
X0380469Y0047869D01*
X0390469Y0047869D02*
X0390469Y0053069D01*
X0400469Y0053069D02*
X0400469Y0047869D01*
X0410469Y0047869D02*
X0410469Y0053069D01*
X0420469Y0053069D02*
X0420469Y0047869D01*
X0430469Y0047869D02*
X0430469Y0053069D01*
X0420469Y0210369D02*
X0420469Y0215569D01*
X0410469Y0215569D02*
X0410469Y0210369D01*
X0400469Y0210369D02*
X0400469Y0215569D01*
X0390469Y0215569D02*
X0390469Y0210369D01*
X0380469Y0210369D02*
X0380469Y0215569D01*
X0370469Y0215569D02*
X0370469Y0210369D01*
X0360469Y0210369D02*
X0360469Y0215569D01*
X0360469Y0240369D02*
X0360469Y0245569D01*
X0370469Y0245569D02*
X0370469Y0240369D01*
X0380469Y0240369D02*
X0380469Y0245569D01*
X0390469Y0245569D02*
X0390469Y0240369D01*
X0400469Y0240369D02*
X0400469Y0245569D01*
X0410469Y0245569D02*
X0410469Y0240369D01*
X0420469Y0240369D02*
X0420469Y0245569D01*
D20*
X0417469Y0283969D02*
X0423469Y0283969D01*
X0423469Y0292969D02*
X0417469Y0292969D01*
X0417469Y0301969D02*
X0423469Y0301969D01*
X0255969Y0205469D02*
X0249969Y0205469D01*
X0249969Y0195469D02*
X0255969Y0195469D01*
X0255969Y0185469D02*
X0249969Y0185469D01*
X0198469Y0185469D02*
X0192469Y0185469D01*
X0192469Y0195469D02*
X0198469Y0195469D01*
X0198469Y0205469D02*
X0192469Y0205469D01*
X0093469Y0271469D02*
X0087469Y0271469D01*
X0087469Y0280469D02*
X0093469Y0280469D01*
X0093469Y0289469D02*
X0087469Y0289469D01*
X0204969Y0095843D02*
X0210969Y0095843D01*
X0210969Y0085843D02*
X0204969Y0085843D01*
X0204969Y0075843D02*
X0210969Y0075843D01*
X0210969Y0065843D02*
X0204969Y0065843D01*
X0204969Y0055843D02*
X0210969Y0055843D01*
X0210969Y0045843D02*
X0204969Y0045843D01*
X0204969Y0035843D02*
X0210969Y0035843D01*
X0210969Y0025843D02*
X0204969Y0025843D01*
X0165969Y0025469D02*
X0159969Y0025469D01*
X0159969Y0035469D02*
X0165969Y0035469D01*
X0165969Y0045469D02*
X0159969Y0045469D01*
X0159969Y0055469D02*
X0165969Y0055469D01*
X0165969Y0065469D02*
X0159969Y0065469D01*
X0159969Y0075469D02*
X0165969Y0075469D01*
X0165969Y0085469D02*
X0159969Y0085469D01*
X0159969Y0095469D02*
X0165969Y0095469D01*
X0249969Y0095843D02*
X0255969Y0095843D01*
X0255969Y0085843D02*
X0249969Y0085843D01*
X0249969Y0075843D02*
X0255969Y0075843D01*
X0255969Y0065843D02*
X0249969Y0065843D01*
X0249969Y0055843D02*
X0255969Y0055843D01*
X0255969Y0045843D02*
X0249969Y0045843D01*
X0249969Y0035843D02*
X0255969Y0035843D01*
X0255969Y0025843D02*
X0249969Y0025843D01*
X0287469Y0025469D02*
X0293469Y0025469D01*
X0293469Y0035469D02*
X0287469Y0035469D01*
X0287469Y0045469D02*
X0293469Y0045469D01*
X0293469Y0055469D02*
X0287469Y0055469D01*
X0287469Y0065469D02*
X0293469Y0065469D01*
X0293469Y0075469D02*
X0287469Y0075469D01*
X0287469Y0085469D02*
X0293469Y0085469D01*
X0293469Y0095469D02*
X0287469Y0095469D01*
X0307469Y0095469D02*
X0313469Y0095469D01*
X0313469Y0085469D02*
X0307469Y0085469D01*
X0307469Y0075469D02*
X0313469Y0075469D01*
X0313469Y0065469D02*
X0307469Y0065469D01*
X0307469Y0055469D02*
X0313469Y0055469D01*
X0313469Y0045469D02*
X0307469Y0045469D01*
X0307469Y0035469D02*
X0313469Y0035469D01*
X0313469Y0025469D02*
X0307469Y0025469D01*
X0327469Y0025469D02*
X0333469Y0025469D01*
X0333469Y0035469D02*
X0327469Y0035469D01*
X0327469Y0045469D02*
X0333469Y0045469D01*
X0333469Y0055469D02*
X0327469Y0055469D01*
X0327469Y0065469D02*
X0333469Y0065469D01*
X0333469Y0075469D02*
X0327469Y0075469D01*
X0327469Y0085469D02*
X0333469Y0085469D01*
X0333469Y0095469D02*
X0327469Y0095469D01*
X0467969Y0025969D02*
X0467969Y0019969D01*
X0477969Y0019969D02*
X0477969Y0025969D01*
X0487969Y0025969D02*
X0487969Y0019969D01*
X0497969Y0019969D02*
X0497969Y0025969D01*
X0507969Y0025969D02*
X0507969Y0019969D01*
X0517969Y0019969D02*
X0517969Y0025969D01*
X0527969Y0025969D02*
X0527969Y0019969D01*
X0537969Y0019969D02*
X0537969Y0025969D01*
D21*
X0489469Y0380469D03*
X0467969Y0380469D03*
X0446469Y0380469D03*
X0159469Y0380469D03*
X0137969Y0380469D03*
X0116469Y0380469D03*
D22*
X0445469Y0355469D03*
X0445469Y0265469D03*
D23*
X0529228Y0087299D03*
X0536709Y0087299D03*
X0532969Y0078638D03*
D24*
X0137969Y0270469D03*
X0132969Y0262969D03*
X0127969Y0270469D03*
D25*
X0064369Y0298069D02*
X0056569Y0298069D01*
X0056569Y0317869D02*
X0064369Y0317869D01*
X0064369Y0338069D02*
X0056569Y0338069D01*
X0056569Y0357869D02*
X0064369Y0357869D01*
X0584069Y0340169D02*
X0591869Y0340169D01*
X0591869Y0320469D02*
X0584069Y0320469D01*
X0584069Y0300769D02*
X0591869Y0300769D01*
X0591869Y0272669D02*
X0584069Y0272669D01*
X0584069Y0252969D02*
X0591869Y0252969D01*
X0591869Y0233269D02*
X0584069Y0233269D01*
X0584069Y0205169D02*
X0591869Y0205169D01*
X0591869Y0185469D02*
X0584069Y0185469D01*
X0584069Y0165769D02*
X0591869Y0165769D01*
X0591869Y0137669D02*
X0584069Y0137669D01*
X0584069Y0117969D02*
X0591869Y0117969D01*
X0591869Y0098269D02*
X0584069Y0098269D01*
D26*
X0587516Y0022654D03*
X0587516Y0373047D03*
X0022654Y0373047D03*
X0022654Y0022654D03*
D27*
X0089583Y0301866D03*
X0089583Y0341866D03*
D28*
X0290869Y0182669D03*
X0299969Y0182669D03*
X0309069Y0182669D03*
D29*
X0299969Y0158268D03*
D30*
X0125469Y0200469D03*
D31*
X0082669Y0200469D03*
X0082669Y0207169D03*
X0082669Y0213869D03*
X0082669Y0193769D03*
X0082669Y0187069D03*
D32*
X0072394Y0162969D02*
X0063544Y0162969D01*
X0123544Y0162969D02*
X0132394Y0162969D01*
D33*
X0067969Y0141925D03*
X0067969Y0049012D03*
D34*
X0018029Y0008937D02*
X0008937Y0008937D01*
X0008937Y0018029D01*
X0009014Y0017773D01*
X0009558Y0016460D01*
X0010229Y0015206D01*
X0011018Y0014024D01*
X0011920Y0012925D01*
X0012925Y0011920D01*
X0014024Y0011018D01*
X0015206Y0010229D01*
X0016460Y0009558D01*
X0017773Y0009014D01*
X0018029Y0008937D01*
X0014292Y0010840D02*
X0008937Y0010840D01*
X0008937Y0014775D02*
X0010517Y0014775D01*
X0021472Y0023835D02*
X0021472Y0037076D01*
X0020528Y0036983D01*
X0019134Y0036705D01*
X0017773Y0036293D01*
X0016460Y0035749D01*
X0015206Y0035079D01*
X0014024Y0034289D01*
X0012925Y0033387D01*
X0011920Y0032382D01*
X0011018Y0031283D01*
X0010229Y0030101D01*
X0009558Y0028847D01*
X0009014Y0027534D01*
X0008937Y0027279D01*
X0008937Y0368422D01*
X0009014Y0368167D01*
X0009558Y0366854D01*
X0010229Y0365600D01*
X0011018Y0364418D01*
X0011920Y0363319D01*
X0012925Y0362314D01*
X0014024Y0361412D01*
X0015206Y0360622D01*
X0016460Y0359952D01*
X0017773Y0359408D01*
X0019134Y0358995D01*
X0020528Y0358718D01*
X0021472Y0358625D01*
X0021472Y0371866D01*
X0023835Y0371866D01*
X0023835Y0374228D01*
X0037076Y0374228D01*
X0036983Y0375173D01*
X0036705Y0376567D01*
X0036293Y0377927D01*
X0035749Y0379241D01*
X0035079Y0380495D01*
X0034289Y0381677D01*
X0033387Y0382775D01*
X0032382Y0383781D01*
X0031283Y0384682D01*
X0030101Y0385472D01*
X0028847Y0386142D01*
X0027534Y0386686D01*
X0027279Y0386764D01*
X0103716Y0386764D01*
X0103000Y0386047D01*
X0103000Y0374890D01*
X0107547Y0370342D01*
X0107547Y0300164D01*
X0101324Y0293940D01*
X0101072Y0294549D01*
X0099390Y0296231D01*
X0099390Y0303641D01*
X0098032Y0306920D01*
X0095522Y0309429D01*
X0094848Y0309708D01*
X0094833Y0309724D01*
X0091426Y0311135D01*
X0087739Y0311135D01*
X0084332Y0309724D01*
X0081725Y0307116D01*
X0080314Y0303710D01*
X0080314Y0300023D01*
X0081547Y0297046D01*
X0081547Y0296231D01*
X0079865Y0294549D01*
X0078500Y0291252D01*
X0078500Y0287685D01*
X0079625Y0284969D01*
X0078500Y0282252D01*
X0078500Y0278685D01*
X0079625Y0275969D01*
X0078500Y0273252D01*
X0078500Y0269685D01*
X0079865Y0266388D01*
X0082388Y0263865D01*
X0085685Y0262500D01*
X0095252Y0262500D01*
X0098549Y0263865D01*
X0098883Y0264200D01*
X0122119Y0264200D01*
X0124419Y0261900D01*
X0127400Y0261900D01*
X0127400Y0260662D01*
X0130662Y0257400D01*
X0132968Y0257400D01*
X0132968Y0262968D01*
X0132969Y0262968D01*
X0132969Y0257400D01*
X0135275Y0257400D01*
X0138537Y0260662D01*
X0138537Y0261900D01*
X0141518Y0261900D01*
X0146537Y0266919D01*
X0146537Y0274018D01*
X0145237Y0275318D01*
X0145237Y0296952D01*
X0146547Y0296950D01*
X0146547Y0292982D01*
X0147456Y0290788D01*
X0148200Y0290044D01*
X0148200Y0288393D01*
X0147456Y0287649D01*
X0146547Y0285455D01*
X0146547Y0277962D01*
X0147456Y0275769D01*
X0149135Y0274090D01*
X0149547Y0273919D01*
X0149547Y0271377D01*
X0149661Y0270803D01*
X0149885Y0270263D01*
X0150210Y0269777D01*
X0150623Y0269363D01*
X0151110Y0269039D01*
X0151650Y0268815D01*
X0152223Y0268701D01*
X0155468Y0268701D01*
X0155468Y0273181D01*
X0155469Y0273181D01*
X0155469Y0268701D01*
X0158714Y0268701D01*
X0159287Y0268815D01*
X0159827Y0269039D01*
X0160314Y0269363D01*
X0160727Y0269777D01*
X0161052Y0270263D01*
X0161276Y0270803D01*
X0161390Y0271377D01*
X0161390Y0273919D01*
X0161802Y0274090D01*
X0163481Y0275769D01*
X0164390Y0277962D01*
X0164390Y0285455D01*
X0163481Y0287649D01*
X0162737Y0288393D01*
X0162737Y0290044D01*
X0163481Y0290788D01*
X0164390Y0292982D01*
X0164390Y0307955D01*
X0163481Y0310149D01*
X0161802Y0311828D01*
X0159608Y0312736D01*
X0151329Y0312736D01*
X0149135Y0311828D01*
X0148792Y0311485D01*
X0146890Y0311487D01*
X0146890Y0315455D01*
X0145981Y0317649D01*
X0145237Y0318393D01*
X0145237Y0328786D01*
X0145328Y0329005D01*
X0145328Y0331547D01*
X0145455Y0331547D01*
X0145700Y0331649D01*
X0145700Y0324651D01*
X0145609Y0324432D01*
X0145609Y0321505D01*
X0146730Y0318800D01*
X0148800Y0316730D01*
X0151505Y0315609D01*
X0154432Y0315609D01*
X0157137Y0316730D01*
X0159207Y0318800D01*
X0160328Y0321505D01*
X0160328Y0324432D01*
X0160237Y0324651D01*
X0160237Y0337458D01*
X0163586Y0340807D01*
X0165630Y0342851D01*
X0166737Y0345523D01*
X0166737Y0368690D01*
X0172937Y0374890D01*
X0172937Y0386047D01*
X0172221Y0386764D01*
X0275974Y0386764D01*
X0275918Y0386667D01*
X0275000Y0383242D01*
X0275000Y0358195D01*
X0275918Y0354770D01*
X0277691Y0351699D01*
X0302191Y0327199D01*
X0302191Y0327199D01*
X0304699Y0324691D01*
X0307770Y0322918D01*
X0311195Y0322000D01*
X0479742Y0322000D01*
X0483167Y0322918D01*
X0486238Y0324691D01*
X0488746Y0327199D01*
X0500246Y0338699D01*
X0502019Y0341770D01*
X0502937Y0345195D01*
X0502937Y0367000D01*
X0519271Y0367000D01*
X0518200Y0364414D01*
X0518200Y0348393D01*
X0517456Y0347649D01*
X0516547Y0345455D01*
X0516547Y0330482D01*
X0517456Y0328288D01*
X0518200Y0327544D01*
X0518200Y0325893D01*
X0517456Y0325149D01*
X0516547Y0322955D01*
X0516547Y0315462D01*
X0517456Y0313269D01*
X0519135Y0311590D01*
X0519547Y0311419D01*
X0519547Y0308877D01*
X0519661Y0308303D01*
X0519885Y0307763D01*
X0520210Y0307277D01*
X0520623Y0306863D01*
X0521110Y0306539D01*
X0521650Y0306315D01*
X0522223Y0306201D01*
X0525468Y0306201D01*
X0525468Y0310681D01*
X0525469Y0310681D01*
X0525469Y0306201D01*
X0528714Y0306201D01*
X0529287Y0306315D01*
X0529827Y0306539D01*
X0530314Y0306863D01*
X0530727Y0307277D01*
X0531052Y0307763D01*
X0531276Y0308303D01*
X0531390Y0308877D01*
X0531390Y0311419D01*
X0531802Y0311590D01*
X0533481Y0313269D01*
X0534390Y0315462D01*
X0534390Y0318109D01*
X0534432Y0318109D01*
X0537137Y0319230D01*
X0539207Y0321300D01*
X0540328Y0324005D01*
X0540328Y0326932D01*
X0539207Y0329637D01*
X0537137Y0331707D01*
X0534432Y0332828D01*
X0534390Y0332828D01*
X0534390Y0345455D01*
X0533481Y0347649D01*
X0532737Y0348393D01*
X0532737Y0354153D01*
X0552000Y0334890D01*
X0552000Y0311195D01*
X0552918Y0307770D01*
X0554691Y0304699D01*
X0557199Y0302191D01*
X0569399Y0289991D01*
X0572470Y0288218D01*
X0575895Y0287300D01*
X0589742Y0287300D01*
X0593167Y0288218D01*
X0596238Y0289991D01*
X0598746Y0292499D01*
X0600519Y0295570D01*
X0600743Y0296407D01*
X0601737Y0298806D01*
X0601737Y0302731D01*
X0600743Y0305130D01*
X0600519Y0305967D01*
X0598746Y0309038D01*
X0597166Y0310618D01*
X0598746Y0312199D01*
X0600519Y0315270D01*
X0600743Y0316107D01*
X0601737Y0318506D01*
X0601737Y0322431D01*
X0600743Y0324830D01*
X0600519Y0325667D01*
X0598746Y0328738D01*
X0597166Y0330318D01*
X0598746Y0331899D01*
X0600519Y0334970D01*
X0600743Y0335807D01*
X0601737Y0338206D01*
X0601737Y0342131D01*
X0600743Y0344530D01*
X0600519Y0345367D01*
X0598746Y0348438D01*
X0596238Y0350946D01*
X0593167Y0352719D01*
X0589742Y0353637D01*
X0571347Y0353637D01*
X0542488Y0382496D01*
X0538221Y0386764D01*
X0582891Y0386764D01*
X0582636Y0386686D01*
X0581322Y0386142D01*
X0580068Y0385472D01*
X0578886Y0384682D01*
X0577788Y0383781D01*
X0576782Y0382775D01*
X0575881Y0381677D01*
X0575091Y0380495D01*
X0574421Y0379241D01*
X0573877Y0377927D01*
X0573464Y0376567D01*
X0573187Y0375173D01*
X0573094Y0374228D01*
X0586335Y0374228D01*
X0586335Y0371866D01*
X0588697Y0371866D01*
X0588697Y0374228D01*
X0601938Y0374228D01*
X0601845Y0375173D01*
X0601568Y0376567D01*
X0601155Y0377927D01*
X0600611Y0379241D01*
X0599941Y0380495D01*
X0599151Y0381677D01*
X0598249Y0382775D01*
X0597244Y0383781D01*
X0596145Y0384682D01*
X0594963Y0385472D01*
X0593709Y0386142D01*
X0592396Y0386686D01*
X0592141Y0386764D01*
X0603299Y0386764D01*
X0603299Y0008937D01*
X0592141Y0008937D01*
X0592396Y0009014D01*
X0593709Y0009558D01*
X0594963Y0010229D01*
X0596145Y0011018D01*
X0597244Y0011920D01*
X0598249Y0012925D01*
X0599151Y0014024D01*
X0599941Y0015206D01*
X0600611Y0016460D01*
X0601155Y0017773D01*
X0601568Y0019134D01*
X0601845Y0020528D01*
X0601938Y0021472D01*
X0588697Y0021472D01*
X0588697Y0023835D01*
X0586335Y0023835D01*
X0586335Y0037076D01*
X0585390Y0036983D01*
X0583996Y0036705D01*
X0582636Y0036293D01*
X0581322Y0035749D01*
X0580068Y0035079D01*
X0578886Y0034289D01*
X0577788Y0033387D01*
X0576782Y0032382D01*
X0575881Y0031283D01*
X0575091Y0030101D01*
X0574421Y0028847D01*
X0573877Y0027534D01*
X0573464Y0026173D01*
X0573187Y0024779D01*
X0573094Y0023835D01*
X0586335Y0023835D01*
X0586335Y0021472D01*
X0573094Y0021472D01*
X0573187Y0020528D01*
X0573464Y0019134D01*
X0573877Y0017773D01*
X0574421Y0016460D01*
X0575091Y0015206D01*
X0575881Y0014024D01*
X0576782Y0012925D01*
X0577788Y0011920D01*
X0578886Y0011018D01*
X0580068Y0010229D01*
X0581322Y0009558D01*
X0582636Y0009014D01*
X0582891Y0008937D01*
X0027279Y0008937D01*
X0027534Y0009014D01*
X0028847Y0009558D01*
X0030101Y0010229D01*
X0031283Y0011018D01*
X0032382Y0011920D01*
X0033387Y0012925D01*
X0034289Y0014024D01*
X0035079Y0015206D01*
X0035749Y0016460D01*
X0036293Y0017773D01*
X0036705Y0019134D01*
X0036983Y0020528D01*
X0037076Y0021472D01*
X0023835Y0021472D01*
X0023835Y0023835D01*
X0021472Y0023835D01*
X0023835Y0023835D02*
X0023835Y0037076D01*
X0024779Y0036983D01*
X0026173Y0036705D01*
X0027534Y0036293D01*
X0028847Y0035749D01*
X0030101Y0035079D01*
X0031283Y0034289D01*
X0032382Y0033387D01*
X0033387Y0032382D01*
X0034289Y0031283D01*
X0035079Y0030101D01*
X0035749Y0028847D01*
X0036293Y0027534D01*
X0036705Y0026173D01*
X0036983Y0024779D01*
X0037076Y0023835D01*
X0023835Y0023835D01*
X0023835Y0022646D02*
X0109522Y0022646D01*
X0107500Y0024668D02*
X0112168Y0020000D01*
X0115468Y0020000D01*
X0115468Y0027968D01*
X0107500Y0027968D01*
X0107500Y0024668D01*
X0107500Y0026582D02*
X0036582Y0026582D01*
X0034800Y0030517D02*
X0107500Y0030517D01*
X0107500Y0031269D02*
X0107500Y0027969D01*
X0115468Y0027969D01*
X0115468Y0027968D01*
X0115469Y0027968D01*
X0115469Y0027969D01*
X0115468Y0027969D01*
X0115468Y0035937D01*
X0112168Y0035937D01*
X0107500Y0031269D01*
X0110684Y0034453D02*
X0031038Y0034453D01*
X0023835Y0034453D02*
X0021472Y0034453D01*
X0021472Y0030517D02*
X0023835Y0030517D01*
X0023835Y0026582D02*
X0021472Y0026582D01*
X0014270Y0034453D02*
X0008937Y0034453D01*
X0008937Y0038388D02*
X0059545Y0038388D01*
X0059699Y0038234D02*
X0062770Y0036461D01*
X0066195Y0035543D01*
X0069742Y0035543D01*
X0073167Y0036461D01*
X0076238Y0038234D01*
X0077110Y0039106D01*
X0108881Y0039106D01*
X0111235Y0037747D01*
X0114024Y0037000D01*
X0116913Y0037000D01*
X0119702Y0037747D01*
X0120249Y0038063D01*
X0134939Y0038063D01*
X0138580Y0039571D01*
X0144571Y0045563D01*
X0151000Y0045563D01*
X0151000Y0043685D01*
X0152332Y0040468D01*
X0151000Y0037252D01*
X0151000Y0034390D01*
X0142962Y0034390D01*
X0140769Y0033481D01*
X0139090Y0031802D01*
X0138919Y0031390D01*
X0136377Y0031390D01*
X0135803Y0031276D01*
X0135263Y0031052D01*
X0134777Y0030727D01*
X0134363Y0030314D01*
X0134039Y0029827D01*
X0133815Y0029287D01*
X0133701Y0028714D01*
X0133701Y0025469D01*
X0137787Y0025469D01*
X0137787Y0025468D01*
X0133701Y0025468D01*
X0133701Y0022223D01*
X0133815Y0021650D01*
X0134039Y0021110D01*
X0134363Y0020623D01*
X0134777Y0020210D01*
X0135263Y0019885D01*
X0135803Y0019661D01*
X0136377Y0019547D01*
X0138919Y0019547D01*
X0139090Y0019135D01*
X0140769Y0017456D01*
X0142962Y0016547D01*
X0158070Y0016547D01*
X0158185Y0016500D01*
X0158736Y0016500D01*
X0160998Y0015563D01*
X0164939Y0015563D01*
X0167201Y0016500D01*
X0167752Y0016500D01*
X0171049Y0017865D01*
X0173572Y0020388D01*
X0174937Y0023685D01*
X0174937Y0027252D01*
X0173605Y0030468D01*
X0174937Y0033685D01*
X0174937Y0037252D01*
X0173605Y0040468D01*
X0174937Y0043685D01*
X0174937Y0047252D01*
X0173605Y0050468D01*
X0174937Y0053685D01*
X0174937Y0057252D01*
X0173605Y0060468D01*
X0174937Y0063685D01*
X0174937Y0067252D01*
X0173605Y0070468D01*
X0174937Y0073685D01*
X0174937Y0077252D01*
X0173605Y0080468D01*
X0174937Y0083685D01*
X0174937Y0087252D01*
X0173605Y0090468D01*
X0174937Y0093685D01*
X0174937Y0095928D01*
X0185859Y0106850D01*
X0187968Y0106850D01*
X0187968Y0112968D01*
X0187969Y0112968D01*
X0187969Y0112969D01*
X0187968Y0112969D01*
X0187968Y0119087D01*
X0185859Y0119087D01*
X0183580Y0121366D01*
X0179939Y0122874D01*
X0175998Y0122874D01*
X0172357Y0121366D01*
X0157357Y0106366D01*
X0154571Y0103580D01*
X0153988Y0102171D01*
X0152365Y0100549D01*
X0151000Y0097252D01*
X0151000Y0093685D01*
X0152332Y0090468D01*
X0151000Y0087252D01*
X0151000Y0083685D01*
X0152332Y0080468D01*
X0151000Y0077252D01*
X0151000Y0073685D01*
X0152332Y0070468D01*
X0151000Y0067252D01*
X0151000Y0065374D01*
X0138498Y0065374D01*
X0134857Y0063866D01*
X0132071Y0061080D01*
X0128866Y0057874D01*
X0122737Y0057874D01*
X0122737Y0127544D01*
X0123481Y0128288D01*
X0124390Y0130482D01*
X0124390Y0145455D01*
X0123481Y0147649D01*
X0122737Y0148393D01*
X0122737Y0149414D01*
X0121630Y0152086D01*
X0105237Y0168479D01*
X0105237Y0176240D01*
X0123500Y0176240D01*
X0123500Y0198500D01*
X0102008Y0198500D01*
X0102008Y0194208D01*
X0098330Y0197886D01*
X0096286Y0199930D01*
X0093614Y0201037D01*
X0091328Y0201037D01*
X0091978Y0201688D01*
X0092887Y0203881D01*
X0092887Y0210456D01*
X0092861Y0210519D01*
X0092887Y0210581D01*
X0092887Y0217156D01*
X0091978Y0219349D01*
X0091415Y0219912D01*
X0098838Y0227335D01*
X0243063Y0227335D01*
X0243063Y0214390D01*
X0221890Y0214390D01*
X0221890Y0217975D01*
X0220981Y0220168D01*
X0219302Y0221847D01*
X0218890Y0222018D01*
X0218890Y0224560D01*
X0218776Y0225134D01*
X0218552Y0225674D01*
X0218227Y0226160D01*
X0217814Y0226573D01*
X0217327Y0226898D01*
X0216787Y0227122D01*
X0216214Y0227236D01*
X0212969Y0227236D01*
X0212969Y0223150D01*
X0212968Y0223150D01*
X0212968Y0227236D01*
X0209723Y0227236D01*
X0209150Y0227122D01*
X0208610Y0226898D01*
X0208123Y0226573D01*
X0207710Y0226160D01*
X0207385Y0225674D01*
X0207161Y0225134D01*
X0207047Y0224560D01*
X0207047Y0222018D01*
X0206635Y0221847D01*
X0204956Y0220168D01*
X0204047Y0217975D01*
X0204047Y0214390D01*
X0200366Y0214390D01*
X0200252Y0214437D01*
X0190685Y0214437D01*
X0187388Y0213072D01*
X0184865Y0210549D01*
X0183500Y0207252D01*
X0183500Y0203685D01*
X0184865Y0200388D01*
X0187125Y0198128D01*
X0186937Y0197760D01*
X0186647Y0196866D01*
X0186500Y0195938D01*
X0186500Y0195469D01*
X0195468Y0195469D01*
X0195468Y0195468D01*
X0186500Y0195468D01*
X0186500Y0194999D01*
X0186647Y0194071D01*
X0186937Y0193177D01*
X0187125Y0192809D01*
X0184865Y0190549D01*
X0183500Y0187252D01*
X0183500Y0183685D01*
X0184865Y0180388D01*
X0187388Y0177865D01*
X0190685Y0176500D01*
X0191236Y0176500D01*
X0193498Y0175563D01*
X0198063Y0175563D01*
X0198063Y0101620D01*
X0197365Y0100923D01*
X0196000Y0097626D01*
X0196000Y0094059D01*
X0197332Y0090843D01*
X0196000Y0087626D01*
X0196000Y0084059D01*
X0197332Y0080843D01*
X0196000Y0077626D01*
X0196000Y0074059D01*
X0197332Y0070843D01*
X0196000Y0067626D01*
X0196000Y0064059D01*
X0197332Y0060843D01*
X0196000Y0057626D01*
X0196000Y0054059D01*
X0197332Y0050843D01*
X0196000Y0047626D01*
X0196000Y0044059D01*
X0197332Y0040843D01*
X0196000Y0037626D01*
X0196000Y0034764D01*
X0185462Y0034764D01*
X0183269Y0033855D01*
X0181590Y0032176D01*
X0181419Y0031764D01*
X0178877Y0031764D01*
X0178303Y0031650D01*
X0177763Y0031426D01*
X0177277Y0031101D01*
X0176863Y0030688D01*
X0176539Y0030201D01*
X0176315Y0029661D01*
X0176201Y0029088D01*
X0176201Y0025843D01*
X0180287Y0025843D01*
X0180287Y0025842D01*
X0176201Y0025842D01*
X0176201Y0022597D01*
X0176315Y0022024D01*
X0176539Y0021484D01*
X0176863Y0020997D01*
X0177277Y0020584D01*
X0177763Y0020259D01*
X0178303Y0020035D01*
X0178877Y0019921D01*
X0181419Y0019921D01*
X0181590Y0019509D01*
X0183269Y0017830D01*
X0185462Y0016921D01*
X0203070Y0016921D01*
X0203185Y0016874D01*
X0203736Y0016874D01*
X0205998Y0015937D01*
X0209939Y0015937D01*
X0212201Y0016874D01*
X0212752Y0016874D01*
X0216049Y0018239D01*
X0218572Y0020762D01*
X0219937Y0024059D01*
X0219937Y0027626D01*
X0218605Y0030843D01*
X0219937Y0034059D01*
X0219937Y0037626D01*
X0218605Y0040843D01*
X0219937Y0044059D01*
X0219937Y0047626D01*
X0218605Y0050843D01*
X0219937Y0054059D01*
X0219937Y0057626D01*
X0218605Y0060843D01*
X0219937Y0064059D01*
X0219937Y0067626D01*
X0218605Y0070843D01*
X0219937Y0074059D01*
X0219937Y0077626D01*
X0218605Y0080843D01*
X0219937Y0084059D01*
X0219937Y0087626D01*
X0218605Y0090843D01*
X0219937Y0094059D01*
X0219937Y0097626D01*
X0218572Y0100923D01*
X0217874Y0101620D01*
X0217874Y0103437D01*
X0224939Y0103437D01*
X0228580Y0104945D01*
X0230859Y0107224D01*
X0232968Y0107224D01*
X0232968Y0113342D01*
X0232969Y0113342D01*
X0232969Y0113343D01*
X0232968Y0113343D01*
X0232968Y0119461D01*
X0230858Y0119461D01*
X0228580Y0121740D01*
X0224939Y0123248D01*
X0217874Y0123248D01*
X0217874Y0187439D01*
X0216366Y0191080D01*
X0213580Y0193866D01*
X0209939Y0195374D01*
X0204437Y0195374D01*
X0204437Y0195468D01*
X0195469Y0195468D01*
X0195469Y0195469D01*
X0204437Y0195469D01*
X0204437Y0195938D01*
X0204341Y0196547D01*
X0244096Y0196547D01*
X0244000Y0195938D01*
X0244000Y0195469D01*
X0252968Y0195469D01*
X0252968Y0195468D01*
X0244000Y0195468D01*
X0244000Y0194999D01*
X0244147Y0194071D01*
X0244437Y0193177D01*
X0244625Y0192809D01*
X0242365Y0190549D01*
X0241000Y0187252D01*
X0241000Y0183685D01*
X0242365Y0180388D01*
X0243063Y0179691D01*
X0243063Y0101620D01*
X0242365Y0100923D01*
X0241000Y0097626D01*
X0241000Y0094059D01*
X0242332Y0090843D01*
X0241000Y0087626D01*
X0241000Y0084059D01*
X0242332Y0080843D01*
X0241000Y0077626D01*
X0241000Y0074059D01*
X0242332Y0070843D01*
X0241000Y0067626D01*
X0241000Y0064059D01*
X0242332Y0060843D01*
X0241000Y0057626D01*
X0241000Y0054059D01*
X0242332Y0050843D01*
X0241000Y0047626D01*
X0241000Y0044059D01*
X0242332Y0040843D01*
X0241000Y0037626D01*
X0241000Y0034764D01*
X0230462Y0034764D01*
X0228269Y0033855D01*
X0226590Y0032176D01*
X0226419Y0031764D01*
X0223877Y0031764D01*
X0223303Y0031650D01*
X0222763Y0031426D01*
X0222277Y0031101D01*
X0221863Y0030688D01*
X0221539Y0030201D01*
X0221315Y0029661D01*
X0221201Y0029088D01*
X0221201Y0025843D01*
X0225287Y0025843D01*
X0225287Y0025842D01*
X0221201Y0025842D01*
X0221201Y0022597D01*
X0221315Y0022024D01*
X0221539Y0021484D01*
X0221863Y0020997D01*
X0222277Y0020584D01*
X0222763Y0020259D01*
X0223303Y0020035D01*
X0223877Y0019921D01*
X0226419Y0019921D01*
X0226590Y0019509D01*
X0228269Y0017830D01*
X0230462Y0016921D01*
X0248070Y0016921D01*
X0248185Y0016874D01*
X0248736Y0016874D01*
X0250998Y0015937D01*
X0254939Y0015937D01*
X0257201Y0016874D01*
X0257752Y0016874D01*
X0261049Y0018239D01*
X0263572Y0020762D01*
X0264937Y0024059D01*
X0264937Y0027626D01*
X0263605Y0030843D01*
X0264937Y0034059D01*
X0264937Y0037626D01*
X0263605Y0040843D01*
X0264937Y0044059D01*
X0264937Y0047626D01*
X0263605Y0050843D01*
X0264937Y0054059D01*
X0264937Y0057626D01*
X0263605Y0060843D01*
X0264937Y0064059D01*
X0264937Y0067626D01*
X0263605Y0070843D01*
X0264937Y0074059D01*
X0264937Y0077626D01*
X0263605Y0080843D01*
X0264937Y0084059D01*
X0264937Y0087626D01*
X0263605Y0090843D01*
X0264937Y0094059D01*
X0264937Y0097626D01*
X0263572Y0100923D01*
X0262874Y0101620D01*
X0262874Y0103437D01*
X0269939Y0103437D01*
X0273580Y0104945D01*
X0275859Y0107224D01*
X0277968Y0107224D01*
X0277968Y0113342D01*
X0277969Y0113342D01*
X0277969Y0113343D01*
X0277968Y0113343D01*
X0277968Y0119461D01*
X0275859Y0119461D01*
X0273580Y0121740D01*
X0269939Y0123248D01*
X0262874Y0123248D01*
X0262874Y0179691D01*
X0263572Y0180388D01*
X0264937Y0183685D01*
X0264937Y0187252D01*
X0263572Y0190549D01*
X0261312Y0192809D01*
X0261500Y0193177D01*
X0261790Y0194071D01*
X0261937Y0194999D01*
X0261937Y0195468D01*
X0252969Y0195468D01*
X0252969Y0195469D01*
X0261937Y0195469D01*
X0261937Y0195938D01*
X0261790Y0196866D01*
X0261500Y0197760D01*
X0261312Y0198128D01*
X0263572Y0200388D01*
X0264937Y0203685D01*
X0264937Y0207252D01*
X0263572Y0210549D01*
X0262874Y0211246D01*
X0262874Y0231366D01*
X0301645Y0270136D01*
X0301645Y0190486D01*
X0301609Y0190449D01*
X0301438Y0190037D01*
X0299969Y0190037D01*
X0299969Y0182669D01*
X0299968Y0182669D01*
X0299968Y0190037D01*
X0298499Y0190037D01*
X0298328Y0190449D01*
X0296649Y0192128D01*
X0294456Y0193037D01*
X0287281Y0193037D01*
X0285088Y0192128D01*
X0283409Y0190449D01*
X0282500Y0188256D01*
X0282500Y0177081D01*
X0283409Y0174888D01*
X0283600Y0174696D01*
X0283600Y0170283D01*
X0284707Y0167611D01*
X0286751Y0165566D01*
X0289423Y0164460D01*
X0290555Y0164460D01*
X0290251Y0164005D01*
X0290027Y0163464D01*
X0289913Y0162891D01*
X0289913Y0158465D01*
X0299772Y0158465D01*
X0299772Y0158071D01*
X0300165Y0158071D01*
X0300165Y0150969D01*
X0307347Y0150969D01*
X0307921Y0151083D01*
X0308461Y0151306D01*
X0308947Y0151631D01*
X0309361Y0152045D01*
X0309686Y0152531D01*
X0309910Y0153071D01*
X0310024Y0153645D01*
X0310024Y0158071D01*
X0300165Y0158071D01*
X0300165Y0158465D01*
X0310024Y0158465D01*
X0310024Y0162891D01*
X0309910Y0163464D01*
X0309686Y0164005D01*
X0309382Y0164460D01*
X0335700Y0164460D01*
X0335700Y0164023D01*
X0336807Y0161351D01*
X0338851Y0159307D01*
X0348851Y0149307D01*
X0351523Y0148200D01*
X0361914Y0148200D01*
X0364586Y0149307D01*
X0366630Y0151351D01*
X0367737Y0154023D01*
X0367737Y0156914D01*
X0366630Y0159586D01*
X0364586Y0161630D01*
X0361914Y0162737D01*
X0355979Y0162737D01*
X0351551Y0167165D01*
X0351890Y0167982D01*
X0351890Y0175475D01*
X0350981Y0177668D01*
X0349302Y0179347D01*
X0348890Y0179518D01*
X0348890Y0182060D01*
X0348776Y0182634D01*
X0348552Y0183174D01*
X0348227Y0183660D01*
X0347814Y0184073D01*
X0347327Y0184398D01*
X0346787Y0184622D01*
X0346214Y0184736D01*
X0342969Y0184736D01*
X0342969Y0180256D01*
X0342968Y0180256D01*
X0342968Y0184736D01*
X0339723Y0184736D01*
X0339150Y0184622D01*
X0338610Y0184398D01*
X0338123Y0184073D01*
X0337710Y0183660D01*
X0337385Y0183174D01*
X0337161Y0182634D01*
X0337047Y0182060D01*
X0337047Y0179518D01*
X0336635Y0179347D01*
X0336284Y0178997D01*
X0317437Y0178997D01*
X0317437Y0188256D01*
X0317109Y0189047D01*
X0320475Y0189047D01*
X0322668Y0189956D01*
X0324347Y0191635D01*
X0324518Y0192047D01*
X0327060Y0192047D01*
X0327634Y0192161D01*
X0328174Y0192385D01*
X0328660Y0192710D01*
X0329073Y0193123D01*
X0329398Y0193610D01*
X0329622Y0194150D01*
X0329736Y0194723D01*
X0329736Y0197968D01*
X0325256Y0197968D01*
X0325256Y0197969D01*
X0329736Y0197969D01*
X0329736Y0201214D01*
X0329622Y0201787D01*
X0329398Y0202327D01*
X0329073Y0202814D01*
X0328660Y0203227D01*
X0328174Y0203552D01*
X0327634Y0203776D01*
X0327060Y0203890D01*
X0324518Y0203890D01*
X0324347Y0204302D01*
X0322668Y0205981D01*
X0320475Y0206890D01*
X0316182Y0206890D01*
X0316182Y0283602D01*
X0317203Y0284192D01*
X0319245Y0286234D01*
X0320690Y0288735D01*
X0321437Y0291524D01*
X0321437Y0294413D01*
X0320690Y0297202D01*
X0319245Y0299703D01*
X0317203Y0301745D01*
X0314702Y0303190D01*
X0311913Y0303937D01*
X0309024Y0303937D01*
X0306235Y0303190D01*
X0303734Y0301745D01*
X0301692Y0299703D01*
X0300247Y0297202D01*
X0300084Y0296593D01*
X0247357Y0243866D01*
X0247094Y0243602D01*
X0093851Y0243602D01*
X0090861Y0242364D01*
X0088573Y0240076D01*
X0076073Y0227576D01*
X0074835Y0224586D01*
X0074835Y0222002D01*
X0051758Y0222002D01*
X0049702Y0223190D01*
X0046913Y0223937D01*
X0044024Y0223937D01*
X0041235Y0223190D01*
X0038734Y0221745D01*
X0036692Y0219703D01*
X0035247Y0217202D01*
X0034500Y0214413D01*
X0034500Y0211524D01*
X0035247Y0208735D01*
X0036692Y0206234D01*
X0038734Y0204192D01*
X0041235Y0202747D01*
X0044024Y0202000D01*
X0046913Y0202000D01*
X0049702Y0202747D01*
X0052203Y0204192D01*
X0053746Y0205735D01*
X0061732Y0205735D01*
X0061073Y0205076D01*
X0059835Y0202086D01*
X0059835Y0172735D01*
X0059532Y0172654D01*
X0057162Y0171285D01*
X0055227Y0169350D01*
X0053858Y0166980D01*
X0053150Y0164337D01*
X0053150Y0161600D01*
X0053858Y0158957D01*
X0055227Y0156587D01*
X0057162Y0154652D01*
X0059532Y0153283D01*
X0059835Y0153202D01*
X0059835Y0152781D01*
X0059699Y0152703D01*
X0057191Y0150195D01*
X0055418Y0147124D01*
X0054500Y0143698D01*
X0054500Y0140152D01*
X0055418Y0136727D01*
X0057191Y0133655D01*
X0059699Y0131148D01*
X0062770Y0129375D01*
X0066195Y0128457D01*
X0069742Y0128457D01*
X0073167Y0129375D01*
X0076238Y0131148D01*
X0078746Y0133655D01*
X0080519Y0136727D01*
X0081437Y0140152D01*
X0081437Y0143698D01*
X0080519Y0147124D01*
X0078746Y0150195D01*
X0076238Y0152703D01*
X0076102Y0152781D01*
X0076102Y0153202D01*
X0076405Y0153283D01*
X0078775Y0154652D01*
X0080710Y0156587D01*
X0082079Y0158957D01*
X0082787Y0161600D01*
X0082787Y0164337D01*
X0082079Y0166980D01*
X0080710Y0169350D01*
X0078775Y0171285D01*
X0076405Y0172654D01*
X0076102Y0172735D01*
X0076102Y0183092D01*
X0076113Y0183076D01*
X0076526Y0182663D01*
X0077012Y0182338D01*
X0077553Y0182114D01*
X0078126Y0182000D01*
X0082668Y0182000D01*
X0082668Y0185700D01*
X0082669Y0185700D01*
X0082669Y0182000D01*
X0087211Y0182000D01*
X0087784Y0182114D01*
X0088325Y0182338D01*
X0088811Y0182663D01*
X0089224Y0183076D01*
X0089549Y0183562D01*
X0089773Y0184103D01*
X0089887Y0184676D01*
X0089887Y0185771D01*
X0090700Y0184958D01*
X0090700Y0164023D01*
X0091807Y0161351D01*
X0093851Y0159307D01*
X0106886Y0146272D01*
X0106547Y0145455D01*
X0106547Y0130482D01*
X0107456Y0128288D01*
X0108200Y0127544D01*
X0108200Y0058917D01*
X0077110Y0058917D01*
X0076238Y0059789D01*
X0073167Y0061562D01*
X0069742Y0062480D01*
X0066195Y0062480D01*
X0062770Y0061562D01*
X0059699Y0059789D01*
X0057191Y0057282D01*
X0055418Y0054210D01*
X0054500Y0050785D01*
X0054500Y0047239D01*
X0055418Y0043813D01*
X0057191Y0040742D01*
X0059699Y0038234D01*
X0056278Y0042324D02*
X0008937Y0042324D01*
X0008937Y0046259D02*
X0054762Y0046259D01*
X0054500Y0050195D02*
X0008937Y0050195D01*
X0008937Y0054130D02*
X0055396Y0054130D01*
X0057975Y0058066D02*
X0008937Y0058066D01*
X0008937Y0062001D02*
X0064408Y0062001D01*
X0071529Y0062001D02*
X0108200Y0062001D01*
X0108200Y0065937D02*
X0008937Y0065937D01*
X0008937Y0069872D02*
X0108200Y0069872D01*
X0108200Y0073808D02*
X0008937Y0073808D01*
X0008937Y0077743D02*
X0108200Y0077743D01*
X0108200Y0081679D02*
X0008937Y0081679D01*
X0008937Y0085614D02*
X0108200Y0085614D01*
X0108200Y0089550D02*
X0008937Y0089550D01*
X0008937Y0093485D02*
X0108200Y0093485D01*
X0108200Y0097421D02*
X0008937Y0097421D01*
X0008937Y0101356D02*
X0108200Y0101356D01*
X0108200Y0105292D02*
X0008937Y0105292D01*
X0008937Y0109228D02*
X0108200Y0109228D01*
X0108200Y0113163D02*
X0008937Y0113163D01*
X0008937Y0117099D02*
X0108200Y0117099D01*
X0108200Y0121034D02*
X0008937Y0121034D01*
X0008937Y0124970D02*
X0108200Y0124970D01*
X0107200Y0128905D02*
X0071415Y0128905D01*
X0064522Y0128905D02*
X0008937Y0128905D01*
X0008937Y0132841D02*
X0058006Y0132841D01*
X0055405Y0136776D02*
X0008937Y0136776D01*
X0008937Y0140712D02*
X0054500Y0140712D01*
X0054754Y0144647D02*
X0008937Y0144647D01*
X0008937Y0148583D02*
X0056260Y0148583D01*
X0059514Y0152518D02*
X0008937Y0152518D01*
X0008937Y0156454D02*
X0055360Y0156454D01*
X0053474Y0160389D02*
X0008937Y0160389D01*
X0008937Y0164325D02*
X0053150Y0164325D01*
X0054597Y0168260D02*
X0008937Y0168260D01*
X0008937Y0172196D02*
X0058739Y0172196D01*
X0059835Y0176131D02*
X0008937Y0176131D01*
X0008937Y0180067D02*
X0059835Y0180067D01*
X0059835Y0184002D02*
X0008937Y0184002D01*
X0008937Y0187938D02*
X0039230Y0187938D01*
X0037500Y0189668D02*
X0042168Y0185000D01*
X0045468Y0185000D01*
X0045468Y0192968D01*
X0037500Y0192968D01*
X0037500Y0189668D01*
X0037500Y0191873D02*
X0008937Y0191873D01*
X0008937Y0195809D02*
X0037500Y0195809D01*
X0037500Y0196269D02*
X0037500Y0192969D01*
X0045468Y0192969D01*
X0045468Y0192968D01*
X0045469Y0192968D01*
X0045469Y0192969D01*
X0045468Y0192969D01*
X0045468Y0200937D01*
X0042168Y0200937D01*
X0037500Y0196269D01*
X0040975Y0199744D02*
X0008937Y0199744D01*
X0008937Y0203680D02*
X0039620Y0203680D01*
X0035894Y0207616D02*
X0008937Y0207616D01*
X0008937Y0211551D02*
X0034500Y0211551D01*
X0034788Y0215487D02*
X0008937Y0215487D01*
X0008937Y0219422D02*
X0036529Y0219422D01*
X0041862Y0223358D02*
X0008937Y0223358D01*
X0008937Y0227293D02*
X0075956Y0227293D01*
X0074835Y0223358D02*
X0049075Y0223358D01*
X0048769Y0237500D02*
X0053437Y0242168D01*
X0053437Y0245468D01*
X0045469Y0245468D01*
X0045469Y0245469D01*
X0045468Y0245469D01*
X0045468Y0245468D01*
X0037500Y0245468D01*
X0037500Y0242168D01*
X0042168Y0237500D01*
X0045468Y0237500D01*
X0045468Y0245468D01*
X0045469Y0245468D01*
X0045469Y0237500D01*
X0048769Y0237500D01*
X0050369Y0239100D02*
X0087597Y0239100D01*
X0088573Y0240076D02*
X0088573Y0240076D01*
X0092481Y0243035D02*
X0053437Y0243035D01*
X0053437Y0245469D02*
X0053437Y0248769D01*
X0048769Y0253437D01*
X0045469Y0253437D01*
X0045469Y0245469D01*
X0053437Y0245469D01*
X0053437Y0246971D02*
X0250462Y0246971D01*
X0254398Y0250906D02*
X0051300Y0250906D01*
X0049702Y0255247D02*
X0052203Y0256692D01*
X0054245Y0258734D01*
X0055690Y0261235D01*
X0056437Y0264024D01*
X0056437Y0266913D01*
X0055690Y0269702D01*
X0054245Y0272203D01*
X0052203Y0274245D01*
X0049702Y0275690D01*
X0046913Y0276437D01*
X0044024Y0276437D01*
X0041235Y0275690D01*
X0038734Y0274245D01*
X0036692Y0272203D01*
X0035247Y0269702D01*
X0034500Y0266913D01*
X0034500Y0264024D01*
X0035247Y0261235D01*
X0036692Y0258734D01*
X0038734Y0256692D01*
X0041235Y0255247D01*
X0044024Y0254500D01*
X0046913Y0254500D01*
X0049702Y0255247D01*
X0048188Y0254842D02*
X0258333Y0254842D01*
X0262269Y0258777D02*
X0136652Y0258777D01*
X0132969Y0258777D02*
X0132968Y0258777D01*
X0129285Y0258777D02*
X0054271Y0258777D01*
X0056086Y0262713D02*
X0085171Y0262713D01*
X0079758Y0266648D02*
X0056437Y0266648D01*
X0055181Y0270584D02*
X0078500Y0270584D01*
X0079025Y0274519D02*
X0051729Y0274519D01*
X0039208Y0274519D02*
X0008937Y0274519D01*
X0008937Y0270584D02*
X0035756Y0270584D01*
X0034500Y0266648D02*
X0008937Y0266648D01*
X0008937Y0262713D02*
X0034851Y0262713D01*
X0036666Y0258777D02*
X0008937Y0258777D01*
X0008937Y0254842D02*
X0042749Y0254842D01*
X0042168Y0253437D02*
X0037500Y0248769D01*
X0037500Y0245469D01*
X0045468Y0245469D01*
X0045468Y0253437D01*
X0042168Y0253437D01*
X0039637Y0250906D02*
X0008937Y0250906D01*
X0008937Y0246971D02*
X0037500Y0246971D01*
X0037500Y0243035D02*
X0008937Y0243035D01*
X0008937Y0239100D02*
X0040568Y0239100D01*
X0045468Y0239100D02*
X0045469Y0239100D01*
X0045468Y0243035D02*
X0045469Y0243035D01*
X0045468Y0246971D02*
X0045469Y0246971D01*
X0045468Y0250906D02*
X0045469Y0250906D01*
X0079726Y0231229D02*
X0008937Y0231229D01*
X0008937Y0235164D02*
X0083661Y0235164D01*
X0094861Y0223358D02*
X0102495Y0223358D01*
X0102346Y0223134D02*
X0102122Y0222594D01*
X0102008Y0222021D01*
X0102008Y0202437D01*
X0123500Y0202437D01*
X0123500Y0198500D01*
X0127437Y0198500D01*
X0127437Y0202437D01*
X0123500Y0202437D01*
X0123500Y0224697D01*
X0104684Y0224697D01*
X0104110Y0224583D01*
X0103570Y0224359D01*
X0103084Y0224034D01*
X0102671Y0223621D01*
X0102346Y0223134D01*
X0102008Y0219422D02*
X0091906Y0219422D01*
X0092887Y0215487D02*
X0102008Y0215487D01*
X0102008Y0211551D02*
X0092887Y0211551D01*
X0092887Y0207616D02*
X0102008Y0207616D01*
X0102008Y0203680D02*
X0092804Y0203680D01*
X0096472Y0199744D02*
X0123500Y0199744D01*
X0123500Y0195809D02*
X0127437Y0195809D01*
X0127437Y0198500D02*
X0127437Y0176240D01*
X0146253Y0176240D01*
X0146827Y0176354D01*
X0147367Y0176578D01*
X0147853Y0176903D01*
X0148266Y0177316D01*
X0148591Y0177803D01*
X0148815Y0178343D01*
X0148929Y0178916D01*
X0148929Y0198500D01*
X0127437Y0198500D01*
X0127437Y0199744D02*
X0185509Y0199744D01*
X0186500Y0195809D02*
X0148929Y0195809D01*
X0148929Y0191873D02*
X0186190Y0191873D01*
X0183784Y0187938D02*
X0148929Y0187938D01*
X0148929Y0184002D02*
X0183500Y0184002D01*
X0185187Y0180067D02*
X0148929Y0180067D01*
X0137279Y0168539D02*
X0136510Y0169129D01*
X0135671Y0169614D01*
X0134775Y0169985D01*
X0133839Y0170235D01*
X0132878Y0170362D01*
X0127969Y0170362D01*
X0127969Y0162969D01*
X0127968Y0162969D01*
X0127968Y0162968D01*
X0127969Y0162968D01*
X0127969Y0155575D01*
X0132878Y0155575D01*
X0133839Y0155702D01*
X0134775Y0155952D01*
X0135671Y0156323D01*
X0136510Y0156808D01*
X0137279Y0157398D01*
X0137964Y0158083D01*
X0138554Y0158852D01*
X0139039Y0159691D01*
X0139410Y0160587D01*
X0139660Y0161523D01*
X0139787Y0162484D01*
X0139787Y0162968D01*
X0127969Y0162968D01*
X0127969Y0162969D01*
X0139787Y0162969D01*
X0139787Y0163453D01*
X0139660Y0164414D01*
X0139410Y0165350D01*
X0139039Y0166246D01*
X0138554Y0167085D01*
X0137964Y0167854D01*
X0137279Y0168539D01*
X0137558Y0168260D02*
X0198063Y0168260D01*
X0198063Y0164325D02*
X0139672Y0164325D01*
X0139328Y0160389D02*
X0198063Y0160389D01*
X0198063Y0156454D02*
X0135897Y0156454D01*
X0127969Y0156454D02*
X0127968Y0156454D01*
X0127968Y0155575D02*
X0127968Y0162968D01*
X0116150Y0162968D01*
X0116150Y0162484D01*
X0116277Y0161523D01*
X0116527Y0160587D01*
X0116898Y0159691D01*
X0117383Y0158852D01*
X0117973Y0158083D01*
X0118658Y0157398D01*
X0119427Y0156808D01*
X0120266Y0156323D01*
X0121162Y0155952D01*
X0122098Y0155702D01*
X0123059Y0155575D01*
X0127968Y0155575D01*
X0127968Y0160389D02*
X0127969Y0160389D01*
X0127968Y0162969D02*
X0116150Y0162969D01*
X0116150Y0163453D01*
X0116277Y0164414D01*
X0116527Y0165350D01*
X0116898Y0166246D01*
X0117383Y0167085D01*
X0117973Y0167854D01*
X0118658Y0168539D01*
X0119427Y0169129D01*
X0120266Y0169614D01*
X0121162Y0169985D01*
X0122098Y0170235D01*
X0123059Y0170362D01*
X0127968Y0170362D01*
X0127968Y0162969D01*
X0127968Y0164325D02*
X0127969Y0164325D01*
X0127968Y0168260D02*
X0127969Y0168260D01*
X0118379Y0168260D02*
X0105456Y0168260D01*
X0105237Y0172196D02*
X0198063Y0172196D01*
X0192126Y0176131D02*
X0105237Y0176131D01*
X0109391Y0164325D02*
X0116265Y0164325D01*
X0116609Y0160389D02*
X0113327Y0160389D01*
X0117262Y0156454D02*
X0120040Y0156454D01*
X0121198Y0152518D02*
X0198063Y0152518D01*
X0198063Y0148583D02*
X0122737Y0148583D01*
X0124390Y0144647D02*
X0198063Y0144647D01*
X0198063Y0140712D02*
X0124390Y0140712D01*
X0124390Y0136776D02*
X0198063Y0136776D01*
X0198063Y0132841D02*
X0124390Y0132841D01*
X0123737Y0128905D02*
X0198063Y0128905D01*
X0198063Y0124970D02*
X0122737Y0124970D01*
X0122737Y0121034D02*
X0172026Y0121034D01*
X0168090Y0117099D02*
X0122737Y0117099D01*
X0122737Y0113163D02*
X0164155Y0113163D01*
X0160219Y0109228D02*
X0122737Y0109228D01*
X0122737Y0105292D02*
X0156284Y0105292D01*
X0153173Y0101356D02*
X0122737Y0101356D01*
X0122737Y0097421D02*
X0151070Y0097421D01*
X0151082Y0093485D02*
X0122737Y0093485D01*
X0122737Y0089550D02*
X0151952Y0089550D01*
X0151000Y0085614D02*
X0122737Y0085614D01*
X0122737Y0081679D02*
X0151831Y0081679D01*
X0151203Y0077743D02*
X0122737Y0077743D01*
X0122737Y0073808D02*
X0151000Y0073808D01*
X0152085Y0069872D02*
X0122737Y0069872D01*
X0122737Y0065937D02*
X0151000Y0065937D01*
X0132993Y0062001D02*
X0122737Y0062001D01*
X0122737Y0058066D02*
X0129057Y0058066D01*
X0141332Y0042324D02*
X0151564Y0042324D01*
X0151470Y0038388D02*
X0135724Y0038388D01*
X0134567Y0030517D02*
X0123437Y0030517D01*
X0123437Y0031269D02*
X0118769Y0035937D01*
X0115469Y0035937D01*
X0115469Y0027969D01*
X0123437Y0027969D01*
X0123437Y0031269D01*
X0123437Y0027968D02*
X0115469Y0027968D01*
X0115469Y0020000D01*
X0118769Y0020000D01*
X0123437Y0024668D01*
X0123437Y0027968D01*
X0123437Y0026582D02*
X0133701Y0026582D01*
X0133701Y0022646D02*
X0121415Y0022646D01*
X0115469Y0022646D02*
X0115468Y0022646D01*
X0115468Y0026582D02*
X0115469Y0026582D01*
X0115468Y0030517D02*
X0115469Y0030517D01*
X0115468Y0034453D02*
X0115469Y0034453D01*
X0120253Y0034453D02*
X0151000Y0034453D01*
X0139514Y0018711D02*
X0036577Y0018711D01*
X0034790Y0014775D02*
X0465014Y0014775D01*
X0464840Y0014864D02*
X0465677Y0014437D01*
X0466571Y0014147D01*
X0467499Y0014000D01*
X0467968Y0014000D01*
X0467968Y0022968D01*
X0467969Y0022968D01*
X0467969Y0014000D01*
X0468438Y0014000D01*
X0469366Y0014147D01*
X0470260Y0014437D01*
X0470628Y0014625D01*
X0472888Y0012365D01*
X0476185Y0011000D01*
X0479752Y0011000D01*
X0482968Y0012332D01*
X0486185Y0011000D01*
X0489752Y0011000D01*
X0492968Y0012332D01*
X0496185Y0011000D01*
X0499752Y0011000D01*
X0502969Y0012332D01*
X0506185Y0011000D01*
X0509752Y0011000D01*
X0512968Y0012332D01*
X0516185Y0011000D01*
X0519752Y0011000D01*
X0522968Y0012332D01*
X0526185Y0011000D01*
X0529752Y0011000D01*
X0533049Y0012365D01*
X0535309Y0014625D01*
X0535677Y0014437D01*
X0536571Y0014147D01*
X0537499Y0014000D01*
X0537968Y0014000D01*
X0537968Y0022968D01*
X0537969Y0022968D01*
X0537969Y0022969D01*
X0537968Y0022969D01*
X0537968Y0031937D01*
X0537499Y0031937D01*
X0536571Y0031790D01*
X0535677Y0031500D01*
X0535309Y0031312D01*
X0533049Y0033572D01*
X0529752Y0034937D01*
X0526185Y0034937D01*
X0522968Y0033605D01*
X0519752Y0034937D01*
X0516185Y0034937D01*
X0515237Y0034545D01*
X0515237Y0073701D01*
X0517968Y0073701D01*
X0517968Y0078181D01*
X0517969Y0078181D01*
X0517969Y0073701D01*
X0521214Y0073701D01*
X0521787Y0073815D01*
X0522327Y0074039D01*
X0522814Y0074363D01*
X0523227Y0074777D01*
X0523552Y0075263D01*
X0523776Y0075803D01*
X0523890Y0076377D01*
X0523890Y0078919D01*
X0524302Y0079090D01*
X0524457Y0079244D01*
X0526073Y0078575D01*
X0528031Y0078575D01*
X0528031Y0075590D01*
X0528146Y0075016D01*
X0528369Y0074476D01*
X0528694Y0073990D01*
X0529108Y0073576D01*
X0529594Y0073251D01*
X0530134Y0073027D01*
X0530708Y0072913D01*
X0532968Y0072913D01*
X0532968Y0078638D01*
X0532969Y0078638D01*
X0532969Y0072913D01*
X0535229Y0072913D01*
X0535803Y0073027D01*
X0536343Y0073251D01*
X0536829Y0073576D01*
X0537243Y0073990D01*
X0537568Y0074476D01*
X0537791Y0075016D01*
X0537905Y0075590D01*
X0537905Y0078575D01*
X0539864Y0078575D01*
X0542058Y0079483D01*
X0543275Y0080700D01*
X0550044Y0080700D01*
X0550788Y0079956D01*
X0552982Y0079047D01*
X0560475Y0079047D01*
X0562668Y0079956D01*
X0564347Y0081635D01*
X0564518Y0082047D01*
X0567060Y0082047D01*
X0567634Y0082161D01*
X0568174Y0082385D01*
X0568660Y0082710D01*
X0569073Y0083123D01*
X0569398Y0083610D01*
X0569622Y0084150D01*
X0569736Y0084723D01*
X0569736Y0087968D01*
X0565256Y0087968D01*
X0565256Y0087969D01*
X0569736Y0087969D01*
X0569736Y0091214D01*
X0569622Y0091787D01*
X0569398Y0092327D01*
X0569073Y0092814D01*
X0568660Y0093227D01*
X0568174Y0093552D01*
X0567634Y0093776D01*
X0567060Y0093890D01*
X0564518Y0093890D01*
X0564347Y0094302D01*
X0562668Y0095981D01*
X0560475Y0096890D01*
X0552982Y0096890D01*
X0550788Y0095981D01*
X0550044Y0095237D01*
X0544704Y0095237D01*
X0545237Y0096523D01*
X0545237Y0100526D01*
X0545309Y0100700D01*
X0550044Y0100700D01*
X0550788Y0099956D01*
X0552982Y0099047D01*
X0560475Y0099047D01*
X0562668Y0099956D01*
X0564347Y0101635D01*
X0564518Y0102047D01*
X0567060Y0102047D01*
X0567634Y0102161D01*
X0568174Y0102385D01*
X0568660Y0102710D01*
X0569073Y0103123D01*
X0569398Y0103610D01*
X0569622Y0104150D01*
X0569736Y0104723D01*
X0569736Y0107968D01*
X0565256Y0107968D01*
X0565256Y0107969D01*
X0569736Y0107969D01*
X0569736Y0111214D01*
X0569622Y0111787D01*
X0569398Y0112327D01*
X0569073Y0112814D01*
X0568660Y0113227D01*
X0568174Y0113552D01*
X0567634Y0113776D01*
X0567060Y0113890D01*
X0564518Y0113890D01*
X0564347Y0114302D01*
X0562668Y0115981D01*
X0560475Y0116890D01*
X0552982Y0116890D01*
X0550788Y0115981D01*
X0550044Y0115237D01*
X0545309Y0115237D01*
X0545237Y0115411D01*
X0545237Y0119414D01*
X0544130Y0122086D01*
X0539416Y0126800D01*
X0539673Y0126800D01*
X0542822Y0128104D01*
X0545233Y0130515D01*
X0546537Y0133664D01*
X0546537Y0142273D01*
X0545639Y0144440D01*
X0551284Y0144440D01*
X0551635Y0144090D01*
X0552047Y0143919D01*
X0552047Y0141377D01*
X0552161Y0140803D01*
X0552385Y0140263D01*
X0552710Y0139777D01*
X0553123Y0139363D01*
X0553610Y0139039D01*
X0554150Y0138815D01*
X0554723Y0138701D01*
X0557968Y0138701D01*
X0557968Y0143181D01*
X0557969Y0143181D01*
X0557969Y0138701D01*
X0561214Y0138701D01*
X0561787Y0138815D01*
X0562327Y0139039D01*
X0562814Y0139363D01*
X0563227Y0139777D01*
X0563552Y0140263D01*
X0563776Y0140803D01*
X0563890Y0141377D01*
X0563890Y0143919D01*
X0564302Y0144090D01*
X0565981Y0145769D01*
X0566890Y0147962D01*
X0566890Y0155455D01*
X0565981Y0157649D01*
X0565237Y0158393D01*
X0565237Y0160044D01*
X0565981Y0160788D01*
X0566890Y0162982D01*
X0566890Y0177955D01*
X0565981Y0180149D01*
X0565237Y0180893D01*
X0565237Y0191700D01*
X0574500Y0191700D01*
X0574500Y0188156D01*
X0574200Y0187431D01*
X0574200Y0183506D01*
X0574500Y0182781D01*
X0574500Y0168456D01*
X0574200Y0167731D01*
X0574200Y0163806D01*
X0575194Y0161407D01*
X0575418Y0160570D01*
X0577191Y0157499D01*
X0579699Y0154991D01*
X0582770Y0153218D01*
X0586195Y0152300D01*
X0589742Y0152300D01*
X0593167Y0153218D01*
X0596238Y0154991D01*
X0598746Y0157499D01*
X0600519Y0160570D01*
X0600743Y0161407D01*
X0601737Y0163806D01*
X0601737Y0167731D01*
X0601437Y0168456D01*
X0601437Y0182781D01*
X0601737Y0183506D01*
X0601737Y0187431D01*
X0601437Y0188156D01*
X0601437Y0202481D01*
X0601737Y0203206D01*
X0601737Y0207131D01*
X0600743Y0209530D01*
X0600519Y0210367D01*
X0598746Y0213438D01*
X0596238Y0215946D01*
X0593167Y0217719D01*
X0589742Y0218637D01*
X0567745Y0218637D01*
X0564961Y0221421D01*
X0564961Y0237616D01*
X0564043Y0241041D01*
X0562270Y0244112D01*
X0559762Y0246620D01*
X0556691Y0248393D01*
X0553265Y0249311D01*
X0549719Y0249311D01*
X0546293Y0248393D01*
X0543222Y0246620D01*
X0540715Y0244112D01*
X0538941Y0241041D01*
X0538024Y0237616D01*
X0538024Y0214069D01*
X0538941Y0210644D01*
X0540715Y0207573D01*
X0550700Y0197587D01*
X0550700Y0180893D01*
X0549956Y0180149D01*
X0549047Y0177955D01*
X0549047Y0162982D01*
X0549956Y0160788D01*
X0550700Y0160044D01*
X0550700Y0158977D01*
X0535263Y0158977D01*
X0532591Y0157871D01*
X0532236Y0157515D01*
X0532236Y0160468D01*
X0527756Y0160468D01*
X0527756Y0160469D01*
X0532236Y0160469D01*
X0532236Y0163714D01*
X0532122Y0164287D01*
X0531898Y0164827D01*
X0531573Y0165314D01*
X0531160Y0165727D01*
X0530674Y0166052D01*
X0530134Y0166276D01*
X0529560Y0166390D01*
X0527018Y0166390D01*
X0526847Y0166802D01*
X0526497Y0167153D01*
X0526497Y0172618D01*
X0527343Y0174659D01*
X0527343Y0178522D01*
X0525864Y0182090D01*
X0523133Y0184821D01*
X0519565Y0186299D01*
X0519263Y0186299D01*
X0519228Y0186564D01*
X0519000Y0187413D01*
X0518664Y0188225D01*
X0518224Y0188987D01*
X0517689Y0189685D01*
X0517067Y0190307D01*
X0516369Y0190842D01*
X0515607Y0191282D01*
X0514795Y0191618D01*
X0513945Y0191846D01*
X0513074Y0191961D01*
X0512634Y0191961D01*
X0512634Y0185252D01*
X0512634Y0185252D01*
X0512634Y0191961D01*
X0512194Y0191961D01*
X0511322Y0191846D01*
X0510473Y0191618D01*
X0510137Y0191479D01*
X0508133Y0193483D01*
X0504565Y0194961D01*
X0500703Y0194961D01*
X0497134Y0193483D01*
X0494403Y0190751D01*
X0492925Y0187183D01*
X0492925Y0185823D01*
X0492340Y0185237D01*
X0427284Y0185237D01*
X0427736Y0186329D01*
X0427736Y0190281D01*
X0427737Y0190283D01*
X0427737Y0205526D01*
X0427809Y0205700D01*
X0436914Y0205700D01*
X0439586Y0206807D01*
X0444586Y0211807D01*
X0446630Y0213851D01*
X0447737Y0216523D01*
X0447737Y0217544D01*
X0448481Y0218288D01*
X0449390Y0220482D01*
X0449390Y0235455D01*
X0448481Y0237649D01*
X0446802Y0239328D01*
X0444608Y0240236D01*
X0436329Y0240236D01*
X0434135Y0239328D01*
X0433784Y0238977D01*
X0429037Y0238977D01*
X0429037Y0247273D01*
X0427737Y0250411D01*
X0427737Y0257544D01*
X0428481Y0258288D01*
X0429390Y0260482D01*
X0429390Y0275455D01*
X0428877Y0276693D01*
X0431072Y0278888D01*
X0431324Y0279497D01*
X0436547Y0274273D01*
X0436547Y0269231D01*
X0436500Y0269183D01*
X0436500Y0261754D01*
X0441754Y0256500D01*
X0449183Y0256500D01*
X0454437Y0261754D01*
X0454437Y0269183D01*
X0454390Y0269231D01*
X0454390Y0279743D01*
X0453032Y0283022D01*
X0450522Y0285532D01*
X0435522Y0300532D01*
X0432243Y0301890D01*
X0429437Y0301890D01*
X0429437Y0301968D01*
X0420469Y0301968D01*
X0420469Y0301969D01*
X0420468Y0301969D01*
X0420468Y0301968D01*
X0411500Y0301968D01*
X0411500Y0301499D01*
X0411647Y0300571D01*
X0411829Y0300012D01*
X0409865Y0298049D01*
X0408500Y0294752D01*
X0408500Y0291185D01*
X0409625Y0288469D01*
X0408500Y0285752D01*
X0408500Y0282185D01*
X0409865Y0278888D01*
X0412060Y0276693D01*
X0411547Y0275455D01*
X0411547Y0260482D01*
X0412456Y0258288D01*
X0413200Y0257544D01*
X0413200Y0253712D01*
X0412173Y0254137D01*
X0408764Y0254137D01*
X0405615Y0252833D01*
X0405469Y0252686D01*
X0405322Y0252833D01*
X0402173Y0254137D01*
X0398764Y0254137D01*
X0397737Y0253712D01*
X0397737Y0257544D01*
X0398481Y0258288D01*
X0399390Y0260482D01*
X0399390Y0267975D01*
X0398481Y0270168D01*
X0396802Y0271847D01*
X0396390Y0272018D01*
X0396390Y0274560D01*
X0396276Y0275134D01*
X0396052Y0275674D01*
X0395727Y0276160D01*
X0395314Y0276573D01*
X0394827Y0276898D01*
X0394287Y0277122D01*
X0393714Y0277236D01*
X0390469Y0277236D01*
X0390469Y0272756D01*
X0390468Y0272756D01*
X0390468Y0277236D01*
X0387223Y0277236D01*
X0386650Y0277122D01*
X0386110Y0276898D01*
X0385623Y0276573D01*
X0385210Y0276160D01*
X0384885Y0275674D01*
X0384661Y0275134D01*
X0384547Y0274560D01*
X0384547Y0272737D01*
X0379651Y0272737D01*
X0379432Y0272828D01*
X0376505Y0272828D01*
X0376477Y0272816D01*
X0376477Y0273784D01*
X0376828Y0274135D01*
X0377736Y0276329D01*
X0377736Y0284608D01*
X0376828Y0286802D01*
X0375149Y0288481D01*
X0372955Y0289390D01*
X0365462Y0289390D01*
X0363269Y0288481D01*
X0361590Y0286802D01*
X0361419Y0286390D01*
X0358877Y0286390D01*
X0358303Y0286276D01*
X0357763Y0286052D01*
X0357277Y0285727D01*
X0356863Y0285314D01*
X0356539Y0284827D01*
X0356315Y0284287D01*
X0356201Y0283714D01*
X0356201Y0280469D01*
X0360681Y0280469D01*
X0360681Y0280468D01*
X0356201Y0280468D01*
X0356201Y0277223D01*
X0356315Y0276650D01*
X0356539Y0276110D01*
X0356863Y0275623D01*
X0357277Y0275210D01*
X0357763Y0274885D01*
X0358303Y0274661D01*
X0358877Y0274547D01*
X0361419Y0274547D01*
X0361484Y0274390D01*
X0357982Y0274390D01*
X0355788Y0273481D01*
X0354109Y0271802D01*
X0353201Y0269608D01*
X0353201Y0265656D01*
X0353200Y0265654D01*
X0353200Y0250411D01*
X0351900Y0247273D01*
X0351900Y0238977D01*
X0347737Y0238977D01*
X0347737Y0239527D01*
X0348622Y0241663D01*
X0348622Y0249943D01*
X0347713Y0252137D01*
X0346034Y0253816D01*
X0343841Y0254724D01*
X0336348Y0254724D01*
X0334155Y0253816D01*
X0332476Y0252137D01*
X0332305Y0251724D01*
X0329763Y0251724D01*
X0329189Y0251610D01*
X0328649Y0251387D01*
X0328163Y0251062D01*
X0327749Y0250648D01*
X0327424Y0250162D01*
X0327201Y0249622D01*
X0327087Y0249048D01*
X0327087Y0245803D01*
X0327087Y0242558D01*
X0327201Y0241985D01*
X0327424Y0241444D01*
X0327749Y0240958D01*
X0328163Y0240545D01*
X0328649Y0240220D01*
X0329189Y0239996D01*
X0329763Y0239882D01*
X0332305Y0239882D01*
X0332476Y0239470D01*
X0333200Y0238745D01*
X0333200Y0238393D01*
X0332456Y0237649D01*
X0331547Y0235455D01*
X0331547Y0220482D01*
X0332456Y0218288D01*
X0333200Y0217544D01*
X0333200Y0216523D01*
X0334307Y0213851D01*
X0336351Y0211807D01*
X0341351Y0206807D01*
X0344023Y0205700D01*
X0353128Y0205700D01*
X0353200Y0205526D01*
X0353200Y0190283D01*
X0353201Y0190281D01*
X0353201Y0186329D01*
X0354109Y0184135D01*
X0355788Y0182456D01*
X0357982Y0181547D01*
X0365475Y0181547D01*
X0372955Y0181547D01*
X0373200Y0181649D01*
X0373200Y0179994D01*
X0371300Y0179207D01*
X0369230Y0177137D01*
X0368109Y0174432D01*
X0368109Y0171505D01*
X0368500Y0170562D01*
X0368500Y0149028D01*
X0365615Y0147833D01*
X0363204Y0145422D01*
X0361900Y0142273D01*
X0361900Y0133664D01*
X0363204Y0130515D01*
X0365615Y0128104D01*
X0368242Y0127016D01*
X0368200Y0126914D01*
X0368200Y0124023D01*
X0369307Y0121351D01*
X0373200Y0117458D01*
X0373200Y0115426D01*
X0372606Y0115729D01*
X0371772Y0116000D01*
X0370907Y0116137D01*
X0370469Y0116137D01*
X0370469Y0107969D01*
X0370468Y0107969D01*
X0370468Y0107968D01*
X0364900Y0107968D01*
X0364900Y0104930D01*
X0365037Y0104065D01*
X0365264Y0103365D01*
X0365149Y0103481D01*
X0362955Y0104390D01*
X0355462Y0104390D01*
X0353269Y0103481D01*
X0351590Y0101802D01*
X0351419Y0101390D01*
X0348877Y0101390D01*
X0348303Y0101276D01*
X0347763Y0101052D01*
X0347277Y0100727D01*
X0346863Y0100314D01*
X0346539Y0099827D01*
X0346315Y0099287D01*
X0346201Y0098714D01*
X0346201Y0095469D01*
X0350681Y0095469D01*
X0350681Y0095468D01*
X0346201Y0095468D01*
X0346201Y0092223D01*
X0346315Y0091650D01*
X0346539Y0091110D01*
X0346863Y0090623D01*
X0347277Y0090210D01*
X0347763Y0089885D01*
X0348303Y0089661D01*
X0348877Y0089547D01*
X0351419Y0089547D01*
X0351590Y0089135D01*
X0353087Y0087638D01*
X0351900Y0084773D01*
X0351900Y0076164D01*
X0353200Y0073026D01*
X0353200Y0069023D01*
X0354307Y0066351D01*
X0362343Y0058314D01*
X0361772Y0058500D01*
X0360907Y0058637D01*
X0360469Y0058637D01*
X0360469Y0050469D01*
X0360468Y0050469D01*
X0360468Y0050468D01*
X0360469Y0050468D01*
X0360469Y0042300D01*
X0360907Y0042300D01*
X0361772Y0042437D01*
X0362606Y0042708D01*
X0363206Y0043014D01*
X0365615Y0040604D01*
X0368764Y0039300D01*
X0372173Y0039300D01*
X0375322Y0040604D01*
X0377731Y0043014D01*
X0378331Y0042708D01*
X0379165Y0042437D01*
X0380030Y0042300D01*
X0380468Y0042300D01*
X0380468Y0050468D01*
X0380469Y0050468D01*
X0380469Y0042300D01*
X0380907Y0042300D01*
X0381772Y0042437D01*
X0382606Y0042708D01*
X0383206Y0043014D01*
X0385615Y0040604D01*
X0388764Y0039300D01*
X0392173Y0039300D01*
X0395322Y0040604D01*
X0395468Y0040751D01*
X0395615Y0040604D01*
X0398764Y0039300D01*
X0402173Y0039300D01*
X0405322Y0040604D01*
X0405468Y0040751D01*
X0405615Y0040604D01*
X0408764Y0039300D01*
X0412173Y0039300D01*
X0415322Y0040604D01*
X0415468Y0040751D01*
X0415615Y0040604D01*
X0418764Y0039300D01*
X0422173Y0039300D01*
X0425322Y0040604D01*
X0427731Y0043014D01*
X0428331Y0042708D01*
X0429165Y0042437D01*
X0430030Y0042300D01*
X0430468Y0042300D01*
X0430468Y0050468D01*
X0430469Y0050468D01*
X0430469Y0050469D01*
X0436037Y0050469D01*
X0436037Y0053507D01*
X0435900Y0054372D01*
X0435629Y0055206D01*
X0435231Y0055987D01*
X0434716Y0056696D01*
X0434096Y0057316D01*
X0433387Y0057831D01*
X0432606Y0058229D01*
X0431772Y0058500D01*
X0431347Y0058567D01*
X0444586Y0071807D01*
X0446630Y0073851D01*
X0447737Y0076523D01*
X0447737Y0100526D01*
X0449037Y0103664D01*
X0449037Y0112273D01*
X0447733Y0115422D01*
X0445322Y0117833D01*
X0442173Y0119137D01*
X0439416Y0119137D01*
X0444586Y0124307D01*
X0446630Y0126351D01*
X0447737Y0129023D01*
X0447737Y0130526D01*
X0449037Y0133664D01*
X0449037Y0142273D01*
X0448653Y0143200D01*
X0459784Y0143200D01*
X0459400Y0142273D01*
X0459400Y0133664D01*
X0460704Y0130515D01*
X0463115Y0128104D01*
X0466264Y0126800D01*
X0469673Y0126800D01*
X0472822Y0128104D01*
X0472969Y0128251D01*
X0473115Y0128104D01*
X0476264Y0126800D01*
X0479673Y0126800D01*
X0482822Y0128104D01*
X0482968Y0128251D01*
X0483115Y0128104D01*
X0486264Y0126800D01*
X0489673Y0126800D01*
X0492822Y0128104D01*
X0492968Y0128251D01*
X0493115Y0128104D01*
X0496264Y0126800D01*
X0499673Y0126800D01*
X0502822Y0128104D01*
X0502969Y0128251D01*
X0503115Y0128104D01*
X0506264Y0126800D01*
X0509673Y0126800D01*
X0512822Y0128104D01*
X0512969Y0128251D01*
X0513115Y0128104D01*
X0515700Y0127034D01*
X0515700Y0126523D01*
X0516807Y0123851D01*
X0522970Y0117688D01*
X0520706Y0115423D01*
X0520106Y0115729D01*
X0519272Y0116000D01*
X0518407Y0116137D01*
X0517969Y0116137D01*
X0517969Y0107969D01*
X0517968Y0107969D01*
X0517968Y0116137D01*
X0517530Y0116137D01*
X0516665Y0116000D01*
X0515831Y0115729D01*
X0515231Y0115423D01*
X0512822Y0117833D01*
X0509673Y0119137D01*
X0506264Y0119137D01*
X0503115Y0117833D01*
X0502968Y0117686D01*
X0502822Y0117833D01*
X0499673Y0119137D01*
X0496264Y0119137D01*
X0493115Y0117833D01*
X0492968Y0117686D01*
X0492822Y0117833D01*
X0489673Y0119137D01*
X0486264Y0119137D01*
X0483115Y0117833D01*
X0482968Y0117686D01*
X0482822Y0117833D01*
X0479673Y0119137D01*
X0476264Y0119137D01*
X0473115Y0117833D01*
X0470706Y0115423D01*
X0470106Y0115729D01*
X0469272Y0116000D01*
X0468407Y0116137D01*
X0467969Y0116137D01*
X0467969Y0107969D01*
X0467968Y0107969D01*
X0467968Y0107968D01*
X0467969Y0107968D01*
X0467969Y0099800D01*
X0468407Y0099800D01*
X0469272Y0099937D01*
X0470106Y0100208D01*
X0470700Y0100511D01*
X0470700Y0092236D01*
X0467969Y0092236D01*
X0467969Y0087756D01*
X0467968Y0087756D01*
X0467968Y0092236D01*
X0464723Y0092236D01*
X0464150Y0092122D01*
X0463610Y0091898D01*
X0463123Y0091573D01*
X0462710Y0091160D01*
X0462385Y0090674D01*
X0462161Y0090134D01*
X0462047Y0089560D01*
X0462047Y0087018D01*
X0461635Y0086847D01*
X0459956Y0085168D01*
X0459047Y0082975D01*
X0459047Y0075482D01*
X0459956Y0073288D01*
X0460700Y0072544D01*
X0460700Y0069023D01*
X0461807Y0066351D01*
X0463851Y0064307D01*
X0466523Y0063200D01*
X0469414Y0063200D01*
X0470700Y0063733D01*
X0470700Y0031383D01*
X0470628Y0031312D01*
X0470260Y0031500D01*
X0469366Y0031790D01*
X0468438Y0031937D01*
X0467969Y0031937D01*
X0467969Y0022969D01*
X0467968Y0022969D01*
X0467968Y0022968D01*
X0462000Y0022968D01*
X0462000Y0019499D01*
X0462147Y0018571D01*
X0462437Y0017677D01*
X0462864Y0016840D01*
X0463416Y0016080D01*
X0464080Y0015416D01*
X0464840Y0014864D01*
X0467968Y0014775D02*
X0467969Y0014775D01*
X0467968Y0018711D02*
X0467969Y0018711D01*
X0467968Y0022646D02*
X0467969Y0022646D01*
X0467968Y0022969D02*
X0462000Y0022969D01*
X0462000Y0026438D01*
X0462147Y0027366D01*
X0462437Y0028260D01*
X0462864Y0029097D01*
X0463416Y0029857D01*
X0464080Y0030521D01*
X0464840Y0031073D01*
X0465677Y0031500D01*
X0466571Y0031790D01*
X0467499Y0031937D01*
X0467968Y0031937D01*
X0467968Y0022969D01*
X0467968Y0026582D02*
X0467969Y0026582D01*
X0467968Y0030517D02*
X0467969Y0030517D01*
X0464076Y0030517D02*
X0336808Y0030517D01*
X0336741Y0030468D02*
X0337357Y0030916D01*
X0338021Y0031580D01*
X0338573Y0032340D01*
X0339000Y0033177D01*
X0339290Y0034071D01*
X0339437Y0034999D01*
X0339437Y0035468D01*
X0330469Y0035468D01*
X0330469Y0035469D01*
X0339437Y0035469D01*
X0339437Y0035938D01*
X0339290Y0036866D01*
X0339000Y0037760D01*
X0338573Y0038597D01*
X0338021Y0039357D01*
X0337357Y0040021D01*
X0336741Y0040469D01*
X0337357Y0040916D01*
X0338021Y0041580D01*
X0338573Y0042340D01*
X0339000Y0043177D01*
X0339290Y0044071D01*
X0339437Y0044999D01*
X0339437Y0045468D01*
X0330469Y0045468D01*
X0330469Y0045469D01*
X0339437Y0045469D01*
X0339437Y0045938D01*
X0339290Y0046866D01*
X0339000Y0047760D01*
X0338573Y0048597D01*
X0338021Y0049357D01*
X0337357Y0050021D01*
X0336741Y0050468D01*
X0337357Y0050916D01*
X0338021Y0051580D01*
X0338573Y0052340D01*
X0339000Y0053177D01*
X0339290Y0054071D01*
X0339437Y0054999D01*
X0339437Y0055468D01*
X0330469Y0055468D01*
X0330469Y0055469D01*
X0339437Y0055469D01*
X0339437Y0055938D01*
X0339290Y0056866D01*
X0339000Y0057760D01*
X0338573Y0058597D01*
X0338021Y0059357D01*
X0337357Y0060021D01*
X0336741Y0060468D01*
X0337357Y0060916D01*
X0338021Y0061580D01*
X0338573Y0062340D01*
X0339000Y0063177D01*
X0339290Y0064071D01*
X0339437Y0064999D01*
X0339437Y0065468D01*
X0330469Y0065468D01*
X0330469Y0065469D01*
X0339437Y0065469D01*
X0339437Y0065938D01*
X0339290Y0066866D01*
X0339000Y0067760D01*
X0338573Y0068597D01*
X0338021Y0069357D01*
X0337357Y0070021D01*
X0336741Y0070468D01*
X0337357Y0070916D01*
X0338021Y0071580D01*
X0338573Y0072340D01*
X0339000Y0073177D01*
X0339290Y0074071D01*
X0339437Y0074999D01*
X0339437Y0075468D01*
X0330469Y0075468D01*
X0330469Y0075469D01*
X0339437Y0075469D01*
X0339437Y0075938D01*
X0339290Y0076866D01*
X0339000Y0077760D01*
X0338573Y0078597D01*
X0338021Y0079357D01*
X0337357Y0080021D01*
X0336741Y0080468D01*
X0337357Y0080916D01*
X0338021Y0081580D01*
X0338573Y0082340D01*
X0339000Y0083177D01*
X0339290Y0084071D01*
X0339437Y0084999D01*
X0339437Y0085468D01*
X0330469Y0085468D01*
X0330469Y0085469D01*
X0339437Y0085469D01*
X0339437Y0085938D01*
X0339290Y0086866D01*
X0339000Y0087760D01*
X0338573Y0088597D01*
X0338021Y0089357D01*
X0337357Y0090021D01*
X0336741Y0090468D01*
X0337357Y0090916D01*
X0338021Y0091580D01*
X0338573Y0092340D01*
X0339000Y0093177D01*
X0339290Y0094071D01*
X0339437Y0094999D01*
X0339437Y0095468D01*
X0330469Y0095468D01*
X0330469Y0095469D01*
X0330468Y0095469D01*
X0330468Y0101437D01*
X0326999Y0101437D01*
X0326071Y0101290D01*
X0325177Y0101000D01*
X0324340Y0100573D01*
X0323580Y0100021D01*
X0322916Y0099357D01*
X0322364Y0098597D01*
X0321937Y0097760D01*
X0321647Y0096866D01*
X0321500Y0095938D01*
X0321500Y0095469D01*
X0330468Y0095469D01*
X0330468Y0095468D01*
X0321500Y0095468D01*
X0321500Y0094999D01*
X0321647Y0094071D01*
X0321937Y0093177D01*
X0322364Y0092340D01*
X0322916Y0091580D01*
X0323580Y0090916D01*
X0324196Y0090468D01*
X0323580Y0090021D01*
X0322916Y0089357D01*
X0322364Y0088597D01*
X0321937Y0087760D01*
X0321647Y0086866D01*
X0321500Y0085938D01*
X0321500Y0085469D01*
X0330468Y0085469D01*
X0330468Y0085468D01*
X0321500Y0085468D01*
X0321500Y0084999D01*
X0321647Y0084071D01*
X0321937Y0083177D01*
X0322364Y0082340D01*
X0322916Y0081580D01*
X0323580Y0080916D01*
X0324196Y0080468D01*
X0323580Y0080021D01*
X0322916Y0079357D01*
X0322364Y0078597D01*
X0321937Y0077760D01*
X0321647Y0076866D01*
X0321500Y0075938D01*
X0321500Y0075469D01*
X0330468Y0075469D01*
X0330468Y0075468D01*
X0321500Y0075468D01*
X0321500Y0074999D01*
X0321647Y0074071D01*
X0321937Y0073177D01*
X0322364Y0072340D01*
X0322916Y0071580D01*
X0323580Y0070916D01*
X0324196Y0070468D01*
X0323580Y0070021D01*
X0322916Y0069357D01*
X0322364Y0068597D01*
X0321937Y0067760D01*
X0321647Y0066866D01*
X0321500Y0065938D01*
X0321500Y0065469D01*
X0330468Y0065469D01*
X0330468Y0065468D01*
X0321500Y0065468D01*
X0321500Y0064999D01*
X0321647Y0064071D01*
X0321937Y0063177D01*
X0322364Y0062340D01*
X0322916Y0061580D01*
X0323580Y0060916D01*
X0324196Y0060468D01*
X0323580Y0060021D01*
X0322916Y0059357D01*
X0322364Y0058597D01*
X0321937Y0057760D01*
X0321647Y0056866D01*
X0321500Y0055938D01*
X0321500Y0055469D01*
X0330468Y0055469D01*
X0330468Y0055468D01*
X0321500Y0055468D01*
X0321500Y0054999D01*
X0321647Y0054071D01*
X0321937Y0053177D01*
X0322364Y0052340D01*
X0322916Y0051580D01*
X0323580Y0050916D01*
X0324196Y0050468D01*
X0323580Y0050021D01*
X0322916Y0049357D01*
X0322364Y0048597D01*
X0321937Y0047760D01*
X0321647Y0046866D01*
X0321500Y0045938D01*
X0321500Y0045469D01*
X0330468Y0045469D01*
X0330468Y0045468D01*
X0321500Y0045468D01*
X0321500Y0044999D01*
X0321647Y0044071D01*
X0321937Y0043177D01*
X0322364Y0042340D01*
X0322916Y0041580D01*
X0323580Y0040916D01*
X0324196Y0040468D01*
X0323580Y0040021D01*
X0322916Y0039357D01*
X0322364Y0038597D01*
X0321937Y0037760D01*
X0321647Y0036866D01*
X0321500Y0035938D01*
X0321500Y0035469D01*
X0330468Y0035469D01*
X0330468Y0035468D01*
X0321500Y0035468D01*
X0321500Y0034999D01*
X0321647Y0034071D01*
X0321937Y0033177D01*
X0322364Y0032340D01*
X0322916Y0031580D01*
X0323580Y0030916D01*
X0324196Y0030468D01*
X0323580Y0030021D01*
X0322916Y0029357D01*
X0322364Y0028597D01*
X0321937Y0027760D01*
X0321647Y0026866D01*
X0321500Y0025938D01*
X0321500Y0025469D01*
X0330468Y0025469D01*
X0330468Y0025468D01*
X0330469Y0025468D01*
X0330469Y0025469D01*
X0339437Y0025469D01*
X0339437Y0025938D01*
X0339290Y0026866D01*
X0339000Y0027760D01*
X0338573Y0028597D01*
X0338021Y0029357D01*
X0337357Y0030021D01*
X0336741Y0030468D01*
X0339335Y0026582D02*
X0462023Y0026582D01*
X0462000Y0022646D02*
X0338729Y0022646D01*
X0338573Y0022340D02*
X0339000Y0023177D01*
X0339290Y0024071D01*
X0339437Y0024999D01*
X0339437Y0025468D01*
X0330469Y0025468D01*
X0330469Y0019500D01*
X0333938Y0019500D01*
X0334866Y0019647D01*
X0335760Y0019937D01*
X0336597Y0020364D01*
X0337357Y0020916D01*
X0338021Y0021580D01*
X0338573Y0022340D01*
X0330469Y0022646D02*
X0330468Y0022646D01*
X0330468Y0025468D02*
X0330468Y0019500D01*
X0326999Y0019500D01*
X0326071Y0019647D01*
X0325177Y0019937D01*
X0324340Y0020364D01*
X0323580Y0020916D01*
X0322916Y0021580D01*
X0322364Y0022340D01*
X0321937Y0023177D01*
X0321647Y0024071D01*
X0321500Y0024999D01*
X0321500Y0025468D01*
X0330468Y0025468D01*
X0330468Y0025469D02*
X0330468Y0035468D01*
X0330469Y0035468D01*
X0330469Y0029500D01*
X0330469Y0025469D01*
X0330468Y0025469D01*
X0330468Y0026582D02*
X0330469Y0026582D01*
X0330468Y0030517D02*
X0330469Y0030517D01*
X0330468Y0034453D02*
X0330469Y0034453D01*
X0330468Y0035469D02*
X0330468Y0045468D01*
X0330469Y0045468D01*
X0330469Y0041437D01*
X0330469Y0035469D01*
X0330468Y0035469D01*
X0330468Y0038388D02*
X0330469Y0038388D01*
X0330468Y0042324D02*
X0330469Y0042324D01*
X0330468Y0045469D02*
X0330468Y0055468D01*
X0330469Y0055468D01*
X0330469Y0049500D01*
X0330469Y0045469D01*
X0330468Y0045469D01*
X0330468Y0046259D02*
X0330469Y0046259D01*
X0330468Y0050195D02*
X0330469Y0050195D01*
X0330468Y0054130D02*
X0330469Y0054130D01*
X0330468Y0055469D02*
X0330468Y0065468D01*
X0330469Y0065468D01*
X0330469Y0059500D01*
X0330469Y0055469D01*
X0330468Y0055469D01*
X0330468Y0058066D02*
X0330469Y0058066D01*
X0330468Y0062001D02*
X0330469Y0062001D01*
X0330468Y0065469D02*
X0330468Y0075468D01*
X0330469Y0075468D01*
X0330469Y0069500D01*
X0330469Y0065469D01*
X0330468Y0065469D01*
X0330468Y0065937D02*
X0330469Y0065937D01*
X0330468Y0069872D02*
X0330469Y0069872D01*
X0330468Y0073808D02*
X0330469Y0073808D01*
X0330468Y0075469D02*
X0330468Y0085468D01*
X0330469Y0085468D01*
X0330469Y0079500D01*
X0330469Y0075469D01*
X0330468Y0075469D01*
X0330468Y0077743D02*
X0330469Y0077743D01*
X0330468Y0081679D02*
X0330469Y0081679D01*
X0330468Y0085469D02*
X0330468Y0095468D01*
X0330469Y0095468D01*
X0330469Y0089500D01*
X0330469Y0085469D01*
X0330468Y0085469D01*
X0330468Y0085614D02*
X0330469Y0085614D01*
X0330468Y0089550D02*
X0330469Y0089550D01*
X0330468Y0093485D02*
X0330469Y0093485D01*
X0330469Y0095469D02*
X0339437Y0095469D01*
X0339437Y0095938D01*
X0339290Y0096866D01*
X0339000Y0097760D01*
X0338573Y0098597D01*
X0338021Y0099357D01*
X0337357Y0100021D01*
X0336597Y0100573D01*
X0335760Y0101000D01*
X0334866Y0101290D01*
X0333938Y0101437D01*
X0330469Y0101437D01*
X0330469Y0095469D01*
X0330468Y0097421D02*
X0330469Y0097421D01*
X0330468Y0101356D02*
X0330469Y0101356D01*
X0334447Y0101356D02*
X0348710Y0101356D01*
X0346201Y0097421D02*
X0339110Y0097421D01*
X0339100Y0093485D02*
X0346201Y0093485D01*
X0348863Y0089550D02*
X0337828Y0089550D01*
X0339437Y0085614D02*
X0352249Y0085614D01*
X0351900Y0081679D02*
X0338093Y0081679D01*
X0339005Y0077743D02*
X0351900Y0077743D01*
X0352876Y0073808D02*
X0339205Y0073808D01*
X0337505Y0069872D02*
X0353200Y0069872D01*
X0354721Y0065937D02*
X0339437Y0065937D01*
X0338327Y0062001D02*
X0358656Y0062001D01*
X0359165Y0058500D02*
X0358331Y0058229D01*
X0357550Y0057831D01*
X0356841Y0057316D01*
X0356221Y0056696D01*
X0355706Y0055987D01*
X0355308Y0055206D01*
X0355037Y0054372D01*
X0354900Y0053507D01*
X0354900Y0050469D01*
X0360468Y0050469D01*
X0360468Y0058637D01*
X0360030Y0058637D01*
X0359165Y0058500D01*
X0358011Y0058066D02*
X0338844Y0058066D01*
X0339299Y0054130D02*
X0354999Y0054130D01*
X0354900Y0050468D02*
X0354900Y0047430D01*
X0355037Y0046565D01*
X0355308Y0045731D01*
X0355706Y0044950D01*
X0356221Y0044241D01*
X0356841Y0043621D01*
X0357550Y0043106D01*
X0358331Y0042708D01*
X0359165Y0042437D01*
X0360030Y0042300D01*
X0360468Y0042300D01*
X0360468Y0050468D01*
X0354900Y0050468D01*
X0354900Y0050195D02*
X0337118Y0050195D01*
X0339386Y0046259D02*
X0355136Y0046259D01*
X0360468Y0046259D02*
X0360469Y0046259D01*
X0360468Y0042324D02*
X0360469Y0042324D01*
X0361056Y0042324D02*
X0363896Y0042324D01*
X0359881Y0042324D02*
X0338561Y0042324D01*
X0338679Y0038388D02*
X0470700Y0038388D01*
X0470700Y0034453D02*
X0339350Y0034453D01*
X0324129Y0030517D02*
X0316808Y0030517D01*
X0316741Y0030468D02*
X0317357Y0030916D01*
X0318021Y0031580D01*
X0318573Y0032340D01*
X0319000Y0033177D01*
X0319290Y0034071D01*
X0319437Y0034999D01*
X0319437Y0035468D01*
X0310469Y0035468D01*
X0310469Y0035469D01*
X0319437Y0035469D01*
X0319437Y0035938D01*
X0319290Y0036866D01*
X0319000Y0037760D01*
X0318573Y0038597D01*
X0318021Y0039357D01*
X0317357Y0040021D01*
X0316741Y0040468D01*
X0317357Y0040916D01*
X0318021Y0041580D01*
X0318573Y0042340D01*
X0319000Y0043177D01*
X0319290Y0044071D01*
X0319437Y0044999D01*
X0319437Y0045468D01*
X0310469Y0045468D01*
X0310469Y0045469D01*
X0319437Y0045469D01*
X0319437Y0045938D01*
X0319290Y0046866D01*
X0319000Y0047760D01*
X0318573Y0048597D01*
X0318021Y0049357D01*
X0317357Y0050021D01*
X0316741Y0050469D01*
X0317357Y0050916D01*
X0318021Y0051580D01*
X0318573Y0052340D01*
X0319000Y0053177D01*
X0319290Y0054071D01*
X0319437Y0054999D01*
X0319437Y0055468D01*
X0310469Y0055468D01*
X0310469Y0055469D01*
X0319437Y0055469D01*
X0319437Y0055938D01*
X0319290Y0056866D01*
X0319000Y0057760D01*
X0318573Y0058597D01*
X0318021Y0059357D01*
X0317357Y0060021D01*
X0316741Y0060468D01*
X0317357Y0060916D01*
X0318021Y0061580D01*
X0318573Y0062340D01*
X0319000Y0063177D01*
X0319290Y0064071D01*
X0319437Y0064999D01*
X0319437Y0065468D01*
X0310469Y0065468D01*
X0310469Y0065469D01*
X0319437Y0065469D01*
X0319437Y0065938D01*
X0319290Y0066866D01*
X0319000Y0067760D01*
X0318573Y0068597D01*
X0318021Y0069357D01*
X0317357Y0070021D01*
X0316741Y0070468D01*
X0317357Y0070916D01*
X0318021Y0071580D01*
X0318573Y0072340D01*
X0319000Y0073177D01*
X0319290Y0074071D01*
X0319437Y0074999D01*
X0319437Y0075468D01*
X0310469Y0075468D01*
X0310469Y0075469D01*
X0319437Y0075469D01*
X0319437Y0075938D01*
X0319290Y0076866D01*
X0319000Y0077760D01*
X0318573Y0078597D01*
X0318021Y0079357D01*
X0317357Y0080021D01*
X0316741Y0080468D01*
X0317357Y0080916D01*
X0318021Y0081580D01*
X0318573Y0082340D01*
X0319000Y0083177D01*
X0319290Y0084071D01*
X0319437Y0084999D01*
X0319437Y0085468D01*
X0310469Y0085468D01*
X0310469Y0085469D01*
X0319437Y0085469D01*
X0319437Y0085938D01*
X0319290Y0086866D01*
X0319000Y0087760D01*
X0318573Y0088597D01*
X0318021Y0089357D01*
X0317357Y0090021D01*
X0316741Y0090468D01*
X0317357Y0090916D01*
X0318021Y0091580D01*
X0318573Y0092340D01*
X0319000Y0093177D01*
X0319290Y0094071D01*
X0319437Y0094999D01*
X0319437Y0095468D01*
X0310469Y0095468D01*
X0310469Y0095469D01*
X0310468Y0095469D01*
X0310468Y0101437D01*
X0306999Y0101437D01*
X0306071Y0101290D01*
X0305177Y0101000D01*
X0304340Y0100573D01*
X0303580Y0100021D01*
X0302916Y0099357D01*
X0302364Y0098597D01*
X0301937Y0097760D01*
X0301647Y0096866D01*
X0301500Y0095938D01*
X0301500Y0095469D01*
X0310468Y0095469D01*
X0310468Y0095468D01*
X0301500Y0095468D01*
X0301500Y0094999D01*
X0301647Y0094071D01*
X0301937Y0093177D01*
X0302364Y0092340D01*
X0302916Y0091580D01*
X0303580Y0090916D01*
X0304196Y0090468D01*
X0303580Y0090021D01*
X0302916Y0089357D01*
X0302364Y0088597D01*
X0301937Y0087760D01*
X0301647Y0086866D01*
X0301500Y0085938D01*
X0301500Y0085469D01*
X0310468Y0085469D01*
X0310468Y0085468D01*
X0301500Y0085468D01*
X0301500Y0084999D01*
X0301647Y0084071D01*
X0301937Y0083177D01*
X0302364Y0082340D01*
X0302916Y0081580D01*
X0303580Y0080916D01*
X0304196Y0080468D01*
X0303580Y0080021D01*
X0302916Y0079357D01*
X0302364Y0078597D01*
X0301937Y0077760D01*
X0301647Y0076866D01*
X0301500Y0075938D01*
X0301500Y0075469D01*
X0310468Y0075469D01*
X0310468Y0075468D01*
X0301500Y0075468D01*
X0301500Y0074999D01*
X0301647Y0074071D01*
X0301937Y0073177D01*
X0302364Y0072340D01*
X0302916Y0071580D01*
X0303580Y0070916D01*
X0304196Y0070468D01*
X0303580Y0070021D01*
X0302916Y0069357D01*
X0302364Y0068597D01*
X0301937Y0067760D01*
X0301647Y0066866D01*
X0301500Y0065938D01*
X0301500Y0065469D01*
X0310468Y0065469D01*
X0310468Y0065468D01*
X0301500Y0065468D01*
X0301500Y0064999D01*
X0301647Y0064071D01*
X0301937Y0063177D01*
X0302364Y0062340D01*
X0302916Y0061580D01*
X0303580Y0060916D01*
X0304196Y0060468D01*
X0303580Y0060021D01*
X0302916Y0059357D01*
X0302364Y0058597D01*
X0301937Y0057760D01*
X0301647Y0056866D01*
X0301500Y0055938D01*
X0301500Y0055469D01*
X0310468Y0055469D01*
X0310468Y0055468D01*
X0301500Y0055468D01*
X0301500Y0054999D01*
X0301647Y0054071D01*
X0301937Y0053177D01*
X0302364Y0052340D01*
X0302916Y0051580D01*
X0303580Y0050916D01*
X0304196Y0050468D01*
X0303580Y0050021D01*
X0302916Y0049357D01*
X0302364Y0048597D01*
X0301937Y0047760D01*
X0301647Y0046866D01*
X0301500Y0045938D01*
X0301500Y0045469D01*
X0310468Y0045469D01*
X0310468Y0045468D01*
X0301500Y0045468D01*
X0301500Y0044999D01*
X0301647Y0044071D01*
X0301937Y0043177D01*
X0302364Y0042340D01*
X0302916Y0041580D01*
X0303580Y0040916D01*
X0304196Y0040469D01*
X0303580Y0040021D01*
X0302916Y0039357D01*
X0302364Y0038597D01*
X0301937Y0037760D01*
X0301647Y0036866D01*
X0301500Y0035938D01*
X0301500Y0035469D01*
X0310468Y0035469D01*
X0310468Y0035468D01*
X0301500Y0035468D01*
X0301500Y0034999D01*
X0301647Y0034071D01*
X0301937Y0033177D01*
X0302364Y0032340D01*
X0302916Y0031580D01*
X0303580Y0030916D01*
X0304196Y0030468D01*
X0303580Y0030021D01*
X0302916Y0029357D01*
X0302364Y0028597D01*
X0301937Y0027760D01*
X0301647Y0026866D01*
X0301500Y0025938D01*
X0301500Y0025469D01*
X0310468Y0025469D01*
X0310468Y0025468D01*
X0310469Y0025468D01*
X0310469Y0025469D01*
X0319437Y0025469D01*
X0319437Y0025938D01*
X0319290Y0026866D01*
X0319000Y0027760D01*
X0318573Y0028597D01*
X0318021Y0029357D01*
X0317357Y0030021D01*
X0316741Y0030468D01*
X0319335Y0026582D02*
X0321602Y0026582D01*
X0319437Y0025468D02*
X0310469Y0025468D01*
X0310469Y0019500D01*
X0313938Y0019500D01*
X0314866Y0019647D01*
X0315760Y0019937D01*
X0316597Y0020364D01*
X0317357Y0020916D01*
X0318021Y0021580D01*
X0318573Y0022340D01*
X0319000Y0023177D01*
X0319290Y0024071D01*
X0319437Y0024999D01*
X0319437Y0025468D01*
X0318729Y0022646D02*
X0322208Y0022646D01*
X0310469Y0022646D02*
X0310468Y0022646D01*
X0310468Y0025468D02*
X0310468Y0019500D01*
X0306999Y0019500D01*
X0306071Y0019647D01*
X0305177Y0019937D01*
X0304340Y0020364D01*
X0303580Y0020916D01*
X0302916Y0021580D01*
X0302364Y0022340D01*
X0301937Y0023177D01*
X0301647Y0024071D01*
X0301500Y0024999D01*
X0301500Y0025468D01*
X0310468Y0025468D01*
X0310468Y0025469D02*
X0310468Y0035468D01*
X0310469Y0035468D01*
X0310469Y0029500D01*
X0310469Y0025469D01*
X0310468Y0025469D01*
X0310468Y0026582D02*
X0310469Y0026582D01*
X0310468Y0030517D02*
X0310469Y0030517D01*
X0310468Y0034453D02*
X0310469Y0034453D01*
X0310468Y0035469D02*
X0310468Y0045468D01*
X0310469Y0045468D01*
X0310469Y0039500D01*
X0310469Y0035469D01*
X0310468Y0035469D01*
X0310468Y0038388D02*
X0310469Y0038388D01*
X0310468Y0042324D02*
X0310469Y0042324D01*
X0310468Y0045469D02*
X0310468Y0055468D01*
X0310469Y0055468D01*
X0310469Y0051437D01*
X0310469Y0045469D01*
X0310468Y0045469D01*
X0310468Y0046259D02*
X0310469Y0046259D01*
X0310468Y0050195D02*
X0310469Y0050195D01*
X0310468Y0054130D02*
X0310469Y0054130D01*
X0310468Y0055469D02*
X0310468Y0065468D01*
X0310469Y0065468D01*
X0310469Y0059500D01*
X0310469Y0055469D01*
X0310468Y0055469D01*
X0310468Y0058066D02*
X0310469Y0058066D01*
X0310468Y0062001D02*
X0310469Y0062001D01*
X0310468Y0065469D02*
X0310468Y0075468D01*
X0310469Y0075468D01*
X0310469Y0069500D01*
X0310469Y0065469D01*
X0310468Y0065469D01*
X0310468Y0065937D02*
X0310469Y0065937D01*
X0310468Y0069872D02*
X0310469Y0069872D01*
X0310468Y0073808D02*
X0310469Y0073808D01*
X0310468Y0075469D02*
X0310468Y0085468D01*
X0310469Y0085468D01*
X0310469Y0079500D01*
X0310469Y0075469D01*
X0310468Y0075469D01*
X0310468Y0077743D02*
X0310469Y0077743D01*
X0310468Y0081679D02*
X0310469Y0081679D01*
X0310468Y0085469D02*
X0310468Y0095468D01*
X0310469Y0095468D01*
X0310469Y0089500D01*
X0310469Y0085469D01*
X0310468Y0085469D01*
X0310468Y0085614D02*
X0310469Y0085614D01*
X0310468Y0089550D02*
X0310469Y0089550D01*
X0310468Y0093485D02*
X0310469Y0093485D01*
X0310469Y0095469D02*
X0319437Y0095469D01*
X0319437Y0095938D01*
X0319290Y0096866D01*
X0319000Y0097760D01*
X0318573Y0098597D01*
X0318021Y0099357D01*
X0317357Y0100021D01*
X0316597Y0100573D01*
X0315760Y0101000D01*
X0314866Y0101290D01*
X0313938Y0101437D01*
X0310469Y0101437D01*
X0310469Y0095469D01*
X0310468Y0097421D02*
X0310469Y0097421D01*
X0310468Y0101356D02*
X0310469Y0101356D01*
X0314447Y0101356D02*
X0326490Y0101356D01*
X0321827Y0097421D02*
X0319110Y0097421D01*
X0319100Y0093485D02*
X0321837Y0093485D01*
X0323109Y0089550D02*
X0317828Y0089550D01*
X0319437Y0085614D02*
X0321500Y0085614D01*
X0322844Y0081679D02*
X0318093Y0081679D01*
X0319005Y0077743D02*
X0321932Y0077743D01*
X0321732Y0073808D02*
X0319205Y0073808D01*
X0317505Y0069872D02*
X0323432Y0069872D01*
X0321500Y0065937D02*
X0319437Y0065937D01*
X0318327Y0062001D02*
X0322610Y0062001D01*
X0322093Y0058066D02*
X0318844Y0058066D01*
X0319299Y0054130D02*
X0321638Y0054130D01*
X0323819Y0050195D02*
X0317118Y0050195D01*
X0319386Y0046259D02*
X0321551Y0046259D01*
X0322376Y0042324D02*
X0318561Y0042324D01*
X0318679Y0038388D02*
X0322258Y0038388D01*
X0321586Y0034453D02*
X0319350Y0034453D01*
X0304129Y0030517D02*
X0296808Y0030517D01*
X0296741Y0030468D02*
X0297357Y0030916D01*
X0298021Y0031580D01*
X0298573Y0032340D01*
X0299000Y0033177D01*
X0299290Y0034071D01*
X0299437Y0034999D01*
X0299437Y0035468D01*
X0290469Y0035468D01*
X0290469Y0035469D01*
X0299437Y0035469D01*
X0299437Y0035938D01*
X0299290Y0036866D01*
X0299000Y0037760D01*
X0298573Y0038597D01*
X0298021Y0039357D01*
X0297357Y0040021D01*
X0296741Y0040468D01*
X0297357Y0040916D01*
X0298021Y0041580D01*
X0298573Y0042340D01*
X0299000Y0043177D01*
X0299290Y0044071D01*
X0299437Y0044999D01*
X0299437Y0045468D01*
X0290469Y0045468D01*
X0290469Y0045469D01*
X0299437Y0045469D01*
X0299437Y0045938D01*
X0299290Y0046866D01*
X0299000Y0047760D01*
X0298573Y0048597D01*
X0298021Y0049357D01*
X0297357Y0050021D01*
X0296741Y0050469D01*
X0297357Y0050916D01*
X0298021Y0051580D01*
X0298573Y0052340D01*
X0299000Y0053177D01*
X0299290Y0054071D01*
X0299437Y0054999D01*
X0299437Y0055468D01*
X0290469Y0055468D01*
X0290469Y0055469D01*
X0299437Y0055469D01*
X0299437Y0055938D01*
X0299290Y0056866D01*
X0299000Y0057760D01*
X0298573Y0058597D01*
X0298021Y0059357D01*
X0297357Y0060021D01*
X0296741Y0060469D01*
X0297357Y0060916D01*
X0298021Y0061580D01*
X0298573Y0062340D01*
X0299000Y0063177D01*
X0299290Y0064071D01*
X0299437Y0064999D01*
X0299437Y0065468D01*
X0290469Y0065468D01*
X0290469Y0065469D01*
X0299437Y0065469D01*
X0299437Y0065938D01*
X0299290Y0066866D01*
X0299000Y0067760D01*
X0298573Y0068597D01*
X0298021Y0069357D01*
X0297357Y0070021D01*
X0296741Y0070468D01*
X0297357Y0070916D01*
X0298021Y0071580D01*
X0298573Y0072340D01*
X0299000Y0073177D01*
X0299290Y0074071D01*
X0299437Y0074999D01*
X0299437Y0075468D01*
X0290469Y0075468D01*
X0290469Y0075469D01*
X0299437Y0075469D01*
X0299437Y0075938D01*
X0299290Y0076866D01*
X0299000Y0077760D01*
X0298573Y0078597D01*
X0298021Y0079357D01*
X0297357Y0080021D01*
X0296741Y0080468D01*
X0297357Y0080916D01*
X0298021Y0081580D01*
X0298573Y0082340D01*
X0299000Y0083177D01*
X0299290Y0084071D01*
X0299437Y0084999D01*
X0299437Y0085468D01*
X0290469Y0085468D01*
X0290469Y0085469D01*
X0299437Y0085469D01*
X0299437Y0085938D01*
X0299290Y0086866D01*
X0299000Y0087760D01*
X0298573Y0088597D01*
X0298021Y0089357D01*
X0297357Y0090021D01*
X0296741Y0090468D01*
X0297357Y0090916D01*
X0298021Y0091580D01*
X0298573Y0092340D01*
X0299000Y0093177D01*
X0299290Y0094071D01*
X0299437Y0094999D01*
X0299437Y0095468D01*
X0290469Y0095468D01*
X0290469Y0095469D01*
X0290468Y0095469D01*
X0290468Y0101437D01*
X0286999Y0101437D01*
X0286071Y0101290D01*
X0285177Y0101000D01*
X0284340Y0100573D01*
X0283580Y0100021D01*
X0282916Y0099357D01*
X0282364Y0098597D01*
X0281937Y0097760D01*
X0281647Y0096866D01*
X0281500Y0095938D01*
X0281500Y0095469D01*
X0290468Y0095469D01*
X0290468Y0095468D01*
X0281500Y0095468D01*
X0281500Y0094999D01*
X0281647Y0094071D01*
X0281937Y0093177D01*
X0282364Y0092340D01*
X0282916Y0091580D01*
X0283580Y0090916D01*
X0284196Y0090468D01*
X0283580Y0090021D01*
X0282916Y0089357D01*
X0282364Y0088597D01*
X0281937Y0087760D01*
X0281647Y0086866D01*
X0281500Y0085938D01*
X0281500Y0085469D01*
X0290468Y0085469D01*
X0290468Y0085468D01*
X0281500Y0085468D01*
X0281500Y0084999D01*
X0281647Y0084071D01*
X0281937Y0083177D01*
X0282364Y0082340D01*
X0282916Y0081580D01*
X0283580Y0080916D01*
X0284196Y0080468D01*
X0283580Y0080021D01*
X0282916Y0079357D01*
X0282364Y0078597D01*
X0281937Y0077760D01*
X0281647Y0076866D01*
X0281500Y0075938D01*
X0281500Y0075469D01*
X0290468Y0075469D01*
X0290468Y0075468D01*
X0281500Y0075468D01*
X0281500Y0074999D01*
X0281647Y0074071D01*
X0281937Y0073177D01*
X0282364Y0072340D01*
X0282916Y0071580D01*
X0283580Y0070916D01*
X0284196Y0070468D01*
X0283580Y0070021D01*
X0282916Y0069357D01*
X0282364Y0068597D01*
X0281937Y0067760D01*
X0281647Y0066866D01*
X0281500Y0065938D01*
X0281500Y0065469D01*
X0290468Y0065469D01*
X0290468Y0065468D01*
X0281500Y0065468D01*
X0281500Y0064999D01*
X0281647Y0064071D01*
X0281937Y0063177D01*
X0282364Y0062340D01*
X0282916Y0061580D01*
X0283580Y0060916D01*
X0284196Y0060468D01*
X0283580Y0060021D01*
X0282916Y0059357D01*
X0282364Y0058597D01*
X0281937Y0057760D01*
X0281647Y0056866D01*
X0281500Y0055938D01*
X0281500Y0055469D01*
X0290468Y0055469D01*
X0290468Y0055468D01*
X0281500Y0055468D01*
X0281500Y0054999D01*
X0281647Y0054071D01*
X0281937Y0053177D01*
X0282364Y0052340D01*
X0282916Y0051580D01*
X0283580Y0050916D01*
X0284196Y0050469D01*
X0283580Y0050021D01*
X0282916Y0049357D01*
X0282364Y0048597D01*
X0281937Y0047760D01*
X0281647Y0046866D01*
X0281500Y0045938D01*
X0281500Y0045469D01*
X0290468Y0045469D01*
X0290468Y0045468D01*
X0281500Y0045468D01*
X0281500Y0044999D01*
X0281647Y0044071D01*
X0281937Y0043177D01*
X0282364Y0042340D01*
X0282916Y0041580D01*
X0283580Y0040916D01*
X0284196Y0040468D01*
X0283580Y0040021D01*
X0282916Y0039357D01*
X0282364Y0038597D01*
X0281937Y0037760D01*
X0281647Y0036866D01*
X0281500Y0035938D01*
X0281500Y0035469D01*
X0290468Y0035469D01*
X0290468Y0035468D01*
X0281500Y0035468D01*
X0281500Y0034999D01*
X0281647Y0034071D01*
X0281937Y0033177D01*
X0282364Y0032340D01*
X0282916Y0031580D01*
X0283580Y0030916D01*
X0284196Y0030468D01*
X0283580Y0030021D01*
X0282916Y0029357D01*
X0282364Y0028597D01*
X0281937Y0027760D01*
X0281647Y0026866D01*
X0281500Y0025938D01*
X0281500Y0025469D01*
X0290468Y0025469D01*
X0290468Y0025468D01*
X0290469Y0025468D01*
X0290469Y0025469D01*
X0299437Y0025469D01*
X0299437Y0025938D01*
X0299290Y0026866D01*
X0299000Y0027760D01*
X0298573Y0028597D01*
X0298021Y0029357D01*
X0297357Y0030021D01*
X0296741Y0030468D01*
X0299335Y0026582D02*
X0301602Y0026582D01*
X0299437Y0025468D02*
X0290469Y0025468D01*
X0290469Y0019500D01*
X0293938Y0019500D01*
X0294866Y0019647D01*
X0295760Y0019937D01*
X0296597Y0020364D01*
X0297357Y0020916D01*
X0298021Y0021580D01*
X0298573Y0022340D01*
X0299000Y0023177D01*
X0299290Y0024071D01*
X0299437Y0024999D01*
X0299437Y0025468D01*
X0298729Y0022646D02*
X0302208Y0022646D01*
X0290469Y0022646D02*
X0290468Y0022646D01*
X0290468Y0025468D02*
X0290468Y0019500D01*
X0286999Y0019500D01*
X0286071Y0019647D01*
X0285177Y0019937D01*
X0284340Y0020364D01*
X0283580Y0020916D01*
X0282916Y0021580D01*
X0282364Y0022340D01*
X0281937Y0023177D01*
X0281647Y0024071D01*
X0281500Y0024999D01*
X0281500Y0025468D01*
X0290468Y0025468D01*
X0290468Y0025469D02*
X0290468Y0035468D01*
X0290469Y0035468D01*
X0290469Y0029500D01*
X0290469Y0025469D01*
X0290468Y0025469D01*
X0290468Y0026582D02*
X0290469Y0026582D01*
X0290468Y0030517D02*
X0290469Y0030517D01*
X0290468Y0034453D02*
X0290469Y0034453D01*
X0290468Y0035469D02*
X0290468Y0045468D01*
X0290469Y0045468D01*
X0290469Y0039500D01*
X0290469Y0035469D01*
X0290468Y0035469D01*
X0290468Y0038388D02*
X0290469Y0038388D01*
X0290468Y0042324D02*
X0290469Y0042324D01*
X0290468Y0045469D02*
X0290468Y0055468D01*
X0290469Y0055468D01*
X0290469Y0051437D01*
X0290469Y0045469D01*
X0290468Y0045469D01*
X0290468Y0046259D02*
X0290469Y0046259D01*
X0290468Y0050195D02*
X0290469Y0050195D01*
X0290468Y0054130D02*
X0290469Y0054130D01*
X0290468Y0055469D02*
X0290468Y0065468D01*
X0290469Y0065468D01*
X0290469Y0061437D01*
X0290469Y0055469D01*
X0290468Y0055469D01*
X0290468Y0058066D02*
X0290469Y0058066D01*
X0290468Y0062001D02*
X0290469Y0062001D01*
X0290468Y0065469D02*
X0290468Y0075468D01*
X0290469Y0075468D01*
X0290469Y0069500D01*
X0290469Y0065469D01*
X0290468Y0065469D01*
X0290468Y0065937D02*
X0290469Y0065937D01*
X0290468Y0069872D02*
X0290469Y0069872D01*
X0290468Y0073808D02*
X0290469Y0073808D01*
X0290468Y0075469D02*
X0290468Y0085468D01*
X0290469Y0085468D01*
X0290469Y0079500D01*
X0290469Y0075469D01*
X0290468Y0075469D01*
X0290468Y0077743D02*
X0290469Y0077743D01*
X0290468Y0081679D02*
X0290469Y0081679D01*
X0290468Y0085469D02*
X0290468Y0095468D01*
X0290469Y0095468D01*
X0290469Y0089500D01*
X0290469Y0085469D01*
X0290468Y0085469D01*
X0290468Y0085614D02*
X0290469Y0085614D01*
X0290468Y0089550D02*
X0290469Y0089550D01*
X0290468Y0093485D02*
X0290469Y0093485D01*
X0290469Y0095469D02*
X0299437Y0095469D01*
X0299437Y0095938D01*
X0299290Y0096866D01*
X0299000Y0097760D01*
X0298573Y0098597D01*
X0298021Y0099357D01*
X0297357Y0100021D01*
X0296597Y0100573D01*
X0295760Y0101000D01*
X0294866Y0101290D01*
X0293938Y0101437D01*
X0290469Y0101437D01*
X0290469Y0095469D01*
X0290468Y0097421D02*
X0290469Y0097421D01*
X0290468Y0101356D02*
X0290469Y0101356D01*
X0294447Y0101356D02*
X0306490Y0101356D01*
X0301827Y0097421D02*
X0299110Y0097421D01*
X0299100Y0093485D02*
X0301837Y0093485D01*
X0303109Y0089550D02*
X0297828Y0089550D01*
X0299437Y0085614D02*
X0301500Y0085614D01*
X0302844Y0081679D02*
X0298093Y0081679D01*
X0299005Y0077743D02*
X0301932Y0077743D01*
X0301732Y0073808D02*
X0299205Y0073808D01*
X0297505Y0069872D02*
X0303432Y0069872D01*
X0301500Y0065937D02*
X0299437Y0065937D01*
X0298327Y0062001D02*
X0302610Y0062001D01*
X0302093Y0058066D02*
X0298844Y0058066D01*
X0299299Y0054130D02*
X0301638Y0054130D01*
X0303819Y0050195D02*
X0297118Y0050195D01*
X0299386Y0046259D02*
X0301551Y0046259D01*
X0302376Y0042324D02*
X0298561Y0042324D01*
X0298679Y0038388D02*
X0302258Y0038388D01*
X0301586Y0034453D02*
X0299350Y0034453D01*
X0284129Y0030517D02*
X0263740Y0030517D01*
X0264937Y0026582D02*
X0281602Y0026582D01*
X0282208Y0022646D02*
X0264352Y0022646D01*
X0261520Y0018711D02*
X0462125Y0018711D01*
X0470700Y0042324D02*
X0431056Y0042324D01*
X0430907Y0042300D02*
X0431772Y0042437D01*
X0432606Y0042708D01*
X0433387Y0043106D01*
X0434096Y0043621D01*
X0434716Y0044241D01*
X0435231Y0044950D01*
X0435629Y0045731D01*
X0435900Y0046565D01*
X0436037Y0047430D01*
X0436037Y0050468D01*
X0430469Y0050468D01*
X0430469Y0042300D01*
X0430907Y0042300D01*
X0430469Y0042324D02*
X0430468Y0042324D01*
X0429881Y0042324D02*
X0427041Y0042324D01*
X0430468Y0046259D02*
X0430469Y0046259D01*
X0430468Y0050195D02*
X0430469Y0050195D01*
X0436037Y0050195D02*
X0470700Y0050195D01*
X0470700Y0054130D02*
X0435938Y0054130D01*
X0432926Y0058066D02*
X0470700Y0058066D01*
X0470700Y0062001D02*
X0434780Y0062001D01*
X0438716Y0065937D02*
X0462221Y0065937D01*
X0460700Y0069872D02*
X0442652Y0069872D01*
X0446587Y0073808D02*
X0459741Y0073808D01*
X0459047Y0077743D02*
X0447737Y0077743D01*
X0447737Y0081679D02*
X0459047Y0081679D01*
X0460402Y0085614D02*
X0447737Y0085614D01*
X0447737Y0089550D02*
X0462047Y0089550D01*
X0467968Y0089550D02*
X0467969Y0089550D01*
X0470700Y0093485D02*
X0447737Y0093485D01*
X0447737Y0097421D02*
X0470700Y0097421D01*
X0467968Y0099800D02*
X0467968Y0107968D01*
X0462400Y0107968D01*
X0462400Y0104930D01*
X0462537Y0104065D01*
X0462808Y0103231D01*
X0463206Y0102450D01*
X0463721Y0101741D01*
X0464341Y0101121D01*
X0465050Y0100606D01*
X0465831Y0100208D01*
X0466665Y0099937D01*
X0467530Y0099800D01*
X0467968Y0099800D01*
X0467968Y0101356D02*
X0467969Y0101356D01*
X0464105Y0101356D02*
X0448081Y0101356D01*
X0449037Y0105292D02*
X0462400Y0105292D01*
X0462400Y0107969D02*
X0467968Y0107969D01*
X0467968Y0116137D01*
X0467530Y0116137D01*
X0466665Y0116000D01*
X0465831Y0115729D01*
X0465050Y0115331D01*
X0464341Y0114816D01*
X0463721Y0114196D01*
X0463206Y0113487D01*
X0462808Y0112706D01*
X0462537Y0111872D01*
X0462400Y0111007D01*
X0462400Y0107969D01*
X0462400Y0109228D02*
X0449037Y0109228D01*
X0448668Y0113163D02*
X0463041Y0113163D01*
X0467968Y0113163D02*
X0467969Y0113163D01*
X0467968Y0109228D02*
X0467969Y0109228D01*
X0467968Y0105292D02*
X0467969Y0105292D01*
X0472381Y0117099D02*
X0446056Y0117099D01*
X0441313Y0121034D02*
X0519624Y0121034D01*
X0522381Y0117099D02*
X0513556Y0117099D01*
X0517968Y0113163D02*
X0517969Y0113163D01*
X0517968Y0109228D02*
X0517969Y0109228D01*
X0517969Y0107968D02*
X0517969Y0099800D01*
X0518407Y0099800D01*
X0519272Y0099937D01*
X0520106Y0100208D01*
X0520700Y0100511D01*
X0520700Y0096523D01*
X0521233Y0095236D01*
X0515237Y0095236D01*
X0515237Y0100511D01*
X0515831Y0100208D01*
X0516665Y0099937D01*
X0517530Y0099800D01*
X0517968Y0099800D01*
X0517968Y0107968D01*
X0517969Y0107968D01*
X0517968Y0105292D02*
X0517969Y0105292D01*
X0517968Y0101356D02*
X0517969Y0101356D01*
X0520700Y0097421D02*
X0515237Y0097421D01*
X0517968Y0077743D02*
X0517969Y0077743D01*
X0517968Y0073808D02*
X0517969Y0073808D01*
X0521752Y0073808D02*
X0528876Y0073808D01*
X0528031Y0077743D02*
X0523890Y0077743D01*
X0532968Y0077743D02*
X0532969Y0077743D01*
X0532968Y0073808D02*
X0532969Y0073808D01*
X0537061Y0073808D02*
X0603299Y0073808D01*
X0603299Y0077743D02*
X0537905Y0077743D01*
X0515237Y0069872D02*
X0603299Y0069872D01*
X0603299Y0065937D02*
X0515237Y0065937D01*
X0515237Y0062001D02*
X0603299Y0062001D01*
X0603299Y0058066D02*
X0515237Y0058066D01*
X0515237Y0054130D02*
X0603299Y0054130D01*
X0603299Y0050195D02*
X0515237Y0050195D01*
X0515237Y0046259D02*
X0603299Y0046259D01*
X0603299Y0042324D02*
X0515237Y0042324D01*
X0515237Y0038388D02*
X0603299Y0038388D01*
X0603299Y0034453D02*
X0595900Y0034453D01*
X0596145Y0034289D02*
X0594963Y0035079D01*
X0593709Y0035749D01*
X0592396Y0036293D01*
X0591036Y0036705D01*
X0589641Y0036983D01*
X0588697Y0037076D01*
X0588697Y0023835D01*
X0601938Y0023835D01*
X0601845Y0024779D01*
X0601568Y0026173D01*
X0601155Y0027534D01*
X0600611Y0028847D01*
X0599941Y0030101D01*
X0599151Y0031283D01*
X0598249Y0032382D01*
X0597244Y0033387D01*
X0596145Y0034289D01*
X0599663Y0030517D02*
X0603299Y0030517D01*
X0603299Y0026582D02*
X0601444Y0026582D01*
X0603299Y0022646D02*
X0588697Y0022646D01*
X0586335Y0022646D02*
X0543937Y0022646D01*
X0543937Y0022968D02*
X0537969Y0022968D01*
X0537969Y0014000D01*
X0538438Y0014000D01*
X0539366Y0014147D01*
X0540260Y0014437D01*
X0541097Y0014864D01*
X0541857Y0015416D01*
X0542521Y0016080D01*
X0543073Y0016840D01*
X0543500Y0017677D01*
X0543790Y0018571D01*
X0543937Y0019499D01*
X0543937Y0022968D01*
X0543937Y0022969D02*
X0543937Y0026438D01*
X0543790Y0027366D01*
X0543500Y0028260D01*
X0543073Y0029097D01*
X0542521Y0029857D01*
X0541857Y0030521D01*
X0541097Y0031073D01*
X0540260Y0031500D01*
X0539366Y0031790D01*
X0538438Y0031937D01*
X0537969Y0031937D01*
X0537969Y0022969D01*
X0543937Y0022969D01*
X0543914Y0026582D02*
X0573588Y0026582D01*
X0575369Y0030517D02*
X0541861Y0030517D01*
X0537969Y0030517D02*
X0537968Y0030517D01*
X0537968Y0026582D02*
X0537969Y0026582D01*
X0537968Y0022646D02*
X0537969Y0022646D01*
X0537968Y0018711D02*
X0537969Y0018711D01*
X0537968Y0014775D02*
X0537969Y0014775D01*
X0540923Y0014775D02*
X0575379Y0014775D01*
X0573592Y0018711D02*
X0543812Y0018711D01*
X0530922Y0034453D02*
X0579132Y0034453D01*
X0586335Y0034453D02*
X0588697Y0034453D01*
X0588697Y0030517D02*
X0586335Y0030517D01*
X0586335Y0026582D02*
X0588697Y0026582D01*
X0601439Y0018711D02*
X0603299Y0018711D01*
X0603299Y0014775D02*
X0599653Y0014775D01*
X0603299Y0010840D02*
X0595877Y0010840D01*
X0579154Y0010840D02*
X0031015Y0010840D01*
X0010507Y0030517D02*
X0008937Y0030517D01*
X0076392Y0038388D02*
X0110125Y0038388D01*
X0171894Y0018711D02*
X0182388Y0018711D01*
X0176201Y0022646D02*
X0174507Y0022646D01*
X0174937Y0026582D02*
X0176201Y0026582D01*
X0176750Y0030517D02*
X0173625Y0030517D01*
X0174937Y0034453D02*
X0184711Y0034453D01*
X0174467Y0038388D02*
X0196316Y0038388D01*
X0196719Y0042324D02*
X0174373Y0042324D01*
X0174937Y0046259D02*
X0196000Y0046259D01*
X0197064Y0050195D02*
X0173718Y0050195D01*
X0174937Y0054130D02*
X0196000Y0054130D01*
X0196182Y0058066D02*
X0174600Y0058066D01*
X0174240Y0062001D02*
X0196852Y0062001D01*
X0196000Y0065937D02*
X0174937Y0065937D01*
X0173852Y0069872D02*
X0196930Y0069872D01*
X0196104Y0073808D02*
X0174937Y0073808D01*
X0174734Y0077743D02*
X0196048Y0077743D01*
X0196986Y0081679D02*
X0174106Y0081679D01*
X0174937Y0085614D02*
X0196000Y0085614D01*
X0196797Y0089550D02*
X0173985Y0089550D01*
X0174855Y0093485D02*
X0196237Y0093485D01*
X0196000Y0097421D02*
X0176429Y0097421D01*
X0180365Y0101356D02*
X0197799Y0101356D01*
X0198063Y0105292D02*
X0184301Y0105292D01*
X0187969Y0106850D02*
X0190503Y0106850D01*
X0194087Y0110434D01*
X0194087Y0112968D01*
X0187969Y0112968D01*
X0187969Y0106850D01*
X0187968Y0109228D02*
X0187969Y0109228D01*
X0187969Y0112969D02*
X0194087Y0112969D01*
X0194087Y0115503D01*
X0190503Y0119087D01*
X0187969Y0119087D01*
X0187969Y0112969D01*
X0187968Y0113163D02*
X0187969Y0113163D01*
X0187968Y0117099D02*
X0187969Y0117099D01*
X0192491Y0117099D02*
X0198063Y0117099D01*
X0198063Y0121034D02*
X0183911Y0121034D01*
X0194087Y0113163D02*
X0198063Y0113163D01*
X0198063Y0109228D02*
X0192880Y0109228D01*
X0218138Y0101356D02*
X0242799Y0101356D01*
X0243063Y0105292D02*
X0228926Y0105292D01*
X0232969Y0107224D02*
X0235503Y0107224D01*
X0239087Y0110808D01*
X0239087Y0113342D01*
X0232969Y0113342D01*
X0232969Y0107224D01*
X0232968Y0109228D02*
X0232969Y0109228D01*
X0232968Y0113163D02*
X0232969Y0113163D01*
X0232969Y0113343D02*
X0239087Y0113343D01*
X0239087Y0115877D01*
X0235503Y0119461D01*
X0232969Y0119461D01*
X0232969Y0113343D01*
X0232968Y0117099D02*
X0232969Y0117099D01*
X0237865Y0117099D02*
X0243063Y0117099D01*
X0243063Y0121034D02*
X0229285Y0121034D01*
X0217874Y0124970D02*
X0243063Y0124970D01*
X0243063Y0128905D02*
X0217874Y0128905D01*
X0217874Y0132841D02*
X0243063Y0132841D01*
X0243063Y0136776D02*
X0217874Y0136776D01*
X0217874Y0140712D02*
X0243063Y0140712D01*
X0243063Y0144647D02*
X0217874Y0144647D01*
X0217874Y0148583D02*
X0243063Y0148583D01*
X0243063Y0152518D02*
X0217874Y0152518D01*
X0217874Y0156454D02*
X0243063Y0156454D01*
X0243063Y0160389D02*
X0217874Y0160389D01*
X0217874Y0164325D02*
X0243063Y0164325D01*
X0243063Y0168260D02*
X0217874Y0168260D01*
X0217874Y0172196D02*
X0243063Y0172196D01*
X0243063Y0176131D02*
X0217874Y0176131D01*
X0217874Y0180067D02*
X0242687Y0180067D01*
X0241000Y0184002D02*
X0217874Y0184002D01*
X0217667Y0187938D02*
X0241284Y0187938D01*
X0243690Y0191873D02*
X0215572Y0191873D01*
X0204437Y0195809D02*
X0244000Y0195809D01*
X0261937Y0195809D02*
X0301645Y0195809D01*
X0301645Y0199744D02*
X0262928Y0199744D01*
X0264935Y0203680D02*
X0301645Y0203680D01*
X0301645Y0207616D02*
X0264787Y0207616D01*
X0262874Y0211551D02*
X0301645Y0211551D01*
X0301645Y0215487D02*
X0262874Y0215487D01*
X0262874Y0219422D02*
X0301645Y0219422D01*
X0301645Y0223358D02*
X0262874Y0223358D01*
X0262874Y0227293D02*
X0301645Y0227293D01*
X0301645Y0231229D02*
X0262874Y0231229D01*
X0266673Y0235164D02*
X0301645Y0235164D01*
X0301645Y0239100D02*
X0270608Y0239100D01*
X0274544Y0243035D02*
X0301645Y0243035D01*
X0301645Y0246971D02*
X0278479Y0246971D01*
X0282415Y0250906D02*
X0301645Y0250906D01*
X0301645Y0254842D02*
X0286350Y0254842D01*
X0290286Y0258777D02*
X0301645Y0258777D01*
X0301645Y0262713D02*
X0294221Y0262713D01*
X0298157Y0266648D02*
X0301645Y0266648D01*
X0316182Y0266648D02*
X0353201Y0266648D01*
X0353200Y0262713D02*
X0316182Y0262713D01*
X0316182Y0258777D02*
X0353200Y0258777D01*
X0353200Y0254842D02*
X0316182Y0254842D01*
X0316182Y0250906D02*
X0328007Y0250906D01*
X0327087Y0246971D02*
X0316182Y0246971D01*
X0316182Y0243035D02*
X0327087Y0243035D01*
X0327087Y0245803D02*
X0331567Y0245803D01*
X0331567Y0245803D01*
X0327087Y0245803D01*
X0332845Y0239100D02*
X0316182Y0239100D01*
X0316182Y0235164D02*
X0331547Y0235164D01*
X0331547Y0231229D02*
X0316182Y0231229D01*
X0316182Y0227293D02*
X0331547Y0227293D01*
X0331547Y0223358D02*
X0316182Y0223358D01*
X0316182Y0219422D02*
X0331986Y0219422D01*
X0333629Y0215487D02*
X0316182Y0215487D01*
X0316182Y0211551D02*
X0336607Y0211551D01*
X0336351Y0211807D02*
X0336351Y0211807D01*
X0340542Y0207616D02*
X0316182Y0207616D01*
X0327865Y0203680D02*
X0353200Y0203680D01*
X0353200Y0199744D02*
X0329736Y0199744D01*
X0329736Y0195809D02*
X0353200Y0195809D01*
X0353200Y0191873D02*
X0324446Y0191873D01*
X0317437Y0187938D02*
X0353201Y0187938D01*
X0354242Y0184002D02*
X0347885Y0184002D01*
X0348890Y0180067D02*
X0373200Y0180067D01*
X0368813Y0176131D02*
X0351618Y0176131D01*
X0351890Y0172196D02*
X0368109Y0172196D01*
X0368500Y0168260D02*
X0351890Y0168260D01*
X0354391Y0164325D02*
X0368500Y0164325D01*
X0368500Y0160389D02*
X0365827Y0160389D01*
X0367737Y0156454D02*
X0368500Y0156454D01*
X0368500Y0152518D02*
X0367114Y0152518D01*
X0367426Y0148583D02*
X0362838Y0148583D01*
X0362883Y0144647D02*
X0262874Y0144647D01*
X0262874Y0140712D02*
X0361900Y0140712D01*
X0361900Y0136776D02*
X0262874Y0136776D01*
X0262874Y0132841D02*
X0362241Y0132841D01*
X0364814Y0128905D02*
X0262874Y0128905D01*
X0262874Y0124970D02*
X0368200Y0124970D01*
X0369624Y0121034D02*
X0274285Y0121034D01*
X0277969Y0119461D02*
X0277969Y0113343D01*
X0284087Y0113343D01*
X0284087Y0115877D01*
X0280503Y0119461D01*
X0277969Y0119461D01*
X0277968Y0117099D02*
X0277969Y0117099D01*
X0277969Y0113342D02*
X0284087Y0113342D01*
X0284087Y0110808D01*
X0280503Y0107224D01*
X0277969Y0107224D01*
X0277969Y0113342D01*
X0277968Y0113163D02*
X0277969Y0113163D01*
X0277968Y0109228D02*
X0277969Y0109228D01*
X0282506Y0109228D02*
X0364900Y0109228D01*
X0364900Y0107969D02*
X0370468Y0107969D01*
X0370468Y0116137D01*
X0370030Y0116137D01*
X0369165Y0116000D01*
X0368331Y0115729D01*
X0367550Y0115331D01*
X0366841Y0114816D01*
X0366221Y0114196D01*
X0365706Y0113487D01*
X0365308Y0112706D01*
X0365037Y0111872D01*
X0364900Y0111007D01*
X0364900Y0107969D01*
X0364900Y0105292D02*
X0273926Y0105292D01*
X0281827Y0097421D02*
X0264937Y0097421D01*
X0264700Y0093485D02*
X0281837Y0093485D01*
X0283109Y0089550D02*
X0264140Y0089550D01*
X0264937Y0085614D02*
X0281500Y0085614D01*
X0282844Y0081679D02*
X0263951Y0081679D01*
X0264889Y0077743D02*
X0281932Y0077743D01*
X0281732Y0073808D02*
X0264833Y0073808D01*
X0264007Y0069872D02*
X0283432Y0069872D01*
X0281500Y0065937D02*
X0264937Y0065937D01*
X0264085Y0062001D02*
X0282610Y0062001D01*
X0282093Y0058066D02*
X0264755Y0058066D01*
X0264937Y0054130D02*
X0281638Y0054130D01*
X0283819Y0050195D02*
X0263873Y0050195D01*
X0264937Y0046259D02*
X0281551Y0046259D01*
X0282376Y0042324D02*
X0264218Y0042324D01*
X0264621Y0038388D02*
X0282258Y0038388D01*
X0281586Y0034453D02*
X0264937Y0034453D01*
X0241316Y0038388D02*
X0219621Y0038388D01*
X0219937Y0034453D02*
X0229711Y0034453D01*
X0221750Y0030517D02*
X0218740Y0030517D01*
X0219937Y0026582D02*
X0221201Y0026582D01*
X0221201Y0022646D02*
X0219352Y0022646D01*
X0216520Y0018711D02*
X0227388Y0018711D01*
X0219218Y0042324D02*
X0241719Y0042324D01*
X0241000Y0046259D02*
X0219937Y0046259D01*
X0218873Y0050195D02*
X0242064Y0050195D01*
X0241000Y0054130D02*
X0219937Y0054130D01*
X0219755Y0058066D02*
X0241182Y0058066D01*
X0241852Y0062001D02*
X0219085Y0062001D01*
X0219937Y0065937D02*
X0241000Y0065937D01*
X0241930Y0069872D02*
X0219007Y0069872D01*
X0219833Y0073808D02*
X0241104Y0073808D01*
X0241048Y0077743D02*
X0219889Y0077743D01*
X0218951Y0081679D02*
X0241986Y0081679D01*
X0241000Y0085614D02*
X0219937Y0085614D01*
X0219140Y0089550D02*
X0241797Y0089550D01*
X0241237Y0093485D02*
X0219700Y0093485D01*
X0219937Y0097421D02*
X0241000Y0097421D01*
X0243063Y0109228D02*
X0237506Y0109228D01*
X0239087Y0113163D02*
X0243063Y0113163D01*
X0263138Y0101356D02*
X0286490Y0101356D01*
X0284087Y0113163D02*
X0365541Y0113163D01*
X0370468Y0113163D02*
X0370469Y0113163D01*
X0370468Y0109228D02*
X0370469Y0109228D01*
X0370469Y0107968D02*
X0370469Y0099800D01*
X0370907Y0099800D01*
X0371772Y0099937D01*
X0372606Y0100208D01*
X0373206Y0100514D01*
X0375615Y0098104D01*
X0378764Y0096800D01*
X0382173Y0096800D01*
X0385322Y0098104D01*
X0387731Y0100514D01*
X0388331Y0100208D01*
X0389165Y0099937D01*
X0390030Y0099800D01*
X0390468Y0099800D01*
X0390468Y0107968D01*
X0390469Y0107968D01*
X0390469Y0099800D01*
X0390907Y0099800D01*
X0391772Y0099937D01*
X0392606Y0100208D01*
X0393200Y0100511D01*
X0393200Y0091212D01*
X0392173Y0091637D01*
X0388764Y0091637D01*
X0385615Y0090333D01*
X0385469Y0090186D01*
X0385322Y0090333D01*
X0382173Y0091637D01*
X0378764Y0091637D01*
X0375615Y0090333D01*
X0375469Y0090186D01*
X0375322Y0090333D01*
X0372173Y0091637D01*
X0368764Y0091637D01*
X0367737Y0091212D01*
X0367737Y0095654D01*
X0367736Y0095656D01*
X0367736Y0099608D01*
X0367225Y0100842D01*
X0367550Y0100606D01*
X0368331Y0100208D01*
X0369165Y0099937D01*
X0370030Y0099800D01*
X0370468Y0099800D01*
X0370468Y0107968D01*
X0370469Y0107968D01*
X0370468Y0105292D02*
X0370469Y0105292D01*
X0370468Y0101356D02*
X0370469Y0101356D01*
X0367736Y0097421D02*
X0377265Y0097421D01*
X0383672Y0097421D02*
X0393200Y0097421D01*
X0393200Y0093485D02*
X0367737Y0093485D01*
X0390468Y0101356D02*
X0390469Y0101356D01*
X0390468Y0105292D02*
X0390469Y0105292D01*
X0390468Y0107969D02*
X0390468Y0116137D01*
X0390030Y0116137D01*
X0389165Y0116000D01*
X0388331Y0115729D01*
X0387737Y0115426D01*
X0387737Y0121914D01*
X0386630Y0124586D01*
X0384586Y0126630D01*
X0383759Y0127457D01*
X0385322Y0128104D01*
X0385469Y0128251D01*
X0385615Y0128104D01*
X0388764Y0126800D01*
X0392173Y0126800D01*
X0395322Y0128104D01*
X0397731Y0130514D01*
X0398331Y0130208D01*
X0399165Y0129937D01*
X0400030Y0129800D01*
X0400468Y0129800D01*
X0400468Y0137968D01*
X0400469Y0137968D01*
X0400469Y0129800D01*
X0400907Y0129800D01*
X0401772Y0129937D01*
X0402606Y0130208D01*
X0403387Y0130606D01*
X0404096Y0131121D01*
X0404716Y0131741D01*
X0405231Y0132450D01*
X0405469Y0132916D01*
X0405706Y0132450D01*
X0406221Y0131741D01*
X0406841Y0131121D01*
X0407550Y0130606D01*
X0408331Y0130208D01*
X0409165Y0129937D01*
X0409590Y0129870D01*
X0399307Y0119586D01*
X0399121Y0119137D01*
X0398764Y0119137D01*
X0395615Y0117833D01*
X0393206Y0115423D01*
X0392606Y0115729D01*
X0391772Y0116000D01*
X0390907Y0116137D01*
X0390469Y0116137D01*
X0390469Y0107969D01*
X0390468Y0107969D01*
X0390468Y0109228D02*
X0390469Y0109228D01*
X0390468Y0113163D02*
X0390469Y0113163D01*
X0387737Y0117099D02*
X0394881Y0117099D01*
X0400755Y0121034D02*
X0387737Y0121034D01*
X0386247Y0124970D02*
X0404690Y0124970D01*
X0408626Y0128905D02*
X0396123Y0128905D01*
X0400468Y0132841D02*
X0400469Y0132841D01*
X0400468Y0136776D02*
X0400469Y0136776D01*
X0400469Y0137968D02*
X0400469Y0137969D01*
X0406037Y0137969D01*
X0410468Y0137969D01*
X0410468Y0137968D01*
X0400469Y0137968D01*
X0405469Y0143021D02*
X0405560Y0143200D01*
X0405377Y0143200D01*
X0405469Y0143021D01*
X0405430Y0132841D02*
X0405507Y0132841D01*
X0384586Y0126630D02*
X0384586Y0126630D01*
X0373200Y0117099D02*
X0282865Y0117099D01*
X0292016Y0151083D02*
X0292590Y0150969D01*
X0299772Y0150969D01*
X0299772Y0158071D01*
X0289913Y0158071D01*
X0289913Y0153645D01*
X0290027Y0153071D01*
X0290251Y0152531D01*
X0290576Y0152045D01*
X0290990Y0151631D01*
X0291476Y0151306D01*
X0292016Y0151083D01*
X0290260Y0152518D02*
X0262874Y0152518D01*
X0262874Y0148583D02*
X0350599Y0148583D01*
X0345640Y0152518D02*
X0309677Y0152518D01*
X0310024Y0156454D02*
X0341704Y0156454D01*
X0337769Y0160389D02*
X0310024Y0160389D01*
X0309472Y0164325D02*
X0335700Y0164325D01*
X0337047Y0180067D02*
X0317437Y0180067D01*
X0317437Y0184002D02*
X0338052Y0184002D01*
X0342968Y0184002D02*
X0342969Y0184002D01*
X0301645Y0191873D02*
X0296904Y0191873D01*
X0299968Y0187938D02*
X0299969Y0187938D01*
X0299968Y0184002D02*
X0299969Y0184002D01*
X0284833Y0191873D02*
X0262247Y0191873D01*
X0264653Y0187938D02*
X0282500Y0187938D01*
X0282500Y0184002D02*
X0264937Y0184002D01*
X0263250Y0180067D02*
X0282500Y0180067D01*
X0282893Y0176131D02*
X0262874Y0176131D01*
X0262874Y0172196D02*
X0283600Y0172196D01*
X0284438Y0168260D02*
X0262874Y0168260D01*
X0262874Y0164325D02*
X0290465Y0164325D01*
X0289913Y0160389D02*
X0262874Y0160389D01*
X0262874Y0156454D02*
X0289913Y0156454D01*
X0299772Y0156454D02*
X0300165Y0156454D01*
X0300165Y0152518D02*
X0299772Y0152518D01*
X0387737Y0169736D02*
X0387737Y0170609D01*
X0389432Y0170609D01*
X0389651Y0170700D01*
X0476547Y0170700D01*
X0476547Y0165462D01*
X0477456Y0163269D01*
X0479135Y0161590D01*
X0479547Y0161419D01*
X0479547Y0158877D01*
X0479661Y0158303D01*
X0479885Y0157763D01*
X0479903Y0157737D01*
X0404994Y0157737D01*
X0404207Y0159637D01*
X0402137Y0161707D01*
X0399432Y0162828D01*
X0398322Y0162828D01*
X0396802Y0164347D01*
X0396390Y0164518D01*
X0396390Y0167060D01*
X0396276Y0167634D01*
X0396052Y0168174D01*
X0395727Y0168660D01*
X0395314Y0169073D01*
X0394827Y0169398D01*
X0394287Y0169622D01*
X0393714Y0169736D01*
X0390469Y0169736D01*
X0390469Y0165256D01*
X0390468Y0165256D01*
X0390468Y0169736D01*
X0387737Y0169736D01*
X0390468Y0168260D02*
X0390469Y0168260D01*
X0395994Y0168260D02*
X0476547Y0168260D01*
X0477018Y0164325D02*
X0396825Y0164325D01*
X0403455Y0160389D02*
X0479547Y0160389D01*
X0485468Y0160389D02*
X0485469Y0160389D01*
X0485468Y0160681D02*
X0485468Y0157737D01*
X0485469Y0157737D01*
X0485469Y0160681D01*
X0485468Y0160681D01*
X0491390Y0160389D02*
X0493701Y0160389D01*
X0493701Y0160468D02*
X0493701Y0157737D01*
X0491034Y0157737D01*
X0491052Y0157763D01*
X0491276Y0158303D01*
X0491390Y0158877D01*
X0491390Y0161419D01*
X0491802Y0161590D01*
X0492871Y0162659D01*
X0493701Y0161829D01*
X0493701Y0160469D01*
X0498181Y0160469D01*
X0498181Y0160468D01*
X0493701Y0160468D01*
X0526497Y0168260D02*
X0549047Y0168260D01*
X0549047Y0164325D02*
X0532107Y0164325D01*
X0532236Y0160389D02*
X0550355Y0160389D01*
X0565582Y0160389D02*
X0575522Y0160389D01*
X0574200Y0164325D02*
X0566890Y0164325D01*
X0566890Y0168260D02*
X0574419Y0168260D01*
X0574500Y0172196D02*
X0566890Y0172196D01*
X0566890Y0176131D02*
X0574500Y0176131D01*
X0574500Y0180067D02*
X0566015Y0180067D01*
X0565237Y0184002D02*
X0574200Y0184002D01*
X0574410Y0187938D02*
X0565237Y0187938D01*
X0550700Y0187938D02*
X0518783Y0187938D01*
X0512634Y0187938D02*
X0512634Y0187938D01*
X0512634Y0191873D02*
X0512634Y0191873D01*
X0513736Y0191873D02*
X0550700Y0191873D01*
X0550700Y0195809D02*
X0427737Y0195809D01*
X0427737Y0199744D02*
X0548543Y0199744D01*
X0544607Y0203680D02*
X0427737Y0203680D01*
X0440395Y0207616D02*
X0459971Y0207616D01*
X0459156Y0208431D02*
X0461403Y0206183D01*
X0464156Y0204594D01*
X0467226Y0203772D01*
X0470404Y0203772D01*
X0473474Y0204594D01*
X0476227Y0206183D01*
X0478474Y0208431D01*
X0480063Y0211183D01*
X0480886Y0214253D01*
X0480886Y0217432D01*
X0480063Y0220502D01*
X0479866Y0220843D01*
X0480063Y0221183D01*
X0480886Y0224253D01*
X0480886Y0227432D01*
X0480063Y0230502D01*
X0479866Y0230843D01*
X0480063Y0231183D01*
X0480886Y0234253D01*
X0480886Y0237432D01*
X0480063Y0240502D01*
X0478474Y0243254D01*
X0476227Y0245502D01*
X0473474Y0247091D01*
X0470404Y0247913D01*
X0467226Y0247913D01*
X0464156Y0247091D01*
X0461403Y0245502D01*
X0459156Y0243254D01*
X0457567Y0240502D01*
X0456744Y0237432D01*
X0456744Y0234253D01*
X0457567Y0231183D01*
X0457763Y0230843D01*
X0457567Y0230502D01*
X0456744Y0227432D01*
X0456744Y0224253D01*
X0457567Y0221183D01*
X0457763Y0220843D01*
X0457567Y0220502D01*
X0456744Y0217432D01*
X0456744Y0214253D01*
X0457567Y0211183D01*
X0459156Y0208431D01*
X0457468Y0211551D02*
X0444330Y0211551D01*
X0447308Y0215487D02*
X0456744Y0215487D01*
X0457277Y0219422D02*
X0448951Y0219422D01*
X0449390Y0223358D02*
X0456984Y0223358D01*
X0456744Y0227293D02*
X0449390Y0227293D01*
X0449390Y0231229D02*
X0457555Y0231229D01*
X0456744Y0235164D02*
X0449390Y0235164D01*
X0447030Y0239100D02*
X0457191Y0239100D01*
X0459029Y0243035D02*
X0429037Y0243035D01*
X0429037Y0239100D02*
X0433907Y0239100D01*
X0429037Y0246971D02*
X0463948Y0246971D01*
X0473682Y0246971D02*
X0543830Y0246971D01*
X0540093Y0243035D02*
X0478601Y0243035D01*
X0480439Y0239100D02*
X0538421Y0239100D01*
X0538024Y0235164D02*
X0480886Y0235164D01*
X0480075Y0231229D02*
X0538024Y0231229D01*
X0538024Y0227293D02*
X0480886Y0227293D01*
X0480646Y0223358D02*
X0538024Y0223358D01*
X0538024Y0219422D02*
X0480352Y0219422D01*
X0480886Y0215487D02*
X0538024Y0215487D01*
X0538698Y0211551D02*
X0480162Y0211551D01*
X0477659Y0207616D02*
X0540690Y0207616D01*
X0564961Y0223358D02*
X0603299Y0223358D01*
X0603299Y0227293D02*
X0595256Y0227293D01*
X0594913Y0227095D02*
X0595693Y0227545D01*
X0596407Y0228093D01*
X0597044Y0228730D01*
X0597592Y0229444D01*
X0598042Y0230224D01*
X0598386Y0231056D01*
X0598619Y0231926D01*
X0598737Y0232818D01*
X0598737Y0233268D01*
X0587969Y0233268D01*
X0587969Y0226400D01*
X0592319Y0226400D01*
X0593211Y0226518D01*
X0594081Y0226751D01*
X0594913Y0227095D01*
X0598433Y0231229D02*
X0603299Y0231229D01*
X0603299Y0235164D02*
X0598471Y0235164D01*
X0598386Y0235481D02*
X0598042Y0236313D01*
X0597592Y0237093D01*
X0597044Y0237807D01*
X0596407Y0238444D01*
X0595693Y0238992D01*
X0594913Y0239442D01*
X0594081Y0239786D01*
X0593211Y0240019D01*
X0592319Y0240137D01*
X0587969Y0240137D01*
X0587969Y0233269D01*
X0587968Y0233269D01*
X0587968Y0233268D01*
X0587969Y0233268D01*
X0587969Y0233269D01*
X0598737Y0233269D01*
X0598737Y0233719D01*
X0598619Y0234611D01*
X0598386Y0235481D01*
X0595506Y0239100D02*
X0603299Y0239100D01*
X0603299Y0243035D02*
X0562892Y0243035D01*
X0564563Y0239100D02*
X0580431Y0239100D01*
X0580244Y0238992D02*
X0579530Y0238444D01*
X0578893Y0237807D01*
X0578345Y0237093D01*
X0577895Y0236313D01*
X0577551Y0235481D01*
X0577318Y0234611D01*
X0577200Y0233719D01*
X0577200Y0233269D01*
X0587968Y0233269D01*
X0587968Y0240137D01*
X0583618Y0240137D01*
X0582726Y0240019D01*
X0581856Y0239786D01*
X0581024Y0239442D01*
X0580244Y0238992D01*
X0577466Y0235164D02*
X0564961Y0235164D01*
X0564961Y0231229D02*
X0577504Y0231229D01*
X0577551Y0231056D02*
X0577895Y0230224D01*
X0578345Y0229444D01*
X0578893Y0228730D01*
X0579530Y0228093D01*
X0580244Y0227545D01*
X0581024Y0227095D01*
X0581856Y0226751D01*
X0582726Y0226518D01*
X0583618Y0226400D01*
X0587968Y0226400D01*
X0587968Y0233268D01*
X0577200Y0233268D01*
X0577200Y0232818D01*
X0577318Y0231926D01*
X0577551Y0231056D01*
X0580681Y0227293D02*
X0564961Y0227293D01*
X0566960Y0219422D02*
X0603299Y0219422D01*
X0603299Y0215487D02*
X0596698Y0215487D01*
X0599836Y0211551D02*
X0603299Y0211551D01*
X0603299Y0207616D02*
X0601537Y0207616D01*
X0601737Y0203680D02*
X0603299Y0203680D01*
X0603299Y0199744D02*
X0601437Y0199744D01*
X0601437Y0195809D02*
X0603299Y0195809D01*
X0603299Y0191873D02*
X0601437Y0191873D01*
X0601527Y0187938D02*
X0603299Y0187938D01*
X0603299Y0184002D02*
X0601737Y0184002D01*
X0601437Y0180067D02*
X0603299Y0180067D01*
X0603299Y0176131D02*
X0601437Y0176131D01*
X0601437Y0172196D02*
X0603299Y0172196D01*
X0603299Y0168260D02*
X0601518Y0168260D01*
X0601737Y0164325D02*
X0603299Y0164325D01*
X0603299Y0160389D02*
X0600415Y0160389D01*
X0597701Y0156454D02*
X0603299Y0156454D01*
X0603299Y0152518D02*
X0590556Y0152518D01*
X0585381Y0152518D02*
X0566890Y0152518D01*
X0566890Y0148583D02*
X0603299Y0148583D01*
X0603299Y0144647D02*
X0564860Y0144647D01*
X0563738Y0140712D02*
X0577895Y0140712D01*
X0577895Y0140713D02*
X0577551Y0139881D01*
X0577318Y0139011D01*
X0577200Y0138119D01*
X0577200Y0137669D01*
X0587968Y0137669D01*
X0587968Y0137668D01*
X0587969Y0137668D01*
X0587969Y0130800D01*
X0592319Y0130800D01*
X0593211Y0130918D01*
X0594081Y0131151D01*
X0594913Y0131495D01*
X0595693Y0131945D01*
X0596407Y0132493D01*
X0597044Y0133130D01*
X0597592Y0133844D01*
X0598042Y0134624D01*
X0598386Y0135456D01*
X0598619Y0136326D01*
X0598737Y0137218D01*
X0598737Y0137668D01*
X0587969Y0137668D01*
X0587969Y0137669D01*
X0587968Y0137669D01*
X0587968Y0144537D01*
X0583618Y0144537D01*
X0582726Y0144419D01*
X0581856Y0144186D01*
X0581024Y0143842D01*
X0580244Y0143392D01*
X0579530Y0142844D01*
X0578893Y0142207D01*
X0578345Y0141493D01*
X0577895Y0140713D01*
X0577200Y0137668D02*
X0577200Y0137218D01*
X0577318Y0136326D01*
X0577551Y0135456D01*
X0577895Y0134624D01*
X0578345Y0133844D01*
X0578893Y0133130D01*
X0579530Y0132493D01*
X0580244Y0131945D01*
X0581024Y0131495D01*
X0581856Y0131151D01*
X0582726Y0130918D01*
X0583618Y0130800D01*
X0587968Y0130800D01*
X0587968Y0137668D01*
X0577200Y0137668D01*
X0577258Y0136776D02*
X0546537Y0136776D01*
X0546537Y0140712D02*
X0552199Y0140712D01*
X0557968Y0140712D02*
X0557969Y0140712D01*
X0546196Y0132841D02*
X0579183Y0132841D01*
X0587968Y0132841D02*
X0587969Y0132841D01*
X0587968Y0136776D02*
X0587969Y0136776D01*
X0587969Y0137669D02*
X0598737Y0137669D01*
X0598737Y0138119D01*
X0598619Y0139011D01*
X0598386Y0139881D01*
X0598042Y0140713D01*
X0597592Y0141493D01*
X0597044Y0142207D01*
X0596407Y0142844D01*
X0595693Y0143392D01*
X0594913Y0143842D01*
X0594081Y0144186D01*
X0593211Y0144419D01*
X0592319Y0144537D01*
X0587969Y0144537D01*
X0587969Y0137669D01*
X0587968Y0140712D02*
X0587969Y0140712D01*
X0598042Y0140712D02*
X0603299Y0140712D01*
X0603299Y0136776D02*
X0598679Y0136776D01*
X0596754Y0132841D02*
X0603299Y0132841D01*
X0603299Y0128905D02*
X0543623Y0128905D01*
X0541247Y0124970D02*
X0603299Y0124970D01*
X0603299Y0121034D02*
X0598030Y0121034D01*
X0598042Y0121013D02*
X0597592Y0121793D01*
X0597044Y0122507D01*
X0596407Y0123144D01*
X0595693Y0123692D01*
X0594913Y0124142D01*
X0594081Y0124486D01*
X0593211Y0124719D01*
X0592319Y0124837D01*
X0587969Y0124837D01*
X0587969Y0117969D01*
X0587968Y0117969D01*
X0587968Y0117968D01*
X0587969Y0117968D01*
X0587969Y0111100D01*
X0592319Y0111100D01*
X0593211Y0111218D01*
X0594081Y0111451D01*
X0594913Y0111795D01*
X0595693Y0112245D01*
X0596407Y0112793D01*
X0597044Y0113430D01*
X0597592Y0114144D01*
X0598042Y0114924D01*
X0598386Y0115756D01*
X0598619Y0116626D01*
X0598737Y0117518D01*
X0598737Y0117968D01*
X0587969Y0117968D01*
X0587969Y0117969D01*
X0598737Y0117969D01*
X0598737Y0118419D01*
X0598619Y0119311D01*
X0598386Y0120181D01*
X0598042Y0121013D01*
X0598682Y0117099D02*
X0603299Y0117099D01*
X0603299Y0113163D02*
X0596777Y0113163D01*
X0603299Y0109228D02*
X0569736Y0109228D01*
X0569736Y0105292D02*
X0603299Y0105292D01*
X0603299Y0101356D02*
X0598017Y0101356D01*
X0598042Y0101313D02*
X0597592Y0102093D01*
X0597044Y0102807D01*
X0596407Y0103444D01*
X0595693Y0103992D01*
X0594913Y0104442D01*
X0594081Y0104786D01*
X0593211Y0105019D01*
X0592319Y0105137D01*
X0587969Y0105137D01*
X0587969Y0098269D01*
X0587968Y0098269D01*
X0587968Y0098268D01*
X0587969Y0098268D01*
X0587969Y0091400D01*
X0592319Y0091400D01*
X0593211Y0091518D01*
X0594081Y0091751D01*
X0594913Y0092095D01*
X0595693Y0092545D01*
X0596407Y0093093D01*
X0597044Y0093730D01*
X0597592Y0094444D01*
X0598042Y0095224D01*
X0598386Y0096056D01*
X0598619Y0096926D01*
X0598737Y0097818D01*
X0598737Y0098268D01*
X0587969Y0098268D01*
X0587969Y0098269D01*
X0598737Y0098269D01*
X0598737Y0098719D01*
X0598619Y0099611D01*
X0598386Y0100481D01*
X0598042Y0101313D01*
X0598685Y0097421D02*
X0603299Y0097421D01*
X0603299Y0093485D02*
X0596799Y0093485D01*
X0603299Y0089550D02*
X0569736Y0089550D01*
X0569736Y0085614D02*
X0603299Y0085614D01*
X0603299Y0081679D02*
X0564365Y0081679D01*
X0568273Y0093485D02*
X0579138Y0093485D01*
X0578893Y0093730D02*
X0579530Y0093093D01*
X0580244Y0092545D01*
X0581024Y0092095D01*
X0581856Y0091751D01*
X0582726Y0091518D01*
X0583618Y0091400D01*
X0587968Y0091400D01*
X0587968Y0098268D01*
X0577200Y0098268D01*
X0577200Y0097818D01*
X0577318Y0096926D01*
X0577551Y0096056D01*
X0577895Y0095224D01*
X0578345Y0094444D01*
X0578893Y0093730D01*
X0577252Y0097421D02*
X0545237Y0097421D01*
X0564069Y0101356D02*
X0577920Y0101356D01*
X0577895Y0101313D02*
X0577551Y0100481D01*
X0577318Y0099611D01*
X0577200Y0098719D01*
X0577200Y0098269D01*
X0587968Y0098269D01*
X0587968Y0105137D01*
X0583618Y0105137D01*
X0582726Y0105019D01*
X0581856Y0104786D01*
X0581024Y0104442D01*
X0580244Y0103992D01*
X0579530Y0103444D01*
X0578893Y0102807D01*
X0578345Y0102093D01*
X0577895Y0101313D01*
X0587968Y0101356D02*
X0587969Y0101356D01*
X0587968Y0097421D02*
X0587969Y0097421D01*
X0587968Y0093485D02*
X0587969Y0093485D01*
X0587968Y0111100D02*
X0583618Y0111100D01*
X0582726Y0111218D01*
X0581856Y0111451D01*
X0581024Y0111795D01*
X0580244Y0112245D01*
X0579530Y0112793D01*
X0578893Y0113430D01*
X0578345Y0114144D01*
X0577895Y0114924D01*
X0577551Y0115756D01*
X0577318Y0116626D01*
X0577200Y0117518D01*
X0577200Y0117968D01*
X0587968Y0117968D01*
X0587968Y0111100D01*
X0587968Y0113163D02*
X0587969Y0113163D01*
X0587968Y0117099D02*
X0587969Y0117099D01*
X0587968Y0117969D02*
X0577200Y0117969D01*
X0577200Y0118419D01*
X0577318Y0119311D01*
X0577551Y0120181D01*
X0577895Y0121013D01*
X0578345Y0121793D01*
X0578893Y0122507D01*
X0579530Y0123144D01*
X0580244Y0123692D01*
X0581024Y0124142D01*
X0581856Y0124486D01*
X0582726Y0124719D01*
X0583618Y0124837D01*
X0587968Y0124837D01*
X0587968Y0117969D01*
X0587968Y0121034D02*
X0587969Y0121034D01*
X0577907Y0121034D02*
X0544566Y0121034D01*
X0545237Y0117099D02*
X0577255Y0117099D01*
X0579160Y0113163D02*
X0568724Y0113163D01*
X0516343Y0124970D02*
X0445249Y0124970D01*
X0447688Y0128905D02*
X0462314Y0128905D01*
X0459741Y0132841D02*
X0448696Y0132841D01*
X0449037Y0136776D02*
X0459400Y0136776D01*
X0459400Y0140712D02*
X0449037Y0140712D01*
X0393200Y0185237D02*
X0389651Y0185237D01*
X0389432Y0185328D01*
X0387737Y0185328D01*
X0387737Y0205511D01*
X0388331Y0205208D01*
X0389165Y0204937D01*
X0390030Y0204800D01*
X0390468Y0204800D01*
X0390468Y0212968D01*
X0390469Y0212968D01*
X0390469Y0204800D01*
X0390907Y0204800D01*
X0391772Y0204937D01*
X0392606Y0205208D01*
X0393200Y0205511D01*
X0393200Y0185237D01*
X0393200Y0187938D02*
X0387737Y0187938D01*
X0387737Y0191873D02*
X0393200Y0191873D01*
X0393200Y0195809D02*
X0387737Y0195809D01*
X0387737Y0199744D02*
X0393200Y0199744D01*
X0393200Y0203680D02*
X0387737Y0203680D01*
X0390468Y0207616D02*
X0390469Y0207616D01*
X0390468Y0211551D02*
X0390469Y0211551D01*
X0390468Y0212969D02*
X0390468Y0221137D01*
X0390030Y0221137D01*
X0389165Y0221000D01*
X0388331Y0220729D01*
X0387731Y0220423D01*
X0385322Y0222833D01*
X0382173Y0224137D01*
X0378764Y0224137D01*
X0375615Y0222833D01*
X0375468Y0222686D01*
X0375322Y0222833D01*
X0372173Y0224137D01*
X0368764Y0224137D01*
X0365615Y0222833D01*
X0365468Y0222686D01*
X0365322Y0222833D01*
X0362173Y0224137D01*
X0358764Y0224137D01*
X0355615Y0222833D01*
X0353204Y0220422D01*
X0353128Y0220237D01*
X0349288Y0220237D01*
X0349390Y0220482D01*
X0349390Y0224440D01*
X0378154Y0224440D01*
X0380468Y0225399D01*
X0382783Y0224440D01*
X0431547Y0224440D01*
X0431547Y0220482D01*
X0431649Y0220237D01*
X0427809Y0220237D01*
X0427733Y0220422D01*
X0425322Y0222833D01*
X0422173Y0224137D01*
X0418764Y0224137D01*
X0415615Y0222833D01*
X0415468Y0222686D01*
X0415322Y0222833D01*
X0412173Y0224137D01*
X0408764Y0224137D01*
X0405615Y0222833D01*
X0405469Y0222686D01*
X0405322Y0222833D01*
X0402173Y0224137D01*
X0398764Y0224137D01*
X0395615Y0222833D01*
X0393206Y0220423D01*
X0392606Y0220729D01*
X0391772Y0221000D01*
X0390907Y0221137D01*
X0390469Y0221137D01*
X0390469Y0212969D01*
X0390468Y0212969D01*
X0390468Y0215487D02*
X0390469Y0215487D01*
X0390468Y0219422D02*
X0390469Y0219422D01*
X0396882Y0223358D02*
X0384055Y0223358D01*
X0376882Y0223358D02*
X0374055Y0223358D01*
X0366882Y0223358D02*
X0364055Y0223358D01*
X0356882Y0223358D02*
X0349390Y0223358D01*
X0347737Y0239100D02*
X0351900Y0239100D01*
X0351900Y0243035D02*
X0348622Y0243035D01*
X0348622Y0246971D02*
X0351900Y0246971D01*
X0353200Y0250906D02*
X0348223Y0250906D01*
X0353605Y0270584D02*
X0316182Y0270584D01*
X0316182Y0274519D02*
X0361430Y0274519D01*
X0356201Y0278455D02*
X0316182Y0278455D01*
X0316182Y0282390D02*
X0356201Y0282390D01*
X0358556Y0286326D02*
X0335095Y0286326D01*
X0333769Y0285000D02*
X0338437Y0289668D01*
X0338437Y0292968D01*
X0330469Y0292968D01*
X0330469Y0292969D01*
X0338437Y0292969D01*
X0338437Y0296269D01*
X0333769Y0300937D01*
X0330469Y0300937D01*
X0330469Y0292969D01*
X0330468Y0292969D01*
X0330468Y0292968D01*
X0330469Y0292968D01*
X0330469Y0285000D01*
X0333769Y0285000D01*
X0330468Y0285000D02*
X0330468Y0292968D01*
X0322500Y0292968D01*
X0322500Y0289668D01*
X0327168Y0285000D01*
X0330468Y0285000D01*
X0330468Y0286326D02*
X0330469Y0286326D01*
X0330468Y0290261D02*
X0330469Y0290261D01*
X0330468Y0292969D02*
X0322500Y0292969D01*
X0322500Y0296269D01*
X0327168Y0300937D01*
X0330468Y0300937D01*
X0330468Y0292969D01*
X0330468Y0294197D02*
X0330469Y0294197D01*
X0330468Y0298132D02*
X0330469Y0298132D01*
X0336574Y0298132D02*
X0409949Y0298132D01*
X0411500Y0301969D02*
X0420468Y0301969D01*
X0420468Y0307937D01*
X0416999Y0307937D01*
X0416071Y0307790D01*
X0415177Y0307500D01*
X0414340Y0307073D01*
X0413580Y0306521D01*
X0412916Y0305857D01*
X0412364Y0305097D01*
X0411937Y0304260D01*
X0411647Y0303366D01*
X0411500Y0302438D01*
X0411500Y0301969D01*
X0411500Y0302068D02*
X0316645Y0302068D01*
X0320152Y0298132D02*
X0324363Y0298132D01*
X0322500Y0294197D02*
X0321437Y0294197D01*
X0321099Y0290261D02*
X0322500Y0290261D01*
X0319299Y0286326D02*
X0325842Y0286326D01*
X0338437Y0290261D02*
X0408882Y0290261D01*
X0408738Y0286326D02*
X0377025Y0286326D01*
X0377736Y0282390D02*
X0408500Y0282390D01*
X0410299Y0278455D02*
X0377736Y0278455D01*
X0376987Y0274519D02*
X0384547Y0274519D01*
X0390468Y0274519D02*
X0390469Y0274519D01*
X0396390Y0274519D02*
X0411547Y0274519D01*
X0411547Y0270584D02*
X0398066Y0270584D01*
X0399390Y0266648D02*
X0411547Y0266648D01*
X0411547Y0262713D02*
X0399390Y0262713D01*
X0398684Y0258777D02*
X0412253Y0258777D01*
X0413200Y0254842D02*
X0397737Y0254842D01*
X0383200Y0254842D02*
X0377737Y0254842D01*
X0377737Y0253712D02*
X0377737Y0258109D01*
X0379432Y0258109D01*
X0379651Y0258200D01*
X0382544Y0258200D01*
X0383200Y0257544D01*
X0383200Y0253712D01*
X0382173Y0254137D01*
X0378764Y0254137D01*
X0377737Y0253712D01*
X0404055Y0223358D02*
X0406882Y0223358D01*
X0414055Y0223358D02*
X0416882Y0223358D01*
X0424055Y0223358D02*
X0431547Y0223358D01*
X0427737Y0250906D02*
X0577510Y0250906D01*
X0577551Y0250756D02*
X0577895Y0249924D01*
X0578345Y0249144D01*
X0578893Y0248430D01*
X0579530Y0247793D01*
X0580244Y0247245D01*
X0581024Y0246795D01*
X0581856Y0246451D01*
X0582726Y0246218D01*
X0583618Y0246100D01*
X0587968Y0246100D01*
X0587968Y0252968D01*
X0587969Y0252968D01*
X0587969Y0246100D01*
X0592319Y0246100D01*
X0593211Y0246218D01*
X0594081Y0246451D01*
X0594913Y0246795D01*
X0595693Y0247245D01*
X0596407Y0247793D01*
X0597044Y0248430D01*
X0597592Y0249144D01*
X0598042Y0249924D01*
X0598386Y0250756D01*
X0598619Y0251626D01*
X0598737Y0252518D01*
X0598737Y0252968D01*
X0587969Y0252968D01*
X0587969Y0252969D01*
X0587968Y0252969D01*
X0587968Y0252968D01*
X0577200Y0252968D01*
X0577200Y0252518D01*
X0577318Y0251626D01*
X0577551Y0250756D01*
X0577200Y0252969D02*
X0587968Y0252969D01*
X0587968Y0259837D01*
X0583618Y0259837D01*
X0582726Y0259719D01*
X0581856Y0259486D01*
X0581024Y0259142D01*
X0580244Y0258692D01*
X0579530Y0258144D01*
X0578893Y0257507D01*
X0578345Y0256793D01*
X0577895Y0256013D01*
X0577551Y0255181D01*
X0577318Y0254311D01*
X0577200Y0253419D01*
X0577200Y0252969D01*
X0577460Y0254842D02*
X0427737Y0254842D01*
X0428684Y0258777D02*
X0439476Y0258777D01*
X0436500Y0262713D02*
X0429390Y0262713D01*
X0429390Y0266648D02*
X0436500Y0266648D01*
X0436547Y0270584D02*
X0429390Y0270584D01*
X0429390Y0274519D02*
X0436301Y0274519D01*
X0432366Y0278455D02*
X0430638Y0278455D01*
X0445792Y0290261D02*
X0569128Y0290261D01*
X0565193Y0294197D02*
X0441857Y0294197D01*
X0437921Y0298132D02*
X0561257Y0298132D01*
X0557322Y0302068D02*
X0429437Y0302068D01*
X0429437Y0301969D02*
X0429437Y0302438D01*
X0429290Y0303366D01*
X0429000Y0304260D01*
X0428573Y0305097D01*
X0428021Y0305857D01*
X0427357Y0306521D01*
X0426597Y0307073D01*
X0425760Y0307500D01*
X0424866Y0307790D01*
X0423938Y0307937D01*
X0420469Y0307937D01*
X0420469Y0301969D01*
X0429437Y0301969D01*
X0427874Y0306003D02*
X0553938Y0306003D01*
X0552337Y0309939D02*
X0531390Y0309939D01*
X0533732Y0313875D02*
X0552000Y0313875D01*
X0552000Y0317810D02*
X0534390Y0317810D01*
X0539392Y0321746D02*
X0552000Y0321746D01*
X0552000Y0325681D02*
X0540328Y0325681D01*
X0539216Y0329617D02*
X0552000Y0329617D01*
X0552000Y0333552D02*
X0534390Y0333552D01*
X0534390Y0337488D02*
X0549402Y0337488D01*
X0545467Y0341423D02*
X0534390Y0341423D01*
X0534390Y0345359D02*
X0541531Y0345359D01*
X0537595Y0349294D02*
X0532737Y0349294D01*
X0532737Y0353230D02*
X0533660Y0353230D01*
X0518200Y0353230D02*
X0502937Y0353230D01*
X0502937Y0357165D02*
X0518200Y0357165D01*
X0518200Y0361101D02*
X0502937Y0361101D01*
X0502937Y0365036D02*
X0518458Y0365036D01*
X0518200Y0349294D02*
X0502937Y0349294D01*
X0502937Y0345359D02*
X0516547Y0345359D01*
X0516547Y0341423D02*
X0501819Y0341423D01*
X0499035Y0337488D02*
X0516547Y0337488D01*
X0516547Y0333552D02*
X0495099Y0333552D01*
X0491164Y0329617D02*
X0516906Y0329617D01*
X0517988Y0325681D02*
X0487228Y0325681D01*
X0516547Y0321746D02*
X0160328Y0321746D01*
X0160237Y0325681D02*
X0303709Y0325681D01*
X0299773Y0329617D02*
X0160237Y0329617D01*
X0160237Y0333552D02*
X0295838Y0333552D01*
X0291902Y0337488D02*
X0160267Y0337488D01*
X0164202Y0341423D02*
X0287967Y0341423D01*
X0284031Y0345359D02*
X0166669Y0345359D01*
X0166737Y0349294D02*
X0280095Y0349294D01*
X0276807Y0353230D02*
X0166737Y0353230D01*
X0166737Y0357165D02*
X0275276Y0357165D01*
X0275000Y0361101D02*
X0166737Y0361101D01*
X0166737Y0365036D02*
X0275000Y0365036D01*
X0275000Y0368972D02*
X0167019Y0368972D01*
X0170955Y0372907D02*
X0275000Y0372907D01*
X0275000Y0376843D02*
X0172937Y0376843D01*
X0172937Y0380778D02*
X0275000Y0380778D01*
X0275394Y0384714D02*
X0172937Y0384714D01*
X0152200Y0368690D02*
X0152200Y0349979D01*
X0149958Y0347737D01*
X0148393Y0347737D01*
X0147649Y0348481D01*
X0145455Y0349390D01*
X0130482Y0349390D01*
X0128288Y0348481D01*
X0127544Y0347737D01*
X0125390Y0347737D01*
X0125390Y0370342D01*
X0127218Y0372171D01*
X0132390Y0367000D01*
X0143547Y0367000D01*
X0148719Y0372171D01*
X0152200Y0368690D01*
X0151918Y0368972D02*
X0145519Y0368972D01*
X0152200Y0365036D02*
X0125390Y0365036D01*
X0125390Y0361101D02*
X0152200Y0361101D01*
X0152200Y0357165D02*
X0125390Y0357165D01*
X0125390Y0353230D02*
X0152200Y0353230D01*
X0151515Y0349294D02*
X0145686Y0349294D01*
X0130251Y0349294D02*
X0125390Y0349294D01*
X0107547Y0349294D02*
X0069456Y0349294D01*
X0069959Y0349502D02*
X0072735Y0352278D01*
X0074237Y0355906D01*
X0074237Y0359831D01*
X0072735Y0363459D01*
X0069959Y0366235D01*
X0066331Y0367737D01*
X0054606Y0367737D01*
X0050978Y0366235D01*
X0048202Y0363459D01*
X0046700Y0359831D01*
X0046700Y0355906D01*
X0048202Y0352278D01*
X0050978Y0349502D01*
X0054606Y0348000D01*
X0066331Y0348000D01*
X0069959Y0349502D01*
X0073129Y0353230D02*
X0107547Y0353230D01*
X0107547Y0357165D02*
X0074237Y0357165D01*
X0073711Y0361101D02*
X0107547Y0361101D01*
X0107547Y0365036D02*
X0071157Y0365036D01*
X0049780Y0365036D02*
X0034702Y0365036D01*
X0035079Y0365600D02*
X0035749Y0366854D01*
X0036293Y0368167D01*
X0036705Y0369527D01*
X0036983Y0370922D01*
X0037076Y0371866D01*
X0023835Y0371866D01*
X0023835Y0358625D01*
X0024779Y0358718D01*
X0026173Y0358995D01*
X0027534Y0359408D01*
X0028847Y0359952D01*
X0030101Y0360622D01*
X0031283Y0361412D01*
X0032382Y0362314D01*
X0033387Y0363319D01*
X0034289Y0364418D01*
X0035079Y0365600D01*
X0036537Y0368972D02*
X0107547Y0368972D01*
X0104982Y0372907D02*
X0023835Y0372907D01*
X0023835Y0368972D02*
X0021472Y0368972D01*
X0021472Y0365036D02*
X0023835Y0365036D01*
X0023835Y0361101D02*
X0021472Y0361101D01*
X0014490Y0361101D02*
X0008937Y0361101D01*
X0008937Y0365036D02*
X0010605Y0365036D01*
X0008937Y0357165D02*
X0046700Y0357165D01*
X0047226Y0361101D02*
X0030817Y0361101D01*
X0047808Y0353230D02*
X0008937Y0353230D01*
X0008937Y0349294D02*
X0051481Y0349294D01*
X0053524Y0344242D02*
X0052744Y0343792D01*
X0052030Y0343244D01*
X0051393Y0342607D01*
X0050845Y0341893D01*
X0050395Y0341113D01*
X0050051Y0340281D01*
X0049818Y0339411D01*
X0049700Y0338519D01*
X0049700Y0338069D01*
X0060468Y0338069D01*
X0060468Y0344937D01*
X0056118Y0344937D01*
X0055226Y0344819D01*
X0054356Y0344586D01*
X0053524Y0344242D01*
X0050574Y0341423D02*
X0008937Y0341423D01*
X0008937Y0337488D02*
X0049717Y0337488D01*
X0049700Y0337618D02*
X0049818Y0336726D01*
X0050051Y0335856D01*
X0050395Y0335024D01*
X0050845Y0334244D01*
X0051393Y0333530D01*
X0052030Y0332893D01*
X0052744Y0332345D01*
X0053524Y0331895D01*
X0054356Y0331551D01*
X0055226Y0331318D01*
X0056118Y0331200D01*
X0060468Y0331200D01*
X0060468Y0338068D01*
X0060469Y0338068D01*
X0060469Y0338069D01*
X0060468Y0338069D01*
X0060468Y0338068D01*
X0049700Y0338068D01*
X0049700Y0337618D01*
X0051376Y0333552D02*
X0008937Y0333552D01*
X0008937Y0329617D02*
X0107547Y0329617D01*
X0107547Y0333552D02*
X0069561Y0333552D01*
X0069544Y0333530D02*
X0070092Y0334244D01*
X0070542Y0335024D01*
X0070886Y0335856D01*
X0071119Y0336726D01*
X0071237Y0337618D01*
X0071237Y0338068D01*
X0060469Y0338068D01*
X0060469Y0331200D01*
X0064819Y0331200D01*
X0065711Y0331318D01*
X0066581Y0331551D01*
X0067413Y0331895D01*
X0068193Y0332345D01*
X0068907Y0332893D01*
X0069544Y0333530D01*
X0071220Y0337488D02*
X0085096Y0337488D01*
X0084801Y0337782D02*
X0085499Y0337085D01*
X0086297Y0336505D01*
X0087176Y0336057D01*
X0088115Y0335752D01*
X0089089Y0335598D01*
X0089583Y0335598D01*
X0090076Y0335598D01*
X0091051Y0335752D01*
X0091989Y0336057D01*
X0092868Y0336505D01*
X0093666Y0337085D01*
X0094364Y0337782D01*
X0094944Y0338581D01*
X0095392Y0339460D01*
X0095697Y0340398D01*
X0095851Y0341373D01*
X0095851Y0341866D01*
X0089583Y0341866D01*
X0089583Y0341866D01*
X0095851Y0341866D01*
X0095851Y0342359D01*
X0095697Y0343334D01*
X0095392Y0344272D01*
X0094944Y0345152D01*
X0094364Y0345950D01*
X0093666Y0346647D01*
X0092868Y0347227D01*
X0091989Y0347675D01*
X0091051Y0347980D01*
X0090076Y0348135D01*
X0089583Y0348135D01*
X0089583Y0341866D01*
X0089583Y0335598D01*
X0089583Y0341866D01*
X0089583Y0341866D01*
X0089583Y0341866D01*
X0083314Y0341866D01*
X0083314Y0341373D01*
X0083469Y0340398D01*
X0083773Y0339460D01*
X0084221Y0338581D01*
X0084801Y0337782D01*
X0083314Y0341423D02*
X0070363Y0341423D01*
X0070542Y0341113D02*
X0070092Y0341893D01*
X0069544Y0342607D01*
X0068907Y0343244D01*
X0068193Y0343792D01*
X0067413Y0344242D01*
X0066581Y0344586D01*
X0065711Y0344819D01*
X0064819Y0344937D01*
X0060469Y0344937D01*
X0060469Y0338069D01*
X0071237Y0338069D01*
X0071237Y0338519D01*
X0071119Y0339411D01*
X0070886Y0340281D01*
X0070542Y0341113D01*
X0060469Y0341423D02*
X0060468Y0341423D01*
X0060468Y0337488D02*
X0060469Y0337488D01*
X0060468Y0333552D02*
X0060469Y0333552D01*
X0066331Y0327737D02*
X0054606Y0327737D01*
X0050978Y0326235D01*
X0048202Y0323459D01*
X0046700Y0319831D01*
X0046700Y0315906D01*
X0048202Y0312278D01*
X0050978Y0309502D01*
X0054606Y0308000D01*
X0066331Y0308000D01*
X0069959Y0309502D01*
X0072735Y0312278D01*
X0074237Y0315906D01*
X0074237Y0319831D01*
X0072735Y0323459D01*
X0069959Y0326235D01*
X0066331Y0327737D01*
X0070512Y0325681D02*
X0107547Y0325681D01*
X0107547Y0321746D02*
X0073444Y0321746D01*
X0074237Y0317810D02*
X0107547Y0317810D01*
X0107547Y0313875D02*
X0073396Y0313875D01*
X0070395Y0309939D02*
X0084853Y0309939D01*
X0081264Y0306003D02*
X0008937Y0306003D01*
X0008937Y0302068D02*
X0050980Y0302068D01*
X0050845Y0301893D02*
X0050395Y0301113D01*
X0050051Y0300281D01*
X0049818Y0299411D01*
X0049700Y0298519D01*
X0049700Y0298069D01*
X0060468Y0298069D01*
X0060468Y0304937D01*
X0056118Y0304937D01*
X0055226Y0304819D01*
X0054356Y0304586D01*
X0053524Y0304242D01*
X0052744Y0303792D01*
X0052030Y0303244D01*
X0051393Y0302607D01*
X0050845Y0301893D01*
X0049700Y0298132D02*
X0008937Y0298132D01*
X0008937Y0294197D02*
X0050882Y0294197D01*
X0050845Y0294244D02*
X0051393Y0293530D01*
X0052030Y0292893D01*
X0052744Y0292345D01*
X0053524Y0291895D01*
X0054356Y0291551D01*
X0055226Y0291318D01*
X0056118Y0291200D01*
X0060468Y0291200D01*
X0060468Y0298068D01*
X0060469Y0298068D01*
X0060469Y0298069D01*
X0060468Y0298069D01*
X0060468Y0298068D01*
X0049700Y0298068D01*
X0049700Y0297618D01*
X0049818Y0296726D01*
X0050051Y0295856D01*
X0050395Y0295024D01*
X0050845Y0294244D01*
X0060468Y0294197D02*
X0060469Y0294197D01*
X0060469Y0291200D02*
X0064819Y0291200D01*
X0065711Y0291318D01*
X0066581Y0291551D01*
X0067413Y0291895D01*
X0068193Y0292345D01*
X0068907Y0292893D01*
X0069544Y0293530D01*
X0070092Y0294244D01*
X0070542Y0295024D01*
X0070886Y0295856D01*
X0071119Y0296726D01*
X0071237Y0297618D01*
X0071237Y0298068D01*
X0060469Y0298068D01*
X0060469Y0291200D01*
X0060469Y0298069D02*
X0071237Y0298069D01*
X0071237Y0298519D01*
X0071119Y0299411D01*
X0070886Y0300281D01*
X0070542Y0301113D01*
X0070092Y0301893D01*
X0069544Y0302607D01*
X0068907Y0303244D01*
X0068193Y0303792D01*
X0067413Y0304242D01*
X0066581Y0304586D01*
X0065711Y0304819D01*
X0064819Y0304937D01*
X0060469Y0304937D01*
X0060469Y0298069D01*
X0060468Y0298132D02*
X0060469Y0298132D01*
X0060468Y0302068D02*
X0060469Y0302068D01*
X0069957Y0302068D02*
X0080314Y0302068D01*
X0081097Y0298132D02*
X0071237Y0298132D01*
X0070055Y0294197D02*
X0079720Y0294197D01*
X0078500Y0290261D02*
X0008937Y0290261D01*
X0008937Y0286326D02*
X0079063Y0286326D01*
X0078557Y0282390D02*
X0008937Y0282390D01*
X0008937Y0278455D02*
X0078595Y0278455D01*
X0095766Y0262713D02*
X0123607Y0262713D01*
X0132968Y0262713D02*
X0132969Y0262713D01*
X0142330Y0262713D02*
X0266204Y0262713D01*
X0270140Y0266648D02*
X0146266Y0266648D01*
X0146537Y0270584D02*
X0149752Y0270584D01*
X0148705Y0274519D02*
X0146035Y0274519D01*
X0146547Y0278455D02*
X0145237Y0278455D01*
X0145237Y0282390D02*
X0146547Y0282390D01*
X0146908Y0286326D02*
X0145237Y0286326D01*
X0145237Y0290261D02*
X0147983Y0290261D01*
X0146547Y0294197D02*
X0145237Y0294197D01*
X0162954Y0290261D02*
X0293753Y0290261D01*
X0289817Y0286326D02*
X0164029Y0286326D01*
X0164390Y0282390D02*
X0285882Y0282390D01*
X0281946Y0278455D02*
X0164390Y0278455D01*
X0162232Y0274519D02*
X0278011Y0274519D01*
X0274075Y0270584D02*
X0161185Y0270584D01*
X0155469Y0270584D02*
X0155468Y0270584D01*
X0164390Y0294197D02*
X0297688Y0294197D01*
X0300785Y0298132D02*
X0164390Y0298132D01*
X0164390Y0302068D02*
X0185857Y0302068D01*
X0186234Y0301692D02*
X0188735Y0300247D01*
X0191524Y0299500D01*
X0194413Y0299500D01*
X0197202Y0300247D01*
X0199703Y0301692D01*
X0201745Y0303734D01*
X0203190Y0306235D01*
X0203937Y0309024D01*
X0203937Y0311913D01*
X0203190Y0314702D01*
X0201745Y0317203D01*
X0199703Y0319245D01*
X0197202Y0320690D01*
X0194413Y0321437D01*
X0191524Y0321437D01*
X0188735Y0320690D01*
X0186234Y0319245D01*
X0184192Y0317203D01*
X0182747Y0314702D01*
X0182000Y0311913D01*
X0182000Y0309024D01*
X0182747Y0306235D01*
X0184192Y0303734D01*
X0186234Y0301692D01*
X0182881Y0306003D02*
X0164390Y0306003D01*
X0163568Y0309939D02*
X0182000Y0309939D01*
X0182526Y0313875D02*
X0146890Y0313875D01*
X0147720Y0317810D02*
X0145820Y0317810D01*
X0145609Y0321746D02*
X0145237Y0321746D01*
X0145237Y0325681D02*
X0145700Y0325681D01*
X0145700Y0329617D02*
X0145328Y0329617D01*
X0130609Y0330328D02*
X0129005Y0330328D01*
X0126300Y0329207D01*
X0125390Y0328297D01*
X0125390Y0333200D01*
X0127544Y0333200D01*
X0128288Y0332456D01*
X0130482Y0331547D01*
X0130609Y0331547D01*
X0130609Y0330328D01*
X0127288Y0329617D02*
X0125390Y0329617D01*
X0107547Y0337488D02*
X0094069Y0337488D01*
X0095851Y0341423D02*
X0107547Y0341423D01*
X0107547Y0345359D02*
X0094793Y0345359D01*
X0089583Y0345359D02*
X0089583Y0345359D01*
X0089583Y0348135D02*
X0089583Y0341866D01*
X0089583Y0341866D01*
X0083314Y0341866D01*
X0083314Y0342359D01*
X0083469Y0343334D01*
X0083773Y0344272D01*
X0084221Y0345152D01*
X0084801Y0345950D01*
X0085499Y0346647D01*
X0086297Y0347227D01*
X0087176Y0347675D01*
X0088115Y0347980D01*
X0089089Y0348135D01*
X0089583Y0348135D01*
X0084372Y0345359D02*
X0008937Y0345359D01*
X0008937Y0325681D02*
X0050425Y0325681D01*
X0047493Y0321746D02*
X0008937Y0321746D01*
X0008937Y0317810D02*
X0046700Y0317810D01*
X0047541Y0313875D02*
X0008937Y0313875D01*
X0008937Y0309939D02*
X0050542Y0309939D01*
X0094313Y0309939D02*
X0107547Y0309939D01*
X0107547Y0306003D02*
X0098411Y0306003D01*
X0099390Y0302068D02*
X0107547Y0302068D01*
X0105516Y0298132D02*
X0099390Y0298132D01*
X0101217Y0294197D02*
X0101580Y0294197D01*
X0115007Y0282390D02*
X0119047Y0282390D01*
X0119047Y0280482D02*
X0119770Y0278737D01*
X0111354Y0278737D01*
X0119047Y0286431D01*
X0119047Y0280482D01*
X0118942Y0286326D02*
X0119047Y0286326D01*
X0158217Y0317810D02*
X0184798Y0317810D01*
X0201139Y0317810D02*
X0209041Y0317810D01*
X0209668Y0318437D02*
X0205000Y0313769D01*
X0205000Y0310469D01*
X0212968Y0310469D01*
X0212968Y0310468D01*
X0212969Y0310468D01*
X0212969Y0310469D01*
X0220937Y0310469D01*
X0220937Y0313769D01*
X0216269Y0318437D01*
X0212969Y0318437D01*
X0212969Y0310469D01*
X0212968Y0310469D01*
X0212968Y0318437D01*
X0209668Y0318437D01*
X0212968Y0317810D02*
X0212969Y0317810D01*
X0216896Y0317810D02*
X0516547Y0317810D01*
X0517205Y0313875D02*
X0220832Y0313875D01*
X0220937Y0310468D02*
X0212969Y0310468D01*
X0212969Y0302500D01*
X0216269Y0302500D01*
X0220937Y0307168D01*
X0220937Y0310468D01*
X0220937Y0309939D02*
X0519547Y0309939D01*
X0525468Y0309939D02*
X0525469Y0309939D01*
X0578345Y0276493D02*
X0577895Y0275713D01*
X0577551Y0274881D01*
X0577318Y0274011D01*
X0577200Y0273119D01*
X0577200Y0272669D01*
X0587968Y0272669D01*
X0587968Y0272668D01*
X0587969Y0272668D01*
X0587969Y0265800D01*
X0592319Y0265800D01*
X0593211Y0265918D01*
X0594081Y0266151D01*
X0594913Y0266495D01*
X0595693Y0266945D01*
X0596407Y0267493D01*
X0597044Y0268130D01*
X0597592Y0268844D01*
X0598042Y0269624D01*
X0598386Y0270456D01*
X0598619Y0271326D01*
X0598737Y0272218D01*
X0598737Y0272668D01*
X0587969Y0272668D01*
X0587969Y0272669D01*
X0587968Y0272669D01*
X0587968Y0279537D01*
X0583618Y0279537D01*
X0582726Y0279419D01*
X0581856Y0279186D01*
X0581024Y0278842D01*
X0580244Y0278392D01*
X0579530Y0277844D01*
X0578893Y0277207D01*
X0578345Y0276493D01*
X0577454Y0274519D02*
X0454390Y0274519D01*
X0454390Y0270584D02*
X0577516Y0270584D01*
X0577551Y0270456D02*
X0577895Y0269624D01*
X0578345Y0268844D01*
X0578893Y0268130D01*
X0579530Y0267493D01*
X0580244Y0266945D01*
X0581024Y0266495D01*
X0581856Y0266151D01*
X0582726Y0265918D01*
X0583618Y0265800D01*
X0587968Y0265800D01*
X0587968Y0272668D01*
X0577200Y0272668D01*
X0577200Y0272218D01*
X0577318Y0271326D01*
X0577551Y0270456D01*
X0580759Y0266648D02*
X0454437Y0266648D01*
X0454437Y0262713D02*
X0603299Y0262713D01*
X0603299Y0266648D02*
X0595178Y0266648D01*
X0598421Y0270584D02*
X0603299Y0270584D01*
X0603299Y0274519D02*
X0598483Y0274519D01*
X0598386Y0274881D02*
X0598619Y0274011D01*
X0598737Y0273119D01*
X0598737Y0272669D01*
X0587969Y0272669D01*
X0587969Y0279537D01*
X0592319Y0279537D01*
X0593211Y0279419D01*
X0594081Y0279186D01*
X0594913Y0278842D01*
X0595693Y0278392D01*
X0596407Y0277844D01*
X0597044Y0277207D01*
X0597592Y0276493D01*
X0598042Y0275713D01*
X0598386Y0274881D01*
X0595583Y0278455D02*
X0603299Y0278455D01*
X0603299Y0282390D02*
X0453293Y0282390D01*
X0454390Y0278455D02*
X0580354Y0278455D01*
X0587968Y0278455D02*
X0587969Y0278455D01*
X0587968Y0274519D02*
X0587969Y0274519D01*
X0587968Y0270584D02*
X0587969Y0270584D01*
X0587968Y0266648D02*
X0587969Y0266648D01*
X0587969Y0259837D02*
X0587969Y0252969D01*
X0598737Y0252969D01*
X0598737Y0253419D01*
X0598619Y0254311D01*
X0598386Y0255181D01*
X0598042Y0256013D01*
X0597592Y0256793D01*
X0597044Y0257507D01*
X0596407Y0258144D01*
X0595693Y0258692D01*
X0594913Y0259142D01*
X0594081Y0259486D01*
X0593211Y0259719D01*
X0592319Y0259837D01*
X0587969Y0259837D01*
X0587968Y0258777D02*
X0587969Y0258777D01*
X0587968Y0254842D02*
X0587969Y0254842D01*
X0587968Y0250906D02*
X0587969Y0250906D01*
X0587968Y0246971D02*
X0587969Y0246971D01*
X0595217Y0246971D02*
X0603299Y0246971D01*
X0603299Y0250906D02*
X0598427Y0250906D01*
X0598477Y0254842D02*
X0603299Y0254842D01*
X0603299Y0258777D02*
X0595544Y0258777D01*
X0580393Y0258777D02*
X0451461Y0258777D01*
X0449728Y0286326D02*
X0603299Y0286326D01*
X0603299Y0290261D02*
X0596509Y0290261D01*
X0599726Y0294197D02*
X0603299Y0294197D01*
X0603299Y0298132D02*
X0601458Y0298132D01*
X0601737Y0302068D02*
X0603299Y0302068D01*
X0603299Y0306003D02*
X0600498Y0306003D01*
X0597845Y0309939D02*
X0603299Y0309939D01*
X0603299Y0313875D02*
X0599714Y0313875D01*
X0601449Y0317810D02*
X0603299Y0317810D01*
X0603299Y0321746D02*
X0601737Y0321746D01*
X0600511Y0325681D02*
X0603299Y0325681D01*
X0603299Y0329617D02*
X0597868Y0329617D01*
X0599701Y0333552D02*
X0603299Y0333552D01*
X0603299Y0337488D02*
X0601440Y0337488D01*
X0601737Y0341423D02*
X0603299Y0341423D01*
X0603299Y0345359D02*
X0600521Y0345359D01*
X0597890Y0349294D02*
X0603299Y0349294D01*
X0603299Y0353230D02*
X0591262Y0353230D01*
X0603299Y0357165D02*
X0567819Y0357165D01*
X0563884Y0361101D02*
X0579352Y0361101D01*
X0578886Y0361412D02*
X0580068Y0360622D01*
X0581322Y0359952D01*
X0582636Y0359408D01*
X0583996Y0358995D01*
X0585390Y0358718D01*
X0586335Y0358625D01*
X0586335Y0371866D01*
X0573094Y0371866D01*
X0573187Y0370922D01*
X0573464Y0369527D01*
X0573877Y0368167D01*
X0574421Y0366854D01*
X0575091Y0365600D01*
X0575881Y0364418D01*
X0576782Y0363319D01*
X0577788Y0362314D01*
X0578886Y0361412D01*
X0575467Y0365036D02*
X0559948Y0365036D01*
X0556013Y0368972D02*
X0573632Y0368972D01*
X0573548Y0376843D02*
X0548141Y0376843D01*
X0544206Y0380778D02*
X0575280Y0380778D01*
X0578933Y0384714D02*
X0540270Y0384714D01*
X0552077Y0372907D02*
X0586335Y0372907D01*
X0588697Y0372907D02*
X0603299Y0372907D01*
X0601938Y0371866D02*
X0588697Y0371866D01*
X0588697Y0358625D01*
X0589641Y0358718D01*
X0591036Y0358995D01*
X0592396Y0359408D01*
X0593709Y0359952D01*
X0594963Y0360622D01*
X0596145Y0361412D01*
X0597244Y0362314D01*
X0598249Y0363319D01*
X0599151Y0364418D01*
X0599941Y0365600D01*
X0600611Y0366854D01*
X0601155Y0368167D01*
X0601568Y0369527D01*
X0601845Y0370922D01*
X0601938Y0371866D01*
X0601399Y0368972D02*
X0603299Y0368972D01*
X0603299Y0365036D02*
X0599564Y0365036D01*
X0603299Y0361101D02*
X0595679Y0361101D01*
X0588697Y0361101D02*
X0586335Y0361101D01*
X0586335Y0365036D02*
X0588697Y0365036D01*
X0588697Y0368972D02*
X0586335Y0368972D01*
X0601484Y0376843D02*
X0603299Y0376843D01*
X0603299Y0380778D02*
X0599751Y0380778D01*
X0603299Y0384714D02*
X0596098Y0384714D01*
X0476000Y0369453D02*
X0476000Y0364164D01*
X0475455Y0364390D01*
X0460482Y0364390D01*
X0458288Y0363481D01*
X0457544Y0362737D01*
X0454390Y0362737D01*
X0454390Y0369342D01*
X0457218Y0372171D01*
X0462390Y0367000D01*
X0473547Y0367000D01*
X0476000Y0369453D01*
X0476000Y0368972D02*
X0475519Y0368972D01*
X0476000Y0365036D02*
X0454390Y0365036D01*
X0454390Y0368972D02*
X0460418Y0368972D01*
X0436547Y0368972D02*
X0341244Y0368972D01*
X0341498Y0369225D02*
X0342983Y0371798D01*
X0343752Y0374668D01*
X0343752Y0386764D01*
X0433716Y0386764D01*
X0433000Y0386047D01*
X0433000Y0374890D01*
X0436547Y0371342D01*
X0436547Y0359231D01*
X0436500Y0359183D01*
X0436500Y0351754D01*
X0439317Y0348937D01*
X0318547Y0348937D01*
X0301937Y0365547D01*
X0301937Y0368728D01*
X0303540Y0367125D01*
X0306113Y0365639D01*
X0308983Y0364870D01*
X0311954Y0364870D01*
X0314824Y0365639D01*
X0317397Y0367125D01*
X0319498Y0369225D01*
X0320983Y0371798D01*
X0321468Y0373610D01*
X0321954Y0371798D01*
X0323439Y0369225D01*
X0325540Y0367125D01*
X0328113Y0365639D01*
X0330983Y0364870D01*
X0333954Y0364870D01*
X0336824Y0365639D01*
X0339397Y0367125D01*
X0341498Y0369225D01*
X0343280Y0372907D02*
X0434982Y0372907D01*
X0433000Y0376843D02*
X0343752Y0376843D01*
X0343752Y0380778D02*
X0433000Y0380778D01*
X0433000Y0384714D02*
X0343752Y0384714D01*
X0321657Y0372907D02*
X0321280Y0372907D01*
X0319244Y0368972D02*
X0323693Y0368972D01*
X0330363Y0365036D02*
X0312574Y0365036D01*
X0308363Y0365036D02*
X0302448Y0365036D01*
X0306384Y0361101D02*
X0436547Y0361101D01*
X0436547Y0365036D02*
X0334574Y0365036D01*
X0314255Y0353230D02*
X0436500Y0353230D01*
X0436500Y0357165D02*
X0310319Y0357165D01*
X0318190Y0349294D02*
X0438959Y0349294D01*
X0420468Y0306003D02*
X0420469Y0306003D01*
X0420468Y0302068D02*
X0420469Y0302068D01*
X0413063Y0306003D02*
X0219773Y0306003D01*
X0212969Y0306003D02*
X0212968Y0306003D01*
X0212968Y0302500D02*
X0212968Y0310468D01*
X0205000Y0310468D01*
X0205000Y0307168D01*
X0209668Y0302500D01*
X0212968Y0302500D01*
X0212968Y0309939D02*
X0212969Y0309939D01*
X0212968Y0313875D02*
X0212969Y0313875D01*
X0205105Y0313875D02*
X0203411Y0313875D01*
X0203937Y0309939D02*
X0205000Y0309939D01*
X0206164Y0306003D02*
X0203056Y0306003D01*
X0200080Y0302068D02*
X0304292Y0302068D01*
X0338437Y0294197D02*
X0408500Y0294197D01*
X0559155Y0246971D02*
X0580720Y0246971D01*
X0587968Y0239100D02*
X0587969Y0239100D01*
X0587968Y0235164D02*
X0587969Y0235164D01*
X0587968Y0231229D02*
X0587969Y0231229D01*
X0587968Y0227293D02*
X0587969Y0227293D01*
X0550700Y0184002D02*
X0523952Y0184002D01*
X0526702Y0180067D02*
X0549922Y0180067D01*
X0549047Y0176131D02*
X0527343Y0176131D01*
X0526497Y0172196D02*
X0549047Y0172196D01*
X0566476Y0156454D02*
X0578236Y0156454D01*
X0529268Y0154547D02*
X0527969Y0153248D01*
X0526916Y0154300D01*
X0527018Y0154547D01*
X0529268Y0154547D01*
X0493238Y0187938D02*
X0427736Y0187938D01*
X0427737Y0191873D02*
X0495525Y0191873D01*
X0509743Y0191873D02*
X0511532Y0191873D01*
X0391521Y0069300D02*
X0384307Y0062086D01*
X0383200Y0059414D01*
X0383200Y0057926D01*
X0382606Y0058229D01*
X0381772Y0058500D01*
X0380907Y0058637D01*
X0380469Y0058637D01*
X0380469Y0050469D01*
X0380468Y0050469D01*
X0380468Y0058637D01*
X0380030Y0058637D01*
X0379165Y0058500D01*
X0378331Y0058229D01*
X0377737Y0057926D01*
X0377737Y0061914D01*
X0376630Y0064586D01*
X0374586Y0066630D01*
X0371916Y0069300D01*
X0372173Y0069300D01*
X0375322Y0070604D01*
X0375469Y0070751D01*
X0375615Y0070604D01*
X0378764Y0069300D01*
X0382173Y0069300D01*
X0385322Y0070604D01*
X0385469Y0070751D01*
X0385615Y0070604D01*
X0388764Y0069300D01*
X0391521Y0069300D01*
X0387382Y0069872D02*
X0383555Y0069872D01*
X0388158Y0065937D02*
X0375279Y0065937D01*
X0373555Y0069872D02*
X0377382Y0069872D01*
X0377701Y0062001D02*
X0384272Y0062001D01*
X0383200Y0058066D02*
X0382926Y0058066D01*
X0380469Y0058066D02*
X0380468Y0058066D01*
X0378011Y0058066D02*
X0377737Y0058066D01*
X0380468Y0054130D02*
X0380469Y0054130D01*
X0380468Y0050195D02*
X0380469Y0050195D01*
X0380468Y0046259D02*
X0380469Y0046259D01*
X0380468Y0042324D02*
X0380469Y0042324D01*
X0381056Y0042324D02*
X0383896Y0042324D01*
X0379881Y0042324D02*
X0377041Y0042324D01*
X0360469Y0050195D02*
X0360468Y0050195D01*
X0360468Y0054130D02*
X0360469Y0054130D01*
X0360468Y0058066D02*
X0360469Y0058066D01*
X0435801Y0046259D02*
X0470700Y0046259D01*
X0520922Y0034453D02*
X0525015Y0034453D01*
X0243063Y0215487D02*
X0221890Y0215487D01*
X0221290Y0219422D02*
X0243063Y0219422D01*
X0243063Y0223358D02*
X0218890Y0223358D01*
X0212969Y0223358D02*
X0212968Y0223358D01*
X0207047Y0223358D02*
X0148442Y0223358D01*
X0148591Y0223134D02*
X0148266Y0223621D01*
X0147853Y0224034D01*
X0147367Y0224359D01*
X0146827Y0224583D01*
X0146253Y0224697D01*
X0127437Y0224697D01*
X0127437Y0202437D01*
X0148929Y0202437D01*
X0148929Y0222021D01*
X0148815Y0222594D01*
X0148591Y0223134D01*
X0148929Y0219422D02*
X0204647Y0219422D01*
X0204047Y0215487D02*
X0148929Y0215487D01*
X0148929Y0211551D02*
X0185868Y0211551D01*
X0183650Y0207616D02*
X0148929Y0207616D01*
X0148929Y0203680D02*
X0183502Y0203680D01*
X0127437Y0203680D02*
X0123500Y0203680D01*
X0123500Y0207616D02*
X0127437Y0207616D01*
X0127437Y0211551D02*
X0123500Y0211551D01*
X0123500Y0215487D02*
X0127437Y0215487D01*
X0127437Y0219422D02*
X0123500Y0219422D01*
X0123500Y0223358D02*
X0127437Y0223358D01*
X0098796Y0227293D02*
X0243063Y0227293D01*
X0127437Y0191873D02*
X0123500Y0191873D01*
X0123500Y0187938D02*
X0127437Y0187938D01*
X0127437Y0184002D02*
X0123500Y0184002D01*
X0123500Y0180067D02*
X0127437Y0180067D01*
X0102008Y0195809D02*
X0100407Y0195809D01*
X0090700Y0184002D02*
X0089731Y0184002D01*
X0090700Y0180067D02*
X0076102Y0180067D01*
X0076102Y0176131D02*
X0090700Y0176131D01*
X0090700Y0172196D02*
X0077198Y0172196D01*
X0081340Y0168260D02*
X0090700Y0168260D01*
X0090700Y0164325D02*
X0082787Y0164325D01*
X0082463Y0160389D02*
X0092769Y0160389D01*
X0096704Y0156454D02*
X0080577Y0156454D01*
X0076423Y0152518D02*
X0100640Y0152518D01*
X0104575Y0148583D02*
X0079677Y0148583D01*
X0081183Y0144647D02*
X0106547Y0144647D01*
X0106547Y0140712D02*
X0081437Y0140712D01*
X0080532Y0136776D02*
X0106547Y0136776D01*
X0106547Y0132841D02*
X0077931Y0132841D01*
X0082668Y0184002D02*
X0082669Y0184002D01*
X0059835Y0187938D02*
X0051707Y0187938D01*
X0053437Y0189668D02*
X0053437Y0192968D01*
X0045469Y0192968D01*
X0045469Y0185000D01*
X0048769Y0185000D01*
X0053437Y0189668D01*
X0053437Y0191873D02*
X0059835Y0191873D01*
X0059835Y0195809D02*
X0053437Y0195809D01*
X0053437Y0196269D02*
X0048769Y0200937D01*
X0045469Y0200937D01*
X0045469Y0192969D01*
X0053437Y0192969D01*
X0053437Y0196269D01*
X0049962Y0199744D02*
X0059835Y0199744D01*
X0060495Y0203680D02*
X0051317Y0203680D01*
X0045469Y0199744D02*
X0045468Y0199744D01*
X0045468Y0195809D02*
X0045469Y0195809D01*
X0045468Y0191873D02*
X0045469Y0191873D01*
X0045468Y0187938D02*
X0045469Y0187938D01*
X0089583Y0337488D02*
X0089583Y0337488D01*
X0089583Y0341423D02*
X0089583Y0341423D01*
X0125390Y0368972D02*
X0130418Y0368972D01*
X0103000Y0376843D02*
X0036622Y0376843D01*
X0034889Y0380778D02*
X0103000Y0380778D01*
X0103000Y0384714D02*
X0031236Y0384714D01*
X0018029Y0386764D02*
X0017773Y0386686D01*
X0016460Y0386142D01*
X0015206Y0385472D01*
X0014024Y0384682D01*
X0012925Y0383781D01*
X0011920Y0382775D01*
X0011018Y0381677D01*
X0010229Y0380495D01*
X0009558Y0379241D01*
X0009014Y0377927D01*
X0008937Y0377672D01*
X0008937Y0386764D01*
X0018029Y0386764D01*
X0014071Y0384714D02*
X0008937Y0384714D01*
X0008937Y0380778D02*
X0010418Y0380778D01*
D35*
X0110469Y0215469D03*
X0115469Y0215469D03*
X0120469Y0215469D03*
X0125469Y0215469D03*
X0130469Y0215469D03*
X0135469Y0215469D03*
X0140469Y0215469D03*
X0140469Y0207969D03*
X0135469Y0207969D03*
X0130469Y0207969D03*
X0125469Y0207969D03*
X0120469Y0207969D03*
X0115469Y0207969D03*
X0110469Y0207969D03*
X0110469Y0200469D03*
X0115469Y0200469D03*
X0120469Y0200469D03*
X0125469Y0200469D03*
X0130469Y0200469D03*
X0135469Y0200469D03*
X0140469Y0200469D03*
X0140469Y0192969D03*
X0135469Y0192969D03*
X0130469Y0192969D03*
X0125469Y0192969D03*
X0120469Y0192969D03*
X0115469Y0192969D03*
X0110469Y0192969D03*
X0110469Y0185469D03*
X0115469Y0185469D03*
X0120469Y0185469D03*
X0125469Y0185469D03*
X0130469Y0185469D03*
X0135469Y0185469D03*
X0140469Y0185469D03*
D36*
X0157969Y0197969D03*
X0202969Y0222969D03*
X0235469Y0222969D03*
X0277969Y0220469D03*
X0300469Y0200469D03*
X0300469Y0192969D03*
X0272969Y0175469D03*
X0287969Y0157969D03*
X0295469Y0150469D03*
X0305469Y0150469D03*
X0310469Y0157969D03*
X0277969Y0137969D03*
X0277969Y0120469D03*
X0277969Y0105469D03*
X0232969Y0105469D03*
X0232969Y0120469D03*
X0232969Y0142969D03*
X0187969Y0120469D03*
X0187969Y0105469D03*
X0137969Y0075469D03*
X0090469Y0095469D03*
X0067969Y0095469D03*
X0042969Y0095469D03*
X0067969Y0070469D03*
X0067969Y0120469D03*
X0145469Y0140469D03*
X0180469Y0145469D03*
X0225469Y0187969D03*
X0292969Y0250469D03*
X0325469Y0245469D03*
X0350469Y0252969D03*
X0377969Y0265469D03*
X0390469Y0290469D03*
X0367969Y0305469D03*
X0340469Y0300469D03*
X0340469Y0292969D03*
X0340469Y0285469D03*
X0277969Y0322969D03*
X0260469Y0290469D03*
X0232969Y0267969D03*
X0190469Y0257969D03*
X0155469Y0267969D03*
X0140469Y0260469D03*
X0125469Y0260469D03*
X0117969Y0280469D03*
X0102969Y0302969D03*
X0130469Y0322969D03*
X0137969Y0330469D03*
X0152969Y0322969D03*
X0160469Y0315469D03*
X0222969Y0317969D03*
X0222969Y0310469D03*
X0222969Y0302969D03*
X0192969Y0362969D03*
X0095469Y0340469D03*
X0092969Y0332969D03*
X0085469Y0332969D03*
X0082969Y0340469D03*
X0065469Y0380469D03*
X0017969Y0342969D03*
X0017969Y0310469D03*
X0017969Y0280469D03*
X0062969Y0282969D03*
X0092969Y0255469D03*
X0052969Y0235469D03*
X0045469Y0235469D03*
X0037969Y0235469D03*
X0090469Y0200469D03*
X0052969Y0182969D03*
X0045469Y0182969D03*
X0037969Y0182969D03*
X0110469Y0017969D03*
X0115469Y0017969D03*
X0120469Y0017969D03*
X0135469Y0017969D03*
X0177969Y0017969D03*
X0222969Y0017969D03*
X0345469Y0092969D03*
X0345469Y0097969D03*
X0350469Y0112969D03*
X0360469Y0130469D03*
X0395469Y0117969D03*
X0397969Y0127969D03*
X0405469Y0127969D03*
X0397969Y0155469D03*
X0392969Y0170469D03*
X0387969Y0170469D03*
X0387969Y0177969D03*
X0390469Y0187969D03*
X0390469Y0200469D03*
X0390469Y0222969D03*
X0350469Y0222969D03*
X0332969Y0200469D03*
X0332969Y0195469D03*
X0340469Y0185469D03*
X0345469Y0185469D03*
X0360469Y0177969D03*
X0375469Y0172969D03*
X0365469Y0165469D03*
X0417969Y0165469D03*
X0432969Y0192969D03*
X0452969Y0210469D03*
X0477969Y0195469D03*
X0497969Y0205469D03*
X0510469Y0192969D03*
X0515469Y0192969D03*
X0520469Y0187969D03*
X0527969Y0172969D03*
X0527969Y0167969D03*
X0547969Y0160469D03*
X0570469Y0177969D03*
X0547969Y0192969D03*
X0520469Y0205469D03*
X0507969Y0225469D03*
X0497969Y0240469D03*
X0520469Y0240469D03*
X0557969Y0262969D03*
X0510469Y0280469D03*
X0452969Y0290469D03*
X0425469Y0310469D03*
X0420469Y0310469D03*
X0415469Y0310469D03*
X0450469Y0317969D03*
X0502969Y0327969D03*
X0532969Y0325469D03*
X0542969Y0335469D03*
X0510469Y0357969D03*
X0555469Y0380469D03*
X0427969Y0370469D03*
X0415469Y0380469D03*
X0370469Y0357969D03*
X0332969Y0357969D03*
X0432969Y0247969D03*
X0450469Y0247969D03*
X0497969Y0167969D03*
X0492969Y0160469D03*
X0485469Y0160469D03*
X0472969Y0160469D03*
X0465469Y0165469D03*
X0452969Y0137969D03*
X0465469Y0122969D03*
X0452969Y0115469D03*
X0460469Y0107969D03*
X0467969Y0097969D03*
X0467969Y0092969D03*
X0460469Y0087969D03*
X0452969Y0092969D03*
X0480469Y0122969D03*
X0497969Y0122969D03*
X0515469Y0122969D03*
X0517969Y0097969D03*
X0547969Y0097969D03*
X0570469Y0107969D03*
X0570469Y0087969D03*
X0532969Y0072969D03*
X0517969Y0072969D03*
X0557969Y0052969D03*
X0590469Y0060469D03*
X0545469Y0022969D03*
X0545469Y0017969D03*
X0540469Y0012969D03*
X0535469Y0012969D03*
X0515469Y0010469D03*
X0505469Y0010469D03*
X0490469Y0010469D03*
X0480469Y0010469D03*
X0470469Y0012969D03*
X0465469Y0012969D03*
X0460469Y0017969D03*
X0460469Y0022969D03*
X0460469Y0050469D03*
X0465469Y0057969D03*
X0437969Y0055469D03*
X0437969Y0047969D03*
X0387969Y0095469D03*
X0370469Y0095469D03*
X0352969Y0050469D03*
X0360469Y0040469D03*
X0552969Y0137969D03*
X0562969Y0137969D03*
X0587969Y0147969D03*
D37*
X0252969Y0235469D02*
X0095469Y0235469D01*
X0082969Y0222969D01*
X0082969Y0214169D01*
X0082669Y0213869D01*
X0046369Y0213869D01*
X0045469Y0212969D01*
X0067969Y0200469D02*
X0067969Y0162969D01*
X0067969Y0141925D01*
X0067969Y0200469D02*
X0074669Y0207169D01*
X0082669Y0207169D01*
X0082669Y0200469D02*
X0090469Y0200469D01*
X0067969Y0049012D02*
X0069012Y0047969D01*
D38*
X0115469Y0047969D02*
X0115469Y0134228D01*
X0115469Y0141709D02*
X0115469Y0147969D01*
X0097969Y0165469D01*
X0097969Y0187969D01*
X0092169Y0193769D01*
X0082669Y0193769D01*
X0127969Y0270469D02*
X0127969Y0284228D01*
X0127969Y0291709D02*
X0127969Y0320469D01*
X0130469Y0322969D01*
X0137969Y0330469D02*
X0137969Y0311709D01*
X0137969Y0304228D02*
X0137969Y0270469D01*
X0127969Y0270469D02*
X0126969Y0271469D01*
X0090469Y0271469D01*
X0137969Y0304228D02*
X0155469Y0304209D01*
X0155469Y0296728D02*
X0155469Y0281709D01*
X0152969Y0322969D02*
X0152969Y0340469D01*
X0159469Y0346969D01*
X0159469Y0380469D01*
X0152969Y0340469D02*
X0141709Y0340469D01*
X0134228Y0340469D02*
X0116469Y0340469D01*
X0308913Y0291413D02*
X0310469Y0292969D01*
X0308913Y0291413D02*
X0308913Y0197969D01*
X0308913Y0182669D01*
X0309069Y0182669D01*
X0290869Y0182669D02*
X0290869Y0171728D01*
X0342969Y0171728D01*
X0342969Y0165469D01*
X0352969Y0155469D01*
X0360469Y0155469D01*
X0380469Y0137969D02*
X0380469Y0212969D01*
X0370469Y0212969D02*
X0370469Y0191728D01*
X0369209Y0190469D01*
X0361728Y0190469D02*
X0360469Y0191728D01*
X0360469Y0212969D01*
X0345469Y0212969D01*
X0340469Y0217969D01*
X0340469Y0224228D01*
X0340469Y0231709D02*
X0340469Y0245429D01*
X0340094Y0245803D01*
X0340469Y0231709D02*
X0376709Y0231709D01*
X0380469Y0235469D01*
X0384228Y0231709D01*
X0440469Y0231709D01*
X0440469Y0224228D02*
X0440469Y0217969D01*
X0435469Y0212969D01*
X0420469Y0212969D01*
X0420469Y0191728D01*
X0419209Y0190469D01*
X0411728Y0190469D02*
X0410469Y0191728D01*
X0410469Y0212969D01*
X0400469Y0212969D02*
X0400469Y0185469D01*
X0407969Y0177969D01*
X0387969Y0177969D01*
X0407969Y0177969D02*
X0485469Y0177969D01*
X0485469Y0169209D01*
X0485469Y0177969D02*
X0495350Y0177969D01*
X0497969Y0175350D01*
X0497969Y0167969D01*
X0495350Y0177969D02*
X0502634Y0185252D01*
X0507634Y0176591D02*
X0507634Y0161394D01*
X0506709Y0160469D01*
X0519228Y0160469D02*
X0519228Y0154228D01*
X0517969Y0152969D01*
X0522969Y0147969D01*
X0517969Y0152969D02*
X0515469Y0150469D01*
X0390469Y0150469D01*
X0390469Y0137969D01*
X0390469Y0150469D02*
X0390469Y0156728D01*
X0391728Y0155469D01*
X0397969Y0155469D01*
X0420469Y0137969D02*
X0420469Y0130469D01*
X0405469Y0115469D01*
X0410469Y0107969D02*
X0410469Y0080469D01*
X0400469Y0080469D02*
X0400469Y0107969D01*
X0415469Y0115469D02*
X0430469Y0130469D01*
X0430469Y0137969D01*
X0440469Y0137969D02*
X0440469Y0130469D01*
X0425469Y0115469D01*
X0430469Y0107969D02*
X0430469Y0080469D01*
X0420469Y0080469D02*
X0420469Y0107969D01*
X0440469Y0107969D02*
X0440469Y0077969D01*
X0420469Y0057969D01*
X0420469Y0050469D01*
X0410469Y0050469D02*
X0410469Y0057969D01*
X0425469Y0072969D01*
X0415469Y0072969D02*
X0400469Y0057969D01*
X0400469Y0050469D01*
X0390469Y0050469D02*
X0390469Y0057969D01*
X0405469Y0072969D01*
X0370469Y0060469D02*
X0370469Y0050469D01*
X0370469Y0060469D02*
X0360469Y0070469D01*
X0360469Y0080469D01*
X0360469Y0094209D01*
X0359209Y0095469D01*
X0380469Y0107969D02*
X0380469Y0120469D01*
X0375469Y0125469D01*
X0467969Y0079228D02*
X0467969Y0070469D01*
X0497969Y0070469D02*
X0497969Y0022969D01*
X0487969Y0022969D02*
X0487969Y0107969D01*
X0497969Y0107969D02*
X0497969Y0086709D01*
X0497969Y0079228D02*
X0497969Y0070469D01*
X0517969Y0086709D02*
X0528638Y0086709D01*
X0529228Y0087299D01*
X0529228Y0096709D01*
X0527969Y0097969D01*
X0527969Y0107969D01*
X0537969Y0107969D02*
X0537969Y0117969D01*
X0532969Y0122969D01*
X0527969Y0122969D01*
X0522969Y0127969D01*
X0527969Y0137969D02*
X0527969Y0142969D01*
X0536709Y0151709D01*
X0557969Y0151709D01*
X0557969Y0166728D01*
X0557969Y0174209D02*
X0557969Y0202969D01*
X0560169Y0205169D01*
X0562166Y0205169D01*
X0519228Y0174996D02*
X0517634Y0176591D01*
X0519228Y0174996D02*
X0519228Y0160469D01*
X0507969Y0107969D02*
X0507969Y0022969D01*
X0477969Y0022969D02*
X0477969Y0107969D01*
X0536709Y0096709D02*
X0536709Y0087299D01*
X0537378Y0087969D01*
X0556728Y0087969D01*
X0537969Y0097969D02*
X0537969Y0107969D01*
X0556728Y0107969D01*
X0537969Y0097969D02*
X0536709Y0096709D01*
X0380469Y0235469D02*
X0380469Y0242969D01*
X0370469Y0242969D02*
X0370469Y0264209D01*
X0369209Y0265469D01*
X0369209Y0280469D01*
X0361728Y0265469D02*
X0360469Y0264209D01*
X0360469Y0242969D01*
X0377969Y0265469D02*
X0389228Y0265469D01*
X0390469Y0264228D01*
X0390469Y0242969D01*
X0420469Y0242969D02*
X0420469Y0264228D01*
X0420469Y0271709D02*
X0420469Y0283969D01*
X0525469Y0319209D02*
X0525469Y0325469D01*
X0532969Y0325469D01*
X0525469Y0325469D02*
X0525469Y0334228D01*
X0525469Y0341709D02*
X0525469Y0362969D01*
X0534219Y0371719D01*
X0489469Y0355469D02*
X0471709Y0355469D01*
X0464228Y0355469D02*
X0445469Y0355469D01*
X0316728Y0197969D02*
X0308913Y0197969D01*
D39*
X0312969Y0335469D02*
X0477969Y0335469D01*
X0489469Y0346969D01*
X0489469Y0355469D01*
X0489469Y0380469D01*
X0525469Y0380469D01*
X0534219Y0371719D01*
X0565469Y0340469D01*
X0565769Y0340169D01*
X0587969Y0340169D01*
X0565469Y0340469D02*
X0565469Y0320469D01*
X0587969Y0320469D01*
X0577669Y0300769D02*
X0565469Y0312969D01*
X0565469Y0320469D01*
X0577669Y0300769D02*
X0587969Y0300769D01*
X0551492Y0235843D02*
X0551492Y0225843D01*
X0551492Y0215843D01*
X0562166Y0205169D01*
X0587969Y0205169D01*
X0587969Y0185469D01*
X0587969Y0165769D01*
X0312969Y0335469D02*
X0288469Y0359969D01*
X0288469Y0381469D01*
D40*
X0420469Y0292969D02*
X0430469Y0292969D01*
X0445469Y0277969D01*
X0445469Y0265469D01*
X0445469Y0355469D02*
X0445469Y0379469D01*
X0446469Y0380469D01*
X0212969Y0214228D02*
X0212969Y0205469D01*
X0252969Y0205469D01*
X0212969Y0205469D02*
X0195469Y0205469D01*
X0116469Y0296469D02*
X0100469Y0280469D01*
X0090469Y0280469D01*
X0090469Y0289469D02*
X0090469Y0301866D01*
X0089583Y0301866D01*
X0116469Y0296469D02*
X0116469Y0340469D01*
X0116469Y0380469D01*
X0146709Y0025469D02*
X0162969Y0025469D01*
X0189209Y0025843D02*
X0207969Y0025843D01*
X0234209Y0025843D02*
X0252969Y0025843D01*
D41*
X0405469Y0072969D02*
X0405469Y0115469D01*
X0415469Y0115469D02*
X0415469Y0072969D01*
X0425469Y0072969D02*
X0425469Y0115469D01*
X0375469Y0125469D02*
X0375469Y0172969D01*
X0522969Y0147969D02*
X0522969Y0127969D01*
D42*
X0497969Y0070469D03*
X0467969Y0070469D03*
X0360469Y0155469D03*
D43*
X0267969Y0113343D02*
X0252969Y0113343D01*
X0252969Y0095843D01*
X0252969Y0085843D01*
X0252969Y0075843D01*
X0252969Y0065843D01*
X0252969Y0055843D01*
X0252969Y0045843D01*
X0252969Y0035843D01*
X0252969Y0025843D01*
X0207969Y0025843D02*
X0207969Y0035843D01*
X0207969Y0045843D01*
X0207969Y0055843D01*
X0207969Y0065843D01*
X0207969Y0075843D01*
X0207969Y0085843D01*
X0207969Y0095843D01*
X0207969Y0112969D01*
X0207969Y0185469D01*
X0195469Y0185469D01*
X0252969Y0185469D02*
X0252969Y0113343D01*
X0222969Y0113343D02*
X0208343Y0113343D01*
X0208306Y0113341D01*
X0208270Y0113336D01*
X0208234Y0113327D01*
X0208200Y0113315D01*
X0208167Y0113299D01*
X0208135Y0113280D01*
X0208106Y0113258D01*
X0208079Y0113233D01*
X0208054Y0113206D01*
X0208032Y0113177D01*
X0208013Y0113145D01*
X0207997Y0113112D01*
X0207985Y0113078D01*
X0207976Y0113042D01*
X0207971Y0113006D01*
X0207969Y0112969D01*
X0177969Y0112969D02*
X0162969Y0097969D01*
X0162969Y0095469D01*
X0162969Y0085469D01*
X0162969Y0075469D01*
X0162969Y0065469D01*
X0162969Y0055469D01*
X0162969Y0045469D01*
X0162969Y0035469D01*
X0162969Y0025469D01*
X0132969Y0047969D02*
X0140469Y0055469D01*
X0162969Y0055469D01*
X0132969Y0047969D02*
X0115469Y0047969D01*
X0114425Y0049012D01*
X0067969Y0049012D01*
X0252969Y0205469D02*
X0252969Y0235469D01*
X0310469Y0292969D01*
M02*
